<svg width="32" height="32" viewBox="0 0 32 32" fill="none" xmlns="http://www.w3.org/2000/svg">
<path d="M27.9398 4.40681H26.4543C26.3522 4.14325 26.0967 3.9555 25.7975 3.9555C25.5115 3.9555 25.3987 3.73675 25.3708 3.66969C25.343 3.60262 25.2682 3.36812 25.4704 3.16594C25.536 3.10065 25.5881 3.02299 25.6235 2.93745C25.6589 2.85191 25.677 2.7602 25.6768 2.66762C25.6768 2.47944 25.6035 2.3025 25.4704 2.16931L24.8953 1.59419C24.6205 1.3195 24.1735 1.31944 23.8987 1.59419C23.6965 1.7965 23.462 1.72162 23.395 1.69381C23.3279 1.66606 23.1092 1.55319 23.1092 1.26712C23.1092 0.878625 22.793 0.5625 22.4045 0.5625H21.5912C21.2027 0.5625 20.8867 0.878625 20.8867 1.26712C20.8867 1.55319 20.6679 1.66606 20.6008 1.69381C20.5338 1.72156 20.2993 1.79644 20.097 1.59406C19.8222 1.3195 19.3752 1.3195 19.1005 1.59412L18.5253 2.16931C18.4597 2.23461 18.4077 2.31226 18.3723 2.39778C18.3369 2.48331 18.3188 2.575 18.319 2.66756C18.3188 2.76013 18.3369 2.85183 18.3723 2.93736C18.4077 3.02288 18.4598 3.10053 18.5254 3.16581C18.7277 3.36806 18.6528 3.60256 18.625 3.66962C18.5973 3.73669 18.4844 3.95544 18.1983 3.95544C17.8992 3.95544 17.6437 4.14312 17.5416 4.40675H4.56878C3.27078 4.40675 2.21484 5.46275 2.21484 6.76069V22.0845C2.21484 23.3825 3.27084 24.4384 4.56878 24.4384H12.103C12.0808 25.8907 11.7317 27.3522 11.3398 28.2294H9.76016C8.87572 28.2294 8.15609 28.9489 8.15609 29.8334C8.15609 30.7179 8.87572 31.4375 9.76016 31.4375H22.2397C23.1242 31.4375 23.8437 30.718 23.8437 29.8335C23.8437 28.949 23.1242 28.2294 22.2397 28.2294H20.6555C20.2452 27.337 19.8735 25.8705 19.8381 24.4385H27.4311C28.7291 24.4385 29.7851 23.3825 29.7851 22.0845V6.25237C29.785 5.23469 28.9572 4.40681 27.9398 4.40681ZM18.3687 4.82025C18.8454 4.76206 19.2445 4.46069 19.4334 4.00456C19.6223 3.5485 19.5533 3.05319 19.2573 2.67494L19.6061 2.32619C19.9843 2.62212 20.4796 2.69119 20.9357 2.50231C21.3918 2.31337 21.6933 1.91431 21.7514 1.43756H22.2445C22.3027 1.91425 22.6042 2.31337 23.0602 2.50231C23.5163 2.69125 24.0117 2.62212 24.3898 2.32619L24.7386 2.67494C24.4427 3.05319 24.3736 3.5485 24.5625 4.00456C24.7514 4.46062 25.1505 4.76206 25.6272 4.82025V5.31337C25.1505 5.37156 24.7515 5.67294 24.5625 6.12906C24.3736 6.58512 24.4427 7.0805 24.7386 7.45869L24.3898 7.80744C24.0117 7.5115 23.5163 7.4425 23.0602 7.63131C22.6042 7.82025 22.3027 8.21931 22.2445 8.696H21.7515C21.6933 8.21881 21.392 7.81956 20.936 7.63069C20.48 7.44175 19.9845 7.51106 19.6061 7.80744L19.2573 7.45869C19.5533 7.08044 19.6223 6.58512 19.4334 6.12906C19.2445 5.673 18.8454 5.37156 18.3687 5.31337V4.82025ZM4.56878 5.28181H17.4937V5.47344C17.4937 5.86194 17.8098 6.17806 18.1983 6.17806C18.4844 6.17806 18.5972 6.39681 18.625 6.46387C18.6528 6.53094 18.7277 6.76544 18.5254 6.96769C18.2507 7.24244 18.2507 7.68944 18.5254 7.96419L19.1005 8.53931C19.3753 8.81406 19.8222 8.81406 20.097 8.53931C20.2998 8.33656 20.5342 8.41131 20.6011 8.43906C20.6681 8.46681 20.8867 8.57962 20.8867 8.86637C20.8867 9.25487 21.2027 9.571 21.5912 9.571H22.4045C22.793 9.571 23.1092 9.25487 23.1092 8.86637C23.1092 8.58031 23.3279 8.4675 23.395 8.43969C23.462 8.41194 23.6965 8.337 23.8988 8.53937C24.1737 8.81412 24.6207 8.81406 24.8953 8.53931L25.4705 7.96419C25.7452 7.68944 25.7452 7.24244 25.4705 6.96769C25.2682 6.76544 25.3431 6.53094 25.3708 6.46387C25.3986 6.39681 25.5115 6.17806 25.7975 6.17806C26.186 6.17806 26.5022 5.86194 26.5022 5.47344V5.28181H27.9397C28.4747 5.28181 28.91 5.71719 28.91 6.25237V19.7515H3.08978V6.76075C3.08978 5.94525 3.75328 5.28181 4.56878 5.28181ZM22.9687 29.8335C22.9687 30.2355 22.6417 30.5625 22.2397 30.5625H9.76016C9.35816 30.5625 9.03109 30.2355 9.03109 29.8335C9.03109 29.4315 9.35816 29.1044 9.76016 29.1044H22.2397C22.6417 29.1044 22.9687 29.4315 22.9687 29.8335ZM19.7035 28.2294H12.2872C12.6961 27.1587 12.9582 25.735 12.9778 24.4385H18.963C18.9935 25.7198 19.2744 27.1444 19.7035 28.2294ZM27.431 23.5635H4.56878C3.75328 23.5635 3.08984 22.9 3.08984 22.0845V20.6264H28.91V22.0845C28.91 22.9 28.2465 23.5635 27.431 23.5635ZM17.491 22.095C17.491 22.211 17.4449 22.3223 17.3629 22.4043C17.2808 22.4864 17.1696 22.5325 17.0535 22.5325H14.9463C14.8302 22.5325 14.719 22.4864 14.6369 22.4043C14.5549 22.3223 14.5088 22.211 14.5088 22.095C14.5088 21.9789 14.5549 21.8677 14.6369 21.7856C14.719 21.7036 14.8302 21.6575 14.9463 21.6575H17.0535C17.1696 21.6575 17.2808 21.7036 17.3629 21.7856C17.4449 21.8677 17.491 21.9789 17.491 22.095ZM21.998 7.45825C23.3167 7.45825 24.3895 6.38544 24.3895 5.06681C24.3895 3.74812 23.3167 2.67531 21.998 2.67531C20.6793 2.67531 19.6065 3.74812 19.6065 5.06681C19.6065 6.38544 20.6793 7.45825 21.998 7.45825ZM21.998 3.55031C22.8342 3.55031 23.5145 4.23062 23.5145 5.06681C23.5145 5.903 22.8342 6.58325 21.998 6.58325C21.1618 6.58325 20.4815 5.903 20.4815 5.06681C20.4815 4.23062 21.1618 3.55031 21.998 3.55031ZM6.02828 13.854C6.34753 13.854 6.61128 14.0305 6.73378 14.3263C6.85628 14.622 6.79466 14.9334 6.56897 15.1592C6.49497 15.2328 6.4363 15.3203 6.39636 15.4167C6.35642 15.5131 6.336 15.6165 6.33628 15.7209C6.33628 15.933 6.41891 16.1325 6.56891 16.2825L7.33703 17.0506C7.64672 17.3603 8.15066 17.3603 8.46034 17.0506C8.68659 16.8244 8.99809 16.7625 9.29353 16.8849C9.58909 17.0073 9.76553 17.2714 9.76553 17.5912C9.76553 18.0292 10.1218 18.3855 10.5598 18.3855H11.646C12.0839 18.3855 12.4402 18.0292 12.4402 17.5912C12.4402 17.272 12.6168 17.0082 12.9125 16.8857C13.2083 16.7633 13.5197 16.8249 13.7453 17.0505C13.8953 17.2005 14.0948 17.2832 14.307 17.2832C14.5192 17.2832 14.7187 17.2006 14.8687 17.0506L15.6367 16.2825C15.7867 16.1325 15.8694 15.933 15.8694 15.7209C15.8694 15.5086 15.7868 15.3092 15.6368 15.1592C15.411 14.9335 15.3494 14.6221 15.4719 14.3264C15.5944 14.0306 15.8582 13.854 16.1774 13.854C16.6153 13.854 16.9717 13.4977 16.9717 13.0598V11.9736C16.9717 11.5357 16.6153 11.1794 16.1774 11.1794C15.8582 11.1794 15.5944 11.0028 15.4719 10.707C15.3494 10.4113 15.411 10.0999 15.6368 9.87419C15.9465 9.5645 15.9465 9.06062 15.6368 8.75087L14.8687 7.98275C14.559 7.67312 14.055 7.67312 13.7454 7.98275C13.5197 8.20844 13.2084 8.27012 12.9125 8.14762C12.6168 8.02512 12.4402 7.76137 12.4402 7.44219C12.4402 7.00425 12.0839 6.64794 11.646 6.64794H10.5598C10.1218 6.64794 9.76553 7.00425 9.76553 7.44219C9.76553 7.76137 9.58897 8.02512 9.29322 8.14762C8.99747 8.27012 8.68609 8.20856 8.46028 7.98275C8.15059 7.67319 7.64672 7.67312 7.33703 7.98275L6.56891 8.75087C6.25922 9.06062 6.25928 9.5645 6.56891 9.87419C6.79466 10.0999 6.85628 10.4112 6.73378 10.707C6.61128 11.0027 6.34753 11.1794 6.02828 11.1794C5.59034 11.1794 5.23403 11.5357 5.23403 11.9736V13.0598C5.23403 13.4977 5.59034 13.854 6.02828 13.854ZM6.10903 12.0524C6.74941 12.0227 7.29391 11.6412 7.54216 11.0417C7.79047 10.4422 7.67522 9.7875 7.24341 9.31375L7.89997 8.65712C8.37372 9.089 9.02853 9.20419 9.62803 8.95594C10.2275 8.70762 10.609 8.16312 10.6386 7.52281H11.5671C11.5967 8.16319 11.9782 8.70762 12.5777 8.95594C13.1771 9.20419 13.8319 9.089 14.3057 8.65712L14.9623 9.31375C14.5304 9.7875 14.4152 10.4422 14.6635 11.0417C14.9118 11.6412 15.4563 12.0227 16.0967 12.0524V12.9808C15.4563 13.0104 14.9118 13.3919 14.6635 13.9914C14.4152 14.5909 14.5304 15.2456 14.9623 15.7194L14.3057 16.376C13.832 15.9442 13.1772 15.8289 12.5777 16.0773C11.9782 16.3256 11.5967 16.87 11.5671 17.5104H10.6387C10.6091 16.8694 10.2277 16.3247 9.62834 16.0764C9.02909 15.8282 8.37416 15.9437 7.89997 16.376L7.24341 15.7194C7.67528 15.2457 7.79047 14.5909 7.54216 13.9914C7.29384 13.3919 6.74941 13.0104 6.10903 12.9808V12.0524ZM11.1029 15.5637C12.7831 15.5637 14.15 14.1968 14.15 12.5166C14.15 10.8364 12.7831 9.4695 11.1029 9.4695C9.42272 9.4695 8.05578 10.8364 8.05578 12.5166C8.05578 14.1968 9.42272 15.5637 11.1029 15.5637ZM11.1029 10.3445C12.3007 10.3445 13.275 11.3189 13.275 12.5166C13.275 13.7144 12.3007 14.6887 11.1029 14.6887C9.90516 14.6887 8.93078 13.7144 8.93078 12.5166C8.93078 11.3189 9.90516 10.3445 11.1029 10.3445ZM18.3737 17.9479C18.3737 17.8319 18.4198 17.7206 18.5019 17.6386C18.5839 17.5565 18.6952 17.5104 18.8112 17.5104H22.9408C23.0569 17.5104 23.1682 17.5565 23.2502 17.6386C23.3323 17.7206 23.3783 17.8319 23.3783 17.9479C23.3783 18.0639 23.3323 18.1752 23.2502 18.2573C23.1682 18.3393 23.0569 18.3854 22.9408 18.3854H18.8112C18.6952 18.3854 18.5839 18.3393 18.5019 18.2573C18.4198 18.1752 18.3737 18.0639 18.3737 17.9479ZM18.3737 12.5166C18.3737 12.4006 18.4198 12.2893 18.5019 12.2072C18.5839 12.1252 18.6952 12.0791 18.8112 12.0791H27.0705C27.1866 12.0791 27.2978 12.1252 27.3799 12.2072C27.4619 12.2893 27.508 12.4006 27.508 12.5166C27.508 12.6326 27.4619 12.7439 27.3799 12.826C27.2978 12.908 27.1866 12.9541 27.0705 12.9541H18.8112C18.6952 12.9541 18.5839 12.908 18.5019 12.826C18.4198 12.7439 18.3737 12.6326 18.3737 12.5166ZM18.3737 15.2322C18.3737 15.1162 18.4198 15.0049 18.5019 14.9229C18.5839 14.8408 18.6952 14.7947 18.8112 14.7947H27.0705C27.1866 14.7947 27.2978 14.8408 27.3799 14.9229C27.4619 15.0049 27.508 15.1162 27.508 15.2322C27.508 15.3483 27.4619 15.4595 27.3799 15.5416C27.2978 15.6236 27.1866 15.6697 27.0705 15.6697H18.8112C18.6952 15.6697 18.5839 15.6236 18.5019 15.5416C18.4198 15.4595 18.3737 15.3483 18.3737 15.2322Z" fill="white"/>
</svg>
