<svg width="27" height="40" viewBox="0 0 27 40" fill="none" xmlns="http://www.w3.org/2000/svg">
<g clip-path="url(#clip0_496_2393)">
<path d="M6.66667 40.0003C10.3467 40.0003 13.3333 37.0137 13.3333 33.3337V26.667H6.66667C2.98667 26.667 0 29.6537 0 33.3337C0 37.0137 2.98667 40.0003 6.66667 40.0003Z" fill="#0ACF83"/>
<path d="M0 19.9997C0 16.3197 2.98667 13.333 6.66667 13.333H13.3333V26.6663H6.66667C2.98667 26.6663 0 23.6797 0 19.9997Z" fill="#A259FF"/>
<path d="M0 6.66667C0 2.98667 2.98667 0 6.66667 0H13.3333V13.3333H6.66667C2.98667 13.3333 0 10.3467 0 6.66667Z" fill="#F24E1E"/>
<path d="M13.333 0H19.9997C23.6797 0 26.6663 2.98667 26.6663 6.66667C26.6663 10.3467 23.6797 13.3333 19.9997 13.3333H13.333V0Z" fill="#FF7262"/>
<path d="M26.6663 19.9997C26.6663 23.6797 23.6797 26.6663 19.9997 26.6663C16.3197 26.6663 13.333 23.6797 13.333 19.9997C13.333 16.3197 16.3197 13.333 19.9997 13.333C23.6797 13.333 26.6663 16.3197 26.6663 19.9997Z" fill="#1ABCFE"/>
</g>
<defs>
<clipPath id="clip0_496_2393">
<rect width="26.6667" height="40" fill="white"/>
</clipPath>
</defs>
</svg>
