<svg width="41" height="40" viewBox="0 0 41 40" fill="none" xmlns="http://www.w3.org/2000/svg">
<g clip-path="url(#clip0_496_2416)">
<path d="M39.5647 16.0569L39.5094 15.9157L34.1631 1.96318C34.0543 1.68967 33.8616 1.45764 33.6128 1.30036C33.3639 1.14573 33.0735 1.07124 32.7809 1.08694C32.4883 1.10264 32.2075 1.20779 31.9766 1.38818C31.7485 1.57398 31.5829 1.82529 31.5022 2.10818L27.8925 13.1526H13.2753L9.66531 2.10818C9.58684 1.82374 9.42088 1.5712 9.19094 1.3863C8.95999 1.20592 8.67924 1.10077 8.38662 1.08507C8.094 1.06936 7.80361 1.14386 7.55469 1.29849C7.30643 1.45641 7.11395 1.68823 7.00437 1.9613L1.64812 15.9076L1.595 16.0488C0.0140625 20.1797 1.35656 24.8588 4.88781 27.5226L4.90625 27.5369L4.95531 27.5716L13.0994 33.6704L17.1284 36.7197L19.5828 38.5729C19.8699 38.7909 20.2204 38.909 20.5809 38.909C20.9414 38.909 21.292 38.7909 21.5791 38.5729L24.0334 36.7197L28.0625 33.6704L36.2556 27.5347L36.2759 27.5185C39.7988 24.8541 41.1391 20.1835 39.5647 16.0569Z" fill="#E24329"/>
<path d="M39.565 16.0573L39.5097 15.916C36.9047 16.4508 34.4499 17.5543 32.3207 19.1476L20.5791 28.026C24.5775 31.051 28.0585 33.6791 28.0585 33.6791L36.2516 27.5435L36.2719 27.5273C39.8004 24.8626 41.1425 20.1873 39.565 16.0573Z" fill="#FC6D26"/>
<path d="M13.0996 33.6785L17.1287 36.7279L19.583 38.581C19.8701 38.7991 20.2207 38.9171 20.5812 38.9171C20.9417 38.9171 21.2922 38.7991 21.5793 38.581L24.0337 36.7279L28.0627 33.6785C28.0627 33.6785 24.5777 31.0423 20.5793 28.0254C18.0845 29.9077 15.5913 31.7921 13.0996 33.6785Z" fill="#FCA326"/>
<path d="M8.835 19.1469C6.70766 17.5501 4.25338 16.4438 1.64812 15.9072L1.595 16.0485C0.0140625 20.1794 1.35656 24.8585 4.88781 27.5222L4.90625 27.5366L4.95531 27.5713L13.0994 33.67L20.5787 28.0169L8.835 19.1469Z" fill="#FC6D26"/>
</g>
<defs>
<clipPath id="clip0_496_2416">
<rect width="40" height="40" fill="white" transform="translate(0.579102)"/>
</clipPath>
</defs>
</svg>
