<svg width="32" height="32" viewBox="0 0 32 32" fill="none" xmlns="http://www.w3.org/2000/svg">
<g clip-path="url(#clip0_496_2177)">
<path d="M7.31081 5.90445C7.43513 5.90445 7.55436 5.85506 7.64227 5.76715C7.73018 5.67925 7.77956 5.56002 7.77956 5.4357C7.77956 5.31138 7.73018 5.19215 7.64227 5.10424C7.55436 5.01633 7.43513 4.96695 7.31081 4.96695C7.18649 4.96695 7.06726 5.01633 6.97936 5.10424C6.89145 5.19215 6.84206 5.31138 6.84206 5.4357C6.84206 5.56002 6.89145 5.67925 6.97936 5.76715C7.06726 5.85506 7.18649 5.90445 7.31081 5.90445ZM3.56081 5.90445C3.68513 5.90445 3.80436 5.85506 3.89227 5.76715C3.98018 5.67925 4.02956 5.56002 4.02956 5.4357C4.02956 5.31138 3.98018 5.19215 3.89227 5.10424C3.80436 5.01633 3.68513 4.96695 3.56081 4.96695C3.43649 4.96695 3.31726 5.01633 3.22936 5.10424C3.14145 5.19215 3.09206 5.31138 3.09206 5.4357C3.09206 5.56002 3.14145 5.67925 3.22936 5.76715C3.31726 5.85506 3.43649 5.90445 3.56081 5.90445ZM5.43581 5.90445C5.56013 5.90445 5.67936 5.85506 5.76727 5.76715C5.85518 5.67925 5.90456 5.56002 5.90456 5.4357C5.90456 5.31138 5.85518 5.19215 5.76727 5.10424C5.67936 5.01633 5.56013 4.96695 5.43581 4.96695C5.31149 4.96695 5.19226 5.01633 5.10436 5.10424C5.01645 5.19215 4.96706 5.31138 4.96706 5.4357C4.96706 5.56002 5.01645 5.67925 5.10436 5.76715C5.19226 5.85506 5.31149 5.90445 5.43581 5.90445ZM5.333 10.8703H5.34163L9.57969 10.8714C9.8725 10.8714 10.1213 10.6817 10.1986 10.3993C10.276 10.1168 10.1586 9.82689 9.90656 9.67782L9.262 9.29645C9.77625 8.78705 10.1835 8.18003 10.4599 7.51104C10.7363 6.84205 10.8762 6.12458 10.8714 5.40076C10.8529 2.46526 8.45025 0.0428231 5.51562 0.000573076C2.47469 -0.0431144 0 2.4167 0 5.43582C0 8.33101 2.3855 10.8076 5.333 10.8703ZM2.27813 2.23207C3.1425 1.38007 4.285 0.921011 5.50219 0.937948C7.9305 0.972886 9.91856 2.97751 9.93394 5.40664C9.93819 6.05397 9.80263 6.69459 9.53651 7.28471C9.27039 7.87483 8.87999 8.40053 8.392 8.82589C8.31045 8.8972 8.24693 8.98681 8.20664 9.08737C8.16635 9.18794 8.15043 9.29661 8.16019 9.40451C8.17023 9.51228 8.20564 9.61614 8.26352 9.70761C8.32139 9.79907 8.4001 9.87554 8.49319 9.93076L8.49788 9.93351L5.34625 9.93276C2.90988 9.88601 0.9375 7.87889 0.9375 5.43582C0.9375 4.22201 1.41363 3.08426 2.27813 2.23207ZM31.5312 31.0625H31.0625V24.0819C31.0625 22.253 29.9818 20.5923 28.3041 19.8486L25.8337 18.7898C26.4348 18.6001 26.9779 18.2618 27.4198 17.7926C28.0864 17.0848 28.4688 16.1244 28.4688 15.1576C28.4688 14.2692 28.1584 13.4307 27.5711 12.7325C26.8358 11.8584 26.4324 10.7529 26.4319 9.6107V7.36445C26.4319 5.39707 25.6657 3.54782 24.2746 2.15739C22.8834 0.766136 21.034 1.05757e-05 19.0669 1.05757e-05C15.0061 1.05757e-05 11.7025 3.30364 11.7025 7.36439V9.53751C11.7028 10.718 11.2388 11.8448 10.4849 12.7531C9.53613 13.8963 9.339 15.4418 9.97056 16.7866C10.4393 17.7849 11.2848 18.5021 12.297 18.8056L9.84387 19.8724C8.12281 20.5966 7.01069 22.2711 7.01069 24.1382V29.6563C7.01069 29.9152 7.2205 30.1251 7.47944 30.1251C7.73837 30.1251 7.94819 29.9152 7.94819 29.6563V24.1382C7.94819 22.6493 8.835 21.314 10.2126 20.7343L13.2875 19.3972V22.2188H11.8748C11.6777 22.2189 11.4827 22.2604 11.3026 22.3406C11.1225 22.4209 10.9613 22.538 10.8293 22.6845C10.6976 22.8312 10.5981 23.0039 10.5373 23.1914C10.4765 23.3789 10.4558 23.5771 10.4764 23.7732L11.2491 31.0625H0.46875C0.209812 31.0625 0 31.2724 0 31.5313C0 31.7901 0.209812 32 0.46875 32H31.5312C31.7902 32 32 31.7901 32 31.5313C32 31.2724 31.7902 31.0625 31.5312 31.0625ZM26.8538 13.3361C27.297 13.863 27.5312 14.4928 27.5312 15.1575C27.5312 15.8879 27.2419 16.6141 26.7373 17.1498C26.2031 17.717 25.4691 18.0294 24.6707 18.0294H24.0598L23.2574 17.6854C22.9163 17.5393 22.619 17.307 22.3949 17.0112C22.1707 16.7155 22.0274 16.3665 21.9789 15.9986C23.4252 15.2198 24.4107 13.6914 24.4107 11.9369V8.41295C24.5475 8.42238 24.6845 8.42717 24.8216 8.42732C25.0471 8.42732 25.2716 8.41451 25.4944 8.38926V9.61064C25.495 10.9737 25.9764 12.293 26.8538 13.3361ZM19.1808 20.7362C17.5071 20.7659 15.8379 20.5535 14.225 20.1056V18.9895L14.3606 18.9306L14.3638 18.9292L15.2001 18.5656C15.6529 18.3688 16.0517 18.066 16.3629 17.6827C16.6741 17.2995 16.8886 16.847 16.9882 16.3634C17.4057 16.4851 17.8383 16.5469 18.2732 16.5469H19.8006C20.2371 16.5469 20.6714 16.4846 21.0903 16.362C21.1932 16.8435 21.4102 17.2933 21.723 17.6735C22.0358 18.0537 22.4353 18.3533 22.8879 18.5471L23.7804 18.9296L23.7821 18.9303L23.8482 18.9586V20.0134C22.3325 20.4654 20.7622 20.7085 19.1808 20.7362ZM23.8481 20.9894V22.2188H14.225V21.0763C15.8472 21.5021 17.5203 21.703 19.1972 21.6736C20.7704 21.6461 22.3336 21.4161 23.8481 20.9894ZM25.4944 7.44401C24.2032 7.61845 22.7478 7.27257 21.745 6.49564C21.6467 6.42051 21.5226 6.38732 21.3999 6.40332C21.2771 6.41932 21.1657 6.4832 21.0899 6.58104C21.0141 6.67887 20.9801 6.80271 20.9952 6.92554C21.0104 7.04837 21.0735 7.16023 21.1708 7.2367C21.8264 7.74457 22.6171 8.10232 23.4732 8.2827V10.8346C23.2479 11.348 22.9972 11.7749 22.4319 12.2413C22.1947 12.4368 21.9334 12.6011 21.6544 12.7301C21.4266 12.2856 20.9639 11.9804 20.431 11.9804H19.3325C18.5748 11.9804 17.9584 12.5969 17.9584 13.3545C17.9584 14.1121 18.5748 14.7286 19.3325 14.7286H20.431C21.0686 14.7286 21.6061 14.2919 21.7604 13.7021C22.3875 13.4631 23.4099 12.6108 23.4102 12.6104C23.0927 14.3146 21.5955 15.6092 19.8007 15.6092H18.2731C16.2481 15.6092 14.6006 13.9618 14.6006 11.9367V8.31332C16.1927 8.06376 17.6967 7.52501 19.0761 6.70914C21.1764 5.46682 22.5236 3.84345 23.3366 2.56089C24.7276 3.79982 25.5189 5.57601 25.4944 7.44401ZM20.8674 13.3558C20.8668 13.596 20.6712 13.7912 20.4309 13.7912H19.3324C19.0917 13.7912 18.8959 13.5953 18.8959 13.3546C18.8959 13.1139 19.0917 12.9181 19.3324 12.9181H20.4309C20.6712 12.9181 20.8666 13.1131 20.8674 13.3532V13.3558ZM12.64 7.36439C12.64 3.82057 15.5231 0.937511 19.0669 0.937511C20.3378 0.937511 21.5523 1.30439 22.5901 1.98739C21.8419 3.1867 20.5826 4.72895 18.5988 5.90245C17.2379 6.70745 15.7451 7.22139 14.1617 7.43001H12.6399L12.64 7.36439ZM10.8191 16.3881C10.3438 15.3758 10.4921 14.2123 11.2058 13.3526C12.1012 12.2738 12.641 10.9408 12.64 9.53751V8.36751H13.6631V11.9369C13.6631 13.6924 14.6498 15.2216 16.0974 15.9999C16.0527 16.3704 15.9118 16.7227 15.6888 17.022C15.4658 17.3212 15.1684 17.5569 14.8262 17.7058L14.0819 18.0294H13.4025C12.2844 18.0294 11.2945 17.4005 10.8191 16.3881ZM27.137 23.6744L26.3538 31.0625H12.1919L11.4087 23.6744C11.4014 23.6091 11.4081 23.5429 11.4284 23.4803C11.4487 23.4178 11.4821 23.3602 11.5263 23.3116C11.57 23.2624 11.6237 23.2232 11.6838 23.1964C11.7439 23.1696 11.809 23.156 11.8748 23.1563H26.6709C26.8055 23.1563 26.9293 23.2114 27.0194 23.3116C27.0636 23.3602 27.097 23.4178 27.1173 23.4803C27.1376 23.5429 27.1443 23.6091 27.137 23.6744ZM30.125 31.0625H27.2966L28.0693 23.7733C28.0899 23.5773 28.0692 23.379 28.0084 23.1915C27.9476 23.0039 27.8481 22.8312 27.7164 22.6846C27.5844 22.5381 27.4232 22.4209 27.2431 22.3407C27.063 22.2605 26.868 22.2189 26.6709 22.2188H24.7856V19.3605L27.9294 20.7079C29.2632 21.2992 30.125 22.6235 30.125 24.0819V31.0625ZM19.2728 25.3281C18.2906 25.3281 17.4916 26.1272 17.4916 27.1094C17.4916 28.0916 18.2906 28.8906 19.2728 28.8906C20.255 28.8906 21.0541 28.0916 21.0541 27.1094C21.0541 26.1272 20.255 25.3281 19.2728 25.3281ZM19.2728 27.9531C18.8076 27.9531 18.4291 27.5746 18.4291 27.1094C18.4291 26.6441 18.8076 26.2656 19.2728 26.2656C19.7381 26.2656 20.1166 26.6441 20.1166 27.1094C20.1166 27.5746 19.7381 27.9531 19.2728 27.9531Z" fill="white"/>
</g>
<defs>
<clipPath id="clip0_496_2177">
<rect width="32" height="32" fill="white"/>
</clipPath>
</defs>
</svg>
