<svg width="32" height="32" viewBox="0 0 32 32" fill="none" xmlns="http://www.w3.org/2000/svg">
<path d="M24.1725 10.7503H22.3115L17.7455 15.3143C17.9027 15.7151 17.9172 16.1578 17.7864 16.568C17.6557 16.9782 17.3876 17.3308 17.0274 17.5667C16.6672 17.8025 16.2368 17.9071 15.8085 17.8629C15.3803 17.8187 14.9803 17.6283 14.6758 17.3239C14.3714 17.0195 14.1811 16.6195 14.1369 16.1912C14.0927 15.763 14.1973 15.3325 14.4331 14.9723C14.6689 14.6121 15.0216 14.3441 15.4318 14.2133C15.842 14.0826 16.2847 14.097 16.6855 14.2543L21.2505 9.68928V7.82828C21.2506 7.57925 21.3495 7.34045 21.5255 7.16428L23.2555 5.43428C23.2874 5.40196 23.3276 5.37901 23.3717 5.3679C23.4157 5.35679 23.462 5.35796 23.5055 5.37128C23.5945 5.39728 23.6605 5.47128 23.6785 5.56228L24.1385 7.86328L26.4385 8.32328C26.5285 8.34127 26.6025 8.40727 26.6285 8.49627C26.6416 8.53951 26.6428 8.58549 26.6319 8.62934C26.6209 8.67318 26.5983 8.71325 26.5665 8.74528L24.8355 10.4753C24.7485 10.5624 24.6451 10.6316 24.5313 10.6788C24.4176 10.726 24.2956 10.7503 24.1725 10.7503Z" fill="white"/>
<path d="M6.625 16C6.625 18.4864 7.61272 20.871 9.37087 22.6291C11.129 24.3873 13.5136 25.375 16 25.375C17.2311 25.375 18.4502 25.1325 19.5877 24.6614C20.7251 24.1902 21.7586 23.4997 22.6291 22.6291C23.4997 21.7586 24.1902 20.7251 24.6614 19.5877C25.1325 18.4502 25.375 17.2311 25.375 16C25.375 15.102 25.249 14.234 25.014 13.413C24.9673 13.2245 24.9955 13.0252 25.0928 12.8571C25.19 12.689 25.3487 12.5651 25.5353 12.5116C25.722 12.4581 25.9222 12.4791 26.0937 12.5702C26.2653 12.6613 26.3948 12.8154 26.455 13C26.729 13.954 26.875 14.96 26.875 16C26.875 22.006 22.006 26.875 16 26.875C9.994 26.875 5.125 22.006 5.125 16C5.125 9.99401 9.994 5.12501 16 5.12501C17.015 5.12401 18.024 5.26501 19 5.54401C19.0952 5.5707 19.1841 5.61594 19.2617 5.67713C19.3393 5.73831 19.4041 5.81423 19.4523 5.90053C19.5005 5.98683 19.5311 6.0818 19.5425 6.17998C19.5538 6.27816 19.5457 6.37762 19.5184 6.47264C19.4912 6.56765 19.4455 6.65635 19.3839 6.73364C19.3223 6.81092 19.246 6.87527 19.1595 6.92297C19.0729 6.97068 18.9778 7.00081 18.8795 7.01163C18.7813 7.02244 18.6819 7.01374 18.587 6.98601C17.7457 6.74573 16.8749 6.62423 16 6.62501C13.5136 6.62501 11.129 7.61273 9.37087 9.37088C7.61272 11.129 6.625 13.5136 6.625 16Z" fill="white"/>
<path d="M11.1247 15.9998C11.1275 16.6621 11.2653 17.3169 11.5296 17.9242C11.7939 18.5315 12.1792 19.0786 12.662 19.532C13.1448 19.9855 13.7149 20.3357 14.3376 20.5615C14.9603 20.7872 15.6224 20.8836 16.2836 20.8449C16.9448 20.8062 17.5912 20.6331 18.1833 20.3363C18.7753 20.0394 19.3007 19.625 19.7273 19.1183C20.1538 18.6116 20.4727 18.0233 20.6643 17.3893C20.8559 16.7553 20.9163 16.0889 20.8417 15.4308C20.8207 15.2975 20.8362 15.161 20.8864 15.0358C20.9367 14.9106 21.0199 14.8013 21.1272 14.7195C21.2345 14.6377 21.362 14.5864 21.496 14.5712C21.6301 14.5559 21.7658 14.5772 21.8887 14.6328C22.1397 14.7448 22.3087 14.9838 22.3307 15.2578C22.486 16.573 22.2277 17.904 21.5916 19.0656C20.9556 20.2273 19.9734 21.1619 18.7817 21.7396C17.59 22.3174 16.2479 22.5095 14.9419 22.2892C13.636 22.069 12.4311 21.4474 11.4947 20.5108C10.5586 19.5752 9.93687 18.3715 9.71567 17.0667C9.49447 15.7618 9.6848 14.4204 10.2603 13.2286C10.8357 12.0368 11.7678 11.0536 12.9272 10.4154C14.0866 9.77714 15.4159 9.51552 16.7307 9.66679C16.8301 9.67601 16.9267 9.70498 17.0147 9.75201C17.1028 9.79903 17.1806 9.86315 17.2435 9.94063C17.3065 10.0181 17.3533 10.1074 17.3813 10.2032C17.4093 10.299 17.4179 10.3994 17.4066 10.4986C17.3953 10.5978 17.3643 10.6937 17.3154 10.7807C17.2666 10.8678 17.2008 10.9442 17.122 11.0055C17.0432 11.0668 16.953 11.1118 16.8566 11.1377C16.7603 11.1637 16.6597 11.1702 16.5607 11.1568C15.8778 11.0778 15.1858 11.1442 14.5303 11.3515C13.8748 11.5589 13.2705 11.9025 12.7572 12.3598C12.2438 12.8172 11.833 13.3779 11.5517 14.0052C11.2703 14.6325 11.1248 15.3123 11.1247 15.9998Z" fill="white"/>
</svg>
