<svg width="46" height="40" viewBox="0 0 46 40" fill="none" xmlns="http://www.w3.org/2000/svg">
<g clip-path="url(#clip0_496_2411)">
<path d="M37.5938 12.9515C37.1159 12.7876 36.6338 12.6356 36.1482 12.4959C36.2298 12.1626 36.3049 11.8333 36.3716 11.5098C37.4659 6.19734 36.7505 1.91751 34.3068 0.50839C31.9638 -0.842487 28.1321 0.56611 24.2623 3.934C23.8809 4.26652 23.5079 4.60862 23.1438 4.95997C22.9001 4.72633 22.652 4.49723 22.3998 4.27278C18.344 0.671724 14.2787 -0.845995 11.8377 0.567162C9.49682 1.92225 8.80366 5.94558 9.78892 10.9803C9.88694 11.479 9.99762 11.975 10.1209 12.468C9.54541 12.6315 8.99015 12.8056 8.45875 12.9908C3.70366 14.6487 0.666992 17.2468 0.666992 19.9417C0.666992 22.7251 3.92699 25.5168 8.87962 27.2096C9.28114 27.3463 9.68601 27.4729 10.0938 27.5894C9.96138 28.1204 9.84379 28.655 9.7412 29.1926C8.8019 34.14 9.53541 38.0682 11.87 39.4147C14.2812 40.8052 18.3282 39.3761 22.2687 35.9314C22.5883 35.6513 22.9008 35.3633 23.2059 35.0677C23.6002 35.4481 24.0051 35.8175 24.42 36.1754C28.2372 39.46 32.007 40.7863 34.3393 39.4361C36.7482 38.0415 37.5312 33.8215 36.5147 28.6873C36.4346 28.2851 36.3448 27.8849 36.2454 27.487C36.5296 27.4028 36.8086 27.3161 37.0805 27.2259C42.2293 25.5201 45.5793 22.7622 45.5793 19.9417C45.5793 17.237 42.4445 14.6214 37.5938 12.9515ZM36.4772 25.4049C36.2316 25.4861 35.9796 25.5645 35.7228 25.6408C35.1544 23.8414 34.3873 21.928 33.4486 19.951C34.3444 18.0212 35.0819 16.1322 35.6344 14.3445C36.0938 14.4775 36.5396 14.6177 36.9694 14.7656C41.1256 16.1965 43.6607 18.3117 43.6607 19.9417C43.6607 21.6779 40.9228 23.9317 36.4772 25.4049ZM34.6326 29.06C35.0821 31.3301 35.1461 33.3828 34.8484 34.9875C34.581 36.4294 34.0431 37.3907 33.3779 37.7758C31.9626 38.5951 28.9358 37.5301 25.6714 34.721C25.2855 34.3883 24.9089 34.0449 24.5421 33.6912C25.8077 32.3072 27.0724 30.6982 28.3068 28.9112C30.478 28.7186 32.5293 28.4035 34.3895 27.9735C34.4791 28.3337 34.5601 28.6959 34.6326 29.06ZM15.9786 37.6342C14.5958 38.1224 13.4944 38.1365 12.8286 37.7526C11.4119 36.9356 10.823 33.7814 11.6263 29.5505C11.7218 29.0505 11.8311 28.5533 11.9542 28.0594C13.7938 28.4665 15.8301 28.7591 18.0065 28.9356C19.2493 30.6842 20.5505 32.2914 21.8619 33.6987C21.5832 33.9684 21.2979 34.2312 21.0063 34.4868C19.2637 36.01 17.5175 37.0907 15.9786 37.6342ZM9.50033 25.3942C7.31033 24.6456 5.50173 23.6728 4.26208 22.6112C3.14805 21.6573 2.58576 20.7101 2.58576 19.9417C2.58576 18.3063 5.02383 16.2203 9.09033 14.8026C9.58383 14.6307 10.1003 14.4684 10.6363 14.3161C11.1984 16.1442 11.9356 18.0556 12.8252 19.9884C11.924 21.9498 11.1763 23.8917 10.6087 25.7414C10.2365 25.6347 9.8669 25.519 9.50033 25.3942ZM11.6719 10.6117C10.8279 6.29821 11.3884 3.04436 12.7991 2.22769C14.3016 1.35786 17.624 2.59804 21.1259 5.70751C21.3543 5.91074 21.579 6.11808 21.7998 6.32944C20.4949 7.73067 19.2056 9.32593 17.9738 11.0642C15.8616 11.26 13.8396 11.5744 11.9807 11.9956C11.8661 11.537 11.7632 11.0755 11.6719 10.6117ZM31.0451 15.3958C30.606 14.6373 30.1506 13.8884 29.6793 13.1496C31.1123 13.3308 32.4852 13.5714 33.7745 13.8654C33.3875 15.1061 32.9051 16.4031 32.3372 17.733C31.9221 16.9454 31.4913 16.1661 31.0451 15.3958ZM23.1447 7.70085C24.0296 8.65962 24.9159 9.72997 25.7877 10.8914C24.0193 10.8079 22.2479 10.8075 20.4794 10.8903C21.3521 9.73962 22.2459 8.67067 23.1447 7.70085ZM15.1937 15.4087C14.753 16.1729 14.3303 16.9473 13.9258 17.7312C13.3672 16.4061 12.8891 15.1031 12.4987 13.8449C13.7802 13.5582 15.1466 13.3238 16.5705 13.1459C16.0939 13.8893 15.6348 14.6439 15.1937 15.4087ZM16.6114 26.874C15.1403 26.7098 13.7533 26.4875 12.4723 26.2086C12.8687 24.9279 13.3573 23.5972 13.928 22.2437C14.3342 23.0281 14.7587 23.803 15.2012 24.5675C15.6563 25.3535 16.1275 26.1233 16.6114 26.874ZM23.1977 32.3179C22.2882 31.3368 21.3812 30.2514 20.4954 29.084C21.3554 29.1177 22.2321 29.1349 23.1231 29.1349C24.0386 29.1349 24.9435 29.1144 25.8342 29.0747C24.9596 30.2631 24.0766 31.3501 23.1977 32.3179ZM32.3552 22.1745C32.9556 23.5429 33.4616 24.8666 33.8633 26.1254C32.5612 26.4226 31.1552 26.6619 29.6738 26.8396C30.1485 26.0871 30.6082 25.3252 31.0526 24.5544C31.5044 23.7708 31.9387 22.9774 32.3552 22.1745ZM29.3907 23.5958C28.7104 24.7776 27.9918 25.937 27.2361 27.0721C25.8673 27.169 24.4954 27.2172 23.1231 27.2165C21.7254 27.2165 20.3659 27.1729 19.0568 27.088C18.2814 25.9555 17.5491 24.7941 16.8616 23.6063C16.1772 22.4247 15.5381 21.2176 14.9454 19.9875C15.5366 18.7571 16.1739 17.5494 16.8559 16.367L16.8558 16.3672C17.5375 15.1844 18.2639 14.0279 19.0335 12.9003C20.3691 12.7993 21.7387 12.7466 23.123 12.7466C24.5135 12.7466 25.8851 12.7998 27.2203 12.9015C27.9821 14.0275 28.7039 15.18 29.3844 16.3568C30.0686 17.5367 30.7144 18.7385 31.3205 19.9603C30.7206 21.1947 30.0769 22.4072 29.3907 23.5958ZM33.3486 2.1705C34.8524 3.03786 35.4373 6.53558 34.4924 11.1224C34.4321 11.4151 34.3644 11.7131 34.2907 12.0154C32.4272 11.5852 30.4038 11.2654 28.2854 11.0666C27.0514 9.30927 25.7726 7.71155 24.4889 6.32839C24.8253 6.00409 25.1698 5.68821 25.5219 5.38102C28.8377 2.49558 31.9366 1.35629 33.3486 2.1705ZM23.1231 15.9312C25.338 15.9312 27.1337 17.7268 27.1337 19.9417C27.1337 22.1566 25.338 23.9522 23.1231 23.9522C20.9082 23.9522 19.1126 22.1566 19.1126 19.9417C19.1126 17.7268 20.9082 15.9312 23.1231 15.9312Z" fill="#00D8FF"/>
</g>
<defs>
<clipPath id="clip0_496_2411">
<rect width="44.9123" height="40" fill="white" transform="translate(0.666992)"/>
</clipPath>
</defs>
</svg>
