<svg width="41" height="40" viewBox="0 0 41 40" fill="none" xmlns="http://www.w3.org/2000/svg">
<g clip-path="url(#clip0_496_2402)">
<path d="M5.16387 8.21712C5.01158 8.23528 4.86255 8.27451 4.72105 8.33368L1.69168 9.58368C1.38952 9.70965 1.13118 9.92186 0.948935 10.1938C0.766692 10.4658 0.668627 10.7854 0.666992 11.1127L0.666992 28.8877C0.668652 29.2151 0.766764 29.5348 0.949066 29.8067C1.13137 30.0787 1.38977 30.2909 1.69199 30.4168L4.72105 31.6874C5.00548 31.8065 5.31736 31.8442 5.62198 31.7965C5.92659 31.7488 6.21198 31.6175 6.44637 31.4171L7.12512 30.8337C6.98738 30.9326 6.825 30.9916 6.65589 31.0041C6.48677 31.0166 6.31749 30.9822 6.16669 30.9046C6.01589 30.827 5.88944 30.7093 5.80127 30.5645C5.7131 30.4196 5.66663 30.2533 5.66699 30.0837V9.91681C5.66663 9.74723 5.7131 9.58085 5.80127 9.43599C5.88944 9.29114 6.01589 9.17345 6.16669 9.09588C6.31749 9.01832 6.48677 8.9839 6.65589 8.99641C6.825 9.00893 6.98738 9.06789 7.12512 9.16681L6.44637 8.60462C6.27111 8.4548 6.06665 8.343 5.84594 8.2763C5.62523 8.2096 5.39277 8.18945 5.16387 8.21712Z" fill="#52218A"/>
<path d="M30.2764 0.129533C29.8943 0.0761364 29.5051 0.111882 29.1391 0.233972C28.7732 0.356062 28.4405 0.561184 28.167 0.833283L2.33387 29.3958C2.20275 29.5366 2.03243 29.6349 1.8449 29.678C1.65737 29.721 1.46123 29.7069 1.2818 29.6374C1.10237 29.5679 0.947896 29.4462 0.838306 29.2881C0.728715 29.1299 0.669043 28.9426 0.666992 28.7502V28.8877C0.668714 29.215 0.766854 29.5346 0.949152 29.8065C1.13145 30.0784 1.38982 30.2905 1.69199 30.4164L4.72105 31.687C5.00548 31.8061 5.31736 31.8438 5.62198 31.7961C5.92659 31.7484 6.21198 31.6171 6.44637 31.4167L7.12512 30.8333L38.0876 5.44578C38.3189 5.25646 38.5991 5.13665 38.8957 5.10027C39.1924 5.06389 39.4932 5.11244 39.7634 5.24028C40.0335 5.36811 40.2618 5.56999 40.4218 5.82244C40.5817 6.07489 40.6668 6.36755 40.667 6.66641V6.57047C40.6672 6.09947 40.5343 5.63799 40.2837 5.2392C40.0331 4.84041 39.6749 4.52053 39.2504 4.31641L31.0089 0.349846C30.7774 0.239269 30.5304 0.164962 30.2764 0.129533Z" fill="#6C33AF"/>
<path d="M5.31418 8.19925C5.10987 8.20705 4.90877 8.25261 4.72105 8.33363L1.69168 9.58363C1.38952 9.70959 1.13118 9.92181 0.948935 10.1938C0.766692 10.4657 0.668627 10.7853 0.666992 11.1127L0.666992 11.2505C0.669043 11.0581 0.728715 10.8707 0.838306 10.7126C0.947896 10.5544 1.10237 10.4327 1.2818 10.3632C1.46123 10.2937 1.65737 10.2796 1.8449 10.3227C2.03243 10.3658 2.20275 10.4641 2.33387 10.6049L28.167 39.1668C28.5328 39.5308 29.0024 39.7728 29.5112 39.8593C30.0201 39.9459 30.5432 39.8728 31.0089 39.6502L39.2504 35.6833C39.6749 35.4792 40.033 35.1594 40.2836 34.7607C40.5342 34.3619 40.6671 33.9005 40.667 33.4296V33.3336C40.6668 33.6325 40.5817 33.9251 40.4218 34.1776C40.2618 34.43 40.0335 34.6319 39.7634 34.7598C39.4932 34.8876 39.1924 34.9361 38.8957 34.8998C38.5991 34.8634 38.3189 34.7436 38.0876 34.5543L7.12512 9.16675L6.44637 8.58394C6.12955 8.32011 5.72614 8.18284 5.31418 8.19925Z" fill="#854CC7"/>
<path d="M30.2764 0.129829C29.6485 0.0530359 29.0149 0.217076 28.5032 0.588892C28.7267 0.468161 28.9776 0.407519 29.2315 0.412905C29.4854 0.418291 29.7336 0.48952 29.9517 0.619617C30.1698 0.749715 30.3504 0.934222 30.4758 1.15507C30.6012 1.37593 30.6671 1.62555 30.667 1.87952V38.1295C30.6663 38.4189 30.5801 38.7015 30.4191 38.942C30.2582 39.1824 30.0297 39.3699 29.7624 39.4807C29.4952 39.5916 29.2011 39.621 28.9172 39.5651C28.6333 39.5092 28.3723 39.3706 28.167 39.1667C28.5328 39.5308 29.0024 39.7727 29.5112 39.8593C30.0201 39.9458 30.5432 39.8728 31.0089 39.6501L39.2504 35.6876C39.6749 35.4835 40.0331 35.1636 40.2837 34.7649C40.5343 34.3661 40.6672 33.9046 40.667 33.4336V6.56733C40.6673 6.09622 40.5345 5.63461 40.2839 5.2357C40.0332 4.83679 39.675 4.51681 39.2504 4.31264L31.0089 0.349829C30.7774 0.23936 30.5304 0.165159 30.2764 0.129829ZM28.5032 0.588892C28.3801 0.654094 28.2669 0.736482 28.167 0.833579C28.2721 0.74282 28.3846 0.660975 28.5032 0.588892Z" fill="#B179F1"/>
<path opacity="0.25" fill-rule="evenodd" clip-rule="evenodd" d="M30.0873 0.108788C29.7673 0.087971 29.4462 0.128924 29.1417 0.229413C28.7743 0.352621 28.4407 0.559523 28.167 0.833788L14.8839 15.5257L7.12512 9.16691L6.44637 8.5841C6.24217 8.40927 5.99868 8.28647 5.73671 8.22617C5.47475 8.16588 5.20208 8.16988 4.94199 8.23785C4.86582 8.25466 4.79172 8.27982 4.72105 8.31285L1.69168 9.58379C1.40812 9.70082 1.16239 9.89388 0.98158 10.1417C0.80077 10.3895 0.691906 10.6824 0.666992 10.9882L0.666992 29.0129C0.691989 29.3186 0.800925 29.6115 0.981789 29.8592C1.16265 30.107 1.40842 30.3 1.69199 30.4169L4.72105 31.6669C4.79172 31.6999 4.86582 31.7251 4.94199 31.7419C5.202 31.81 5.47463 31.8142 5.73659 31.754C5.99856 31.6939 6.24208 31.5713 6.44637 31.3966L7.12512 30.8338L14.8839 24.4757L28.167 39.1669C28.4981 39.4977 28.9154 39.7288 29.3714 39.8341C29.9223 39.9597 30.4995 39.8949 31.0089 39.6503L39.2504 35.6878C39.6749 35.4837 40.0331 35.1638 40.2837 34.7651C40.5343 34.3663 40.6672 33.9048 40.667 33.4338V6.56754C40.6673 6.09643 40.5345 5.63482 40.2839 5.23591C40.0332 4.83699 39.675 4.51702 39.2504 4.31285L31.0089 0.350038C30.7199 0.211151 30.4069 0.12914 30.087 0.108476L30.0873 0.108788ZM30.667 11.5338V28.4669L20.3379 20.0007L30.667 11.5338ZM5.66699 14.2797L10.8379 20.0007L5.66699 25.7216V14.2797Z" fill="url(#paint0_linear_496_2402)"/>
</g>
<defs>
<linearGradient id="paint0_linear_496_2402" x1="15.667" y1="3.80018e-05" x2="15.667" y2="29.8438" gradientUnits="userSpaceOnUse">
<stop stop-color="white"/>
<stop offset="1" stop-color="white" stop-opacity="0"/>
</linearGradient>
<clipPath id="clip0_496_2402">
<rect width="40" height="40" fill="white" transform="translate(0.666992)"/>
</clipPath>
</defs>
</svg>
