<svg width="32" height="32" viewBox="0 0 32 32" fill="none" xmlns="http://www.w3.org/2000/svg">
<g clip-path="url(#clip0_496_2197)">
<path d="M18.4261 27.1902C18.265 27.1902 18.1105 27.2542 17.9966 27.3681C17.8827 27.482 17.8187 27.6365 17.8187 27.7976V30.4712C17.8183 30.5246 17.7968 30.5757 17.7588 30.6134C17.7209 30.6511 17.6696 30.6722 17.6162 30.6722H14.3764C14.3227 30.6722 14.2712 30.6509 14.2332 30.6129C14.1953 30.5749 14.1739 30.5234 14.1739 30.4697V27.8006C14.174 27.6604 14.1256 27.5245 14.0369 27.4159C13.9482 27.3073 13.8246 27.2328 13.6872 27.2049C12.2411 26.9109 10.8658 26.339 9.63754 25.521C9.52059 25.4439 9.38064 25.4095 9.24128 25.4236C9.10193 25.4377 8.97169 25.4994 8.87252 25.5983L6.97652 27.4899C6.93842 27.5279 6.88678 27.5493 6.83294 27.5493C6.7791 27.5493 6.72747 27.5279 6.68936 27.4899L4.39871 25.1992C4.36085 25.161 4.33961 25.1094 4.33961 25.0556C4.33961 25.0018 4.36085 24.9502 4.39871 24.912L6.29323 23.0183C6.39181 22.9188 6.45299 22.7883 6.46641 22.6489C6.47983 22.5095 6.44466 22.3697 6.36686 22.2532C5.54883 21.025 4.97694 19.6497 4.68292 18.2035C4.65593 18.0661 4.58225 17.9422 4.47436 17.8528C4.36648 17.7634 4.23102 17.7141 4.09093 17.7132H1.41739C1.36369 17.7132 1.31219 17.6918 1.27422 17.6538C1.23624 17.6159 1.21491 17.5644 1.21491 17.5107V14.2709C1.21549 14.2175 1.23705 14.1665 1.27494 14.1289C1.31283 14.0913 1.364 14.0701 1.41739 14.0699H4.09903C4.23904 14.07 4.37477 14.0216 4.4832 13.9331C4.59164 13.8445 4.6661 13.7211 4.69397 13.5839C4.98645 12.1387 5.5555 10.7636 6.36981 9.53428C6.44774 9.41787 6.48299 9.27807 6.46957 9.13862C6.45615 8.99917 6.39488 8.86866 6.29617 8.76925L4.39871 6.87252C4.36085 6.83433 4.33961 6.78272 4.33961 6.72894C4.33961 6.67516 4.36085 6.62356 4.39871 6.58536L6.68936 4.29471C6.72747 4.25667 6.7791 4.2353 6.83294 4.2353C6.88678 4.2353 6.93842 4.25667 6.97652 4.29471L8.87031 6.18923C8.96948 6.28813 9.09972 6.34983 9.23907 6.36391C9.37843 6.37799 9.51838 6.3436 9.63533 6.26654C10.8637 5.44881 12.239 4.87694 13.685 4.5826C13.8224 4.55473 13.946 4.48019 14.0347 4.37162C14.1234 4.26305 14.1718 4.12713 14.1717 3.98693V1.31339C14.1718 1.28664 14.1772 1.26018 14.1876 1.23551C14.1979 1.21084 14.213 1.18846 14.232 1.16965C14.2511 1.15084 14.2736 1.13596 14.2984 1.12588C14.3232 1.1158 14.3497 1.11071 14.3764 1.11091H17.6162C17.6698 1.1111 17.7212 1.1325 17.7591 1.17043C17.7971 1.20836 17.8185 1.25975 17.8187 1.31339V3.98693C17.8187 4.14804 17.8827 4.30255 17.9966 4.41646C18.1105 4.53038 18.265 4.59438 18.4261 4.59438C18.5872 4.59438 18.7417 4.53038 18.8557 4.41646C18.9696 4.30255 19.0336 4.14804 19.0336 3.98693V1.31339C19.0334 0.937406 18.884 0.576847 18.6183 0.310843C18.3526 0.0448384 17.9922 -0.104884 17.6162 -0.105469H14.3764C14.0007 -0.104885 13.6405 0.0446353 13.3748 0.310321C13.1091 0.576008 12.9596 0.936188 12.959 1.31192V3.50244C11.6985 3.8104 10.4932 4.31136 9.38573 4.98757L7.83506 3.43617C7.56508 3.17844 7.20619 3.03464 6.83294 3.03464C6.4597 3.03464 6.1008 3.17844 5.83083 3.43617L3.54017 5.72683C3.27462 5.99272 3.12546 6.35315 3.12546 6.72894C3.12546 7.10474 3.27462 7.46516 3.54017 7.73106L5.08642 9.28173C4.41514 10.3898 3.91799 11.5945 3.61233 12.8535H1.41739C1.04166 12.8541 0.681477 13.0036 0.41579 13.2693C0.150104 13.535 0.000584199 13.8952 0 14.2709V17.5107C0.000194562 17.8867 0.149542 18.2472 0.415271 18.5132C0.680999 18.7792 1.0414 18.9289 1.41739 18.9295H3.60497C3.91293 20.19 4.41389 21.3954 5.0901 22.5028L3.54385 24.0535C3.2783 24.3194 3.12915 24.6798 3.12915 25.0556C3.12915 25.4314 3.2783 25.7918 3.54385 26.0577L5.83451 28.3484C6.10423 28.6066 6.46322 28.7508 6.83663 28.7508C7.21003 28.7508 7.56902 28.6066 7.83874 28.3484L9.38941 26.8021C10.497 27.4779 11.7023 27.9786 12.9627 28.2865V30.4741C12.9641 30.8487 13.1134 31.2076 13.3782 31.4725C13.643 31.7375 14.0018 31.887 14.3764 31.8886H17.6162C17.9919 31.888 18.3521 31.7385 18.6178 31.4728C18.8835 31.2071 19.033 30.8469 19.0336 30.4712V27.8006C19.034 27.7206 19.0185 27.6413 18.9882 27.5672C18.9578 27.4932 18.9131 27.4259 18.8567 27.3691C18.8003 27.3124 18.7332 27.2674 18.6593 27.2367C18.5854 27.206 18.5061 27.1902 18.4261 27.1902Z" fill="white"/>
<path d="M21.4631 11.0329C21.4628 10.2274 21.1427 9.45487 20.5732 8.88512C20.0037 8.31538 19.2314 7.99493 18.4259 7.99415H11.1364C10.4978 7.99239 9.875 8.19256 9.35699 8.56603C8.83898 8.93951 8.45229 9.46717 8.25218 10.0737C8.05208 10.6801 8.0488 11.3343 8.24282 11.9427C8.43684 12.5511 8.81822 13.0826 9.33246 13.4613C8.95025 13.7407 8.63935 14.1064 8.42503 14.5286C8.21071 14.9508 8.09902 15.4176 8.09902 15.8911C8.09902 16.3646 8.21071 16.8314 8.42503 17.2536C8.63935 17.6758 8.95025 18.0415 9.33246 18.3209C8.8176 18.6994 8.43563 19.231 8.24122 19.8397C8.04681 20.4484 8.04992 21.103 8.2501 21.7098C8.45028 22.3166 8.83727 22.8446 9.3557 23.2181C9.87413 23.5917 10.4974 23.7917 11.1364 23.7895H18.4259C19.0645 23.7912 19.6873 23.5911 20.2053 23.2176C20.7233 22.8441 21.11 22.3165 21.3101 21.71C21.5102 21.1036 21.5135 20.4494 21.3195 19.841C21.1254 19.2325 20.7441 18.701 20.2298 18.3224C20.612 18.0429 20.9229 17.6772 21.1373 17.255C21.3516 16.8328 21.4633 16.366 21.4633 15.8926C21.4633 15.4191 21.3516 14.9523 21.1373 14.5301C20.9229 14.1079 20.612 13.7422 20.2298 13.4627C20.611 13.1823 20.9212 12.8165 21.1354 12.3945C21.3495 11.9725 21.4618 11.5062 21.4631 11.0329ZM20.2482 20.7522C20.2475 21.2351 20.0552 21.6981 19.7135 22.0394C19.3719 22.3808 18.9088 22.5727 18.4259 22.5731H11.1364C10.6531 22.5731 10.1896 22.3811 9.84781 22.0393C9.50605 21.6976 9.31405 21.2341 9.31405 20.7507C9.31405 20.2674 9.50605 19.8039 9.84781 19.4621C10.1896 19.1204 10.6531 18.9284 11.1364 18.9284H18.4259C18.9093 18.9288 19.3728 19.1211 19.7146 19.4631C20.0563 19.8051 20.2482 20.2687 20.2482 20.7522ZM20.2482 15.8926C20.2475 16.3755 20.0552 16.8384 19.7135 17.1798C19.3719 17.5211 18.9088 17.7131 18.4259 17.7135H11.1364C10.6531 17.7135 10.1896 17.5215 9.84781 17.1797C9.50605 16.8379 9.31405 16.3744 9.31405 15.8911C9.31405 15.4078 9.50605 14.9442 9.84781 14.6025C10.1896 14.2607 10.6531 14.0687 11.1364 14.0687H18.4259C18.9093 14.0691 19.3728 14.2614 19.7146 14.6034C20.0563 14.9454 20.2482 15.4091 20.2482 15.8926ZM18.4259 12.8538H11.1364C10.6531 12.8538 10.1896 12.6618 9.84781 12.3201C9.50605 11.9783 9.31405 11.5148 9.31405 11.0315C9.31405 10.5481 9.50605 10.0846 9.84781 9.74281C10.1896 9.40105 10.6531 9.20905 11.1364 9.20905H18.4259C18.9092 9.20905 19.3727 9.40105 19.7145 9.74281C20.0562 10.0846 20.2482 10.5481 20.2482 11.0315C20.2482 11.5148 20.0562 11.9783 19.7145 12.3201C19.3727 12.6618 18.9092 12.8538 18.4259 12.8538Z" fill="white"/>
<path d="M17.6159 10.4238H14.3761C14.215 10.4238 14.0605 10.4878 13.9466 10.6017C13.8326 10.7156 13.7686 10.8701 13.7686 11.0312C13.7686 11.1923 13.8326 11.3468 13.9466 11.4608C14.0605 11.5747 14.215 11.6387 14.3761 11.6387H17.6159C17.777 11.6387 17.9315 11.5747 18.0454 11.4608C18.1593 11.3468 18.2233 11.1923 18.2233 11.0312C18.2233 10.8701 18.1593 10.7156 18.0454 10.6017C17.9315 10.4878 17.777 10.4238 17.6159 10.4238Z" fill="white"/>
<path d="M11.9467 11.8426C12.394 11.8426 12.7566 11.48 12.7566 11.0327C12.7566 10.5853 12.394 10.2227 11.9467 10.2227C11.4993 10.2227 11.1367 10.5853 11.1367 11.0327C11.1367 11.48 11.4993 11.8426 11.9467 11.8426Z" fill="white"/>
<path d="M14.3761 16.5002H17.6159C17.777 16.5002 17.9315 16.4362 18.0454 16.3222C18.1593 16.2083 18.2233 16.0538 18.2233 15.8927C18.2233 15.7316 18.1593 15.5771 18.0454 15.4632C17.9315 15.3492 17.777 15.2852 17.6159 15.2852H14.3761C14.215 15.2852 14.0605 15.3492 13.9466 15.4632C13.8326 15.5771 13.7686 15.7316 13.7686 15.8927C13.7686 16.0538 13.8326 16.2083 13.9466 16.3222C14.0605 16.4362 14.215 16.5002 14.3761 16.5002Z" fill="white"/>
<path d="M11.9467 16.7019C12.394 16.7019 12.7566 16.3393 12.7566 15.892C12.7566 15.4447 12.394 15.082 11.9467 15.082C11.4993 15.082 11.1367 15.4447 11.1367 15.892C11.1367 16.3393 11.4993 16.7019 11.9467 16.7019Z" fill="white"/>
<path d="M14.3761 21.3594H17.6159C17.777 21.3594 17.9315 21.2954 18.0454 21.1815C18.1593 21.0675 18.2233 20.913 18.2233 20.7519C18.2233 20.5908 18.1593 20.4363 18.0454 20.3224C17.9315 20.2085 17.777 20.1445 17.6159 20.1445H14.3761C14.215 20.1445 14.0605 20.2085 13.9466 20.3224C13.8326 20.4363 13.7686 20.5908 13.7686 20.7519C13.7686 20.913 13.8326 21.0675 13.9466 21.1815C14.0605 21.2954 14.215 21.3594 14.3761 21.3594Z" fill="white"/>
<path d="M11.9467 21.5622C12.394 21.5622 12.7566 21.1996 12.7566 20.7523C12.7566 20.305 12.394 19.9424 11.9467 19.9424C11.4993 19.9424 11.1367 20.305 11.1367 20.7523C11.1367 21.1996 11.4993 21.5622 11.9467 21.5622Z" fill="white"/>
<path d="M20.8555 6.78036C20.9499 6.78054 21.0431 6.75866 21.1276 6.71648C21.2121 6.67429 21.2856 6.61297 21.3422 6.53738L23.5894 3.54061H27.6295C27.7763 4.05772 28.1051 4.5043 28.5554 4.79797C29.0056 5.09164 29.5468 5.21258 30.0792 5.13849C30.6116 5.06439 31.0993 4.80025 31.4522 4.3948C31.8052 3.98936 31.9996 3.46995 31.9996 2.93241C31.9996 2.39488 31.8052 1.87547 31.4522 1.47003C31.0993 1.06458 30.6116 0.800443 30.0792 0.726346C29.5468 0.652249 29.0056 0.773192 28.5554 1.06686C28.1051 1.36053 27.7763 1.80711 27.6295 2.32422H23.2853C23.191 2.32439 23.0981 2.34643 23.0138 2.38859C22.9294 2.43075 22.856 2.49189 22.7993 2.56721L20.3695 5.80696C20.3019 5.89716 20.2607 6.00441 20.2505 6.1167C20.2403 6.22899 20.2616 6.34189 20.312 6.44277C20.3624 6.54364 20.4398 6.62851 20.5357 6.68788C20.6315 6.74724 20.742 6.77875 20.8548 6.77889L20.8555 6.78036ZM29.7648 1.92073C29.9651 1.92073 30.1608 1.9801 30.3273 2.09135C30.4938 2.2026 30.6236 2.36072 30.7002 2.54571C30.7768 2.73071 30.7969 2.93427 30.7578 3.13067C30.7187 3.32706 30.6223 3.50745 30.4807 3.64904C30.3391 3.79063 30.1587 3.88706 29.9623 3.92612C29.7659 3.96519 29.5624 3.94514 29.3774 3.86851C29.1924 3.79188 29.0343 3.66212 28.923 3.49562C28.8118 3.32913 28.7524 3.13339 28.7524 2.93315C28.7528 2.66476 28.8596 2.40747 29.0494 2.21769C29.2391 2.02791 29.4964 1.92112 29.7648 1.92073ZM29.7648 18.523C29.2811 18.5239 28.8109 18.6826 28.4256 18.9749C28.0402 19.2673 27.7607 19.6773 27.6295 20.1429H25.0524L23.5607 19.397C23.4893 19.3613 23.4116 19.34 23.3321 19.3344C23.2525 19.3287 23.1726 19.3388 23.0969 19.364C23.0212 19.3893 22.9512 19.4291 22.8909 19.4814C22.8307 19.5337 22.7813 19.5973 22.7456 19.6687C22.7099 19.74 22.6886 19.8177 22.683 19.8973C22.6773 19.9769 22.6874 20.0568 22.7126 20.1325C22.7379 20.2082 22.7778 20.2782 22.83 20.3384C22.8823 20.3987 22.9459 20.4481 23.0173 20.4838L24.6372 21.2937C24.7216 21.3358 24.8146 21.3578 24.9089 21.3578H27.6332C27.747 21.7553 27.9695 22.1132 28.2756 22.3913C28.5817 22.6693 28.9592 22.8565 29.3659 22.9317C29.7725 23.0069 30.192 22.9673 30.5773 22.8171C30.9626 22.667 31.2984 22.4124 31.5469 22.0819C31.7954 21.7514 31.9469 21.3581 31.9841 20.9462C32.0214 20.5344 31.943 20.1203 31.7579 19.7506C31.5727 19.3808 31.2881 19.0701 30.936 18.8532C30.5839 18.6363 30.1783 18.522 29.7648 18.523ZM29.7648 21.7627C29.5646 21.7627 29.3688 21.7034 29.2023 21.5921C29.0359 21.4809 28.9061 21.3228 28.8295 21.1378C28.7528 20.9528 28.7328 20.7492 28.7719 20.5528C28.8109 20.3564 28.9073 20.176 29.0489 20.0344C29.1905 19.8928 29.3709 19.7964 29.5673 19.7574C29.7637 19.7183 29.9673 19.7383 30.1523 19.815C30.3373 19.8916 30.4954 20.0214 30.6066 20.1878C30.7179 20.3543 30.7772 20.5501 30.7772 20.7503C30.7771 21.0188 30.6703 21.2762 30.4805 21.466C30.2907 21.6558 30.0333 21.7626 29.7648 21.7627ZM29.7648 8.80374C29.2811 8.80467 28.8109 8.96333 28.4256 9.25567C28.0402 9.54801 27.7607 9.95806 27.6295 10.4236H24.9052C24.8254 10.4235 24.7464 10.4393 24.6728 10.4698C24.5991 10.5004 24.5322 10.5453 24.4759 10.6018L23.666 11.4117C23.5521 11.5256 23.4882 11.68 23.4882 11.841C23.4882 12.002 23.5521 12.1564 23.666 12.2703C23.7798 12.3841 23.9342 12.4481 24.0952 12.4481C24.2563 12.4481 24.4107 12.3841 24.5245 12.2703L25.157 11.6385H27.6295C27.7433 12.0359 27.9656 12.3937 28.2716 12.6717C28.5775 12.9497 28.9548 13.1369 29.3613 13.2123C29.7677 13.2877 30.1871 13.2482 30.5723 13.0984C30.9576 12.9485 31.2934 12.6942 31.5421 12.3641C31.7908 12.0339 31.9426 11.6409 31.9802 11.2293C32.0179 10.8176 31.9401 10.4036 31.7554 10.0338C31.5708 9.66397 31.2867 9.35294 30.9351 9.13564C30.5834 8.91835 30.1782 8.80341 29.7648 8.80374ZM29.7648 12.0435C29.5646 12.0435 29.3688 11.9841 29.2023 11.8729C29.0359 11.7616 28.9061 11.6035 28.8295 11.4185C28.7528 11.2335 28.7328 11.0299 28.7719 10.8335C28.8109 10.6371 28.9073 10.4567 29.0489 10.3152C29.1905 10.1736 29.3709 10.0771 29.5673 10.0381C29.7637 9.99904 29.9673 10.0191 30.1523 10.0957C30.3373 10.1723 30.4954 10.3021 30.6066 10.4686C30.7179 10.6351 30.7772 10.8308 30.7772 11.0311C30.7771 11.2995 30.6703 11.5569 30.4805 11.7467C30.2907 11.9366 30.0333 12.0433 29.7648 12.0435ZM29.7648 26.6224C29.2811 26.6233 28.8109 26.782 28.4256 27.0743C28.0402 27.3667 27.7607 27.7767 27.6295 28.2423H23.5887L21.3415 25.2455C21.2936 25.1817 21.2336 25.1279 21.165 25.0873C21.0963 25.0466 21.0204 25.0199 20.9414 25.0086C20.8624 24.9973 20.782 25.0017 20.7047 25.0215C20.6275 25.0413 20.5548 25.0761 20.491 25.124C20.4272 25.1719 20.3734 25.2318 20.3328 25.3005C20.2921 25.3691 20.2654 25.4451 20.2541 25.5241C20.2429 25.603 20.2472 25.6834 20.267 25.7607C20.2868 25.838 20.3217 25.9106 20.3695 25.9744L22.7993 29.2142C22.8559 29.2896 22.9293 29.3509 23.0136 29.393C23.098 29.4352 23.191 29.4572 23.2853 29.4572H27.6295C27.7433 29.8546 27.9656 30.2124 28.2716 30.4904C28.5775 30.7684 28.9548 30.9556 29.3613 31.0309C29.7677 31.1063 30.1871 31.0669 30.5723 30.917C30.9576 30.7672 31.2934 30.5129 31.5421 30.1827C31.7908 29.8526 31.9426 29.4596 31.9802 29.0479C32.0179 28.6363 31.9401 28.2223 31.7554 27.8525C31.5708 27.4826 31.2867 27.1716 30.9351 26.9543C30.5834 26.737 30.1782 26.6221 29.7648 26.6224ZM29.7648 29.8621C29.5646 29.8621 29.3688 29.8028 29.2023 29.6915C29.0359 29.5803 28.9061 29.4222 28.8295 29.2372C28.7528 29.0522 28.7328 28.8486 28.7719 28.6522C28.8109 28.4558 28.9073 28.2754 29.0489 28.1338C29.1905 27.9922 29.3709 27.8958 29.5673 27.8567C29.7637 27.8177 29.9673 27.8377 30.1523 27.9144C30.3373 27.991 30.4954 28.1208 30.6066 28.2872C30.7179 28.4537 30.7772 28.6495 30.7772 28.8497C30.7771 29.1182 30.6703 29.3756 30.4805 29.5654C30.2907 29.7552 30.0333 29.8619 29.7648 29.8621Z" fill="white"/>
</g>
<defs>
<clipPath id="clip0_496_2197">
<rect width="32" height="32" fill="white"/>
</clipPath>
</defs>
</svg>
