<svg width="114" height="113" viewBox="0 0 114 113" fill="none" xmlns="http://www.w3.org/2000/svg">
<circle cx="56.7132" cy="56.533" r="56.3534" fill="url(#paint0_linear_466_3098)"/>
<mask id="path-2-inside-1_466_3098" fill="white">
<path d="M88.4905 83.0001C81.7189 90.9911 72.1723 96.1213 61.7714 97.3587C51.3704 98.5961 40.8867 95.849 32.4292 89.6699C23.9717 83.4908 18.1678 74.3381 16.1852 64.0532C14.2025 53.7682 16.1882 43.114 21.7427 34.2338L22.396 34.6424C16.9447 43.3575 14.996 53.8136 16.9418 63.9073C18.8876 74.001 24.5835 82.9835 32.8837 89.0477C41.184 95.1119 51.4728 97.808 61.6804 96.5936C71.8879 95.3792 81.2569 90.3444 87.9027 82.502L88.4905 83.0001Z"/>
</mask>
<path d="M88.4905 83.0001C81.7189 90.9911 72.1723 96.1213 61.7714 97.3587C51.3704 98.5961 40.8867 95.849 32.4292 89.6699C23.9717 83.4908 18.1678 74.3381 16.1852 64.0532C14.2025 53.7682 16.1882 43.114 21.7427 34.2338L22.396 34.6424C16.9447 43.3575 14.996 53.8136 16.9418 63.9073C18.8876 74.001 24.5835 82.9835 32.8837 89.0477C41.184 95.1119 51.4728 97.808 61.6804 96.5936C71.8879 95.3792 81.2569 90.3444 87.9027 82.502L88.4905 83.0001Z" fill="url(#paint1_linear_466_3098)" stroke="white" stroke-width="2" mask="url(#path-2-inside-1_466_3098)"/>
<path d="M35.4861 29.2675C35.1334 29.5496 34.7807 29.5496 34.4279 29.338L25.8217 24.5411C25.5395 24.4 25.3984 24.1884 25.3984 23.9767C25.3984 23.7651 25.5395 23.5535 25.7512 23.4124C25.9628 23.2713 26.1039 23.2008 26.245 23.2008C26.386 23.2008 26.5977 23.2713 26.7388 23.3418L34.3574 27.645L32.2411 19.1798C32.1706 18.9682 32.1706 18.8271 32.2411 18.6155C32.3117 18.4038 32.3822 18.3333 32.5938 18.1922C32.8055 18.0511 33.0171 17.9806 33.2287 18.0511C33.4403 18.1217 33.5814 18.3333 33.652 18.6155L35.8388 28.2798C35.9093 28.4915 35.9093 28.7031 35.8388 28.8442C35.7683 28.9853 35.6272 29.1264 35.4861 29.2675Z" fill="white"/>
<path d="M41.1298 25.8102C40.636 26.0218 40.3539 25.8808 40.0717 25.4575L36.1213 17.2745C35.9096 16.7807 35.9802 16.428 36.474 16.2164C36.9678 16.0047 37.25 16.1458 37.5321 16.5691L41.4825 24.7521C41.6942 25.2459 41.6236 25.5986 41.1298 25.8102Z" fill="white"/>
<path d="M44.3744 24.1884C43.8101 24.3295 43.5279 24.1884 43.3163 23.624L40.8473 15.1589C40.7062 14.5945 40.8473 14.3123 41.4116 14.1007L46.6318 12.6193C47.0551 12.4782 47.2667 12.6193 47.4078 13.0426C47.5489 13.4658 47.4078 13.748 46.9845 13.8185L42.3992 15.1589L43.3163 18.3333L47.5489 17.0635C47.9721 16.9224 48.1837 17.0635 48.3248 17.4868C48.4659 17.91 48.3248 18.1217 47.9016 18.2628L43.669 19.5325L44.6566 22.848L49.2419 21.5077C49.6651 21.3666 49.8768 21.5077 50.0179 21.931C50.159 22.3542 50.0179 22.5659 49.5946 22.707L44.3744 24.1884Z" fill="white"/>
<path d="M54.6738 22.1427C54.2506 22.1427 53.9684 21.8605 53.8273 21.4373L51.0761 12.1961C51.0056 11.914 51.0056 11.7023 51.1467 11.5612C51.2878 11.4202 51.4994 11.3496 51.7816 11.3496C51.9932 11.3496 52.1343 11.4202 52.2754 11.4907C52.4164 11.5612 52.487 11.7729 52.5575 11.9845L54.8149 19.8148L57.8483 12.2667C58.0599 11.8434 58.3421 11.6318 58.6948 11.6318C58.9064 11.6318 59.0475 11.7023 59.118 11.8434C59.2591 11.9845 59.3297 12.1256 59.4002 12.3372L61.6576 20.238L64.7615 12.6194C64.832 12.4078 64.9731 12.2667 65.0436 12.1961C65.1847 12.055 65.3258 12.055 65.5374 12.055C65.8196 12.055 65.9607 12.1961 66.1018 12.3372C66.2429 12.5488 66.2429 12.7605 66.1018 12.9721L62.4335 21.9311C62.363 22.1427 62.2219 22.2838 62.0808 22.4249C61.9397 22.4954 61.7987 22.5659 61.587 22.5659C61.3754 22.5659 61.1638 22.4954 61.0932 22.3543C61.0227 22.2132 60.8816 22.0721 60.8111 21.8605L58.5537 14.1008L55.5203 21.5783C55.4498 21.79 55.3087 21.9311 55.1676 22.0721C55.0265 22.1427 54.8854 22.1427 54.6738 22.1427Z" fill="white"/>
<path d="M70.6165 25.2473C70.1932 24.9651 70.0521 24.6124 70.3343 24.1892L74.6374 16.2883C74.9196 15.8651 75.2723 15.724 75.6956 16.0062L78.87 17.6992C79.8576 18.2636 80.4925 18.8984 80.7747 19.6744C81.0568 20.4504 80.9158 21.2969 80.422 22.1434C79.9282 23.0605 79.2933 23.5543 78.4467 23.7659C77.6708 23.9775 76.7537 23.7659 75.7661 23.2721L73.2971 21.9318L71.6746 24.8946C71.463 25.3884 71.1103 25.4589 70.6165 25.2473ZM73.932 20.8736L76.1894 22.1434C77.5297 22.8488 78.4467 22.6372 79.0816 21.5085C79.7165 20.3798 79.3638 19.4628 78.0235 18.6868L75.7661 17.417L73.932 20.8736Z" fill="white"/>
<path d="M78.1644 29.8324C77.8117 29.4797 77.8117 29.127 78.1644 28.7037L84.3722 22.2138C84.7249 21.861 85.0777 21.861 85.5009 22.2138L88.0405 24.6828C88.887 25.4587 89.3102 26.2347 89.3808 27.0812C89.4513 27.9277 89.1691 28.6332 88.4637 29.3386C87.8994 29.9029 87.335 30.1851 86.7001 30.2557C86.0653 30.3262 85.4304 30.1851 84.7249 29.7619C84.9366 30.1851 85.0071 30.7495 84.7955 31.3843L84.0901 33.9944C84.0195 34.2766 83.8784 34.4882 83.6668 34.5588C83.4552 34.6293 83.2435 34.5588 83.0319 34.3472C82.8908 34.2061 82.7497 34.065 82.7497 33.8534C82.6792 33.7123 82.7497 33.5006 82.8203 33.289L83.6668 30.1146C83.8079 29.6913 83.8079 29.3386 83.6668 29.0564C83.5257 28.7743 83.3846 28.4921 83.0319 28.2099L81.8327 27.0812L79.2931 29.6913C78.8699 30.1851 78.5172 30.1851 78.1644 29.8324ZM82.5381 26.3758L84.3722 28.1394C85.5009 29.1975 86.418 29.2681 87.335 28.351C88.1815 27.4339 88.111 26.4463 86.9823 25.4587L85.1482 23.6952L82.5381 26.3758Z" fill="white"/>
<path d="M86.4183 39.7792C85.9245 38.9327 85.7129 38.0862 85.7129 37.1691C85.7129 36.3226 85.9951 35.5466 86.4889 34.7706C86.9827 33.9947 87.6881 33.3598 88.6757 32.866C89.6633 32.3016 90.5804 32.0195 91.4269 31.9489C92.3439 31.8784 93.1199 32.09 93.8959 32.5133C94.6013 32.9365 95.2362 33.5714 95.73 34.4179C96.2238 35.2644 96.4354 36.111 96.4354 36.9575C96.4354 37.804 96.1533 38.58 95.6595 39.3559C95.1657 40.1319 94.4602 40.7668 93.4726 41.2606C92.5556 41.8249 91.568 42.1071 90.7214 42.1777C89.8044 42.2482 89.0284 42.0366 88.2524 41.6133C87.4765 41.2606 86.9121 40.6257 86.4183 39.7792ZM87.547 39.1443C88.0408 40.0614 88.7462 40.5552 89.6633 40.6962C90.5804 40.8373 91.568 40.6257 92.6966 39.9908C93.8253 39.3559 94.5308 38.6505 94.8129 37.804C95.1656 36.9575 95.0246 36.111 94.5308 35.1939C94.037 34.2768 93.3315 33.783 92.4145 33.6419C91.4974 33.5009 90.5098 33.7125 89.3811 34.3474C88.2524 34.9823 87.547 35.6877 87.2648 36.6048C86.9827 37.3102 87.0532 38.2272 87.547 39.1443Z" fill="white"/>
<path d="M88.7463 44.4334C88.6757 44.2218 88.6757 44.0102 88.7463 43.8691C88.8168 43.728 88.9579 43.5869 89.1695 43.5164C89.3106 43.4458 89.4517 43.4458 89.5928 43.5164C89.7339 43.5869 89.8044 43.6574 89.875 43.8691L90.016 44.2923C90.3688 45.2094 91.0742 45.4916 92.0618 45.1388L98.6223 43.0226C99.1161 42.8815 99.3983 43.0226 99.6099 43.5164C99.751 44.0102 99.6099 44.3629 99.1161 44.504L92.5556 46.6202C91.7091 46.9024 90.9331 46.9024 90.3688 46.6202C89.7339 46.3381 89.3106 45.7737 88.9579 44.9272L88.7463 44.4334Z" fill="white"/>
<path d="M90.5097 50.219C90.4391 49.6547 90.6508 49.3725 91.2151 49.3019L99.9624 48.1732C100.527 48.1027 100.809 48.3143 100.88 48.8787L101.585 54.2399C101.655 54.6632 101.444 54.8748 101.091 54.9454C100.668 55.0159 100.456 54.8043 100.386 54.381L99.8214 49.6547L96.4353 50.1485L96.9996 54.5221C97.0702 54.9454 96.8585 55.157 96.4353 55.2275C96.012 55.2981 95.8004 55.0865 95.7299 54.6632L95.1655 50.2895L91.7795 50.7128L92.3438 55.4392C92.4143 55.8624 92.2027 56.0741 91.7795 56.1446C91.3562 56.2152 91.1446 56.0035 91.074 55.5803L90.5097 50.219Z" fill="white"/>
<path d="M90.5805 62.0709C90.7216 61.0128 91.0037 60.1663 91.5681 59.4608C92.0619 58.7554 92.7673 58.2616 93.6138 57.9794C94.4603 57.6973 95.4479 57.6267 96.5061 57.7678C97.5642 57.9089 98.4813 58.1911 99.2573 58.6849C100.033 59.1787 100.527 59.8136 100.88 60.6601C101.232 61.436 101.303 62.3531 101.162 63.4113C101.091 63.9756 100.95 64.5399 100.739 65.0337C100.527 65.5275 100.245 65.9508 99.8922 66.3741C99.7511 66.5857 99.5394 66.6562 99.3278 66.6562C99.1162 66.6562 98.9751 66.5857 98.834 66.5151C98.6929 66.4446 98.6224 66.233 98.5518 66.0919C98.5518 65.8803 98.6224 65.7392 98.7635 65.5275C99.0456 65.2454 99.2573 64.8927 99.4689 64.5399C99.61 64.1872 99.7511 63.764 99.8216 63.3407C99.9627 62.212 99.7511 61.295 99.1162 60.6601C98.4813 59.9546 97.5642 59.6019 96.2945 59.3903C95.0247 59.2492 94.0371 59.3903 93.2611 59.8841C92.4851 60.3779 92.0619 61.2244 91.9208 62.2826C91.8503 62.7058 91.8503 63.1291 91.9208 63.5523C91.9913 63.9756 92.1324 64.3283 92.3441 64.7516C92.4851 64.9632 92.4851 65.1748 92.4146 65.3159C92.3441 65.457 92.2735 65.5981 92.0619 65.6686C91.8503 65.7392 91.7092 65.7392 91.5681 65.6686C91.427 65.5981 91.2154 65.5275 91.1448 65.3159C90.8627 64.8927 90.7216 64.3283 90.5805 63.764C90.4394 63.1996 90.5099 62.7058 90.5805 62.0709Z" fill="white"/>
<path d="M88.5345 69.6889C88.7462 69.1951 89.0283 69.054 89.5221 69.2657L97.423 72.3695L98.5516 69.4773C98.6927 69.054 98.9749 68.9129 99.3982 69.1246C99.8214 69.2657 99.892 69.5478 99.7509 69.9711L96.8586 77.237C96.7175 77.6603 96.4353 77.8014 96.0121 77.6603C95.5888 77.5192 95.5183 77.237 95.6594 76.8138L96.7881 73.9215L88.8872 70.8176C88.5345 70.4649 88.3934 70.1122 88.5345 69.6889Z" fill="white"/>
<path d="M67.2087 55.4865C67.3988 55.6783 67.5054 55.9375 67.5054 56.2076C67.5054 56.4777 67.3988 56.7368 67.2087 56.9287L58.0998 66.0376C57.9055 66.2233 57.6475 66.3274 57.3787 66.3286C57.2444 66.328 57.1114 66.3022 56.9865 66.2527C56.8023 66.1752 56.6451 66.045 56.5348 65.8784C56.4245 65.7118 56.366 65.5163 56.3666 65.3165V57.2197H47.2577C46.9893 57.2197 46.7318 57.113 46.542 56.9232C46.3522 56.7334 46.2456 56.476 46.2456 56.2076C46.2456 55.9392 46.3522 55.6817 46.542 55.4919C46.7318 55.3021 46.9893 55.1955 47.2577 55.1955H56.3666V47.0987C56.366 46.8989 56.4245 46.7033 56.5348 46.5367C56.6451 46.3701 56.8023 46.2399 56.9865 46.1625C57.1735 46.0896 57.3772 46.0711 57.5742 46.1091C57.7713 46.1472 57.9535 46.2403 58.0998 46.3776L67.2087 55.4865Z" fill="white"/>
<defs>
<linearGradient id="paint0_linear_466_3098" x1="0.359863" y1="0.179688" x2="116.083" y2="3.36696" gradientUnits="userSpaceOnUse">
<stop offset="0.0052" stop-color="#43BAFF"/>
<stop offset="1" stop-color="#7044B3"/>
</linearGradient>
<linearGradient id="paint1_linear_466_3098" x1="15.436" y1="14.7695" x2="100.534" y2="17.1133" gradientUnits="userSpaceOnUse">
<stop offset="0.0052" stop-color="#43BAFF"/>
<stop offset="1" stop-color="#7044B3"/>
</linearGradient>
</defs>
</svg>
