<svg width="50" height="51" viewBox="0 0 50 51" fill="none" xmlns="http://www.w3.org/2000/svg">
<g clip-path="url(#clip0_74_7086)">
<path d="M25.4736 39.1106C25.4736 40.0048 26.457 40.4591 27.2817 40.6832C29.041 41.1604 30.0088 42.1458 30.0088 43.4571C30.0088 44.7807 29.0368 45.8896 27.7412 46.1635V46.9923C27.7412 47.3357 27.4622 47.6147 27.1188 47.6147C26.7754 47.6147 26.4964 47.3357 26.4964 46.9923V46.1635C25.2007 45.8896 24.2288 44.7807 24.2288 43.4571C24.2288 43.1137 24.5078 42.8346 24.8512 42.8346C25.1945 42.8346 25.4736 43.1137 25.4736 43.4571C25.4736 44.2994 26.2122 44.984 27.1188 44.984C28.0254 44.984 28.764 44.2994 28.764 43.4571C28.764 42.5629 27.7806 42.1085 26.9559 41.8844C25.1976 41.4073 24.2288 40.4228 24.2288 39.1106C24.2288 37.7869 25.2007 36.678 26.4964 36.4042V35.5753C26.4964 35.232 26.7754 34.9529 27.1188 34.9529C27.4622 34.9529 27.7412 35.232 27.7412 35.5753V36.4042C29.0368 36.678 30.0088 37.7869 30.0088 39.1106C30.0088 39.4539 29.7298 39.733 29.3864 39.733C29.0431 39.733 28.764 39.4539 28.764 39.1106C28.764 38.2683 28.0254 37.5836 27.1188 37.5836C26.2111 37.5836 25.4736 38.2683 25.4736 39.1106ZM17.6976 27.428C17.6976 29.7434 15.8138 31.6272 13.4985 31.6272C11.1831 31.6272 9.29928 29.7434 9.29928 27.428C9.29928 25.1127 11.1831 23.2288 13.4985 23.2288C15.8138 23.2288 17.6976 25.1127 17.6976 27.428ZM16.4528 27.428C16.4528 25.7983 15.1271 24.4737 13.4985 24.4737C11.8698 24.4737 10.5441 25.7994 10.5441 27.428C10.5441 29.0566 11.8698 30.3824 13.4985 30.3824C15.1271 30.3824 16.4528 29.0566 16.4528 27.428ZM45.8429 16.428C45.8429 17.8492 44.6862 19.0058 43.2651 19.0058H41.9653L35.3709 33.0307L35.0119 36.2454C35.9445 37.7008 36.485 39.4301 36.485 41.2838C36.485 46.4488 32.2827 50.65 27.1188 50.65C21.9549 50.65 17.7526 46.4477 17.7526 41.2838C17.7526 39.4311 18.2941 37.7019 19.2256 36.2454L19.0846 34.983C18.9175 35.066 18.7339 35.1106 18.542 35.1106C18.2163 35.1106 17.9103 34.984 17.68 34.7537L16.6686 33.7423C16.3627 33.8958 16.0462 34.0272 15.7215 34.1355V35.5649C15.7215 36.2371 15.1748 36.7838 14.5026 36.7838H12.4943C11.8221 36.7838 11.2754 36.2371 11.2754 35.5649V34.1355C10.9507 34.0274 10.6342 33.896 10.3283 33.7423L9.31692 34.7537C9.08662 34.984 8.78061 35.1106 8.45488 35.1106C8.12916 35.1106 7.82314 34.984 7.59285 34.7537L6.17272 33.3336C5.94243 33.1033 5.81588 32.7973 5.81588 32.4716C5.81588 32.1459 5.94243 31.8398 6.17272 31.6095L7.18414 30.5981C7.03084 30.2921 6.89946 29.9756 6.79098 29.651H5.36048C4.68828 29.651 4.1416 29.1044 4.1416 28.4322V26.4239C4.1416 25.7517 4.68828 25.205 5.36048 25.205H6.78994C6.89805 24.8802 7.02944 24.5637 7.1831 24.2579L6.17169 23.2465C5.9414 23.0162 5.81484 22.7102 5.81484 22.3844C5.81484 22.0587 5.9414 21.7527 6.17169 21.5224L7.59181 20.1023C8.06692 19.6272 8.84077 19.6272 9.31588 20.1023L10.3273 21.1137C10.6331 20.96 10.9497 20.8286 11.2744 20.7205V19.0058H10.9725C9.55136 19.0058 8.39472 17.8492 8.39472 16.428C8.39472 15.0068 9.55136 13.8502 10.9725 13.8502H43.2651C44.6873 13.8502 45.8429 15.0058 45.8429 16.428ZM18.542 33.8554L19.9258 32.4716L18.9196 31.4654C18.5462 31.0919 18.4549 30.5245 18.6945 30.0525C18.8263 29.7921 18.9393 29.5203 19.0296 29.2444C19.1097 29.0003 19.2648 28.7879 19.473 28.6373C19.6811 28.4868 19.9314 28.4059 20.1883 28.4062H21.6105V26.4488H20.1883C19.6603 26.4488 19.1945 26.1116 19.0296 25.6106C18.9393 25.3346 18.8263 25.0629 18.6945 24.8025C18.5781 24.5734 18.5371 24.3133 18.5776 24.0595C18.618 23.8057 18.7377 23.5712 18.9196 23.3896L19.9258 22.3834L18.542 20.9996L17.5358 22.0058C17.1624 22.3793 16.5949 22.4705 16.1229 22.2309C15.8624 22.0989 15.5923 21.9869 15.3149 21.8959C15.0708 21.8158 14.8583 21.6606 14.7078 21.4525C14.5572 21.2444 14.4763 20.994 14.4767 20.7371V19.0037H12.5202V20.7371C12.5202 21.2651 12.1831 21.7309 11.6821 21.8959C11.4048 21.9874 11.1347 22.0994 10.874 22.2309C10.6448 22.3475 10.3846 22.3884 10.1307 22.3478C9.87687 22.3071 9.64242 22.1871 9.46111 22.0048L8.45488 20.9985L7.07106 22.3824L8.07729 23.3886C8.45073 23.762 8.54202 24.3295 8.30239 24.8015C8.17065 25.0608 8.05862 25.3326 7.96733 25.6095C7.88726 25.8536 7.73207 26.0661 7.52396 26.2166C7.31585 26.3672 7.06547 26.448 6.80862 26.4477H5.38642V28.4041H6.80862C7.33662 28.4041 7.80239 28.7413 7.96733 29.2423C8.05885 29.5196 8.17085 29.7897 8.30239 30.0504C8.54098 30.5214 8.45073 31.0888 8.07729 31.4633L7.07106 32.4695L8.45488 33.8533L9.46111 32.8471C9.83455 32.4737 10.402 32.3824 10.874 32.622C11.1333 32.7537 11.4051 32.8658 11.6821 32.9571C11.9261 33.0371 12.1386 33.1923 12.2891 33.4004C12.4397 33.6085 12.5206 33.8589 12.5202 34.1158V35.539H14.4767V34.1168C14.4767 33.5888 14.8138 33.123 15.3149 32.9581C15.5908 32.8678 15.8626 32.7548 16.1229 32.623C16.352 32.5065 16.6121 32.4656 16.866 32.506C17.1198 32.5464 17.3543 32.6662 17.5358 32.8481L18.542 33.8554ZM35.2412 41.2838C35.2412 36.8056 31.598 33.1625 27.1198 33.1625C22.6416 33.1625 18.9985 36.8056 18.9985 41.2838C18.9985 45.762 22.6406 49.4052 27.1188 49.4052C31.597 49.4052 35.2412 45.762 35.2412 41.2838ZM40.5897 19.0058H15.7215V20.7205C16.0462 20.8286 16.3628 20.96 16.6686 21.1137L17.68 20.1023C18.1551 19.6272 18.929 19.6272 19.4041 20.1023L20.8242 21.5224C21.2993 21.9975 21.2993 22.7714 20.8242 23.2465L19.8128 24.2579C19.9663 24.5639 20.0991 24.8824 20.2059 25.205H21.6354C22.3076 25.205 22.8543 25.7517 22.8543 26.4239V28.4322C22.8543 29.1044 22.3076 29.651 21.6354 29.651H20.2059C20.0978 29.9758 19.9664 30.2923 19.8128 30.5981L20.8242 31.6095C21.0545 31.8398 21.181 32.1459 21.181 32.4716C21.181 32.7973 21.0545 33.1033 20.8242 33.3336L20.2205 33.9373L20.3221 34.845C22.0306 33.0421 24.4456 31.9166 27.1188 31.9166C29.792 31.9166 32.208 33.0432 33.9155 34.845L34.1447 32.79C34.152 32.7226 34.1707 32.6562 34.1997 32.594L40.5897 19.0058ZM44.598 16.428C44.598 15.6925 44.0005 15.095 43.2651 15.095H10.9725C10.237 15.095 9.63953 15.6925 9.63953 16.428C9.63953 17.1635 10.237 17.761 10.9725 17.761H43.2651C44.0005 17.761 44.598 17.1624 44.598 16.428ZM21.7651 6.00375C21.7651 3.05147 24.1665 0.650024 27.1188 0.650024C30.0711 0.650024 32.4725 3.05147 32.4725 6.00375C32.4725 8.95605 30.0711 11.3575 27.1188 11.3575C24.1665 11.3575 21.7651 8.95605 21.7651 6.00375ZM23.0099 6.00375C23.0099 8.26931 24.8532 10.1127 27.1188 10.1127C29.3844 10.1127 31.2277 8.26931 31.2277 6.00375C31.2277 3.73819 29.3854 1.89483 27.1188 1.89483C24.8522 1.89483 23.0099 3.73819 23.0099 6.00375ZM26.679 30.1687C26.7367 30.2265 26.8052 30.2724 26.8807 30.3037C26.9562 30.335 27.0371 30.3511 27.1188 30.3511C27.2005 30.3511 27.2814 30.335 27.3569 30.3037C27.4323 30.2724 27.5009 30.2265 27.5586 30.1687L29.6354 28.0919C29.8781 27.8492 29.8781 27.455 29.6354 27.2112C29.3927 26.9674 28.9985 26.9685 28.7547 27.2112L27.7402 28.2257V20.6168C27.7402 20.2734 27.4611 19.9944 27.1178 19.9944C26.7744 19.9944 26.4953 20.2734 26.4953 20.6168V28.2257L25.4808 27.2112C25.2381 26.9685 24.8439 26.9685 24.6012 27.2112C24.4846 27.3279 24.4191 27.4861 24.4191 27.651C24.4191 27.816 24.4846 27.9742 24.6012 28.0909L26.679 30.1687ZM12.0649 8.8077C12.0649 6.53799 13.9113 4.69151 16.181 4.69151C18.4507 4.69151 20.2972 6.53799 20.2972 8.8077C20.2972 11.0774 18.4507 12.9239 16.181 12.9239C13.9113 12.9239 12.0649 11.0774 12.0649 8.8077ZM13.3097 8.8077C13.3097 10.3907 14.598 11.679 16.181 11.679C17.764 11.679 19.0524 10.3907 19.0524 8.8077C19.0524 7.22471 17.764 5.93633 16.181 5.93633C14.598 5.93633 13.3097 7.22471 13.3097 8.8077ZM33.9404 8.8077C33.9404 6.53799 35.7868 4.69151 38.0566 4.69151C40.3263 4.69151 42.1727 6.53799 42.1727 8.8077C42.1727 11.0774 40.3263 12.9239 38.0566 12.9239C35.7868 12.9239 33.9404 11.0774 33.9404 8.8077ZM35.1852 8.8077C35.1852 10.3907 36.4736 11.679 38.0566 11.679C39.6395 11.679 40.9279 10.3907 40.9279 8.8077C40.9279 7.22471 39.6395 5.93633 38.0566 5.93633C36.4736 5.93633 35.1852 7.22471 35.1852 8.8077Z" fill="white"/>
</g>
<defs>
<clipPath id="clip0_74_7086">
<rect width="50" height="50" fill="white" transform="translate(-0.0078125 0.650024)"/>
</clipPath>
</defs>
</svg>
