<svg width="50" height="51" viewBox="0 0 50 51" fill="none" xmlns="http://www.w3.org/2000/svg">
<path d="M21.7953 5.06408C21.6605 4.9068 21.5936 4.7024 21.6094 4.49582C21.6252 4.28924 21.7224 4.09741 21.8797 3.96251L23.1094 2.90939C23.6402 2.47394 24.3056 2.23596 24.9922 2.23596C25.6788 2.23596 26.3442 2.47394 26.875 2.90939L28.1047 3.96329C28.2554 4.09992 28.347 4.28996 28.3598 4.49301C28.3726 4.69606 28.3056 4.89609 28.1732 5.05057C28.0409 5.20504 27.8534 5.30178 27.6508 5.32021C27.4482 5.33863 27.2464 5.27729 27.0883 5.14923L25.8578 4.09532C25.6138 3.89498 25.3079 3.78547 24.9922 3.78547C24.6765 3.78547 24.3706 3.89498 24.1266 4.09532L22.8969 5.15001C22.7392 5.28431 22.5348 5.35066 22.3284 5.33456C22.1219 5.31845 21.9302 5.22119 21.7953 5.06408ZM48.4297 23.1812V45.1812C48.4285 46.2169 48.0165 47.2097 47.2842 47.942C46.5519 48.6743 45.5591 49.0863 44.5234 49.0875H5.46094C4.42532 49.0863 3.43247 48.6743 2.70018 47.942C1.96788 47.2097 1.55593 46.2169 1.55469 45.1812V23.1812C1.55429 22.6176 1.67602 22.0606 1.9115 21.5485C2.14698 21.0364 2.49061 20.5814 2.91875 20.2148L4.17188 19.1422C4.32925 19.0073 4.53375 18.9404 4.74041 18.9563C4.94707 18.9722 5.13894 19.0696 5.27383 19.2269C5.40872 19.3843 5.47557 19.5888 5.45967 19.7955C5.44377 20.0021 5.34643 20.194 5.18907 20.3289L3.93672 21.4023C3.80532 21.5154 3.68688 21.6428 3.5836 21.782L24.1266 39.3922C24.3706 39.5925 24.6765 39.702 24.9922 39.702C25.3079 39.702 25.6138 39.5925 25.8578 39.3922L46.4016 21.7812C46.2983 21.642 46.1799 21.5146 46.0485 21.4016L44.7961 20.3281C44.7182 20.2613 44.6542 20.1798 44.6078 20.0883C44.5613 19.9968 44.5334 19.897 44.5255 19.7947C44.5176 19.6924 44.53 19.5895 44.5619 19.4919C44.5938 19.3944 44.6446 19.3041 44.7113 19.2262C44.7781 19.1482 44.8596 19.0842 44.9511 19.0378C45.0427 18.9914 45.1424 18.9634 45.2448 18.9556C45.3471 18.9477 45.45 18.96 45.5475 18.9919C45.6451 19.0238 45.7354 19.0746 45.8133 19.1414L47.0656 20.2148C47.4938 20.5814 47.8374 21.0364 48.0729 21.5485C48.3084 22.0606 48.4301 22.6176 48.4297 23.1812ZM46.8672 45.1812V23.4398L33.3516 35.0266L46.5469 46.3406C46.7539 45.9891 46.8644 45.5892 46.8672 45.1812ZM16.6328 35.0266L3.11719 23.4406V45.1812C3.11978 45.5891 3.23 45.989 3.43672 46.3406L16.6328 35.0266ZM44.5234 47.525C44.8049 47.5232 45.0836 47.4703 45.3461 47.3687L32.1508 36.0562L26.875 40.5781C26.3507 41.0276 25.6828 41.2747 24.9922 41.2747C24.3016 41.2747 23.6337 41.0276 23.1094 40.5781L17.8336 36.0562L4.63828 47.3687C4.90076 47.4703 5.17952 47.5232 5.46094 47.525H44.5234ZM7.80469 23.0945C8.01189 23.0945 8.2106 23.0122 8.35712 22.8657C8.50363 22.7192 8.58594 22.5205 8.58594 22.3133V10.8062C8.58656 10.1849 8.83369 9.58907 9.27309 9.14967C9.7125 8.71026 10.3083 8.46313 10.9297 8.46251H39.0547C39.6761 8.46313 40.2719 8.71026 40.7113 9.14967C41.1507 9.58907 41.3978 10.1849 41.3984 10.8062V22.3133C41.3984 22.5205 41.4808 22.7192 41.6273 22.8657C41.7738 23.0122 41.9725 23.0945 42.1797 23.0945C42.3869 23.0945 42.5856 23.0122 42.7321 22.8657C42.8786 22.7192 42.961 22.5205 42.961 22.3133V10.8062C42.9597 9.77064 42.5478 8.77779 41.8155 8.0455C41.0832 7.3132 40.0903 6.90125 39.0547 6.90001H10.9297C9.89407 6.90125 8.90122 7.3132 8.16892 8.0455C7.43663 8.77779 7.02468 9.77064 7.02344 10.8062V22.3133C7.02344 22.5205 7.10575 22.7192 7.25226 22.8657C7.39878 23.0122 7.59749 23.0945 7.80469 23.0945ZM16.3985 27.9937V23.8141C15.356 23.446 14.4774 22.7212 13.9178 21.7678C13.3583 20.8144 13.154 19.6938 13.341 18.6043C13.5281 17.5147 14.0944 16.5265 14.9399 15.8142C15.7854 15.102 16.8555 14.7118 17.961 14.7125H20.3047C25.2774 14.7125 27.4063 12.0117 27.4945 11.8969C27.5936 11.7669 27.7309 11.6713 27.8871 11.6234C28.0434 11.5755 28.2107 11.5777 28.3656 11.6298C28.5205 11.6818 28.6552 11.7811 28.7507 11.9136C28.8463 12.0462 28.898 12.2053 28.8984 12.3687V17.0562H29.6797C30.3013 17.0562 30.8974 17.3032 31.337 17.7427C31.7765 18.1822 32.0234 18.7784 32.0234 19.4C32.0234 20.0216 31.7765 20.6177 31.337 21.0573C30.8974 21.4968 30.3013 21.7437 29.6797 21.7437H28.8984V26.4312C28.8984 26.5952 28.8469 26.755 28.751 26.888C28.6551 27.0211 28.5198 27.1206 28.3643 27.1724C28.2087 27.2243 28.0408 27.2258 27.8843 27.177C27.7277 27.1281 27.5906 27.0312 27.4922 26.9C27.411 26.7945 25.4985 24.3766 21.086 24.1141V27.9937C21.086 28.6153 20.839 29.2115 20.3995 29.651C19.9599 30.0906 19.3638 30.3375 18.7422 30.3375C18.1206 30.3375 17.5245 30.0906 17.0849 29.651C16.6454 29.2115 16.3985 28.6153 16.3985 27.9937ZM28.8984 18.6187V20.1812H29.6797C29.8869 20.1812 30.0856 20.0989 30.2321 19.9524C30.3786 19.8059 30.461 19.6072 30.461 19.4C30.461 19.1928 30.3786 18.9941 30.2321 18.8476C30.0856 18.7011 29.8869 18.6187 29.6797 18.6187H28.8984ZM19.5235 27.9937V24.0875H17.961V27.9937C17.961 28.2009 18.0433 28.3997 18.1898 28.5462C18.3363 28.6927 18.535 28.775 18.7422 28.775C18.9494 28.775 19.1481 28.6927 19.2946 28.5462C19.4411 28.3997 19.5235 28.2009 19.5235 27.9937ZM21.086 16.2422V22.5578C23.3291 22.6268 25.5025 23.3535 27.336 24.6476V14.1523C25.5025 15.4465 23.3291 16.1732 21.086 16.2422ZM17.961 22.525H19.5235V16.275H17.961C17.1321 16.275 16.3373 16.6042 15.7512 17.1903C15.1652 17.7763 14.836 18.5712 14.836 19.4C14.836 20.2288 15.1652 21.0236 15.7512 21.6097C16.3373 22.1958 17.1321 22.525 17.961 22.525ZM35.9297 18.6187H34.3672C34.16 18.6187 33.9613 18.7011 33.8148 18.8476C33.6683 18.9941 33.586 19.1928 33.586 19.4C33.586 19.6072 33.6683 19.8059 33.8148 19.9524C33.9613 20.0989 34.16 20.1812 34.3672 20.1812H35.9297C36.1369 20.1812 36.3356 20.0989 36.4821 19.9524C36.6286 19.8059 36.711 19.6072 36.711 19.4C36.711 19.1928 36.6286 18.9941 36.4821 18.8476C36.3356 18.7011 36.1369 18.6187 35.9297 18.6187ZM34.7164 21.8258C34.531 21.7332 34.3163 21.718 34.1197 21.7836C33.9231 21.8493 33.7606 21.9903 33.668 22.1758C33.5754 22.3612 33.5602 22.5759 33.6258 22.7725C33.6915 22.9691 33.8325 23.1316 34.018 23.2242L35.5805 24.0055C35.7659 24.0981 35.9806 24.1132 36.1772 24.0476C36.2745 24.0151 36.3645 23.9637 36.4421 23.8965C36.5196 23.8292 36.5831 23.7473 36.6289 23.6555C36.6748 23.5636 36.7021 23.4637 36.7093 23.3613C36.7166 23.2589 36.7036 23.1561 36.6711 23.0588C36.6386 22.9614 36.5872 22.8714 36.5199 22.7939C36.4526 22.7164 36.3707 22.6529 36.2789 22.607L34.7164 21.8258ZM34.368 17.0562C34.4889 17.0563 34.6082 17.0283 34.7164 16.9742L36.2789 16.193C36.3707 16.1471 36.4526 16.0836 36.5199 16.0061C36.5872 15.9286 36.6386 15.8386 36.6711 15.7412C36.7036 15.6439 36.7166 15.5411 36.7093 15.4387C36.7021 15.3363 36.6748 15.2363 36.6289 15.1445C36.5831 15.0527 36.5196 14.9708 36.4421 14.9035C36.3645 14.8362 36.2745 14.7849 36.1772 14.7524C35.9806 14.6867 35.7659 14.7019 35.5805 14.7945L34.018 15.5758C33.8603 15.6543 33.7339 15.7839 33.6591 15.9434C33.5843 16.1028 33.5656 16.2829 33.6061 16.4544C33.6465 16.6258 33.7437 16.7785 33.8819 16.8878C34.02 16.997 34.1918 17.0564 34.368 17.0562Z" fill="white"/>
</svg>
