<svg width="50" height="51" viewBox="0 0 50 51" fill="none" xmlns="http://www.w3.org/2000/svg">
<g clip-path="url(#clip0_74_7075)">
<path fill-rule="evenodd" clip-rule="evenodd" d="M0.224609 6.5994C0.224609 3.89629 2.41543 1.70435 5.11966 1.70435H15.4768C15.7529 1.70435 15.9768 1.92821 15.9768 2.20435C15.9768 2.48049 15.7529 2.70435 15.4768 2.70435H5.11966C2.96786 2.70435 1.22461 4.44843 1.22461 6.5994V11.264H20.3871C20.6632 11.264 20.8871 11.4879 20.8871 11.764C20.8871 12.0402 20.6632 12.264 20.3871 12.264H1.22461V40.4617C1.22461 42.6127 2.96786 44.3568 5.11966 44.3568H38.1626C38.4388 44.3568 38.6626 44.5806 38.6626 44.8568C38.6626 45.1329 38.4388 45.3568 38.1626 45.3568H5.11966C2.41543 45.3568 0.224609 43.1648 0.224609 40.4617V6.5994ZM17.8723 2.20435C17.8723 1.92821 18.0962 1.70435 18.3723 1.70435H44.8646C47.5678 1.70435 49.7596 3.89621 49.7596 6.5994V31.7627C49.7596 32.0388 49.5358 32.2627 49.2596 32.2627C48.9835 32.2627 48.7596 32.0388 48.7596 31.7627V12.264H29.5962C29.32 12.264 29.0962 12.0402 29.0962 11.764C29.0962 11.4879 29.32 11.264 29.5962 11.264H48.7596V6.5994C48.7596 4.4485 47.0155 2.70435 44.8646 2.70435H18.3723C18.0962 2.70435 17.8723 2.48049 17.8723 2.20435ZM49.2596 34.2861C49.5358 34.2861 49.7596 34.5099 49.7596 34.7861V40.4617C49.7596 42.133 48.9212 43.6093 47.644 44.4908C47.4167 44.6477 47.1054 44.5906 46.9485 44.3634C46.7916 44.1361 46.8487 43.8247 47.076 43.6678C48.094 42.9652 48.7596 41.7908 48.7596 40.4617V34.7861C48.7596 34.5099 48.9835 34.2861 49.2596 34.2861Z" fill="white"/>
<path fill-rule="evenodd" clip-rule="evenodd" d="M24.9923 19.3536C25.2684 19.3536 25.4923 19.5774 25.4923 19.8536V20.8526C26.2086 20.9339 26.8621 21.1879 27.3724 21.5706C27.9994 22.0409 28.4339 22.7287 28.4339 23.5306C28.4339 23.8067 28.2101 24.0306 27.9339 24.0306C27.6578 24.0306 27.4339 23.8067 27.4339 23.5306C27.4339 23.114 27.21 22.6988 26.7724 22.3706C26.3346 22.0423 25.707 21.8245 24.9924 21.8245C24.2778 21.8245 23.6501 22.0423 23.2124 22.3706C22.7748 22.6988 22.5508 23.114 22.5508 23.5306C22.5508 23.9471 22.7748 24.3623 23.2124 24.6905C23.6501 25.0189 24.2778 25.2367 24.9924 25.2367C25.9024 25.2367 26.7455 25.5127 27.3724 25.9829C27.9994 26.4531 28.4339 27.141 28.4339 27.9428C28.4339 28.7447 27.9994 29.4325 27.3724 29.9028C26.8621 30.2855 26.2086 30.5395 25.4924 30.6208L25.4923 31.6197C25.4923 31.8959 25.2684 32.1197 24.9923 32.1197C24.7161 32.1197 24.4923 31.8958 24.4923 31.6197L24.4924 30.6208C23.7761 30.5395 23.1226 30.2855 22.6124 29.9028C21.9854 29.4325 21.5508 28.7447 21.5508 27.9428C21.5508 27.6667 21.7747 27.4428 22.0508 27.4428C22.327 27.4428 22.5508 27.6667 22.5508 27.9428C22.5508 28.3594 22.7748 28.7746 23.2124 29.1028C23.6501 29.4311 24.2778 29.6489 24.9924 29.6489C25.707 29.6489 26.3346 29.4311 26.7724 29.1028C27.21 28.7746 27.4339 28.3594 27.4339 27.9428C27.4339 27.5263 27.21 27.1111 26.7724 26.7829C26.3346 26.4546 25.707 26.2367 24.9924 26.2367C24.0824 26.2367 23.2393 25.9607 22.6124 25.4905C21.9854 25.0203 21.5508 24.3325 21.5508 23.5306C21.5508 22.7287 21.9854 22.0409 22.6124 21.5706C23.1226 21.188 23.7761 20.9339 24.4923 20.8526V19.8536C24.4923 19.5774 24.7161 19.3536 24.9923 19.3536ZM36.3714 34.5151C36.5212 34.2831 36.8307 34.2165 37.0627 34.3663C41.9887 37.5474 45.253 40.0911 46.8821 42.2673C47.7019 43.3625 48.1472 44.4159 48.1325 45.4484C48.1175 46.4943 47.6327 47.4247 46.7888 48.2685C45.9417 49.1157 45.0125 49.5967 43.9687 49.5957C42.9403 49.5947 41.8972 49.1249 40.8134 48.2817C38.6585 46.6052 36.1275 43.2792 32.918 38.3006C32.7684 38.0685 32.8353 37.759 33.0674 37.6094C33.2995 37.4598 33.6089 37.5266 33.7585 37.7587C36.9756 42.7493 39.4247 45.9343 41.4274 47.4924C42.4224 48.2665 43.2525 48.595 43.9697 48.5957C44.6716 48.5964 45.3604 48.2827 46.0817 47.5614C46.7995 46.8436 47.1224 46.1479 47.1326 45.4341C47.1429 44.7071 46.8306 43.8673 46.0815 42.8666C44.5726 40.851 41.4533 38.392 36.5202 35.2063C36.2882 35.0565 36.2216 34.747 36.3714 34.5151Z" fill="white"/>
<path fill-rule="evenodd" clip-rule="evenodd" d="M24.9918 11.5289C17.1452 11.5289 10.7842 17.8899 10.7842 25.7365C10.7842 33.5831 17.1452 39.9441 24.9918 39.9441C32.8384 39.9441 39.1994 33.5831 39.1994 25.7365C39.1994 17.8899 32.8384 11.5289 24.9918 11.5289ZM9.78418 25.7365C9.78418 17.3376 16.5929 10.5289 24.9918 10.5289C33.3907 10.5289 40.1994 17.3376 40.1994 25.7365C40.1994 34.1354 33.3907 40.9441 24.9918 40.9441C16.5929 40.9441 9.78418 34.1354 9.78418 25.7365Z" fill="white"/>
<path fill-rule="evenodd" clip-rule="evenodd" d="M24.9915 16.6764C19.9879 16.6764 15.9316 20.7327 15.9316 25.7363C15.9316 30.74 19.9879 34.7962 24.9915 34.7962C29.9952 34.7962 34.0514 30.74 34.0514 25.7363C34.0514 20.7327 29.9952 16.6764 24.9915 16.6764ZM14.9316 25.7363C14.9316 20.1804 19.4356 15.6764 24.9915 15.6764C30.5474 15.6764 35.0514 20.1804 35.0514 25.7363C35.0514 31.2923 30.5474 35.7962 24.9915 35.7962C19.4356 35.7962 14.9316 31.2923 14.9316 25.7363Z" fill="white"/>
<path fill-rule="evenodd" clip-rule="evenodd" d="M18.8926 5.38123C19.1688 5.38123 19.3926 5.60509 19.3926 5.88123V7.05324C19.3926 7.32939 19.1688 7.55324 18.8926 7.55324C18.6165 7.55324 18.3926 7.32939 18.3926 7.05324V5.88123C18.3926 5.60509 18.6165 5.38123 18.8926 5.38123ZM31.091 5.38123C31.3672 5.38123 31.591 5.60509 31.591 5.88123V7.05324C31.591 7.32939 31.3672 7.55324 31.091 7.55324C30.8149 7.55324 30.591 7.32939 30.591 7.05324V5.88123C30.591 5.60509 30.8149 5.38123 31.091 5.38123ZM23.0553 6.64141C23.2635 6.46 23.5793 6.48171 23.7607 6.6899C24.061 7.03449 24.5008 7.25098 24.9918 7.25098C25.4827 7.25098 25.9225 7.03449 26.2228 6.6899C26.4042 6.48171 26.72 6.46 26.9282 6.64141C27.1364 6.82282 27.1581 7.13866 26.9767 7.34685C26.4951 7.89963 25.7845 8.25098 24.9918 8.25098C24.199 8.25098 23.4885 7.89963 23.0068 7.34685C22.8254 7.13866 22.8471 6.82282 23.0553 6.64141Z" fill="white"/>
</g>
<defs>
<clipPath id="clip0_74_7075">
<rect width="50" height="50" fill="white" transform="translate(-0.0078125 0.650024)"/>
</clipPath>
</defs>
</svg>
