<svg width="50" height="51" viewBox="0 0 50 51" fill="none" xmlns="http://www.w3.org/2000/svg">
<path d="M34.9847 45.5574C34.9489 45.5574 34.9132 45.5503 34.8775 45.5431C34.8328 45.5288 34.7914 45.5058 34.7557 45.4753C34.7199 45.4449 34.6906 45.4077 34.6693 45.3658C34.6481 45.324 34.6353 45.2783 34.6318 45.2315C34.6283 45.1847 34.6341 45.1377 34.6489 45.0931C34.7204 44.8646 34.7275 44.6146 34.6632 44.386C34.5132 43.8289 33.9489 43.4289 33.3204 43.4289C32.8489 43.4289 32.3847 43.3503 31.9418 43.186C31.8589 43.1494 31.793 43.0826 31.7574 42.9993C31.7218 42.9159 31.7192 42.8222 31.75 42.737C31.7808 42.6518 31.8428 42.5814 31.9235 42.5401C32.0042 42.4988 32.0975 42.4897 32.1847 42.5146C32.5489 42.6503 32.9347 42.7146 33.3204 42.7146C34.2775 42.7146 35.1132 43.3289 35.3489 44.2003C35.4489 44.5717 35.4418 44.9574 35.3204 45.3146C35.2775 45.4646 35.1347 45.5574 34.9847 45.5574ZM5.16325 37.186C5.1061 37.186 5.0561 37.1717 5.0061 37.1503C4.12839 36.7133 3.39035 36.0397 2.87537 35.2053C2.36039 34.371 2.08898 33.4093 2.09182 32.4289V7.67883C2.09182 4.77168 4.4561 2.4074 7.36325 2.4074H40.4418C41.4198 2.40325 42.3793 2.67348 43.2114 3.18737C44.0435 3.70127 44.7147 4.43823 45.1489 5.31454C45.2347 5.49311 45.1632 5.7074 44.9918 5.79311C44.9496 5.81383 44.9037 5.82602 44.8568 5.82898C44.8099 5.83193 44.7629 5.8256 44.7184 5.81034C44.6739 5.79507 44.6329 5.77118 44.5977 5.74003C44.5625 5.70889 44.5338 5.67109 44.5132 5.62883C44.1387 4.87215 43.5591 4.23592 42.8405 3.79265C42.1219 3.34938 41.2932 3.11689 40.4489 3.12168H7.36325C4.84896 3.12168 2.8061 5.16454 2.8061 7.67883V32.4289C2.8061 34.1717 3.77039 35.736 5.32039 36.5074C5.49896 36.5931 5.57039 36.8074 5.47753 36.986C5.44999 37.0461 5.40568 37.0969 5.34992 37.1324C5.29416 37.1679 5.22934 37.1865 5.16325 37.186ZM14.9989 46.7146H14.4847C13.3918 46.7146 12.4704 45.9074 12.3847 44.8717C12.3347 44.2789 12.5489 43.7074 12.9704 43.2931C13.3347 42.9146 13.8418 42.7074 14.3847 42.7074H14.5918C16.3847 42.7074 17.8347 41.3003 17.8918 39.5074C17.8989 39.3074 18.0347 39.136 18.2632 39.1646C18.4632 39.1717 18.6132 39.336 18.6061 39.536C18.5759 40.5793 18.1393 41.5695 17.3893 42.2954C16.6394 43.0213 15.6355 43.4255 14.5918 43.4217H14.3847C14.0347 43.4217 13.7204 43.5503 13.4775 43.8003C13.3445 43.9316 13.2416 44.0905 13.1763 44.2656C13.1109 44.4408 13.0845 44.6281 13.0989 44.8146C13.1561 45.4789 13.7632 46.0003 14.4847 46.0003H14.9989C15.1989 46.0003 15.3561 46.1574 15.3561 46.3574C15.3561 46.5574 15.1989 46.7146 14.9989 46.7146Z" fill="white"/>
<path d="M42.6205 39.8785H9.5348C6.6348 39.8785 4.27051 37.5142 4.27051 34.6071V9.85712C4.27051 6.94997 6.6348 4.58569 9.5348 4.58569H42.6205C45.5276 4.58569 47.8919 6.94997 47.8919 9.85712V34.6071C47.8919 37.5142 45.5276 39.8785 42.6205 39.8785ZM9.5348 5.29997C7.02766 5.29997 4.9848 7.34283 4.9848 9.85712V34.6071C4.9848 37.1214 7.02766 39.1642 9.5348 39.1642H42.6205C45.1348 39.1642 47.1776 37.1214 47.1776 34.6071V9.85712C47.1776 7.34283 45.1348 5.29997 42.6205 5.29997H9.5348Z" fill="white"/>
<path d="M47.5348 33.5571H4.62766C4.42766 33.5571 4.27051 33.3999 4.27051 33.1999C4.27051 32.9999 4.42766 32.8428 4.62766 32.8428H47.5348C47.7348 32.8428 47.8919 32.9999 47.8919 33.1999C47.8919 33.3999 47.7348 33.5571 47.5348 33.5571ZM35.5848 48.8928H16.6633C15.5705 48.8928 14.649 48.0856 14.5633 47.0499C14.5133 46.4571 14.7276 45.8785 15.149 45.4714C15.5276 45.0928 16.0276 44.8857 16.5633 44.8857H16.7633C17.6399 44.8838 18.4799 44.5347 19.0997 43.9149C19.7195 43.2951 20.0686 42.455 20.0705 41.5785V39.5285C20.0705 39.3285 20.2276 39.1714 20.4276 39.1714H31.8205C32.0205 39.1714 32.1776 39.3285 32.1776 39.5285V41.5785C32.1795 42.455 32.5285 43.2951 33.1483 43.9149C33.7681 44.5347 34.6082 44.8838 35.4847 44.8857C36.449 44.8857 37.2848 45.4999 37.5133 46.3714C37.699 47.0714 37.499 47.7928 36.9919 48.2999C36.6276 48.6785 36.1205 48.8928 35.5848 48.8928ZM16.5705 45.5999C16.2276 45.5999 15.899 45.7357 15.6562 45.9785C15.3848 46.2428 15.249 46.6071 15.2776 46.9928C15.3276 47.6571 15.9419 48.1714 16.6633 48.1714H35.5848C35.9276 48.1714 36.2562 48.0357 36.499 47.7928C36.8276 47.4642 36.9562 46.9999 36.8348 46.5499C36.6919 45.9999 36.1276 45.5999 35.499 45.5999C33.2776 45.5999 31.4776 43.7928 31.4776 41.5785V39.8857H20.7919V41.5785C20.7919 43.7999 18.9848 45.5999 16.7705 45.5999H16.5705ZM31.349 36.7214H20.8133C20.6133 36.7214 20.4562 36.5642 20.4562 36.3642C20.4562 36.1642 20.6133 36.0071 20.8133 36.0071H31.349C31.549 36.0071 31.7062 36.1642 31.7062 36.3642C31.7062 36.5642 31.549 36.7214 31.349 36.7214ZM26.0847 29.5928C20.449 29.5928 15.8705 25.0071 15.8705 19.3785C15.8705 13.7499 20.4562 9.17139 26.0847 9.17139C31.7133 9.17139 36.2919 13.7499 36.2919 19.3785C36.2919 19.6856 36.2776 19.9785 36.249 20.2785C36.2276 20.4714 36.0562 20.6142 35.8562 20.5999C35.7616 20.5902 35.6747 20.5434 35.6144 20.4698C35.5542 20.3962 35.5256 20.3017 35.5347 20.2071C35.5633 19.9356 35.5776 19.6571 35.5776 19.3785C35.5776 14.1428 31.3205 9.88568 26.0847 9.88568C20.849 9.88568 16.5848 14.1428 16.5848 19.3785C16.5848 24.6142 20.849 28.8785 26.0847 28.8785C28.249 28.8785 30.2776 28.1714 31.9633 26.8356C32.1205 26.7142 32.3419 26.7357 32.4633 26.8928C32.5848 27.0499 32.5633 27.2714 32.4062 27.3928C30.6073 28.8178 28.3797 29.5931 26.0847 29.5928Z" fill="white"/>
<path d="M26.0854 26.2287C22.3068 26.2287 19.2354 23.1573 19.2354 19.3787C19.2354 15.6073 22.3068 12.5358 26.0854 12.5358C29.8568 12.5358 32.9283 15.6073 32.9283 19.3787C32.9283 19.5644 32.9211 19.7501 32.9068 19.9358C32.8929 20.0254 32.8456 20.1064 32.7744 20.1626C32.7033 20.2187 32.6135 20.2459 32.5232 20.2387C32.4328 20.2315 32.3485 20.1903 32.2872 20.1236C32.2259 20.0568 32.1921 19.9693 32.1925 19.8787C32.2068 19.7073 32.214 19.5501 32.214 19.3787C32.214 16.0001 29.464 13.2501 26.0854 13.2501C22.6997 13.2501 19.9497 16.0001 19.9497 19.3787C19.9497 22.7644 22.6997 25.5144 26.0854 25.5144C27.8783 25.5144 29.5783 24.7287 30.7425 23.3644C30.8711 23.2144 31.0997 23.193 31.2497 23.3216C31.3997 23.4501 31.4211 23.6716 31.2925 23.8287C30.6498 24.5815 29.8514 25.1859 28.9524 25.6002C28.0534 26.0146 27.0753 26.229 26.0854 26.2287Z" fill="white"/>
<path d="M24.3779 16.2786C24.7279 15.8929 25.2207 15.7 25.8564 15.6929V15.0643H26.3064V15.6857C26.935 15.7286 27.4207 15.9143 27.7564 16.2429C28.0921 16.5714 28.2707 17 28.285 17.5429H27.4564C27.4424 17.3234 27.3763 17.1104 27.2636 16.9214C27.0636 16.6 26.7493 16.4357 26.3136 16.4214V18.7286C27.0493 18.9357 27.5421 19.1286 27.8064 19.3072C28.235 19.6072 28.4493 20.0429 28.4493 20.6286C28.4493 21.4714 28.1779 22.0643 27.6279 22.4214C27.3279 22.6143 26.885 22.75 26.3136 22.8072V23.7286H25.8636V22.7929C24.9421 22.7357 24.3207 22.4072 23.9921 21.8143C23.8136 21.4929 23.7207 21.0643 23.7207 20.5214H24.5564C24.585 20.9572 24.6493 21.2714 24.7636 21.4714C24.9564 21.8286 25.3207 22.0286 25.8564 22.0714V19.4857C25.1707 19.3572 24.6707 19.1429 24.3421 18.8357C24.0136 18.5357 23.8564 18.1143 23.8564 17.5714C23.8493 17.0929 24.0279 16.6643 24.3779 16.2786ZM25.0136 18.25C25.2207 18.4286 25.4993 18.55 25.8493 18.6214V16.3929C25.435 16.4072 25.1421 16.5357 24.9636 16.7714C24.785 17.0072 24.6993 17.2572 24.6993 17.5143C24.7064 17.8286 24.8064 18.0786 25.0136 18.25ZM27.435 21.5C27.5421 21.3072 27.5993 21.0929 27.5993 20.8429C27.5993 20.45 27.4564 20.15 27.1636 19.9429C26.9993 19.8214 26.7136 19.7072 26.3207 19.6V22.0929C26.8564 22.0643 27.2279 21.8714 27.435 21.5ZM39.4064 31.1C39.0636 31.1 38.735 30.9857 38.4636 30.7643L34.9993 27.9857L34.6779 28.3857C34.3279 28.8286 33.785 29.0286 33.2279 28.9286C32.9613 28.8826 32.7125 28.7644 32.5085 28.5868C32.3044 28.4092 32.153 28.1791 32.0707 27.9215L29.9136 21.4143C29.7493 20.9286 29.8493 20.4 30.1707 20C30.4921 19.6 30.9921 19.3857 31.4993 19.4429L38.3207 20.1286C38.8779 20.1857 39.3421 20.5286 39.5564 21.05C39.7707 21.5643 39.6921 22.1357 39.3421 22.5714L38.8493 23.1929L42.3136 25.9715C42.6279 26.2215 42.8279 26.5857 42.8707 26.9857C42.9136 27.3857 42.7993 27.7857 42.5493 28.1L40.5993 30.5357C40.3421 30.85 39.985 31.05 39.585 31.0929C39.5207 31.1 39.4636 31.1 39.4064 31.1ZM34.9421 27.1357C35.0207 27.1357 35.0993 27.1643 35.1636 27.2143L38.9064 30.2143C39.0707 30.35 39.285 30.4072 39.4993 30.3857C39.7136 30.3643 39.9064 30.2572 40.035 30.0929L41.985 27.6572C42.1207 27.4929 42.1779 27.2786 42.1564 27.0643C42.135 26.85 42.0279 26.6572 41.8636 26.5286L38.1207 23.5286C38.084 23.4996 38.0533 23.4637 38.0305 23.4228C38.0077 23.382 37.9933 23.337 37.9879 23.2905C37.9826 23.244 37.9866 23.1969 37.9996 23.152C38.0125 23.107 38.0343 23.0651 38.0636 23.0286L38.785 22.1286C38.9707 21.9 39.0136 21.6 38.8993 21.3286C38.785 21.0572 38.5421 20.8786 38.2493 20.8429L31.4207 20.1572C31.1493 20.1286 30.8921 20.2357 30.7207 20.45C30.5493 20.6643 30.4993 20.9357 30.585 21.1929L32.7421 27.7C32.835 27.9786 33.0636 28.1786 33.3493 28.2286C33.6421 28.2786 33.9279 28.1714 34.1136 27.9429L34.6564 27.2643C34.735 27.1786 34.8421 27.1357 34.9421 27.1357Z" fill="white"/>
</svg>
