<svg width="50" height="51" viewBox="0 0 50 51" fill="none" xmlns="http://www.w3.org/2000/svg">
<g clip-path="url(#clip0_74_7096)">
<path d="M43.725 31.6818C44.3552 29.7367 44.6752 27.708 44.6752 25.6408C44.6752 23.5812 44.3575 21.5599 43.7312 19.6209C45.1086 19.1036 46.361 18.2754 47.4009 17.1741C49.198 15.2718 50.1463 12.783 50.0716 10.1673C49.9167 4.76691 45.3978 0.500122 39.9966 0.654224C37.3804 0.729028 34.9505 1.81809 33.1533 3.72082C32.2458 4.68176 31.5554 5.79221 31.1033 6.99309C29.1639 6.36711 27.1426 6.04934 25.0822 6.04934C23.0207 6.04934 20.9979 6.36789 19.0573 6.99465C17.6577 3.29094 14.0757 0.650024 9.88789 0.650024C4.48516 0.650024 0.0898438 5.04533 0.0898438 10.4477C0.0898438 14.6351 2.73115 18.2167 6.43487 19.6159C5.80772 21.5568 5.48955 23.5798 5.48955 25.6408C5.48955 27.708 5.80957 29.7367 6.43975 31.6818C2.7334 33.0799 0.0898438 36.663 0.0898438 40.8523C0.0898438 42.3271 0.409473 43.745 1.04004 45.0664C1.08145 45.1532 1.13957 45.2311 1.21106 45.2954C1.28255 45.3598 1.36603 45.4094 1.45671 45.4415C1.5474 45.4737 1.64352 45.4876 1.73959 45.4825C1.83565 45.4775 1.92979 45.4535 2.0166 45.4121C2.19184 45.3283 2.32667 45.1784 2.39148 44.9953C2.4563 44.8123 2.44581 44.6109 2.36231 44.4355C1.82627 43.3125 1.55469 42.107 1.55469 40.8523C1.55469 36.2579 5.29307 32.5199 9.88789 32.5199C14.4831 32.5199 18.2215 36.2579 18.2215 40.8523C18.2215 45.4471 14.4831 49.1852 9.88789 49.1852C7.79219 49.1852 5.78897 48.4043 4.24785 46.9863C3.95 46.7125 3.48643 46.7319 3.21289 47.0295C3.14776 47.1003 3.0972 47.1832 3.06412 47.2735C3.03103 47.3638 3.01607 47.4598 3.02008 47.5559C3.02409 47.652 3.04699 47.7463 3.08748 47.8336C3.12797 47.9208 3.18525 47.9993 3.25606 48.0644C5.06836 49.7318 7.42364 50.65 9.88789 50.65C14.0818 50.65 17.6684 48.0011 19.0634 44.289C21.0017 44.9146 23.0227 45.2323 25.0822 45.2323C27.1422 45.2323 29.1636 44.9146 31.1018 44.2894C32.497 48.0016 36.0835 50.65 40.2774 50.65C45.6801 50.65 50.0754 46.2547 50.0754 40.8523C50.0754 36.663 47.4318 33.0795 43.725 31.6818ZM34.2185 4.72639C35.7466 3.10822 37.8138 2.18205 40.0389 2.11828C40.1195 2.116 40.2001 2.11486 40.2808 2.11486C44.7661 2.11486 48.4781 5.69729 48.607 10.2089C48.6708 12.4336 47.8644 14.55 46.3362 16.1686C44.808 17.7867 42.7408 18.713 40.5157 18.7767C40.4351 18.7789 40.3545 18.7801 40.2738 18.7801C35.7885 18.7801 32.0765 15.1978 31.9476 10.6861C31.8834 8.46135 32.6902 6.34465 34.2185 4.72639ZM30.6909 42.8825C28.8862 43.4692 27.0029 43.7675 25.0822 43.7675C23.1623 43.7675 21.279 43.4692 19.4742 42.8825C19.6153 42.215 19.6864 41.5345 19.6863 40.8522C19.6863 35.4499 15.2906 31.0551 9.88789 31.0551C9.18789 31.0551 8.50508 31.1294 7.84629 31.2694C7.25459 29.4582 6.9544 27.5681 6.9544 25.6408C6.9544 23.7197 7.25313 21.8356 7.84092 20.029C8.51375 20.1727 9.19987 20.2451 9.88789 20.2449C11.5664 20.2449 13.2224 19.8131 14.6776 18.9964C15.0302 18.7984 15.1556 18.3521 14.9576 17.9993C14.7597 17.6465 14.3133 17.5213 13.9606 17.7192C12.7237 18.4132 11.3153 18.7801 9.88789 18.7801C5.29268 18.7801 1.55469 15.0421 1.55469 10.4473C1.55469 5.85285 5.29307 2.11486 9.88789 2.11486C14.4831 2.11486 18.2215 5.85285 18.2215 10.4477C18.2215 12.3699 17.5513 14.2452 16.3344 15.7287C16.0776 16.0412 16.1234 16.5027 16.4362 16.7595C16.5864 16.8826 16.7794 16.941 16.9727 16.9219C17.1659 16.9028 17.3437 16.8078 17.4669 16.6576C18.8979 14.9132 19.6863 12.7074 19.6863 10.4473C19.6863 9.74582 19.6111 9.06105 19.4704 8.4007C21.2767 7.81281 23.1611 7.51418 25.0822 7.51418C27.0029 7.51418 28.8866 7.81252 30.6921 8.39953C30.5306 9.16471 30.4605 9.94634 30.4831 10.728C30.6353 16.0331 34.9993 20.2453 40.2734 20.2449C40.9626 20.245 41.65 20.1732 42.3242 20.0306C42.9117 21.8364 43.2105 23.7205 43.2105 25.6409C43.2105 27.5681 42.9099 29.4583 42.3186 31.2694C41.6476 31.1266 40.9634 31.0548 40.2774 31.0551C34.8745 31.0551 30.4793 35.45 30.4793 40.8523C30.4793 41.5485 30.5526 42.2275 30.6909 42.8825ZM40.2774 49.1852C35.6821 49.1852 31.9442 45.4472 31.9442 40.8527C31.9442 36.2579 35.6821 32.5199 40.2774 32.5199C44.8725 32.5199 48.6106 36.2579 48.6106 40.8527C48.6106 45.4472 44.8725 49.1852 40.2774 49.1852Z" fill="white"/>
<path d="M14.8752 6.12417C14.7519 6.04028 14.606 5.99602 14.4569 5.99731C14.3078 5.99861 14.1627 6.04538 14.0409 6.13139C13.7922 6.30674 13.5248 6.45399 13.2437 6.57045C12.2374 5.78305 10.779 5.79223 9.77998 6.66088C9.26462 7.10832 8.93642 7.73322 8.86054 8.41147C8.32416 8.33166 7.80966 8.14343 7.34841 7.85826C6.88716 7.57309 6.48884 7.19695 6.17773 6.75278C6.10314 6.64687 6.00183 6.5626 5.88411 6.50854C5.76639 6.45447 5.63646 6.43254 5.50752 6.44497C5.37848 6.45747 5.25507 6.50399 5.1499 6.57979C5.04472 6.65559 4.96155 6.75795 4.90888 6.87641C4.88798 6.92368 4.39511 8.04975 4.458 9.42807C4.50615 10.4828 4.88339 11.8423 6.25937 12.8921C5.76239 13.053 5.24094 13.1251 4.71894 13.105C4.5544 13.0986 4.39252 13.1479 4.2594 13.2448C4.12629 13.3417 4.02971 13.4807 3.98524 13.6392C3.94076 13.7978 3.951 13.9667 4.01429 14.1187C4.07758 14.2707 4.19023 14.3969 4.33408 14.4771C5.4831 15.1154 6.71406 15.4351 7.91679 15.4351C9.07226 15.4351 10.2015 15.1398 11.2063 14.5489C12.4662 13.8076 13.3817 12.6729 13.8788 11.2869C13.8944 11.2518 13.9074 11.2153 13.9178 11.1775C14.1733 10.4249 14.3072 9.60043 14.3072 8.72612C14.3072 8.68803 14.3061 8.64946 14.3046 8.61128C14.7236 8.11728 15.0217 7.5324 15.1751 6.90307C15.2102 6.75816 15.2004 6.60597 15.1468 6.46681C15.0932 6.32765 14.9984 6.20812 14.8752 6.12417ZM12.8198 8.4976C12.8344 8.57397 12.842 8.65288 12.842 8.72846C12.842 9.44633 12.7352 10.1113 12.5318 10.712C12.5207 10.7399 12.5114 10.7684 12.504 10.7975C12.1237 11.8618 11.4314 12.7167 10.4636 13.2863C9.57783 13.8077 8.56123 14.0297 7.52509 13.9545C7.76252 13.837 7.99166 13.7035 8.21093 13.5548C8.31895 13.4814 8.40539 13.3804 8.46132 13.2624C8.51726 13.1444 8.54066 13.0135 8.5291 12.8834C8.51749 12.7533 8.47129 12.6287 8.3953 12.5224C8.3193 12.4161 8.21626 12.3322 8.09687 12.2791C6.72929 11.6714 5.99804 10.7048 5.92363 9.40668C5.91004 9.15476 5.91899 8.90213 5.95039 8.6518C6.95781 9.4936 8.24834 9.95297 9.59531 9.91821C9.78624 9.91334 9.96772 9.83409 10.1011 9.69734C10.2344 9.56059 10.309 9.37717 10.3091 9.18618V8.73188C10.3064 8.54917 10.3437 8.36809 10.4183 8.2013C10.493 8.03452 10.6032 7.88607 10.7412 7.76635C11.2647 7.31127 12.0604 7.36655 12.5154 7.88999C12.6048 7.99266 12.7211 8.06835 12.8512 8.10854C12.8059 8.23304 12.795 8.36747 12.8198 8.4976ZM37.8672 11.0252H38.9056V15.3927C38.9056 15.5869 38.9827 15.7732 39.1201 15.9106C39.2575 16.048 39.4437 16.1251 39.638 16.1251C39.8322 16.1251 40.0185 16.048 40.1559 15.9106C40.2932 15.7732 40.3704 15.5869 40.3704 15.3927V11.0252H41.5015C41.9058 11.0252 42.2339 10.6971 42.2339 10.2928C42.2339 9.88852 41.9058 9.5604 41.5015 9.5604H40.3704V7.51118C40.3704 6.80776 40.943 6.2351 41.6468 6.2351H42.595C42.9995 6.2351 43.3274 5.90708 43.3274 5.50268C43.3274 5.30843 43.2503 5.12214 43.1129 4.98478C42.9756 4.84742 42.7893 4.77026 42.595 4.77026H41.6468C40.1354 4.77026 38.9056 5.99975 38.9056 7.51118V9.5604H37.8672C37.4629 9.5604 37.1348 9.88852 37.1348 10.2928C37.1348 10.6971 37.4629 11.0252 37.8672 11.0252ZM8.22617 44.6403C8.40058 44.6403 8.5748 44.5953 8.73007 44.5057L13.7155 41.626C13.8686 41.5374 13.9957 41.4101 14.0841 41.2569C14.1725 41.1037 14.2192 40.93 14.2194 40.7531C14.2194 40.3946 14.0265 40.0601 13.7155 39.8808L8.73017 37.001C8.57696 36.9127 8.40324 36.8662 8.22641 36.8662C8.04958 36.8662 7.87586 36.9127 7.72265 37.001C7.56955 37.0896 7.44239 37.2169 7.3539 37.3701C7.2654 37.5232 7.21866 37.697 7.21836 37.8739V43.6329C7.21836 43.9918 7.41172 44.3264 7.72265 44.5057C7.87569 44.5942 8.04939 44.6405 8.22617 44.6403ZM8.6832 38.6657L12.2981 40.7536L8.6832 42.8413V38.6657ZM43.46 35.6652H37.0947C35.9893 35.6652 35.0897 36.5646 35.0897 37.6705V44.0346C35.0897 45.1405 35.9892 46.04 37.0947 46.04H43.46C44.5654 46.04 45.4648 45.1405 45.4648 44.0346V37.6705C45.4648 36.5647 44.5654 35.6652 43.46 35.6652ZM44 44.0346C44 44.1779 43.9431 44.3152 43.8418 44.4166C43.7406 44.5179 43.6032 44.5749 43.46 44.5751H37.0947C36.9514 44.575 36.8141 44.518 36.7128 44.4166C36.6115 44.3153 36.5546 44.1779 36.5545 44.0346V37.6705C36.5546 37.5273 36.6116 37.3899 36.7129 37.2886C36.8141 37.1872 36.9515 37.1302 37.0947 37.13H43.46C43.6032 37.1303 43.7405 37.1873 43.8417 37.2886C43.943 37.39 43.9999 37.5273 44 37.6705V44.0346Z" fill="white"/>
<path d="M40.2778 38.6388C39.0571 38.6388 38.0637 39.6322 38.0637 40.8529C38.0637 42.0736 39.0571 43.0666 40.2778 43.0666C41.4985 43.0666 42.4917 42.0736 42.4917 40.8529C42.4917 39.6322 41.4985 38.6388 40.2778 38.6388ZM40.2778 41.6017C39.8647 41.6017 39.5286 41.2656 39.5286 40.8529C39.5286 40.4398 39.8646 40.1037 40.2778 40.1037C40.691 40.1037 41.0269 40.4397 41.0269 40.8529C41.0269 41.2656 40.6909 41.6017 40.2778 41.6017ZM30.3835 18.0422C30.1893 18.0422 30.003 18.1193 29.8656 18.2567C29.7283 18.394 29.6511 18.5803 29.6511 18.7746V19.103C28.6181 19.7121 27.5366 20.2351 26.4177 20.6667C25.521 21.0115 24.6024 21.2969 23.6681 21.5208C23.5203 21.4062 23.3386 21.3439 23.1516 21.3437H19.7981C18.9879 21.3437 18.3291 22.0029 18.3291 22.8128V26.6592C18.3291 27.4694 18.9879 28.1282 19.7982 28.1282H20.4684L20.7224 33.0118C20.7274 33.1078 20.7513 33.2019 20.7927 33.2888C20.8341 33.3756 20.8922 33.4534 20.9636 33.5177C21.0351 33.5821 21.1185 33.6317 21.2092 33.6638C21.2998 33.696 21.3959 33.7099 21.4919 33.7049C21.6859 33.6948 21.8679 33.608 21.9979 33.4638C22.128 33.3195 22.1954 33.1295 22.1853 32.9355L21.9351 28.1282H23.1516C23.3458 28.1282 23.5247 28.0618 23.6678 27.9515C24.2624 28.0949 24.8507 28.263 25.4313 28.4554C25.5226 28.4857 25.619 28.4977 25.7149 28.4908C25.8108 28.4838 25.9045 28.458 25.9904 28.4149C26.0764 28.3718 26.153 28.3121 26.216 28.2393C26.2789 28.1666 26.3268 28.0821 26.3571 27.9908C26.3874 27.8995 26.3994 27.8032 26.3925 27.7072C26.3855 27.6113 26.3597 27.5177 26.3166 27.4317C26.2734 27.3457 26.2138 27.2691 26.141 27.2062C26.0683 27.1433 25.9838 27.0953 25.8925 27.065C25.269 26.8583 24.6371 26.6778 23.9985 26.5241V22.9486C24.9995 22.7088 25.9835 22.4031 26.9442 22.0335C27.872 21.6757 28.7761 21.259 29.6508 20.7859V28.6877C29.3298 28.5142 29.0047 28.3484 28.6758 28.1903C28.5892 28.1486 28.4951 28.1243 28.3991 28.1189C28.3031 28.1136 28.2069 28.1272 28.1161 28.159C28.0254 28.1908 27.9418 28.2402 27.8701 28.3044C27.7984 28.3685 27.7401 28.4462 27.6985 28.5329C27.6568 28.6196 27.6325 28.7136 27.6272 28.8097C27.6218 28.9057 27.6355 29.0019 27.6673 29.0927C27.6991 29.1835 27.7485 29.2671 27.8126 29.3388C27.8767 29.4105 27.9544 29.4688 28.0411 29.5105C28.5892 29.7749 29.1263 30.0618 29.6508 30.3704V30.6973C29.6508 30.8916 29.728 31.0779 29.8653 31.2152C30.0027 31.3526 30.189 31.4298 30.3832 31.4298C30.5775 31.4298 30.7638 31.3526 30.9011 31.2152C31.0385 31.0779 31.1157 30.8916 31.1157 30.6973V18.7745C31.1157 18.6783 31.0968 18.5831 31.0601 18.4942C31.0233 18.4054 30.9694 18.3246 30.9014 18.2566C30.8334 18.1886 30.7527 18.1346 30.6639 18.0978C30.575 18.061 30.4797 18.0422 30.3835 18.0422ZM22.534 26.663L19.794 26.6592L19.7982 22.8086H22.534V26.663Z" fill="white"/>
</g>
<defs>
<clipPath id="clip0_74_7096">
<rect width="50" height="50" fill="white" transform="translate(-0.0078125 0.650024)"/>
</clipPath>
</defs>
</svg>
