<svg width="50" height="51" viewBox="0 0 50 51" fill="none" xmlns="http://www.w3.org/2000/svg">
<path d="M44.3329 37.7131C43.6316 36.9937 42.4753 36.9788 41.7552 37.6801L39.1504 40.2191L38.4579 39.5406C37.7391 38.8359 36.5854 38.8468 35.88 39.5663C35.1749 40.2859 35.1863 41.4387 35.9059 42.1443L37.8708 44.0701C38.5783 44.7636 39.7092 44.7655 40.419 44.0736L44.2998 40.2912C45.0217 39.5876 45.0364 38.4347 44.3329 37.7131ZM43.2776 39.2418L39.3969 43.0242C39.2621 43.1556 39.0311 43.1553 38.8967 43.0235L36.9318 41.0977C36.8982 41.0648 36.8715 41.0256 36.853 40.9824C36.8346 40.9391 36.8248 40.8927 36.8244 40.8457C36.8239 40.7987 36.8327 40.7521 36.8502 40.7084C36.8678 40.6648 36.8937 40.6251 36.9266 40.5915C36.9595 40.558 36.9987 40.5312 37.042 40.5127C37.0852 40.4943 37.1317 40.4846 37.1787 40.4841C37.2257 40.4836 37.2723 40.4924 37.3159 40.51C37.3595 40.5276 37.3992 40.5535 37.4328 40.5865L38.6366 41.7663C38.7733 41.9001 38.957 41.9752 39.1483 41.9754C39.3397 41.9757 39.5235 41.9012 39.6606 41.7677L42.778 38.7291C42.8461 38.663 42.9376 38.6266 43.0325 38.6278C43.1274 38.629 43.2179 38.6677 43.2843 38.7356C43.3504 38.8037 43.3869 38.8952 43.3856 38.9901C43.3844 39.085 43.3455 39.1755 43.2776 39.2418ZM30.742 28.1648L26.4303 25.5033C26.4727 25.3277 26.4942 25.1478 26.4943 24.9672C26.4943 24.3227 26.2196 23.7048 25.7408 23.2722C25.2602 22.8379 24.6175 22.6257 23.9776 22.6909C22.7203 22.8213 21.8018 23.9445 21.9299 25.1941C22.0496 26.3691 23.0283 27.2551 24.2066 27.2551C24.7526 27.2551 25.2545 27.0625 25.6481 26.7421L29.9725 29.4115C30.0544 29.4621 30.1454 29.496 30.2403 29.5114C30.3353 29.5268 30.4324 29.5233 30.526 29.5012C30.6196 29.479 30.708 29.4386 30.786 29.3823C30.8639 29.3259 30.9301 29.2548 30.9805 29.1729C31.0826 29.0076 31.1147 28.8085 31.07 28.6194C31.0253 28.4304 30.9073 28.2669 30.742 28.1648ZM24.8999 25.4082C24.8982 25.4109 24.8962 25.4133 24.8945 25.4161C24.8924 25.4196 24.8907 25.4233 24.8886 25.4269C24.8133 25.5387 24.7118 25.6302 24.5928 25.6936C24.4739 25.7569 24.3413 25.79 24.2065 25.7901C23.7828 25.79 23.4306 25.47 23.3873 25.0449C23.3472 24.6546 23.6193 24.2005 24.127 24.1479C24.1535 24.1453 24.1802 24.1439 24.2066 24.1439C24.4075 24.1439 24.605 24.22 24.7585 24.3588C24.8441 24.4353 24.9125 24.529 24.9592 24.6338C25.0058 24.7387 25.0297 24.8523 25.0292 24.967C25.0293 25.1235 24.9844 25.2766 24.8999 25.4082Z" fill="white"/>
<path d="M42.1295 31.0949C42.3468 30.4577 42.5298 29.8093 42.6778 29.1525H46.3001C47.4697 29.1525 48.4212 28.2011 48.4212 27.0315V26.676C48.4212 26.2714 48.0934 25.9436 47.6888 25.9436C47.5926 25.9435 47.4973 25.9625 47.4085 25.9993C47.3196 26.0361 47.2389 26.09 47.1709 26.158C47.1028 26.2261 47.0489 26.3068 47.0121 26.3957C46.9753 26.4845 46.9563 26.5798 46.9564 26.676V27.0315C46.9562 27.2055 46.887 27.3723 46.7639 27.4952C46.6409 27.6182 46.4742 27.6874 46.3002 27.6876H42.313C41.8335 27.6876 41.4156 28.0295 41.3195 28.5006C41.1529 29.3159 40.928 30.1181 40.6463 30.9012C40.6463 30.9012 40.3951 30.8862 40.1054 30.8862C39.0476 30.8854 37.9966 31.0551 36.9928 31.3887C41.6803 22.1059 34.9411 10.7195 24.2348 10.7195C16.4205 10.7195 9.98194 17.0513 9.96358 24.9589C9.96358 24.9616 9.96319 24.9643 9.96319 24.967L9.96338 24.9775L9.96319 24.9911C9.96319 35.6456 21.2843 42.5382 30.7039 37.7127C30.3817 38.7008 30.2178 39.7338 30.2185 40.7731C30.2185 40.9925 30.2315 41.2867 30.2376 41.3863C29.4164 41.6887 28.5735 41.9285 27.7161 42.1038C27.2452 42.1999 26.9033 42.6177 26.9033 43.0973V47.0847C26.9031 47.2586 26.8339 47.4253 26.711 47.5483C26.588 47.6713 26.4212 47.7405 26.2473 47.7407H22.1663C21.9924 47.7405 21.8256 47.6713 21.7026 47.5483C21.5797 47.4253 21.5105 47.2586 21.5103 47.0847V43.0973C21.5103 42.6178 21.1684 42.1999 20.6973 42.1038C18.5094 41.6576 16.4538 40.8059 14.5876 39.5723C14.187 39.3077 13.6499 39.3615 13.3109 39.7003L10.4909 42.5202C10.43 42.5812 10.3577 42.6296 10.2781 42.6626C10.1985 42.6956 10.1132 42.7125 10.027 42.7125C9.94083 42.7125 9.8555 42.6956 9.7759 42.6626C9.6963 42.6296 9.62398 42.5812 9.56309 42.5202L6.67744 39.6346C6.61648 39.5737 6.56812 39.5013 6.53512 39.4217C6.50213 39.3421 6.48514 39.2568 6.48514 39.1706C6.48514 39.0844 6.50213 38.9991 6.53512 38.9195C6.56812 38.8399 6.61648 38.7675 6.67744 38.7066L9.49727 35.8868C9.83623 35.5478 9.89004 35.0106 9.6252 34.6097C8.3916 32.7437 7.54004 30.6883 7.09385 28.5003C6.99776 28.0294 6.57998 27.6875 6.10039 27.6875H2.11319C1.93925 27.6873 1.7725 27.6181 1.64951 27.4951C1.52652 27.3721 1.45734 27.2054 1.45713 27.0314V22.9508C1.45731 22.7768 1.52649 22.6101 1.64948 22.487C1.77247 22.364 1.93924 22.2948 2.11319 22.2946H6.10059C6.57998 22.2946 6.99785 21.9528 7.09405 21.4816C7.54004 19.2941 8.3918 17.2386 9.62549 15.3722C9.89033 14.9713 9.83643 14.4342 9.49746 14.0952L6.67754 11.2752C6.61659 11.2143 6.56824 11.142 6.53526 11.0624C6.50227 10.9828 6.4853 10.8975 6.48531 10.8113C6.48532 10.7251 6.50231 10.6399 6.53531 10.5603C6.56831 10.4807 6.61668 10.4084 6.67764 10.3475L9.56328 7.46184C9.68638 7.33891 9.85323 7.26987 10.0272 7.26987C10.2012 7.26987 10.368 7.33891 10.4911 7.46184L13.311 10.2817C13.6501 10.6207 14.1873 10.6743 14.5882 10.4096C16.4541 9.176 18.5096 8.32443 20.6975 7.87824C21.1685 7.78215 21.5105 7.36428 21.5105 6.88469V2.89768C21.5107 2.72374 21.5799 2.55699 21.7028 2.434C21.8258 2.31101 21.9926 2.24183 22.1665 2.24162H26.2475C26.4214 2.24183 26.5882 2.31101 26.7111 2.434C26.8341 2.55699 26.9033 2.72374 26.9035 2.89768V6.88488C26.9035 7.36438 27.2454 7.78225 27.7166 7.87844C29.9041 8.32443 31.9596 9.17619 33.8256 10.4096C34.2267 10.6749 34.764 10.621 35.1029 10.2819L37.9229 7.46203C37.9838 7.40106 38.0561 7.35269 38.1357 7.31969C38.2153 7.28669 38.3006 7.2697 38.3868 7.2697C38.473 7.2697 38.5583 7.28669 38.6379 7.31969C38.7175 7.35269 38.7898 7.40106 38.8507 7.46203L41.7364 10.3477C41.7974 10.4086 41.8457 10.4809 41.8787 10.5605C41.9117 10.6401 41.9287 10.7254 41.9287 10.8115C41.9287 10.8977 41.9117 10.983 41.8787 11.0626C41.8457 11.1422 41.7973 11.2145 41.7363 11.2754L38.9164 14.0953C38.5773 14.4346 38.5236 14.9719 38.7886 15.3725C40.0222 17.2386 40.8737 19.294 41.3199 21.4821C41.4161 21.9529 41.8339 22.2947 42.3135 22.2947H46.3007C46.4746 22.2949 46.6414 22.3641 46.7644 22.4871C46.8874 22.6101 46.9565 22.7768 46.9568 22.9508V23.258C46.9568 23.6626 47.2846 23.9904 47.6892 23.9904C48.0938 23.9904 48.4216 23.6626 48.4216 23.258V22.9508C48.4216 21.7812 47.4701 20.8298 46.3006 20.8298H42.6783C42.2036 18.7109 41.3747 16.7103 40.2103 14.8731L42.7721 12.3113C43.6009 11.4823 43.6012 10.1408 42.7721 9.31174L39.8865 6.42609C39.0575 5.59729 37.716 5.59699 36.8869 6.42609L34.325 8.98791C32.4878 7.82346 30.4874 6.99465 28.3685 6.51984V2.89748C28.3685 1.72785 27.417 0.776489 26.2475 0.776489H22.1665C20.9969 0.776489 20.0455 1.72795 20.0455 2.89748V6.51975C17.9267 6.99445 15.9258 7.82346 14.089 8.98781L11.5272 6.426C10.7001 5.59904 9.35459 5.59904 8.52744 6.426L5.6417 9.31174C4.81289 10.1407 4.8126 11.4823 5.6417 12.3112L8.20352 14.8731C7.03897 16.7104 6.21026 18.7108 5.73545 20.8298H2.11309C0.943652 20.8297 -0.0078125 21.7812 -0.0078125 22.9508V27.0316C-0.0078125 28.2013 0.943653 29.1526 2.11319 29.1526H5.73545C6.21016 31.2717 7.03916 33.2724 8.20352 35.1092L5.6417 37.671C4.8128 38.5001 4.8127 39.8415 5.6417 40.6707L8.52735 43.5562C9.35645 44.3851 10.6979 44.3853 11.5271 43.5562L14.0888 40.9944C15.9257 42.1587 17.9262 42.9875 20.0454 43.4625V47.0848C20.0454 48.2544 20.9969 49.2058 22.1664 49.2058H26.2474C27.417 49.2058 28.3684 48.2543 28.3684 47.0848V43.4623C29.0704 43.3041 29.7627 43.1058 30.442 42.8685C31.2735 46.7378 34.3642 49.81 38.398 50.5126C38.5887 50.5445 38.7844 50.4996 38.9422 50.3879C39.1 50.2761 39.2072 50.1064 39.2404 49.9158C39.2736 49.7253 39.2301 49.5294 39.1194 49.3708C39.0087 49.2122 38.8397 49.1038 38.6494 49.0693C34.5846 48.3613 31.6836 44.8438 31.6836 40.7731C31.6836 36.1292 35.4616 32.3513 40.1055 32.3513C44.7396 32.3513 48.5274 36.1216 48.5274 40.7731C48.5274 44.7604 45.6963 48.2312 41.7956 49.0254C41.6052 49.0642 41.4381 49.177 41.3309 49.3391C41.2237 49.5011 41.1853 49.6991 41.224 49.8895C41.3048 50.2858 41.6928 50.5417 42.088 50.461C46.6681 49.5282 49.9924 45.454 49.9924 40.7732C49.9922 36.0151 46.6136 32.0316 42.1295 31.0949ZM37.0183 24.2346H35.3696C35.2706 22.7775 34.886 21.3541 34.2379 20.0453L35.6645 19.2216C36.4534 20.7798 36.9171 22.4962 37.0183 24.2346ZM31.238 14.2776C32.6846 15.2306 33.934 16.4458 34.9293 17.9547L33.5158 18.7708C32.7425 17.6281 31.4655 16.4063 30.4204 15.6938L31.238 14.2776ZM24.9392 12.2042C24.9535 12.205 24.9678 12.2062 24.9821 12.2069C26.6684 12.3058 28.3759 12.7416 29.9703 13.5432L29.146 14.9708C27.8308 14.3252 26.4012 13.9452 24.9391 13.8525L24.9392 12.2042ZM23.4501 12.2094L23.4744 12.2078V13.8564C22.0152 13.956 20.5897 14.3419 19.2796 14.9922L18.5189 13.6744L18.4565 13.5663C20.0111 12.7783 21.7105 12.3165 23.4501 12.2094ZM17.1896 14.3023L17.5732 14.9668L18.0134 15.7292C16.8031 16.5451 15.7631 17.5888 14.9515 18.8021L13.5244 17.9781C14.513 16.4842 15.7437 15.2586 17.1896 14.3023ZM12.7913 19.2463L14.1976 20.0582L14.2189 20.0705C13.5805 21.3673 13.2001 22.7839 13.1002 24.2348H11.4511C11.5511 22.5436 11.9821 20.851 12.7913 19.2463ZM11.4507 25.7237H13.0993C13.1969 27.1829 13.5718 28.5797 14.2185 29.8883L12.7903 30.7128C12.0098 29.1671 11.5534 27.4666 11.4507 25.7237ZM34.5157 32.6176C33.4942 33.3172 32.6135 34.2028 31.9194 35.2281C26.0155 39.6744 17.5819 38.2019 13.5131 31.9869L15.1337 31.0513C15.7095 30.7188 15.9203 29.9939 15.6137 29.4013C14.9046 28.0301 14.5429 26.5425 14.5385 24.9797C14.5479 21.4381 16.4551 18.3051 19.3689 16.6072C20.8335 15.7537 22.5073 15.3 24.2086 15.2954L24.2347 15.2951C26.6169 15.2951 28.0804 16.0941 29.099 16.605C30.1125 17.1117 31.9618 18.8309 32.6044 20.0988L32.6235 20.1343C33.477 21.6023 33.9287 23.2777 33.9305 24.9799C33.9287 26.5388 33.566 28.0285 32.852 29.4076C32.5401 30.0105 32.7538 30.7476 33.3389 31.0853L34.9391 32.0093C34.8038 32.2161 34.6627 32.4189 34.5157 32.6176ZM34.2381 29.9129C34.8842 28.6103 35.2697 27.1782 35.3694 25.7236H37.0183C36.9176 27.4514 36.4573 29.1707 35.6645 30.7364L34.2381 29.9129Z" fill="white"/>
</svg>
