<svg width="100" height="100" viewBox="0 0 100 100" fill="none" xmlns="http://www.w3.org/2000/svg">
<path d="M96.4844 85.9374H94.5312V28.5155C94.5288 26.3407 93.6637 24.2556 92.1259 22.7178C90.588 21.18 88.503 20.3149 86.3281 20.3124H72.1719C71.6854 14.7675 69.139 9.60612 65.0347 5.84613C60.9304 2.08614 55.5662 0.000488281 50 0.000488281C44.4338 0.000488281 39.0696 2.08614 34.9653 5.84613C30.861 9.60612 28.3146 14.7675 27.8281 20.3124H13.6719C11.497 20.3149 9.41198 21.18 7.87413 22.7178C6.33628 24.2556 5.47123 26.3407 5.46875 28.5155V85.9374H3.51562C2.58367 85.9389 1.69029 86.3097 1.0313 86.9687C0.372306 87.6277 0.00144634 88.5211 0 89.453L0 91.7968C0.00248128 93.9716 0.867534 96.0567 2.40538 97.5945C3.94323 99.1324 6.02828 99.9974 8.20312 99.9999H91.7969C93.9717 99.9974 96.0568 99.1324 97.5946 97.5945C99.1325 96.0567 99.9975 93.9716 100 91.7968V89.453C99.9986 88.5211 99.6277 87.6277 98.9687 86.9687C98.3097 86.3097 97.4163 85.9389 96.4844 85.9374ZM50 2.34367C53.9402 2.34367 57.7919 3.51207 61.068 5.70111C64.3441 7.89016 66.8976 11.0015 68.4054 14.6418C69.9133 18.282 70.3078 22.2876 69.5391 26.1521C68.7704 30.0166 66.873 33.5663 64.0869 36.3524C61.3008 39.1386 57.751 41.0359 53.8866 41.8046C50.0221 42.5733 46.0165 42.1788 42.3762 40.671C38.736 39.1631 35.6246 36.6097 33.4356 33.3335C31.2465 30.0574 30.0781 26.2057 30.0781 22.2655C30.0843 16.9838 32.1852 11.9202 35.92 8.18551C39.6547 4.45077 44.7183 2.34988 50 2.34367ZM60.8672 58.9374C61.178 58.9374 61.4761 59.0609 61.6958 59.2807C61.9156 59.5004 62.0391 59.7985 62.0391 60.1093C62.0391 60.4201 61.9156 60.7182 61.6958 60.9379C61.4761 61.1577 61.178 61.2812 60.8672 61.2812H54.1797C53.8689 61.2812 53.5708 61.1577 53.351 60.9379C53.1313 60.7182 53.0078 60.4201 53.0078 60.1093C53.0078 59.7985 53.1313 59.5004 53.351 59.2807C53.5708 59.0609 53.8689 58.9374 54.1797 58.9374H56.3516V47.9062H54.1797C53.8689 47.9062 53.5708 47.7827 53.351 47.5629C53.1313 47.3432 53.0078 47.0451 53.0078 46.7343C53.0078 46.4235 53.1313 46.1254 53.351 45.9057C53.5708 45.6859 53.8689 45.5624 54.1797 45.5624H60.8672C61.178 45.5624 61.4761 45.6859 61.6958 45.9057C61.9156 46.1254 62.0391 46.4235 62.0391 46.7343C62.0391 47.0451 61.9156 47.3432 61.6958 47.5629C61.4761 47.7827 61.178 47.9062 60.8672 47.9062H58.6953V58.9374H60.8672ZM40.3047 56.2655V60.1093C40.3047 60.4201 40.1812 60.7182 39.9615 60.9379C39.7417 61.1577 39.4436 61.2812 39.1328 61.2812C38.822 61.2812 38.5239 61.1577 38.3042 60.9379C38.0844 60.7182 37.9609 60.4201 37.9609 60.1093V50.4062C37.9341 49.5875 38.1336 48.7773 38.5375 48.0647C38.9413 47.3521 39.5339 46.7647 40.25 46.3671C41.1875 45.8487 42.2412 45.5767 43.3125 45.5767C44.3838 45.5767 45.4375 45.8487 46.375 46.3671C47.094 46.7674 47.6883 47.3587 48.0922 48.0757C48.4962 48.7926 48.6941 49.6073 48.6641 50.4296V60.1093C48.6641 60.4201 48.5406 60.7182 48.3208 60.9379C48.1011 61.1577 47.803 61.2812 47.4922 61.2812C47.1814 61.2812 46.8833 61.1577 46.6635 60.9379C46.4438 60.7182 46.3203 60.4201 46.3203 60.1093V56.2655H40.3047ZM14.0625 30.078C14.0625 29.7672 14.186 29.4692 14.4057 29.2494C14.6255 29.0296 14.9236 28.9062 15.2344 28.9062H28.75C29.8688 32.4764 31.8708 35.7063 34.5703 38.2968C33.9301 38.7577 33.3887 39.3422 32.9781 40.0158C32.5675 40.6894 32.296 41.4384 32.1797 42.2187H28.2656C27.9548 42.2187 27.6568 42.3421 27.437 42.5619C27.2172 42.7817 27.0938 43.0797 27.0938 43.3905C27.0938 43.7013 27.2172 43.9994 27.437 44.2192C27.6568 44.439 27.9548 44.5624 28.2656 44.5624H32.1094V52.2499H28.2656C27.9548 52.2499 27.6568 52.3734 27.437 52.5932C27.2172 52.8129 27.0938 53.111 27.0938 53.4218C27.0938 53.7326 27.2172 54.0307 27.437 54.2504C27.6568 54.4702 27.9548 54.5937 28.2656 54.5937H32.1094V62.2812H28.2656C27.9548 62.2812 27.6568 62.4046 27.437 62.6244C27.2172 62.8442 27.0938 63.1422 27.0938 63.453C27.0938 63.7638 27.2172 64.0619 27.437 64.2817C27.6568 64.5015 27.9548 64.6249 28.2656 64.6249H32.1797C32.3822 66.0165 33.0784 67.2888 34.1412 68.2096C35.204 69.1304 36.5625 69.6383 37.9688 69.6405H38.7969V73.4843C38.7969 73.7951 38.9203 74.0932 39.1401 74.3129C39.3599 74.5327 39.6579 74.6562 39.9688 74.6562C40.2795 74.6562 40.5776 74.5327 40.7974 74.3129C41.0172 74.0932 41.1406 73.7951 41.1406 73.4843V69.6405H48.8281V73.4843C48.8281 73.7951 48.9516 74.0932 49.1714 74.3129C49.3911 74.5327 49.6892 74.6562 50 74.6562C50.3108 74.6562 50.6089 74.5327 50.8286 74.3129C51.0484 74.0932 51.1719 73.7951 51.1719 73.4843V69.6405H58.8594V73.4843C58.8594 73.7951 58.9828 74.0932 59.2026 74.3129C59.4224 74.5327 59.7204 74.6562 60.0312 74.6562C60.342 74.6562 60.6401 74.5327 60.8599 74.3129C61.0797 74.0932 61.2031 73.7951 61.2031 73.4843V69.6405H62.0312C63.4375 69.6383 64.796 69.1304 65.8588 68.2096C66.9216 67.2888 67.6178 66.0165 67.8203 64.6249H71.7344C72.0452 64.6249 72.3432 64.5015 72.563 64.2817C72.7828 64.0619 72.9062 63.7638 72.9062 63.453C72.9062 63.1422 72.7828 62.8442 72.563 62.6244C72.3432 62.4046 72.0452 62.2812 71.7344 62.2812H67.8906V54.5937H71.7344C72.0452 54.5937 72.3432 54.4702 72.563 54.2504C72.7828 54.0307 72.9062 53.7326 72.9062 53.4218C72.9062 53.111 72.7828 52.8129 72.563 52.5932C72.3432 52.3734 72.0452 52.2499 71.7344 52.2499H67.8906V44.5624H71.7344C72.0452 44.5624 72.3432 44.439 72.563 44.2192C72.7828 43.9994 72.9062 43.7013 72.9062 43.3905C72.9062 43.0797 72.7828 42.7817 72.563 42.5619C72.3432 42.3421 72.0452 42.2187 71.7344 42.2187H67.8203C67.704 41.4384 67.4325 40.6894 67.0219 40.0158C66.6113 39.3422 66.0699 38.7577 65.4297 38.2968C68.1292 35.7063 70.1312 32.4764 71.25 28.9062H84.7656C85.0764 28.9062 85.3745 29.0296 85.5943 29.2494C85.814 29.4692 85.9375 29.7672 85.9375 30.078V77.7343C85.9375 78.0451 85.814 78.3432 85.5943 78.5629C85.3745 78.7827 85.0764 78.9062 84.7656 78.9062H15.2344C14.9236 78.9062 14.6255 78.7827 14.4057 78.5629C14.186 78.3432 14.0625 78.0451 14.0625 77.7343V30.078ZM97.6562 91.7968C97.6562 92.5663 97.5047 93.3282 97.2102 94.0391C96.9158 94.75 96.4842 95.3959 95.9401 95.94C95.396 96.4841 94.7501 96.9157 94.0392 97.2102C93.3283 97.5046 92.5663 97.6562 91.7969 97.6562H8.20312C7.43366 97.6562 6.67173 97.5046 5.96084 97.2102C5.24995 96.9157 4.60401 96.4841 4.05992 95.94C3.51583 95.3959 3.08423 94.75 2.78977 94.0391C2.49531 93.3282 2.34375 92.5663 2.34375 91.7968V89.453C2.34375 89.1423 2.46722 88.8442 2.68698 88.6244C2.90675 88.4046 3.20482 88.2812 3.51562 88.2812H37.3047C37.5771 89.6035 38.2969 90.7916 39.3428 91.6453C40.3887 92.4991 41.6968 92.9665 43.0469 92.9687H57.1875C58.5376 92.9665 59.8457 92.4991 60.8916 91.6453C61.9375 90.7916 62.6572 89.6035 62.9297 88.2812H96.4844C96.7952 88.2812 97.0932 88.4046 97.313 88.6244C97.5328 88.8442 97.6562 89.1423 97.6562 89.453V91.7968Z" fill="url(#paint0_linear_3235_26030)"/>
<path d="M46.3204 50.4063C46.3439 49.9981 46.2506 49.5917 46.0513 49.2347C45.8521 48.8777 45.5551 48.5849 45.1954 48.3906C44.6155 48.0828 43.969 47.9219 43.3126 47.9219C42.6561 47.9219 42.0096 48.0828 41.4297 48.3906C41.0719 48.583 40.7761 48.8732 40.5769 49.2273C40.3777 49.5814 40.2833 49.9849 40.3047 50.3906V53.9219H46.3204V50.4063Z" fill="url(#paint1_linear_3235_26030)"/>
<path d="M42.6905 29.8688C42.9332 29.675 43.0891 29.3927 43.1238 29.0841C43.1585 28.7754 43.0693 28.4656 42.8757 28.2227L38.1249 22.2657L42.8765 16.3086C43.0707 16.0656 43.1604 15.7553 43.1259 15.4461C43.0914 15.1369 42.9355 14.8541 42.6925 14.6598C42.4494 14.4656 42.1392 14.3758 41.83 14.4103C41.5207 14.4448 41.2379 14.6007 41.0436 14.8438L35.7093 21.5313C35.5434 21.7389 35.4531 21.9968 35.4531 22.2625C35.4531 22.5283 35.5434 22.7861 35.7093 22.9938L41.0436 29.6875C41.238 29.9299 41.5207 30.0851 41.8296 30.1191C42.1384 30.1531 42.4481 30.0631 42.6905 29.8688Z" fill="url(#paint2_linear_3235_26030)"/>
<path d="M57.2919 29.868C57.5343 30.0623 57.8439 30.1525 58.1527 30.1186C58.4616 30.0848 58.7443 29.9297 58.9388 29.6875L64.2904 23C64.4566 22.7922 64.5471 22.534 64.5471 22.268C64.5471 22.0019 64.4566 21.7437 64.2904 21.5359L58.9388 14.8437C58.7444 14.6011 58.4615 14.4457 58.1524 14.4116C57.8433 14.3775 57.5334 14.4676 57.2908 14.6621C57.0481 14.8566 56.8927 15.1394 56.8586 15.4485C56.8246 15.7576 56.9147 16.0675 57.1091 16.3102L61.8747 22.2656L57.1091 28.2211C56.915 28.4637 56.8253 28.7735 56.8595 29.0824C56.8938 29.3912 57.0494 29.6738 57.2919 29.868Z" fill="url(#paint3_linear_3235_26030)"/>
<path d="M48.2135 30.0953C48.3637 30.13 48.5192 30.1347 48.6712 30.1092C48.8232 30.0837 48.9686 30.0285 49.0993 29.9467C49.2299 29.8649 49.3431 29.7582 49.4324 29.6326C49.5217 29.507 49.5854 29.365 49.6197 29.2148L52.6854 15.8398C52.7218 15.689 52.728 15.5326 52.7036 15.3794C52.6791 15.2263 52.6245 15.0795 52.5429 14.9476C52.4613 14.8157 52.3543 14.7013 52.2282 14.6111C52.1021 14.5209 51.9593 14.4566 51.8081 14.4219C51.6569 14.3873 51.5004 14.383 51.3475 14.4093C51.1947 14.4356 51.0486 14.492 50.9177 14.5752C50.7868 14.6584 50.6738 14.7668 50.5851 14.894C50.4964 15.0212 50.4338 15.1648 50.401 15.3163L47.3354 28.6913C47.2659 28.9939 47.3194 29.3117 47.484 29.575C47.6487 29.8382 47.911 30.0253 48.2135 30.0953Z" fill="url(#paint4_linear_3235_26030)"/>
<defs>
<linearGradient id="paint0_linear_3235_26030" x1="0" y1="0.000488281" x2="102.676" y2="2.82844" gradientUnits="userSpaceOnUse">
<stop offset="0.0052" stop-color="#43BAFF"/>
<stop offset="1" stop-color="#7044B3"/>
</linearGradient>
<linearGradient id="paint1_linear_3235_26030" x1="40.3018" y1="47.9219" x2="46.4851" y2="48.0928" gradientUnits="userSpaceOnUse">
<stop offset="0.0052" stop-color="#43BAFF"/>
<stop offset="1" stop-color="#7044B3"/>
</linearGradient>
<linearGradient id="paint2_linear_3235_26030" x1="35.4531" y1="14.4031" x2="43.3433" y2="14.5092" gradientUnits="userSpaceOnUse">
<stop offset="0.0052" stop-color="#43BAFF"/>
<stop offset="1" stop-color="#7044B3"/>
</linearGradient>
<linearGradient id="paint3_linear_3235_26030" x1="56.8516" y1="14.4045" x2="64.7577" y2="14.5111" gradientUnits="userSpaceOnUse">
<stop offset="0.0052" stop-color="#43BAFF"/>
<stop offset="1" stop-color="#7044B3"/>
</linearGradient>
<linearGradient id="paint4_linear_3235_26030" x1="47.3057" y1="14.3923" x2="52.8668" y2="14.445" gradientUnits="userSpaceOnUse">
<stop offset="0.0052" stop-color="#43BAFF"/>
<stop offset="1" stop-color="#7044B3"/>
</linearGradient>
</defs>
</svg>
