<svg width="20" height="24" viewBox="0 0 20 24" fill="none" xmlns="http://www.w3.org/2000/svg">
<path d="M1.93844 8.06305C1.1785 8.06268 0.562565 8.68012 0.562378 9.43949L0.563315 15.2025C0.563241 15.3833 0.598797 15.5624 0.667951 15.7294C0.737104 15.8965 0.8385 16.0483 0.966343 16.1761C1.09419 16.304 1.24597 16.4054 1.41303 16.4746C1.58008 16.5438 1.75913 16.5794 1.93994 16.5793C2.12074 16.5795 2.2998 16.544 2.46687 16.4749C2.63394 16.4058 2.78573 16.3044 2.91354 16.1765C3.04135 16.0486 3.14267 15.8968 3.2117 15.7297C3.28073 15.5626 3.31611 15.3835 3.31582 15.2027V9.43874C3.31542 9.07371 3.17012 8.72378 2.91185 8.46582C2.65358 8.20787 2.30347 8.063 1.93844 8.06305ZM13.0371 2.88768L13.9977 1.13361C14.0222 1.08912 14.028 1.03673 14.0139 0.987948C13.9998 0.939162 13.9669 0.897956 13.9225 0.873364C13.878 0.849187 13.8257 0.843644 13.7772 0.857949C13.7286 0.872255 13.6877 0.905243 13.6634 0.949677L12.6931 2.72211C11.8767 2.35874 10.963 2.15511 9.99625 2.15605C9.03213 2.15511 8.11882 2.35818 7.30582 2.71949L6.33438 0.951552C6.32252 0.929484 6.3064 0.909988 6.28695 0.894194C6.2675 0.8784 6.24512 0.866622 6.22109 0.859541C6.19705 0.852461 6.17186 0.850219 6.14695 0.852946C6.12205 0.855673 6.09793 0.863314 6.076 0.875427C6.05386 0.887261 6.0343 0.903392 6.01847 0.922875C6.00264 0.942358 5.99085 0.964803 5.9838 0.988897C5.97675 1.01299 5.97457 1.03825 5.97739 1.06319C5.98022 1.08814 5.98799 1.11227 6.00025 1.13418L6.96119 2.88711C5.07307 3.8608 3.79732 5.71518 3.79844 7.84424L16.1956 7.84274C16.1959 5.71443 14.9224 3.8638 13.0371 2.88768ZM7.17663 5.59836C7.03876 5.59829 6.90656 5.54345 6.80913 5.44591C6.71169 5.34836 6.65699 5.21611 6.65707 5.07824C6.65714 4.94037 6.71198 4.80817 6.80952 4.71074C6.90707 4.6133 7.03932 4.5586 7.17719 4.55868C7.31508 4.55892 7.44725 4.6138 7.54477 4.71128C7.64229 4.80876 7.69721 4.94092 7.6975 5.0788C7.69725 5.21675 7.64225 5.34896 7.54459 5.44638C7.44692 5.5438 7.31458 5.59846 7.17663 5.59836ZM12.8215 5.59743C12.7532 5.59748 12.6857 5.58407 12.6226 5.55798C12.5595 5.53189 12.5022 5.49363 12.4539 5.44537C12.4057 5.39712 12.3674 5.33982 12.3413 5.27677C12.3152 5.21371 12.3017 5.14612 12.3018 5.07786C12.3025 4.94011 12.3575 4.80819 12.4548 4.71069C12.5521 4.6132 12.6839 4.55797 12.8217 4.55699C12.9593 4.55812 13.091 4.61346 13.1881 4.71099C13.2852 4.80853 13.34 4.94041 13.3405 5.07805C13.3406 5.14625 13.3272 5.21379 13.3012 5.27681C13.2751 5.33983 13.2369 5.3971 13.1887 5.44534C13.1405 5.49358 13.0832 5.53184 13.0202 5.55794C12.9572 5.58403 12.8897 5.59745 12.8215 5.59743ZM3.84907 8.32311L3.85113 17.2547C3.85086 17.4476 3.88866 17.6387 3.96236 17.8169C4.03607 17.9952 4.14423 18.1572 4.28065 18.2936C4.41707 18.43 4.57906 18.5381 4.75735 18.6118C4.93564 18.6855 5.12671 18.7233 5.31963 18.723L6.31956 18.7234L6.32069 21.7729C6.3205 22.5322 6.93775 23.1495 7.696 23.1495C8.4565 23.1495 9.07263 22.5317 9.07281 21.7719L9.07207 18.7232L10.93 18.7226L10.9308 21.7719C10.9308 22.5307 11.5482 23.1493 12.3066 23.1478C13.0671 23.1484 13.6836 22.5306 13.6834 21.7708L13.6825 18.7222L14.686 18.7215C14.8789 18.7215 15.07 18.6835 15.2482 18.6097C15.4264 18.5359 15.5884 18.4277 15.7248 18.2913C15.8613 18.1549 15.9695 17.993 16.0434 17.8148C16.1172 17.6366 16.1552 17.4455 16.1553 17.2526L16.1536 8.32105L3.84907 8.32311ZM19.4367 9.43743C19.4367 9.2567 19.401 9.07774 19.3319 8.91077C19.2627 8.74381 19.1613 8.59211 19.0335 8.46433C18.9056 8.33655 18.7539 8.23519 18.5869 8.16605C18.42 8.09691 18.241 8.06134 18.0603 8.06136C17.3003 8.06061 16.6846 8.67768 16.6846 9.43799L16.6857 15.2014C16.6856 15.3821 16.7211 15.5611 16.7902 15.7281C16.8593 15.8951 16.9607 16.0469 17.0885 16.1747C17.2163 16.3025 17.368 16.4038 17.535 16.4729C17.702 16.542 17.881 16.5776 18.0618 16.5774C18.2425 16.5775 18.4215 16.5419 18.5885 16.4727C18.7555 16.4035 18.9073 16.302 19.035 16.1742C19.1628 16.0463 19.2641 15.8945 19.3332 15.7275C19.4023 15.5604 19.4378 15.3814 19.4376 15.2006L19.4367 9.43743Z" fill="url(#paint0_linear_1261_14884)"/>
<defs>
<linearGradient id="paint0_linear_1261_14884" x1="0.562378" y1="0.850159" x2="19.947" y2="1.30207" gradientUnits="userSpaceOnUse">
<stop offset="0.0052" stop-color="#43BAFF"/>
<stop offset="1" stop-color="#7044B3"/>
</linearGradient>
</defs>
</svg>
