<svg width="12" height="20" viewBox="0 0 12 20" fill="none" xmlns="http://www.w3.org/2000/svg">
<path d="M9.308 9L6 12.308L2.692 9L3.4 8.292L5.5 10.381V5.692H6.5V10.381L8.6 8.292L9.308 9ZM4.231 17.654H7.769V16.884H4.231V17.654ZM1.616 20C1.15533 20 0.771 19.846 0.463 19.538C0.155 19.23 0.000666667 18.8457 0 18.385V1.615C0 1.155 0.154333 0.771 0.463 0.463C0.771667 0.155 1.156 0.000666667 1.616 0H10.385C10.845 0 11.229 0.154333 11.537 0.463C11.845 0.771667 11.9993 1.156 12 1.616V18.385C12 18.845 11.846 19.2293 11.538 19.538C11.23 19.8467 10.8453 20.0007 10.384 20H1.616ZM1 14.538H11V3.5H1V14.538Z" fill="url(#paint0_linear_1261_15961)"/>
<defs>
<linearGradient id="paint0_linear_1261_15961" x1="0" y1="0" x2="12.3271" y2="0.20371" gradientUnits="userSpaceOnUse">
<stop offset="0.0052" stop-color="#43BAFF"/>
<stop offset="1" stop-color="#7044B3"/>
</linearGradient>
</defs>
</svg>
