<svg width="20" height="24" viewBox="0 0 20 24" fill="none" xmlns="http://www.w3.org/2000/svg">
<path fill-rule="evenodd" clip-rule="evenodd" d="M7.41997 0.216019C7.64822 0.0796475 7.90819 0.0053665 8.17403 0.000554798C8.43988 -0.0042569 8.70236 0.0605681 8.9354 0.188591C15.7703 3.36345 19.6394 9.95659 19.4011 15.4697C19.2983 17.7857 18.4703 19.9303 16.864 21.4954C15.256 23.0623 12.9468 23.9777 10.024 23.9829C8.84269 24.056 7.65871 23.8924 6.54146 23.5019C5.42421 23.1114 4.39618 22.5017 3.51767 21.7086C2.63916 20.9155 1.92785 19.955 1.42546 18.8834C0.92306 17.8117 0.639692 16.6506 0.59197 15.468V15.4543C0.557077 14.0834 0.898273 12.7292 1.57854 11.5385C2.25881 10.3478 3.25216 9.36613 4.45083 8.70002C4.55496 8.64221 4.66999 8.60674 4.78859 8.59586C4.90719 8.58499 5.02675 8.59895 5.13966 8.63685C5.25256 8.67475 5.35633 8.73577 5.44434 8.81601C5.53235 8.89625 5.60268 8.99395 5.65083 9.10288C6.06804 10.0491 6.65287 10.9121 7.37711 11.6503C8.22397 10.5446 8.61483 9.11659 8.60283 7.5463C8.58911 5.67773 8.00283 3.67373 7.01883 1.96802C6.84792 1.68035 6.79424 1.33795 6.86892 1.01177C6.9436 0.6856 7.14092 0.400666 7.41997 0.216019Z" fill="url(#paint0_linear_1261_15957)"/>
<defs>
<linearGradient id="paint0_linear_1261_15957" x1="0.589539" y1="0.000305176" x2="19.9209" y2="0.41787" gradientUnits="userSpaceOnUse">
<stop offset="0.0052" stop-color="#43BAFF"/>
<stop offset="1" stop-color="#7044B3"/>
</linearGradient>
</defs>
</svg>
