<svg width="24" height="16" viewBox="0 0 24 16" fill="none" xmlns="http://www.w3.org/2000/svg">
<path d="M4 2H22V0H4C2.9 0 2 0.9 2 2V13H0V16H14V13H4V2ZM23 4H17C16.45 4 16 4.45 16 5V15C16 15.55 16.45 16 17 16H23C23.55 16 24 15.55 24 15V5C24 4.45 23.55 4 23 4ZM22 13H18V6H22V13Z" fill="url(#paint0_linear_1261_15944)"/>
<defs>
<linearGradient id="paint0_linear_1261_15944" x1="0" y1="0" x2="24.619" y2="1.01709" gradientUnits="userSpaceOnUse">
<stop offset="0.0052" stop-color="#43BAFF"/>
<stop offset="1" stop-color="#7044B3"/>
</linearGradient>
</defs>
</svg>
