<svg width="18" height="18" viewBox="0 0 18 18" fill="none" xmlns="http://www.w3.org/2000/svg">
<path d="M0 3C0 1.34315 1.34315 0 3 0H9.5C11.1569 0 12.5 1.34315 12.5 3V15C12.5 16.6569 11.1569 18 9.5 18H3C1.34315 18 0 16.6569 0 15V3Z" fill="url(#paint0_linear_510_5457)"/>
<path fill-rule="evenodd" clip-rule="evenodd" d="M2 7.25C2 6.83579 2.33579 6.5 2.75 6.5H7.25C7.66421 6.5 8 6.83579 8 7.25C8 7.66421 7.66421 8 7.25 8H2.75C2.33579 8 2 7.66421 2 7.25Z" fill="white"/>
<path fill-rule="evenodd" clip-rule="evenodd" d="M2 10.75C2 10.3358 2.33579 10 2.75 10H9.25C9.66421 10 10 10.3358 10 10.75C10 11.1642 9.66421 11.5 9.25 11.5H2.75C2.33579 11.5 2 11.1642 2 10.75Z" fill="white"/>
<path d="M14.5 1.5C14.5 0.947715 14.9477 0.5 15.5 0.5H17C17.5523 0.5 18 0.947715 18 1.5V15.1848C18 15.3899 17.9369 15.5902 17.8192 15.7582L16.7415 17.2978C16.5027 17.639 15.9973 17.639 15.7585 17.2978L14.6808 15.7582C14.5631 15.5902 14.5 15.3899 14.5 15.1848V1.5Z" fill="#52B9F3"/>
<defs>
<linearGradient id="paint0_linear_510_5457" x1="0" y1="0" x2="18.4817" y2="0.509029" gradientUnits="userSpaceOnUse">
<stop offset="0.0052" stop-color="#43BAFF"/>
<stop offset="1" stop-color="#7044B3"/>
</linearGradient>
</defs>
</svg>
