<svg width="512" height="512" viewBox="0 0 512 512" fill="none" xmlns="http://www.w3.org/2000/svg">
<g clip-path="url(#clip0_3668_16371)">
<path d="M75.0469 241.737C72.8888 238.037 68.1397 236.788 64.4406 238.946C60.7416 241.105 59.4925 245.854 61.6506 249.553C61.8286 249.859 62.0286 250.152 62.2466 250.431C81.974 278.89 104.63 305.203 129.843 328.939C133.011 331.83 137.922 331.606 140.813 328.438C143.598 325.387 143.506 320.69 140.605 317.75C116.154 294.775 94.1803 269.298 75.0469 241.737Z" fill="url(#paint0_linear_3668_16371)"/>
<path d="M444.239 241.736C413.808 284.589 377.428 322.887 336.194 355.477C332.886 358.199 332.411 363.087 335.133 366.395C337.855 369.703 342.743 370.178 346.05 367.456C388.435 333.913 425.831 294.509 457.113 250.429C459.514 246.874 458.578 242.046 455.022 239.645C451.468 237.245 446.64 238.181 444.239 241.736Z" fill="url(#paint1_linear_3668_16371)"/>
<path d="M36.2296 189.746C40.5297 189.726 43.9998 186.223 43.9798 181.923C43.9758 181.132 43.8518 180.345 43.6108 179.591C-6.83228 43.6521 175.561 -50.462 253.237 73.3917C253.957 74.3017 254.784 75.1217 255.701 75.8347C257.85 76.9808 260.4 77.0978 262.646 76.1548C262.971 76.0738 263.287 75.9668 263.595 75.8347C264.515 75.1227 265.346 74.3027 266.07 73.3917C266.145 73.2847 266.262 73.2317 266.326 73.1037C327.127 -28.4875 482.863 13.9984 483.621 132.316C483.469 148.393 480.791 164.347 475.685 179.592C474.36 183.666 476.587 188.043 480.661 189.368C484.735 190.693 489.112 188.466 490.437 184.392C496.054 167.598 498.991 150.024 499.142 132.316C498.726 4.49422 334.401 -48.3289 259.647 55.1293C165.149 -70.4624 -25.2327 38.1909 28.8585 184.402C29.8985 187.592 32.8746 189.749 36.2296 189.746Z" fill="url(#paint2_linear_3668_16371)"/>
<path d="M478.479 211.933C478.479 207.647 475.011 204.169 470.724 204.157H327.532C324.301 204.158 321.409 206.158 320.268 209.181L293.6 279.582L232.959 119.558C231.354 115.549 226.803 113.6 222.794 115.205C220.809 116 219.236 117.573 218.441 119.558L186.441 204.157H48.5818C44.2927 204.153 40.8126 207.626 40.8086 211.915C40.8046 216.204 44.2777 219.684 48.5668 219.688H48.5808H191.752C194.98 219.689 197.872 217.693 199.016 214.675L225.684 144.273L286.304 304.341C287.893 308.35 292.431 310.312 296.44 308.723C298.442 307.929 300.028 306.344 300.822 304.341L332.866 219.742H470.725C475.014 219.736 478.486 216.255 478.48 211.966C478.479 211.955 478.479 211.944 478.479 211.933Z" fill="url(#paint3_linear_3668_16371)"/>
<path d="M482.629 387.595C476.952 383.321 469.506 382.195 462.82 384.598C464.765 375.798 461.002 366.721 453.401 361.877C443.396 354.208 428.365 360.65 403.459 371.339C384.767 379.703 365.547 386.829 345.922 392.672C344.753 390.746 343.372 388.957 341.804 387.339C335.104 380.949 326.132 377.494 316.876 377.739C249.919 378.88 237.13 372.16 222.186 364.406C205.727 355.872 187.06 346.176 105.788 344.288C101.505 344.311 98.0522 347.802 98.0752 352.085C98.0972 356.194 101.321 359.573 105.425 359.787C183.112 361.622 200.062 370.455 215.028 378.177C231.156 386.54 246.345 394.444 317.43 393.238C322.345 393.2 327.1 394.987 330.774 398.251C335.102 403.535 336.962 410.418 335.883 417.164C331.904 439.468 278.655 439.905 213.972 431.937C209.719 431.386 205.824 434.388 205.273 438.641C204.722 442.894 207.724 446.789 211.977 447.34C252.639 452.129 295.178 456.321 327.456 445.303C366.596 437.509 404.751 425.396 441.219 409.185C455.256 403.212 469.752 397.068 472.654 399.478C482.34 407.126 470.19 416.354 464.697 420.972C332.961 525.401 157.929 494.946 107.442 483.149C103.271 482.174 99.1003 484.765 98.1252 488.936C97.1502 493.107 99.7413 497.278 103.912 498.253C210.582 522.787 363.897 521.817 473.936 433.431C483.099 427.884 503.707 404.822 482.629 387.595ZM439.962 392.928C411.034 405.906 381.06 416.413 350.36 424.332C351.767 418.795 351.999 413.025 351.043 407.392C371.045 401.413 390.642 394.152 409.711 385.653C423.364 379.797 440.315 372.522 444.091 374.24C451.728 380.395 446.438 385.877 439.931 392.875L439.962 392.928Z" fill="url(#paint4_linear_3668_16371)"/>
<path d="M70.1506 344H31.9738C21.4366 344.047 12.9054 352.577 12.8584 363.115V470.649C12.8644 481.205 21.4176 489.763 31.9738 489.774H70.1506C80.7069 489.762 89.26 481.205 89.266 470.649V363.115C89.219 352.578 80.6879 344.047 70.1506 344ZM73.7457 470.649C73.7457 472.636 72.1377 474.248 70.1506 474.254H31.9738C29.9868 474.248 28.3787 472.636 28.3787 470.649V363.115C28.3787 361.13 29.9878 359.52 31.9738 359.52H70.1506C72.1357 359.52 73.7457 361.129 73.7457 363.115V470.649Z" fill="url(#paint5_linear_3668_16371)"/>
<path d="M51.0575 375.051C46.7715 375.21 43.4265 378.813 43.5845 383.098C43.7355 387.161 46.9945 390.42 51.0575 390.571C55.3435 390.412 58.6885 386.809 58.5305 382.524C58.3795 378.461 55.1205 375.202 51.0575 375.051Z" fill="url(#paint6_linear_3668_16371)"/>
</g>
<defs>
<linearGradient id="paint0_linear_3668_16371" x1="60.5928" y1="237.889" x2="145.058" y2="239.944" gradientUnits="userSpaceOnUse">
<stop offset="0.0052" stop-color="#43BAFF"/>
<stop offset="1" stop-color="#7044B3"/>
</linearGradient>
<linearGradient id="paint1_linear_3668_16371" x1="333.365" y1="238.314" x2="461.8" y2="241.694" gradientUnits="userSpaceOnUse">
<stop offset="0.0052" stop-color="#43BAFF"/>
<stop offset="1" stop-color="#7044B3"/>
</linearGradient>
<linearGradient id="paint2_linear_3668_16371" x1="19.3584" y1="0" x2="509.977" y2="34.1668" gradientUnits="userSpaceOnUse">
<stop offset="0.0052" stop-color="#43BAFF"/>
<stop offset="1" stop-color="#7044B3"/>
</linearGradient>
<linearGradient id="paint3_linear_3668_16371" x1="40.8086" y1="114.643" x2="488.816" y2="142.39" gradientUnits="userSpaceOnUse">
<stop offset="0.0052" stop-color="#43BAFF"/>
<stop offset="1" stop-color="#7044B3"/>
</linearGradient>
<linearGradient id="paint4_linear_3668_16371" x1="97.9199" y1="344.288" x2="500.961" y2="370.359" gradientUnits="userSpaceOnUse">
<stop offset="0.0052" stop-color="#43BAFF"/>
<stop offset="1" stop-color="#7044B3"/>
</linearGradient>
<linearGradient id="paint5_linear_3668_16371" x1="12.8584" y1="344" x2="91.3541" y2="345.133" gradientUnits="userSpaceOnUse">
<stop offset="0.0052" stop-color="#43BAFF"/>
<stop offset="1" stop-color="#7044B3"/>
</linearGradient>
<linearGradient id="paint6_linear_3668_16371" x1="43.5791" y1="375.051" x2="58.937" y2="375.458" gradientUnits="userSpaceOnUse">
<stop offset="0.0052" stop-color="#43BAFF"/>
<stop offset="1" stop-color="#7044B3"/>
</linearGradient>
<clipPath id="clip0_3668_16371">
<rect width="512" height="512" fill="white"/>
</clipPath>
</defs>
</svg>
