<svg width="20" height="10" viewBox="0 0 20 10" fill="none" xmlns="http://www.w3.org/2000/svg">
<path d="M0.0899999 9.80002H1.75V2.76002H0.0899999M0.92 1.84002C1.03986 1.84268 1.15905 1.82137 1.27056 1.77734C1.38207 1.7333 1.48366 1.66743 1.56936 1.58359C1.65507 1.49975 1.72315 1.39963 1.76963 1.28911C1.8161 1.1786 1.84003 1.05991 1.84 0.940017C1.84 0.440017 1.44 0.0400172 0.92 0.0400172C0.800138 0.0373529 0.680952 0.058664 0.56944 0.102699C0.457928 0.146734 0.356338 0.212605 0.270635 0.296444C0.184933 0.380284 0.116845 0.480402 0.0703702 0.590919C0.0238955 0.701436 -2.95792e-05 0.820126 2.74444e-08 0.940017C2.74444e-08 1.44002 0.4 1.84002 0.92 1.84002ZM7.25 0.0600172C4.46 0.0600172 2.7 1.96002 2.7 5.00002C2.7 8.06002 4.46 9.96002 7.25 9.96002C10.04 9.96002 11.8 8.06002 11.8 5.00002C11.8 1.96002 10.04 0.0600172 7.25 0.0600172ZM7.25 1.50002C8.96 1.50002 10.05 2.87002 10.05 5.00002C10.05 7.15002 8.96 8.50002 7.25 8.50002C5.54 8.50002 4.46 7.15002 4.46 5.00002C4.46 2.87002 5.54 1.50002 7.25 1.50002ZM12.5 7.11002C12.57 8.87002 14 9.96002 16.22 9.96002C18.54 9.96002 20 8.82002 20 7.00002C20 5.57002 19.18 4.77002 17.23 4.32002L16.13 4.07002C14.95 3.79002 14.47 3.42002 14.47 2.78002C14.47 2.00002 15.2 1.45002 16.28 1.45002C17.38 1.45002 18.13 2.00002 18.21 2.89002H19.84C19.8 1.20002 18.41 0.0600172 16.29 0.0600172C14.21 0.0600172 12.73 1.21002 12.73 2.91002C12.73 4.28002 13.56 5.13002 15.33 5.53002L16.57 5.82002C17.78 6.11002 18.27 6.50002 18.27 7.20002C18.27 8.00002 17.47 8.57002 16.31 8.57002C15.15 8.57002 14.26 8.00002 14.16 7.11002H12.5Z" fill="url(#paint0_linear_1261_14886)"/>
<defs>
<linearGradient id="paint0_linear_1261_14886" x1="0" y1="0.0397949" x2="20.4877" y2="1.17742" gradientUnits="userSpaceOnUse">
<stop offset="0.0052" stop-color="#43BAFF"/>
<stop offset="1" stop-color="#7044B3"/>
</linearGradient>
</defs>
</svg>
