<svg width="16" height="16" viewBox="0 0 16 16" fill="none" xmlns="http://www.w3.org/2000/svg">
<path d="M0.517273 2.51597C0.520125 2.01374 0.711106 1.53081 1.05254 1.16248C1.39397 0.794142 1.86105 0.567147 2.36162 0.52628C2.8622 0.485412 3.35991 0.633641 3.75656 0.94172C4.15321 1.2498 4.42 1.69535 4.50427 2.19047C5.05548 2.06012 5.63088 2.07302 6.17569 2.22793C6.72051 2.38284 7.21661 2.67461 7.61677 3.07547L7.73077 3.19247L6.25102 4.67222L6.13702 4.55447C6.0227 4.4402 5.88695 4.34961 5.73755 4.28789C5.58815 4.22618 5.42804 4.19455 5.2664 4.19483C5.10476 4.19511 4.94476 4.22729 4.79557 4.28951C4.64639 4.35174 4.51095 4.4428 4.39702 4.55747C4.28221 4.6713 4.19102 4.80668 4.12867 4.95585C4.06632 5.10501 4.03404 5.26502 4.03369 5.42669C4.03335 5.58836 4.06493 5.74851 4.12664 5.89794C4.18834 6.04738 4.27896 6.18315 4.39327 6.29747L7.73077 9.63497L6.25102 11.114L4.68352 9.54647L3.20152 8.06747L2.91427 7.77722C2.48924 7.35346 2.18728 6.8222 2.04066 6.2402C1.89403 5.65819 1.90825 5.04728 2.08177 4.47272C1.63741 4.3727 1.24036 4.12434 0.955991 3.76853C0.671621 3.41273 0.51689 2.97145 0.517273 2.51597ZM4.85977 6.41222L6.33877 7.89422L7.90627 6.32972L9.67627 4.56047C9.79015 4.44571 9.92557 4.35457 10.0748 4.29229C10.224 4.23 10.384 4.1978 10.5457 4.19752C10.7073 4.19724 10.8675 4.22889 11.0169 4.29066C11.1663 4.35244 11.302 4.44311 11.4163 4.55747C11.8963 5.03747 11.8963 5.81747 11.4163 6.29747L11.3015 6.41222L12.7813 7.89422L12.8953 7.77722C13.3164 7.35801 13.6169 6.83321 13.7654 6.25787C13.9138 5.68253 13.9047 5.07784 13.739 4.50722C14.2423 4.43801 14.7007 4.18063 15.0219 3.78692C15.343 3.39322 15.503 2.89245 15.4696 2.38549C15.4362 1.87853 15.2119 1.40306 14.842 1.05485C14.472 0.706651 13.9838 0.511592 13.4758 0.508972C12.9915 0.5091 12.5235 0.684421 12.1584 1.00257C11.7932 1.32073 11.5555 1.76023 11.489 2.23997C10.916 2.07181 10.3083 2.06084 9.72951 2.20823C9.15077 2.35562 8.62233 2.65594 8.19952 3.07772L7.90927 3.36797L6.42652 4.84772L4.85977 6.41222ZM13.7743 11.498C13.9108 10.9435 13.9015 10.3632 13.7475 9.81335C13.5935 9.26351 13.2999 8.76285 12.8953 8.35997L12.6058 8.06747L11.126 6.58772L9.56452 5.02322L8.08177 6.50297L9.64627 8.07047L11.4163 9.84047C11.5303 9.95453 11.6208 10.0899 11.6825 10.2389C11.7442 10.388 11.776 10.5477 11.776 10.709C11.776 10.8703 11.7442 11.03 11.6825 11.179C11.6208 11.328 11.5303 11.4634 11.4163 11.5775C11.3022 11.6915 11.1668 11.782 11.0178 11.8437C10.8688 11.9054 10.7091 11.9372 10.5478 11.9372C10.3865 11.9372 10.2268 11.9054 10.0777 11.8437C9.92873 11.782 9.79333 11.6915 9.67927 11.5775L9.56452 11.4657L8.08477 12.9485L8.19652 13.0595C8.62373 13.4876 9.1598 13.7909 9.74681 13.9365C10.3338 14.0822 10.9495 14.0647 11.5273 13.886C11.6194 14.3395 11.8654 14.7473 12.2236 15.0403C12.5818 15.3333 13.0302 15.4936 13.493 15.494C14.0015 15.4945 14.4912 15.3021 14.8633 14.9556C15.2354 14.6091 15.4622 14.1344 15.4979 13.6272C15.5336 13.12 15.3756 12.6181 15.0556 12.2229C14.7357 11.8278 14.2778 11.5687 13.7743 11.498ZM10.9505 9.72572L9.47077 8.24297L7.90627 9.80747L6.42652 11.2902L6.13702 11.5797C6.02243 11.6942 5.8864 11.7849 5.73672 11.8467C5.58704 11.9086 5.42663 11.9403 5.26468 11.9401C5.10273 11.9398 4.94241 11.9077 4.79289 11.8455C4.64336 11.7833 4.50757 11.6922 4.39327 11.5775C4.27898 11.4632 4.18831 11.3276 4.12645 11.1783C4.0646 11.0291 4.03276 10.8691 4.03276 10.7075C4.03276 10.5459 4.0646 10.3859 4.12645 10.2366C4.18831 10.0873 4.27898 9.9517 4.39327 9.83747L4.50802 9.72497L3.02827 8.24297L2.91427 8.35772C2.5056 8.76501 2.21036 9.27195 2.05777 9.82838C1.90518 10.3848 1.90053 10.9714 2.04427 11.5302C1.56727 11.6455 1.14898 11.9315 0.868386 12.3341C0.587794 12.7367 0.464316 13.2281 0.521265 13.7156C0.578213 14.203 0.811647 14.6527 1.17749 14.9798C1.54334 15.3069 2.01628 15.4887 2.50702 15.491C2.96129 15.4902 3.40194 15.3358 3.75733 15.0528C4.11272 14.7699 4.36196 14.375 4.46452 13.9325C5.02047 14.072 5.6031 14.0649 6.15547 13.9118C6.70785 13.7588 7.21109 13.4651 7.61602 13.0595L7.90852 12.7692L9.38902 11.2872L10.9505 9.72572Z" fill="url(#paint0_linear_1261_14876)"/>
<defs>
<linearGradient id="paint0_linear_1261_14876" x1="0.50769" y1="0.508972" x2="15.9042" y2="0.933315" gradientUnits="userSpaceOnUse">
<stop offset="0.0052" stop-color="#43BAFF"/>
<stop offset="1" stop-color="#7044B3"/>
</linearGradient>
</defs>
</svg>
