<svg width="22" height="8" viewBox="0 0 22 8" fill="none" xmlns="http://www.w3.org/2000/svg">
<path fill-rule="evenodd" clip-rule="evenodd" d="M1.37382 7.51562C1.12415 7.51562 0.916102 7.43836 0.74968 7.28383C0.583211 7.12925 0.499984 6.93927 0.5 6.7139C0.5 6.48209 0.585625 6.29213 0.756875 6.14402C0.928125 5.99591 1.14177 5.92185 1.39782 5.92185C1.65709 5.92185 1.86914 5.99671 2.03398 6.14643C2.19883 6.29615 2.28125 6.48531 2.28125 6.71392C2.28125 6.94895 2.19723 7.14133 2.02918 7.29105C1.86115 7.44077 1.6427 7.51562 1.37382 7.51562ZM9.73438 7.39844H8.16479L5.31931 3.05425C5.15241 2.80031 5.03686 2.60906 4.97267 2.4805H4.95341C4.97908 2.72477 4.99191 3.09763 4.99191 3.59908V7.39844H3.52344V0.484375H5.19894L7.9385 4.69356C8.06369 4.88322 8.17923 5.07127 8.28514 5.2577H8.30441C8.27873 5.09697 8.2659 4.78035 8.2659 4.30785V0.484375H9.73438V7.39844ZM15.4531 7.39844H11.3047V0.484375H15.2939V1.75244H12.8628V3.2905H15.1251V4.55373H12.8628V6.1352H15.4531V7.39844ZM21.5 1.75244H19.5324V7.39844H17.9736V1.75244H16.0156V0.484375H21.5V1.75244Z" fill="url(#paint0_linear_1261_14882)"/>
<defs>
<linearGradient id="paint0_linear_1261_14882" x1="0.5" y1="0.484375" x2="21.9334" y2="2.24747" gradientUnits="userSpaceOnUse">
<stop offset="0.0052" stop-color="#43BAFF"/>
<stop offset="1" stop-color="#7044B3"/>
</linearGradient>
</defs>
</svg>
