<svg width="22" height="24" viewBox="0 0 22 24" fill="none" xmlns="http://www.w3.org/2000/svg">
<path d="M10.4338 0.152228L1.06628 5.58223C0.893607 5.68173 0.750508 5.82537 0.65166 5.99842C0.552813 6.17147 0.501775 6.3677 0.50378 6.56698V17.43C0.50378 17.8365 0.71828 18.2115 1.06628 18.4102L10.4375 23.8477C10.6089 23.9475 10.8036 24.0001 11.0019 24.0001C11.2002 24.0001 11.3949 23.9475 11.5663 23.8477L20.9338 18.414C21.2818 18.2107 21.4963 17.8357 21.4963 17.4337V6.56623C21.4963 6.15973 21.2818 5.78473 20.93 5.58148L11.567 0.151478C11.3957 0.0516697 11.2009 -0.000915527 11.0027 -0.000915527C10.8044 -0.000915527 10.6096 0.0516697 10.4383 0.151478L10.4338 0.152228Z" fill="url(#paint0_linear_1261_14347)"/>
<defs>
<linearGradient id="paint0_linear_1261_14347" x1="0.503723" y1="-0.000915527" x2="22.062" y2="0.51842" gradientUnits="userSpaceOnUse">
<stop offset="0.0052" stop-color="#43BAFF"/>
<stop offset="1" stop-color="#7044B3"/>
</linearGradient>
</defs>
</svg>
