<svg width="24" height="14" viewBox="0 0 24 14" fill="none" xmlns="http://www.w3.org/2000/svg">
<path d="M12 0.687256C5.37262 0.687256 0 3.51382 0 7.00001C0 10.4862 5.37262 13.3128 12 13.3128C18.6272 13.3128 24 10.4862 24 7.00001C24 3.51382 18.6274 0.687256 12 0.687256ZM10.8784 2.52663H12.2458V2.52719L11.9186 4.20869H13.1366C13.9031 4.20869 14.4317 4.34238 14.7225 4.60976C15.0135 4.87726 15.1009 5.31038 14.9846 5.90913L14.4122 8.85288H13.0232L13.5673 6.05369C13.6292 5.73544 13.6064 5.51838 13.4989 5.40251C13.3914 5.28688 13.1627 5.22907 12.813 5.22907H11.7203L11.016 8.8525H9.64894L10.8784 2.52663ZM5.01188 4.20888H7.66181C8.45919 4.20888 9.04075 4.41813 9.4065 4.83663C9.77213 5.25501 9.882 5.83913 9.73612 6.58901C9.676 6.89801 9.57444 7.18051 9.43144 7.43651C9.28844 7.69251 9.10156 7.92657 8.87081 8.13869C8.59556 8.39619 8.28988 8.57969 7.95375 8.68919C7.61737 8.79869 7.18875 8.85338 6.66788 8.85326H5.48775L5.16056 10.5351H3.78244L5.01188 4.20888ZM15.768 4.20888H18.4174C19.2146 4.20888 19.7961 4.41813 20.1617 4.83663H20.1621C20.5278 5.25501 20.6378 5.83913 20.4921 6.58901C20.4321 6.89801 20.3306 7.18051 20.1877 7.43651C20.0449 7.69251 19.8579 7.92657 19.6268 8.13869C19.3518 8.39619 19.0459 8.57969 18.7093 8.68919C18.3731 8.79869 17.9446 8.85338 17.424 8.85326H16.2437L15.9167 10.5351H14.5386L15.768 4.20888ZM6.19594 5.20732L5.68181 7.85482H6.51956C7.07531 7.85494 7.48919 7.75038 7.76119 7.54113C8.03294 7.33176 8.2165 6.98226 8.31188 6.49263C8.40287 6.02238 8.36125 5.69057 8.187 5.49719C8.01275 5.30382 7.66375 5.20713 7.14 5.20713L6.19594 5.20732ZM16.9515 5.20732L16.437 7.85482H17.2751C17.8309 7.85494 18.2447 7.75038 18.5168 7.54113C18.7884 7.33176 18.9718 6.98226 19.0671 6.49263C19.1583 6.02238 19.1168 5.69057 18.9426 5.49719C18.7683 5.30382 18.4193 5.20713 17.8956 5.20713L16.9515 5.20732Z" fill="url(#paint0_linear_1261_14880)"/>
<defs>
<linearGradient id="paint0_linear_1261_14880" x1="0" y1="0.687256" x2="24.5936" y2="1.97487" gradientUnits="userSpaceOnUse">
<stop offset="0.0052" stop-color="#43BAFF"/>
<stop offset="1" stop-color="#7044B3"/>
</linearGradient>
</defs>
</svg>
