<svg width="18" height="20" viewBox="0 0 18 20" fill="none" xmlns="http://www.w3.org/2000/svg">
<path d="M7.00002 0.400024C7.15915 0.400024 7.31177 0.463239 7.42429 0.57576C7.53681 0.688282 7.60002 0.840895 7.60002 1.00002V3.40002C7.60002 3.55915 7.53681 3.71177 7.42429 3.82429C7.31177 3.93681 7.15915 4.00002 7.00002 4.00002C6.84089 4.00002 6.68828 3.93681 6.57576 3.82429C6.46324 3.71177 6.40002 3.55915 6.40002 3.40002V1.00002C6.40002 0.840895 6.46324 0.688282 6.57576 0.57576C6.68828 0.463239 6.84089 0.400024 7.00002 0.400024ZM2.33202 2.33202C2.38776 2.27615 2.45397 2.23182 2.52686 2.20157C2.59976 2.17132 2.6779 2.15575 2.75682 2.15575C2.83575 2.15575 2.91389 2.17132 2.98678 2.20157C3.05968 2.23182 3.12589 2.27615 3.18162 2.33202L4.87842 4.03002C4.93573 4.08537 4.98144 4.15158 5.01289 4.22478C5.04433 4.29798 5.06088 4.37672 5.06157 4.45638C5.06227 4.53605 5.04709 4.61506 5.01692 4.6888C4.98675 4.76253 4.9422 4.82953 4.88586 4.88586C4.82953 4.9422 4.76253 4.98675 4.6888 5.01692C4.61506 5.04709 4.53605 5.06227 4.45638 5.06157C4.37672 5.06088 4.29798 5.04433 4.22478 5.01289C4.15158 4.98144 4.08537 4.93573 4.03002 4.87842L2.33322 3.18162C2.22074 3.06911 2.15755 2.91652 2.15755 2.75742C2.15755 2.59833 2.22074 2.44574 2.33322 2.33322M11.6692 2.33322C11.7251 2.38896 11.7694 2.45517 11.7997 2.52806C11.8299 2.60096 11.8455 2.6791 11.8455 2.75802C11.8455 2.83695 11.8299 2.91509 11.7997 2.98799C11.7694 3.06088 11.7251 3.12709 11.6692 3.18282L9.96882 4.87842C9.91348 4.93573 9.84727 4.98144 9.77407 5.01289C9.70086 5.04433 9.62213 5.06088 9.54247 5.06157C9.4628 5.06227 9.38379 5.04709 9.31005 5.01692C9.23631 4.98675 9.16932 4.9422 9.11299 4.88586C9.05665 4.82953 9.0121 4.76253 8.98193 4.6888C8.95176 4.61506 8.93658 4.53605 8.93727 4.45638C8.93797 4.37672 8.95452 4.29798 8.98596 4.22478C9.01741 4.15158 9.06312 4.08537 9.12043 4.03002L10.8172 2.33322C10.9297 2.22074 11.0823 2.15755 11.2414 2.15755C11.4005 2.15755 11.5531 2.22074 11.6656 2.33322M0.400024 7.00002C0.400024 6.84089 0.463239 6.68828 0.57576 6.57576C0.688282 6.46324 0.840895 6.40002 1.00002 6.40002H3.40002C3.55915 6.40002 3.71177 6.46324 3.82429 6.57576C3.93681 6.68828 4.00002 6.84089 4.00002 7.00002C4.00002 7.15915 3.93681 7.31177 3.82429 7.42429C3.71177 7.53681 3.55915 7.60002 3.40002 7.60002H1.00002C0.840895 7.60002 0.688282 7.53681 0.57576 7.42429C0.463239 7.31177 0.400024 7.15915 0.400024 7.00002ZM7.00002 7.63842V18.7504C6.99981 18.8692 7.03489 18.9855 7.1008 19.0843C7.16671 19.1832 7.2605 19.2603 7.37027 19.3058C7.48004 19.3513 7.60084 19.3631 7.71737 19.3399C7.8339 19.3167 7.94091 19.2594 8.02482 19.1752L11.0968 16.1032C11.5468 15.6531 12.1572 15.4002 12.7936 15.4H16.672C16.7966 15.3999 16.918 15.3611 17.0195 15.2889C17.1209 15.2166 17.1974 15.1146 17.2383 14.997C17.2792 14.8793 17.2825 14.7519 17.2477 14.6323C17.2128 14.5127 17.1417 14.4069 17.044 14.3296L7.97203 7.16682C7.88353 7.0969 7.77712 7.05333 7.665 7.04111C7.55288 7.0289 7.43959 7.04854 7.33811 7.09777C7.23664 7.147 7.1511 7.22384 7.0913 7.31947C7.0315 7.41509 6.99987 7.52564 7.00002 7.63842Z" fill="url(#paint0_linear_1261_15955)"/>
<defs>
<linearGradient id="paint0_linear_1261_15955" x1="0.400024" y1="0.400024" x2="17.7258" y2="0.824844" gradientUnits="userSpaceOnUse">
<stop offset="0.0052" stop-color="#43BAFF"/>
<stop offset="1" stop-color="#7044B3"/>
</linearGradient>
</defs>
</svg>
