<svg width="20" height="15" viewBox="0 0 20 15" fill="none" xmlns="http://www.w3.org/2000/svg">
<path d="M17.8 12.7C17.8 12.7 19.6 12.5 19.6 10.3C19.6 8.10002 17.5 7.80002 17.5 7.80002H13.7V15H15.6V13.3L17.3 15H20L17.8 12.7ZM17 11.3H15.5V9.70002H17C17 9.70002 17.4 9.90002 17.4 10.5C17.5 11.1 17 11.3 17 11.3ZM19.3 4.20002V4.40002C11.2 2.10002 8 9.20003 8.6 14.7H2.3C3 9.30003 9.8 -1.39998 19.3 4.20002ZM18.5 2.90002C17.8 2.60002 17.1 2.30002 16.4 2.10002L16.5 0.800025L18.6 1.60002L18.5 2.90002ZM16.5 4.70002C17.2 4.70002 17.9 4.80002 18.6 5.00002L18.5 6.20002L16.7 6.00002L16.5 4.70002ZM11.9 1.80002L11.5 0.600024L13.6 0.400024L14 1.70002C13.8 1.70002 12.1 1.80002 11.9 1.80002ZM13.2 5.50002C13.6 5.30002 14.3 5.00002 15.2 4.80002L15.6 6.00002L13.8 6.70002L13.2 5.50002ZM9.8 2.50002C9.2 2.80002 8.6 3.10002 8 3.50002L7.2 2.20002L9 1.20002L9.8 2.50002ZM12.3 6.10002L13.1 7.30002L12 8.60003L10.9 7.60002C11.2 7.00002 11.7 6.50002 12.3 6.10002ZM9.6 11C9.7 10.2 9.9 9.50002 10.2 8.70002L11.4 9.70002L11.1 11.6L9.6 11ZM5.9 5.30002C5.4 5.80002 4.9 6.40002 4.5 6.90002L3.2 5.80002L4.7 4.20002L5.9 5.30002ZM2.8 9.70002C2.4 10.5 2.1 11.3 1.8 12L0 11.3L0.9 9.00002L2.8 9.70002ZM9.5 12.3L11.3 12.9L11.6 14.9L9.6 14.4C9.6 14.2 9.5 13.5 9.5 12.3Z" fill="url(#paint0_linear_1261_14878)"/>
<defs>
<linearGradient id="paint0_linear_1261_14878" x1="0" y1="0.400024" x2="20.5216" y2="1.17429" gradientUnits="userSpaceOnUse">
<stop offset="0.0052" stop-color="#43BAFF"/>
<stop offset="1" stop-color="#7044B3"/>
</linearGradient>
</defs>
</svg>
