<svg width="24" height="24" viewBox="0 0 24 24" fill="none" xmlns="http://www.w3.org/2000/svg">
<path d="M7.508 0L6.648 0.002C6.40667 0.00266667 6.16533 0.006 5.924 0.012C5.792 0.0153333 5.66033 0.0203333 5.529 0.027C5.13305 0.0419584 4.73853 0.0830478 4.348 0.15C3.82747 0.242154 3.32295 0.408869 2.85 0.645C1.90069 1.1279 1.12876 1.89913 0.645 2.848C0.4 3.328 0.245 3.82 0.15 4.348C0.057 4.868 0.028 5.398 0.014 5.924C0.00750362 6.16529 0.00350341 6.40663 0.002 6.648L0 7.508V16.492L0.002 17.354C0.00333333 17.594 0.00733333 17.8347 0.014 18.076C0.028 18.602 0.057 19.133 0.15 19.652C0.245 20.18 0.4 20.672 0.645 21.152C1.1282 22.1013 1.90028 22.8727 2.85 23.355C3.33 23.599 3.82 23.755 4.348 23.85C4.868 23.943 5.398 23.974 5.924 23.988C6.16533 23.9947 6.40667 23.998 6.648 23.998C6.93467 24 7.22133 24.0007 7.508 24H16.492L17.352 23.998C17.5933 23.998 17.8347 23.9947 18.076 23.988C18.6047 23.9818 19.1322 23.9357 19.654 23.85C20.1752 23.7607 20.6802 23.5938 21.152 23.355C22.1006 22.8718 22.8718 22.1006 23.355 21.152C23.6 20.672 23.755 20.18 23.85 19.652C23.943 19.132 23.974 18.602 23.988 18.076C23.9947 17.8353 23.998 17.5947 23.998 17.354C24 17.0667 24.0007 16.7793 24 16.492V7.508L23.998 6.648C23.9972 6.40664 23.9939 6.16529 23.988 5.924C23.9817 5.39594 23.9356 4.86912 23.85 4.348C23.7609 3.82608 23.594 3.32047 23.355 2.848C22.8718 1.89943 22.1006 1.12824 21.152 0.645C20.6802 0.406189 20.1752 0.239341 19.654 0.15C19.1322 0.064333 18.6047 0.0182018 18.076 0.012C17.8354 0.00618415 17.5947 0.00285064 17.354 0.002L16.492 0H7.508ZM13.543 3.41C17.657 5.88 20.088 10.572 19.092 14.541C19.068 14.634 19.042 14.722 19.016 14.813L19.018 14.814C21.08 17.352 20.518 20.072 20.254 19.559C19.182 17.473 17.188 17.991 16.166 18.516C16.0736 18.5708 15.9799 18.6235 15.885 18.674L15.865 18.686L15.863 18.688C13.748 19.811 10.906 19.893 8.051 18.666C5.7264 17.6586 3.76049 15.9722 2.411 13.828C3.06 14.308 3.761 14.73 4.508 15.08C7.527 16.494 10.559 16.391 12.705 15.078C9.651 12.73 7.101 9.67 5.146 7.191C4.77427 6.75749 4.43817 6.29465 4.141 5.807C6.481 7.949 10.179 10.637 11.506 11.383C8.69 8.408 6.208 4.743 6.324 4.86C10.76 9.33 14.852 11.856 14.852 11.856C15.006 11.941 15.122 12.01 15.212 12.069C15.2973 11.8543 15.372 11.6317 15.436 11.401C16.144 8.813 15.346 5.853 13.543 3.409V3.41Z" fill="url(#paint0_linear_1261_15415)"/>
<defs>
<linearGradient id="paint0_linear_1261_15415" x1="0" y1="0" x2="24.6426" y2="0.678712" gradientUnits="userSpaceOnUse">
<stop offset="0.0052" stop-color="#43BAFF"/>
<stop offset="1" stop-color="#7044B3"/>
</linearGradient>
</defs>
</svg>
