<svg width="100" height="100" viewBox="0 0 100 100" fill="none" xmlns="http://www.w3.org/2000/svg">
<path d="M92.9723 0H7.02844C3.17183 0 0.0341797 3.13765 0.0341797 6.99426V74.1558C0.0341797 78.0124 3.17183 81.1501 7.02844 81.1501H38.031V97.0694H32.3768C31.5674 97.0694 30.9115 97.7255 30.9115 98.5347C30.9115 99.3439 31.5674 100 32.3768 100H67.6238C68.4332 100 69.0891 99.3439 69.0891 98.5347C69.0891 97.7255 68.4332 97.0694 67.6238 97.0694H61.9696V92.0392C61.9696 91.23 61.3137 90.574 60.5043 90.574C59.6949 90.574 59.039 91.23 59.039 92.0392V97.0694H40.9618V81.1501H59.039V85.1581C59.039 85.9673 59.6949 86.6234 60.5043 86.6234C61.3137 86.6234 61.9696 85.9673 61.9696 85.1581V81.1501H92.9725C96.8291 81.1501 99.9668 78.0124 99.9668 74.1558V6.99426C99.9666 3.13765 96.8289 0 92.9723 0ZM2.96474 6.99426C2.96474 4.75356 4.78774 2.93056 7.02844 2.93056H92.9723C95.213 2.93056 97.036 4.75356 97.036 6.99426V63.0011H2.96474V6.99426ZM97.036 74.1556C97.036 76.3963 95.213 78.2193 92.9723 78.2193H7.02844C4.78774 78.2193 2.96474 76.3963 2.96474 74.1556V65.9317H97.036V74.1556Z" fill="url(#paint0_linear_3235_26038)"/>
<path d="M47.0756 73.5407H52.9256C53.735 73.5407 54.3909 72.8846 54.3909 72.0754C54.3909 71.2662 53.735 70.6101 52.9256 70.6101H47.0756C46.2662 70.6101 45.6104 71.2662 45.6104 72.0754C45.6104 72.8846 46.2664 73.5407 47.0756 73.5407Z" fill="url(#paint1_linear_3235_26038)"/>
<path d="M40.5097 39.5088V26.423C40.5097 25.6138 39.8538 24.9578 39.0444 24.9578C38.235 24.9578 37.5791 25.6138 37.5791 26.423V39.5088C37.5791 40.318 38.235 40.974 39.0444 40.974C39.8538 40.974 40.5097 40.318 40.5097 39.5088Z" fill="url(#paint2_linear_3235_26038)"/>
<path d="M22.9887 24.9577C22.1793 24.9577 21.5234 25.6138 21.5234 26.423V35.4274C21.5234 37.3671 22.4161 38.8804 24.2528 40.0536C26.0343 41.1916 28.3788 41.2774 30.2743 40.3226C32.979 38.9605 33.5467 36.9036 33.5467 35.4179V26.4228C33.5467 25.6136 32.8909 24.9575 32.0815 24.9575C31.272 24.9575 30.6162 25.6136 30.6162 26.4228V35.4179C30.6162 36.0936 30.4274 36.9644 28.9561 37.7052C28.016 38.1786 26.7207 38.1525 25.8306 37.5839C24.8527 36.9593 24.454 36.3345 24.454 35.4274V26.423C24.454 25.6138 23.7981 24.9577 22.9887 24.9577Z" fill="url(#paint3_linear_3235_26038)"/>
<path d="M68.9838 9.54736C61.1854 9.54736 54.265 13.379 50.0065 19.2586C48.0694 16.5811 45.5757 14.325 42.7077 12.6698C39.1685 10.6272 35.1259 9.54756 31.0173 9.54756C26.127 9.54756 21.4416 11.0398 17.468 13.8631C16.8082 14.3318 16.6535 15.2465 17.122 15.9063C17.5905 16.566 18.5056 16.721 19.1652 16.2521C22.64 13.7832 26.7385 12.4781 31.0171 12.4781C38.0956 12.4781 44.5225 16.0176 48.3095 21.9727C46.5584 25.2526 45.5652 28.9955 45.5652 32.966C45.5652 36.9364 46.5584 40.6791 48.3094 43.9589C44.5211 49.909 38.0747 53.454 31.0171 53.454C19.72 53.454 10.5292 44.2631 10.5292 32.966C10.5292 28.4836 11.9499 24.2269 14.6378 20.6565C15.1245 20.01 14.995 19.0914 14.3485 18.6047C13.7018 18.1179 12.7836 18.2476 12.2965 18.8941C9.22333 22.9765 7.59863 27.8428 7.59863 32.9662C7.59863 45.8792 18.1041 56.3847 31.0171 56.3847C38.6217 56.3847 45.6052 52.7844 50.0073 46.6752C54.266 52.5539 61.1858 56.3847 68.9837 56.3847C81.8967 56.3847 92.4019 45.8792 92.4019 32.9662C92.4021 20.0528 81.8969 9.54736 68.9838 9.54736ZM68.9838 53.4538C57.6867 53.4538 48.4959 44.2629 48.4959 32.9658C48.4959 21.6687 57.6867 12.4779 68.9838 12.4779C80.2808 12.4779 89.4716 21.6687 89.4716 32.9658C89.4716 44.2629 80.2808 53.4538 68.9838 53.4538Z" fill="url(#paint4_linear_3235_26038)"/>
<path d="M78.1207 32.5016L81.8085 27.2667C82.2747 26.6051 82.1163 25.691 81.4545 25.2248C80.7928 24.7587 79.8787 24.9173 79.4129 25.5788L76.3296 29.9555L73.2513 25.5796C72.7859 24.9179 71.8724 24.7585 71.2099 25.2242C70.548 25.6898 70.3889 26.604 70.8547 27.2659L74.5371 32.5004L70.1944 38.6648C69.7282 39.3263 69.8866 40.2404 70.5484 40.7066C71.2105 41.1731 72.1207 41.0186 72.59 40.3526L76.328 35.0465L80.0602 40.352C80.5152 40.9987 81.4559 41.1614 82.1016 40.7072C82.7635 40.2416 82.9225 39.3275 82.4568 38.6655L78.1207 32.5016Z" fill="url(#paint5_linear_3235_26038)"/>
<path d="M65.8012 24.9575C64.9918 24.9575 64.3359 25.6136 64.3359 26.4228V35.4179C64.3359 36.0936 64.1472 36.9644 62.6754 37.7054C62.2306 37.9295 61.7277 38.0432 61.1811 38.0432H61.1754C60.5643 38.0425 60.0327 37.8922 59.5503 37.5839C58.5725 36.9593 58.1737 36.3345 58.1737 35.4272V26.4228C58.1737 25.6136 57.5179 24.9575 56.7084 24.9575C55.899 24.9575 55.2432 25.6136 55.2432 26.4228V35.4272C55.2432 37.3669 56.1358 38.8802 57.9725 40.0534C59.7246 41.1727 62.1372 41.2577 63.9942 40.3226C66.6991 38.9605 67.2669 36.9036 67.2669 35.4179V26.4228C67.2665 25.6136 66.6104 24.9575 65.8012 24.9575Z" fill="url(#paint6_linear_3235_26038)"/>
<defs>
<linearGradient id="paint0_linear_3235_26038" x1="0.0341797" y1="0" x2="102.641" y2="2.82413" gradientUnits="userSpaceOnUse">
<stop offset="0.0052" stop-color="#43BAFF"/>
<stop offset="1" stop-color="#7044B3"/>
</linearGradient>
<linearGradient id="paint1_linear_3235_26038" x1="45.6104" y1="70.6101" x2="54.5717" y2="71.3496" gradientUnits="userSpaceOnUse">
<stop offset="0.0052" stop-color="#43BAFF"/>
<stop offset="1" stop-color="#7044B3"/>
</linearGradient>
<linearGradient id="paint2_linear_3235_26038" x1="37.5791" y1="24.9578" x2="40.5903" y2="24.9729" gradientUnits="userSpaceOnUse">
<stop offset="0.0052" stop-color="#43BAFF"/>
<stop offset="1" stop-color="#7044B3"/>
</linearGradient>
<linearGradient id="paint3_linear_3235_26038" x1="21.5234" y1="24.9575" x2="33.8726" y2="25.2128" gradientUnits="userSpaceOnUse">
<stop offset="0.0052" stop-color="#43BAFF"/>
<stop offset="1" stop-color="#7044B3"/>
</linearGradient>
<linearGradient id="paint4_linear_3235_26038" x1="7.59863" y1="9.54736" x2="94.5214" y2="13.882" gradientUnits="userSpaceOnUse">
<stop offset="0.0052" stop-color="#43BAFF"/>
<stop offset="1" stop-color="#7044B3"/>
</linearGradient>
<linearGradient id="paint5_linear_3235_26038" x1="69.9268" y1="24.9573" x2="83.07" y2="25.2465" gradientUnits="userSpaceOnUse">
<stop offset="0.0052" stop-color="#43BAFF"/>
<stop offset="1" stop-color="#7044B3"/>
</linearGradient>
<linearGradient id="paint6_linear_3235_26038" x1="55.2432" y1="24.9575" x2="67.5927" y2="25.213" gradientUnits="userSpaceOnUse">
<stop offset="0.0052" stop-color="#43BAFF"/>
<stop offset="1" stop-color="#7044B3"/>
</linearGradient>
</defs>
</svg>
