<svg width="24" height="24" viewBox="0 0 24 24" fill="none" xmlns="http://www.w3.org/2000/svg">
<path d="M12 0C13.1016 0 14.1641 0.140625 15.1875 0.421875C16.2109 0.703125 17.168 1.10547 18.0586 1.62891C18.9492 2.15234 19.7578 2.77734 20.4844 3.50391C21.2109 4.23047 21.8359 5.04297 22.3594 5.94141C22.8828 6.83984 23.2852 7.79688 23.5664 8.8125C23.8477 9.82812 23.9922 10.8906 24 12C24 13.1016 23.8594 14.1641 23.5781 15.1875C23.2969 16.2109 22.8945 17.168 22.3711 18.0586C21.8477 18.9492 21.2227 19.7578 20.4961 20.4844C19.7695 21.2109 18.957 21.8359 18.0586 22.3594C17.1602 22.8828 16.2031 23.2852 15.1875 23.5664C14.1719 23.8477 13.1094 23.9922 12 24C10.8984 24 9.83594 23.8594 8.8125 23.5781C7.78906 23.2969 6.83203 22.8945 5.94141 22.3711C5.05078 21.8477 4.24219 21.2227 3.51562 20.4961C2.78906 19.7695 2.16406 18.957 1.64062 18.0586C1.11719 17.1602 0.714844 16.207 0.433594 15.1992C0.152344 14.1914 0.0078125 13.125 0 12C0 10.8984 0.140625 9.83594 0.421875 8.8125C0.703125 7.78906 1.10547 6.83203 1.62891 5.94141C2.15234 5.05078 2.77734 4.24219 3.50391 3.51562C4.23047 2.78906 5.04297 2.16406 5.94141 1.64062C6.83984 1.11719 7.79297 0.714844 8.80078 0.433594C9.80859 0.152344 10.875 0.0078125 12 0ZM12 22.5C12.9609 22.5 13.8867 22.375 14.7773 22.125C15.668 21.875 16.5039 21.5234 17.2852 21.0703C18.0664 20.6172 18.7773 20.0664 19.418 19.418C20.0586 18.7695 20.6055 18.0625 21.0586 17.2969C21.5117 16.5312 21.8672 15.6953 22.125 14.7891C22.3828 13.8828 22.5078 12.9531 22.5 12C22.5 11.0391 22.375 10.1133 22.125 9.22266C21.875 8.33203 21.5234 7.49609 21.0703 6.71484C20.6172 5.93359 20.0664 5.22266 19.418 4.58203C18.7695 3.94141 18.0625 3.39453 17.2969 2.94141C16.5312 2.48828 15.6953 2.13281 14.7891 1.875C13.8828 1.61719 12.9531 1.49219 12 1.5C11.0391 1.5 10.1133 1.625 9.22266 1.875C8.33203 2.125 7.49609 2.47656 6.71484 2.92969C5.93359 3.38281 5.22266 3.93359 4.58203 4.58203C3.94141 5.23047 3.39453 5.9375 2.94141 6.70312C2.48828 7.46875 2.13281 8.30469 1.875 9.21094C1.61719 10.1172 1.49219 11.0469 1.5 12C1.5 12.9609 1.625 13.8867 1.875 14.7773C2.125 15.668 2.47656 16.5039 2.92969 17.2852C3.38281 18.0664 3.93359 18.7773 4.58203 19.418C5.23047 20.0586 5.9375 20.6055 6.70312 21.0586C7.46875 21.5117 8.30469 21.8672 9.21094 22.125C10.1172 22.3828 11.0469 22.5078 12 22.5ZM18.9961 12.1875L19.5586 10.5H20.4375L19.4414 13.5H18.5625L18 11.8125L17.4375 13.5H16.5586L15.5625 10.5H16.4414L17.0039 12.1875L17.5664 10.5H18.4336L18.9961 12.1875ZM13.5586 10.5H14.4375L13.4414 13.5H12.5625L12 11.8125L11.4375 13.5H10.5586L9.5625 10.5H10.4414L11.0039 12.1875L11.5664 10.5H12.4336L12.9961 12.1875L13.5586 10.5ZM7.55859 10.5H8.4375L7.44141 13.5H6.5625L6 11.8125L5.4375 13.5H4.55859L3.5625 10.5H4.44141L5.00391 12.1875L5.56641 10.5H6.43359L6.99609 12.1875L7.55859 10.5Z" fill="url(#paint0_linear_1261_15959)"/>
<defs>
<linearGradient id="paint0_linear_1261_15959" x1="0" y1="0" x2="24.6423" y2="0.678705" gradientUnits="userSpaceOnUse">
<stop offset="0.0052" stop-color="#43BAFF"/>
<stop offset="1" stop-color="#7044B3"/>
</linearGradient>
</defs>
</svg>
