<svg width="44" height="51" viewBox="0 0 44 51" fill="none" xmlns="http://www.w3.org/2000/svg">
<path d="M16.9006 21.2891C17.2243 21.6776 17.2243 22.0336 16.9006 22.3573C16.7711 22.4868 16.6093 22.5515 16.415 22.5515C16.2208 22.5515 16.0266 22.4868 15.8324 22.3573L14.0844 20.5122C13.696 20.1885 13.696 19.8325 14.0844 19.444L15.8324 17.6961C16.2208 17.3076 16.5769 17.2914 16.9006 17.6475C17.2243 18.0036 17.2243 18.3435 16.9006 18.6672L15.6382 20.0267L16.9006 21.2891ZM26.126 19.444C26.5145 19.8325 26.5145 20.1885 26.126 20.5122L24.378 22.3573C24.1838 22.4868 23.9896 22.5515 23.7954 22.5515C23.6012 22.5515 23.4393 22.4868 23.3098 22.3573C22.9861 22.0336 22.9861 21.6776 23.3098 21.2891L24.5723 20.0267L23.3098 18.6672C22.9861 18.3435 22.9861 18.0036 23.3098 17.6475C23.6335 17.2914 23.9896 17.3076 24.378 17.6961L26.126 19.444ZM20.3965 18.0845C20.6555 17.6313 20.9954 17.518 21.4162 17.7446C21.837 17.9712 21.9179 18.3111 21.659 18.7643L19.911 22.1631C19.7815 22.4221 19.5549 22.5515 19.2312 22.5515C19.1017 22.5515 19.0046 22.5192 18.9399 22.4544C18.4867 22.2602 18.3572 21.9365 18.5515 21.4833L20.3965 18.0845ZM34.2832 21.0949C36.0312 21.0949 37.5364 21.7261 38.7989 22.9885C40.0613 24.251 40.6925 25.7724 40.6925 27.5527C40.6925 29.3331 40.0613 30.8544 38.7989 32.1169C37.5364 33.3793 36.015 34.0105 34.2347 34.0105C32.4543 34.0105 30.933 33.3793 29.6705 32.1169C28.4081 30.8544 27.7769 29.3169 27.7769 27.5042C27.7769 26.3388 28.0682 25.2544 28.6509 24.251C29.2335 23.2475 30.0104 22.4706 30.9815 21.9203C31.9526 21.37 33.0532 21.0949 34.2832 21.0949ZM30.6902 31.0972C30.6902 31.0972 30.933 31.34 31.4185 31.8255C31.9041 32.3111 32.8428 32.5539 34.2347 32.5539C35.6266 32.5539 36.8081 32.0683 37.7792 31.0972C38.7503 30.1261 39.2358 28.9446 39.2358 27.5527C39.2358 26.1608 38.7503 24.9793 37.7792 24.0082C36.8081 23.0371 35.6266 22.5515 34.2347 22.5515C32.8428 22.5515 31.6613 23.0371 30.6902 24.0082C29.7191 24.9793 29.2335 26.1608 29.2335 27.5527C29.2335 28.9446 29.7191 30.1261 30.6902 31.0972ZM39.4301 40.5169C39.4301 41.0348 39.1873 41.2937 38.7017 41.2937C38.2162 41.2937 37.9734 41.0348 37.9734 40.5169V35.9527C36.7434 36.4706 35.4971 36.7296 34.2347 36.7296C32.9723 36.7296 31.726 36.4706 30.496 35.9527V48.3828L33.7977 45.6637C34.1214 45.4047 34.4127 45.4047 34.6717 45.6637L37.9734 48.3828V43.5273C37.9734 43.0094 38.2162 42.7504 38.7017 42.7504C39.1873 42.7504 39.4301 43.0094 39.4301 43.5273V48.7712C39.4301 49.2891 39.1711 49.6614 38.6532 49.888C38.1353 50.1146 37.6821 50.066 37.2936 49.7423L34.2832 47.2174L31.2728 49.7423C31.0139 49.9365 30.7226 50.0336 30.3989 50.0336C30.2046 50.0336 30.0104 50.0013 29.8162 49.9365C29.2983 49.6776 29.0393 49.2891 29.0393 48.7712V38.2833C26.2555 39.7076 23.2775 40.4198 20.1052 40.4198C16.7387 40.4198 13.5665 39.6105 10.5884 37.992C10.2 37.7978 10.1191 37.4741 10.3457 37.0209C10.5723 36.5677 10.8798 36.4706 11.2682 36.7296C12.7572 37.5065 14.3434 38.0891 16.0266 38.4776C15.0555 37.4417 14.1491 36.0498 13.3075 34.3018C12.5954 32.6833 12.0451 30.8706 11.6567 28.8637C9.58498 28.4105 7.73989 27.8279 6.1214 27.1157C4.37342 26.3388 2.98151 25.4325 1.94567 24.3966C2.91677 28.7989 5.21504 32.392 8.84047 35.1758C9.22891 35.4348 9.26128 35.7585 8.93758 36.1469C8.8081 36.3411 8.61388 36.4383 8.35492 36.4383C8.22544 36.4383 8.09596 36.4059 7.96648 36.3411C5.50637 34.4637 3.59654 32.1331 2.237 29.3492C0.812725 26.5654 0.100586 23.555 0.100586 20.318C0.100586 14.8151 2.05897 10.1053 5.97573 6.18855C9.89249 2.27178 14.6023 0.3134 20.1052 0.3134C25.5434 0.3134 30.2046 2.22323 34.089 6.04288C34.4127 6.36658 34.4127 6.70646 34.089 7.06253C33.7653 7.4186 33.4093 7.40242 33.0208 7.01398C30.496 4.55386 27.5179 2.96774 24.0867 2.2556C25.1226 3.2267 26.0289 4.6186 26.8058 6.43132C27.5827 8.04982 28.1653 9.86253 28.5538 11.8695C30.6254 12.3226 32.4705 12.9053 34.089 13.6174C35.837 14.3943 37.2289 15.3007 38.2647 16.3365C37.6821 13.7469 36.5815 11.3516 34.963 9.15039C34.6393 8.76196 34.6717 8.42207 35.0601 8.13074C35.4486 7.83941 35.8046 7.88797 36.1283 8.27641C38.7827 11.8371 40.1098 15.851 40.1098 20.318C40.1098 20.3828 40.1098 20.4151 40.1098 20.4151C40.1098 20.4151 40.1098 20.4475 40.1098 20.5122C42.311 22.325 43.4116 24.6556 43.4116 27.5042C43.4116 30.8059 42.0844 33.3631 39.4301 35.1758V40.5169ZM38.5561 19.3469C38.1676 18.1169 37.1156 16.9839 35.4 15.9481C33.6844 14.9122 31.4994 14.0706 28.8451 13.4232C29.2335 15.4302 29.4278 17.5018 29.4278 19.6383C30.9168 18.7319 32.5353 18.2787 34.2832 18.2787C35.7723 18.2787 37.1965 18.6348 38.5561 19.3469ZM24.0867 4.44057C24.0867 4.44057 23.7792 3.99548 23.1642 3.10531C22.5491 2.21513 21.5295 1.77005 20.1052 1.77005C18.6809 1.77005 17.3376 2.66022 16.0752 4.44057C14.8127 6.22091 13.8578 8.60011 13.2104 11.5781C15.4116 11.1897 17.7098 10.9955 20.1052 10.9955C22.5006 10.9955 24.7989 11.1897 27 11.5781C26.2879 8.60011 25.3168 6.22091 24.0867 4.44057ZM4.22775 16.3365C4.22775 16.3365 3.78267 16.644 2.89249 17.2591C2.00232 17.8741 1.55723 18.9099 1.55723 20.3666C1.55723 21.8232 2.44741 23.1666 4.22775 24.3966C6.0081 25.6267 8.38729 26.5978 11.3653 27.3099C10.9769 25.044 10.7827 22.7134 10.7827 20.318C10.7827 17.9226 10.9769 15.6244 11.3653 13.4232C8.38729 14.1354 6.0081 15.1065 4.22775 16.3365ZM11.6567 11.8695C12.0451 9.86253 12.5954 8.04982 13.3075 6.43132C14.1491 4.68334 15.0555 3.29144 16.0266 2.2556C12.5306 3.03247 9.50405 4.69953 6.94683 7.25675C4.3896 9.81398 2.72255 12.8406 1.94567 16.3365C2.98151 15.3007 4.37342 14.3943 6.1214 13.6174C7.73989 12.9053 9.58498 12.3226 11.6567 11.8695ZM12.822 13.1319C12.4335 15.4625 12.2393 17.8741 12.2393 20.3666C12.2393 22.8591 12.4335 25.2706 12.822 27.6013C15.1526 28.0544 17.5804 28.281 20.1052 28.281C21.7884 28.281 23.4393 28.1839 25.0578 27.9897C25.0578 27.7955 25.0578 27.6336 25.0578 27.5042C25.0578 24.8498 26.0289 22.6163 27.9711 20.8036C27.9711 20.6094 27.9711 20.4475 27.9711 20.318C27.9711 17.8579 27.7445 15.4625 27.2913 13.1319C25.0254 12.6787 22.6301 12.4521 20.1052 12.4521C17.5804 12.4521 15.1526 12.6787 12.822 13.1319ZM20.1052 38.9631C21.2705 38.9631 22.3873 38.3481 23.4555 37.118C24.5237 35.888 25.4463 34.1724 26.2231 31.9712C25.7699 31.1943 25.4463 30.3203 25.252 29.3492C23.5688 29.6082 21.8532 29.7377 20.1052 29.7377C17.7098 29.7377 15.4116 29.5435 13.2104 29.155C13.6636 31.0972 14.2301 32.7966 14.9098 34.2533C15.5896 35.7099 16.3827 36.8591 17.289 37.7007C18.1954 38.5423 19.1341 38.9631 20.1052 38.9631ZM29.0393 36.6325V35.1758C28.3919 34.7226 27.7769 34.14 27.1942 33.4279C26.3526 35.629 25.3491 37.3122 24.1838 38.4776C25.8671 38.0891 27.4856 37.4741 29.0393 36.6325ZM34.2832 35.2729C36.4197 35.2729 38.2324 34.5122 39.7214 32.9909C41.2104 31.4695 41.9549 29.6406 41.9549 27.5042C41.9549 26.1446 41.615 24.866 40.9353 23.6683C40.2555 22.4706 39.3168 21.5157 38.1191 20.8036C36.9214 20.0914 35.6428 19.7354 34.2832 19.7354C32.1468 19.7354 30.3179 20.4961 28.7965 22.0174C27.2752 23.5388 26.5145 25.3677 26.5145 27.5042C26.5145 28.9284 26.8543 30.2394 27.5341 31.4371C28.2139 32.6348 29.1526 33.5735 30.3503 34.2533C31.548 34.9331 32.859 35.2729 34.2832 35.2729ZM35.3515 29.8348C35.8694 29.8348 36.1283 30.0776 36.1283 30.5631C36.1283 31.0487 35.8694 31.2914 35.3515 31.2914H33.1179C32.6 31.2914 32.341 31.0487 32.341 30.5631C32.341 30.0776 32.6 29.8348 33.1179 29.8348H33.5064V25.9504C33.1827 26.2741 32.8428 26.2741 32.4867 25.9504C32.1306 25.6267 32.1468 25.2706 32.5353 24.8822L33.7006 23.7169C33.9595 23.4579 34.2347 23.3932 34.526 23.5226C34.8173 23.6521 34.963 23.8787 34.963 24.2024V29.8348H35.3515Z" fill="#43BAFF"/>
</svg>
