<svg width="50" height="47" viewBox="0 0 50 47" fill="none" xmlns="http://www.w3.org/2000/svg">
<path d="M35.1773 10.4519C35.7599 10.4519 36.2778 10.6785 36.731 11.1316C37.1842 11.5848 37.4108 12.1351 37.4108 12.7825C37.4108 13.4299 37.1842 13.964 36.731 14.3848C36.2778 14.8056 35.7437 15.016 35.1287 15.016C34.5137 15.016 33.9796 14.8056 33.5264 14.3848C33.0732 13.964 32.8466 13.4299 32.8466 12.7825C32.8466 12.3941 32.9437 12.038 33.1379 11.7143L29.3507 7.92702C29.027 8.12124 28.6709 8.21835 28.2825 8.21835C27.9588 8.21835 27.6674 8.15361 27.4085 8.02413L26.4374 8.99523C26.8258 10.2253 27.02 11.4877 27.02 12.7825C27.02 16.2785 25.7738 19.2565 23.2813 21.7166C20.7888 24.1767 17.7946 25.4068 14.2986 25.4068C12.0327 25.4068 9.9287 24.8565 7.9865 23.7559C7.59806 23.497 7.51714 23.1571 7.74373 22.7363C7.97032 22.3155 8.3102 22.2345 8.76338 22.4935C10.4466 23.4646 12.2917 23.9501 14.2986 23.9501C17.4062 23.9501 20.0605 22.8496 22.2616 20.6484C24.4628 18.4473 25.5634 15.8253 25.5634 12.7825C25.5634 11.8762 25.4663 11.0022 25.2721 10.1605L20.0281 15.4045C20.1576 15.6634 20.2223 15.9548 20.2223 16.2785C20.2223 16.6669 20.109 17.0392 19.8825 17.3952C19.6559 17.7513 19.3807 18.0264 19.057 18.2207C18.7333 18.4149 18.3449 18.512 17.8917 18.512C17.2443 18.512 16.7102 18.2854 16.2894 17.8322C15.8686 17.379 15.6582 16.8611 15.6582 16.2785C15.6582 15.89 15.7229 15.5663 15.8524 15.3074C15.7877 15.2426 15.7553 15.2103 15.7553 15.2103L10.8998 10.3548C10.5761 10.4842 10.2524 10.549 9.9287 10.549C9.54026 10.549 9.18419 10.4842 8.86049 10.3548L4.49055 14.7247C4.62003 15.0484 4.68477 15.4045 4.68477 15.7929C4.68477 16.3756 4.49055 16.8935 4.10211 17.3467C4.68477 18.6415 5.49402 19.7744 6.52985 20.7455C6.85355 21.0692 6.85355 21.4253 6.52985 21.8137C6.40037 21.9432 6.22234 22.0079 5.99575 22.0079C5.76916 22.0079 5.59113 21.9432 5.46165 21.8137C4.36107 20.7132 3.48708 19.4507 2.83968 18.0264C2.7102 18.0264 2.58072 18.0264 2.45124 18.0264C1.80384 18.0264 1.25355 17.816 0.800374 17.3952C0.347195 16.9744 0.120605 16.4403 0.120605 15.7929C0.120605 14.6923 0.638524 13.9478 1.67436 13.5594C1.67436 13.3004 1.67436 13.0415 1.67436 12.7825C1.67436 9.28656 2.90442 6.30853 5.36454 3.84841C7.82465 1.38829 10.8027 0.158237 14.2986 0.158237C16.8235 0.158237 19.1218 0.838005 21.1934 2.19754C23.2651 3.55708 24.8189 5.33743 25.8547 7.53858L26.3403 7.05304C26.0813 6.72934 25.9518 6.3409 25.9518 5.88772C25.9518 5.24032 26.1784 4.69003 26.6316 4.23685C27.0848 3.78367 27.6351 3.55708 28.2825 3.55708C28.9299 3.55708 29.464 3.78367 29.8848 4.23685C30.3056 4.69003 30.516 5.24032 30.516 5.88772C30.516 6.21141 30.4512 6.53511 30.3218 6.85881L34.2062 10.6461C34.4651 10.5166 34.7888 10.4519 35.1773 10.4519ZM1.57725 15.7444C1.57725 15.7444 1.57725 15.8819 1.57725 16.1571C1.57725 16.4322 1.8524 16.5698 2.40269 16.5698C2.95298 16.5698 3.22812 16.2947 3.22812 15.7444C3.22812 15.1941 2.95298 14.9189 2.40269 14.9189C1.8524 14.9189 1.57725 15.1941 1.57725 15.7444ZM9.05471 8.26691C9.05471 8.26691 9.05471 8.40448 9.05471 8.67962C9.05471 8.95477 9.34604 9.09234 9.9287 9.09234C10.5114 9.09234 10.8027 8.8172 10.8027 8.26691C10.8027 7.71662 10.5114 7.44147 9.9287 7.44147C9.34604 7.44147 9.05471 7.71662 9.05471 8.26691ZM17.1148 16.2299C17.1148 16.2299 17.1148 16.3675 17.1148 16.6426C17.1148 16.9178 17.39 17.0553 17.9403 17.0553C18.4905 17.0553 18.7657 16.7802 18.7657 16.2299C18.7657 15.6796 18.4905 15.4045 17.9403 15.4045C17.39 15.4045 17.1148 15.6796 17.1148 16.2299ZM19.057 14.2392L24.7865 8.60679C24.2038 7.24725 23.3946 6.03338 22.3588 4.96517C21.3229 3.89697 20.109 3.07153 18.7171 2.48887C17.3252 1.90621 15.8524 1.61488 14.2986 1.61488C11.2559 1.61488 8.6339 2.69928 6.43274 4.86806C4.23159 7.03685 3.13101 9.675 3.13101 12.7825C3.13101 13.0415 3.13101 13.3328 3.13101 13.6565C3.26049 13.6565 3.3576 13.6889 3.42234 13.7536L7.88939 9.28656C7.69517 8.96286 7.59806 8.60679 7.59806 8.21835C7.59806 7.82991 7.71136 7.45766 7.93795 7.10159C8.16454 6.74552 8.45587 6.47038 8.81193 6.27616C9.168 6.08194 9.54026 5.98483 9.9287 5.98483C10.5761 5.98483 11.1264 6.21141 11.5796 6.6646C12.0327 7.11777 12.2593 7.63569 12.2593 8.21835C12.2593 8.60679 12.1622 8.99523 11.968 9.38367L16.8235 14.2392C17.1472 14.0449 17.5033 13.9478 17.8917 13.9478C18.3449 13.9478 18.7333 14.0449 19.057 14.2392ZM27.4085 5.88772C27.4085 5.88772 27.4085 6.03338 27.4085 6.32471C27.4085 6.61604 27.6836 6.7617 28.2339 6.7617C28.7842 6.7617 29.0593 6.47038 29.0593 5.88772C29.0593 5.30506 28.7842 5.01373 28.2339 5.01373C27.6836 5.01373 27.4085 5.30506 27.4085 5.88772ZM34.3033 12.734C34.3033 12.734 34.3033 12.8715 34.3033 13.1467C34.3033 13.4218 34.5784 13.5594 35.1287 13.5594C35.679 13.5594 35.9541 13.2842 35.9541 12.734C35.9541 12.1837 35.679 11.9085 35.1287 11.9085C34.5784 11.9085 34.3033 12.1837 34.3033 12.734ZM49.064 44.7316C49.5819 44.7316 49.8408 44.9744 49.8408 45.46C49.8408 45.9455 49.5819 46.1883 49.064 46.1883H1.57725C1.05933 46.1883 0.800374 45.9455 0.800374 45.46C0.800374 44.9744 1.05933 44.7316 1.57725 44.7316H7.11251V33.4669C7.11251 33.0137 7.3391 32.7871 7.79228 32.7871H12.0651C12.583 32.7871 12.842 33.0137 12.842 33.4669V44.7316H14.2986V40.653C14.2986 40.1999 14.5414 39.9733 15.027 39.9733C15.5125 39.9733 15.7553 40.1999 15.7553 40.653V44.7316H18.5715V34.2438H15.7553V37.7397C15.7553 38.1929 15.5125 38.4195 15.027 38.4195C14.5414 38.4195 14.2986 38.1929 14.2986 37.7397V33.4669C14.2986 33.0137 14.5576 32.7871 15.0755 32.7871H19.2512C19.7692 32.7871 20.0281 33.0137 20.0281 33.4669V44.7316H21.4848V29.971C21.4848 29.453 21.7437 29.1941 22.2616 29.1941H26.5345C26.9877 29.1941 27.2142 29.453 27.2142 29.971V44.7316H28.6709V24.6299C28.6709 24.1767 28.9299 23.9501 29.4478 23.9501H33.7206C34.1738 23.9501 34.4004 24.1767 34.4004 24.6299V44.7316H35.857V19.1918C35.857 18.6738 36.116 18.4149 36.6339 18.4149H40.9067C41.3599 18.4149 41.5865 18.6738 41.5865 19.1918V44.7316H43.0431V12.7825C43.0431 12.2646 43.3021 12.0056 43.82 12.0056H48.0929C48.546 12.0056 48.7726 12.2646 48.7726 12.7825V25.8923C48.7726 26.3455 48.5299 26.5721 48.0443 26.5721C47.5588 26.5721 47.316 26.3455 47.316 25.8923V13.4623H44.4998V44.7316H47.316V28.8056C47.316 28.3525 47.5588 28.1259 48.0443 28.1259C48.5299 28.1259 48.7726 28.3525 48.7726 28.8056V44.7316H49.064ZM11.3853 44.7316V34.2438H8.56916V44.7316H11.3853ZM25.7576 44.7316V30.6507H22.9414V44.7316H25.7576ZM32.9437 44.7316V25.4068H30.1275V44.7316H32.9437ZM40.1299 44.7316V19.8715H37.3137V44.7316H40.1299ZM47.316 2.00332C47.316 1.55014 47.5588 1.32355 48.0443 1.32355C48.5299 1.32355 48.7726 1.55014 48.7726 2.00332V2.19754C48.7726 2.65072 48.5299 2.87731 48.0443 2.87731C47.5588 2.87731 47.316 2.65072 47.316 2.19754V2.00332ZM44.8882 2.00332C44.8882 1.55014 45.131 1.32355 45.6166 1.32355C46.1021 1.32355 46.3449 1.55014 46.3449 2.00332V2.19754C46.3449 2.65072 46.1021 2.87731 45.6166 2.87731C45.131 2.87731 44.8882 2.65072 44.8882 2.19754V2.00332ZM48.0929 4.33396C48.546 4.33396 48.7726 4.57673 48.7726 5.06228C48.7726 5.54783 48.546 5.79061 48.0929 5.79061H45.568C45.1148 5.79061 44.8882 5.54783 44.8882 5.06228C44.8882 4.57673 45.1148 4.33396 45.568 4.33396H48.0929ZM48.0929 6.7617C48.546 6.7617 48.7726 7.00448 48.7726 7.49003C48.7726 7.97558 48.546 8.21835 48.0929 8.21835H41.4894C40.9715 8.21835 40.7125 7.97558 40.7125 7.49003C40.7125 7.00448 40.9715 6.7617 41.4894 6.7617H48.0929Z" fill="#43BAFF"/>
</svg>
