<svg width="31" height="51" viewBox="0 0 31 51" fill="none" xmlns="http://www.w3.org/2000/svg">
<path d="M26.6316 0.713394C27.5379 0.713394 28.331 1.03709 29.0108 1.68449C29.6905 2.33189 30.0304 3.14114 30.0304 4.11224V47.0348C30.0304 48.0059 29.6905 48.8151 29.0108 49.4625C28.331 50.1099 27.5379 50.4336 26.6316 50.4336H8.47205C7.95413 50.4336 7.69517 50.1908 7.69517 49.7053C7.69517 49.2198 7.95413 48.977 8.47205 48.977H26.6316C27.1495 48.977 27.6027 48.7828 27.9911 48.3943C28.3796 48.0059 28.5738 47.5527 28.5738 47.0348V44.0244H1.57725V47.0348C1.57725 47.5527 1.77147 48.0059 2.15991 48.3943C2.54835 48.7828 3.00153 48.977 3.51945 48.977H5.46165C5.97956 48.977 6.23852 49.2198 6.23852 49.7053C6.23852 50.1908 5.97956 50.4336 5.46165 50.4336H3.51945C2.61309 50.4336 1.82003 50.1099 1.14026 49.4625C0.46049 48.8151 0.120605 48.0059 0.120605 47.0348V35.6729C0.120605 35.155 0.36338 34.8961 0.848929 34.8961C1.33448 34.8961 1.57725 35.155 1.57725 35.6729V42.5677H3.81078V25.8648C3.81078 25.3469 4.05355 25.088 4.5391 25.088C5.02465 25.088 5.26743 25.3469 5.26743 25.8648V42.5677H13.0362V14.6972H5.36454C5.2998 14.6972 5.26743 14.6972 5.26743 14.6972V22.8544C5.26743 23.3724 5.02465 23.6313 4.5391 23.6313C4.05355 23.6313 3.81078 23.3724 3.81078 22.8544V14.6972C3.81078 14.3088 3.95644 13.9689 4.24777 13.6776C4.5391 13.3862 4.91136 13.2406 5.36454 13.2406H13.0362C13.4247 13.2406 13.7645 13.3862 14.0559 13.6776C14.3472 13.9689 14.4929 14.3088 14.4929 14.6972V42.5677H28.5738V8.57929H1.57725V32.6625C1.57725 33.1804 1.33448 33.4394 0.848929 33.4394C0.36338 33.4394 0.120605 33.1804 0.120605 32.6625V4.11224C0.120605 3.14114 0.46049 2.33189 1.14026 1.68449C1.82003 1.03709 2.61309 0.713394 3.51945 0.713394H26.6316ZM28.5738 7.12264V4.11224C28.5738 3.59432 28.3796 3.14114 27.9911 2.7527C27.6027 2.36426 27.1495 2.17004 26.6316 2.17004H3.51945C3.00153 2.17004 2.54835 2.36426 2.15991 2.7527C1.77147 3.14114 1.57725 3.59432 1.57725 4.11224V7.12264H28.5738ZM16.1437 3.91802C16.5969 3.91802 16.8235 4.16079 16.8235 4.64634C16.8235 5.13189 16.5969 5.37466 16.1437 5.37466H8.76338C8.24546 5.37466 7.9865 5.13189 7.9865 4.64634C7.9865 4.16079 8.24546 3.91802 8.76338 3.91802H16.1437ZM20.7079 4.59779C20.7079 4.07987 20.9507 3.82091 21.4362 3.82091C21.9218 3.82091 22.1645 4.07987 22.1645 4.59779V4.6949C22.1645 5.21281 21.9218 5.47178 21.4362 5.47178C20.9507 5.47178 20.7079 5.21281 20.7079 4.6949V4.59779ZM18.6686 4.59779C18.6686 4.07987 18.9114 3.82091 19.3969 3.82091C19.8825 3.82091 20.1252 4.07987 20.1252 4.59779V4.6949C20.1252 5.21281 19.8825 5.47178 19.3969 5.47178C18.9114 5.47178 18.6686 5.21281 18.6686 4.6949V4.59779ZM17.1148 45.7724C17.6327 45.7724 17.8917 46.0151 17.8917 46.5007C17.8917 46.9862 17.6327 47.229 17.1148 47.229H13.0362C12.5183 47.229 12.2593 46.9862 12.2593 46.5007C12.2593 46.0151 12.5183 45.7724 13.0362 45.7724H17.1148ZM25.0778 13.1435C25.4663 13.1435 25.8062 13.3053 26.0975 13.629C26.3888 13.9527 26.5345 14.3088 26.5345 14.6972V21.8833C26.5345 22.2718 26.3888 22.6117 26.0975 22.903C25.8062 23.1943 25.4663 23.34 25.0778 23.34H17.8917C17.5033 23.34 17.1472 23.1943 16.8235 22.903C16.4998 22.6117 16.3379 22.2718 16.3379 21.8833V14.6972C16.3379 14.3088 16.4998 13.9527 16.8235 13.629C17.1472 13.3053 17.5033 13.1435 17.8917 13.1435H25.0778ZM25.0778 21.8833V14.6972C25.0778 14.6325 25.0778 14.6001 25.0778 14.6001H17.8917C17.827 14.6001 17.7946 14.6325 17.7946 14.6972V21.8833C17.7946 21.8833 17.827 21.8833 17.8917 21.8833H25.0778ZM25.0778 24.8937C25.4663 24.8937 25.8062 25.0394 26.0975 25.3307C26.3888 25.6221 26.5345 25.9943 26.5345 26.4475V28.2926C26.5345 28.7458 26.3888 29.118 26.0975 29.4093C25.8062 29.7007 25.4663 29.8463 25.0778 29.8463H17.8917C17.6327 29.8463 17.39 29.7816 17.1634 29.6521C16.9368 29.5226 16.7426 29.3284 16.5807 29.0695C16.4189 28.8105 16.3379 28.5515 16.3379 28.2926V26.4475C16.3379 25.9943 16.4998 25.6221 16.8235 25.3307C17.1472 25.0394 17.5033 24.8937 17.8917 24.8937H25.0778ZM25.0778 28.2926V26.4475C25.0778 26.3828 25.0778 26.3504 25.0778 26.3504H17.8917C17.827 26.3504 17.7946 26.3828 17.7946 26.4475V28.2926C17.7946 28.3573 17.827 28.3897 17.8917 28.3897H25.0778C25.0778 28.3897 25.0778 28.3573 25.0778 28.2926ZM25.8547 31.4972C26.3079 31.4972 26.5345 31.74 26.5345 32.2255C26.5345 32.7111 26.3079 32.9539 25.8547 32.9539H17.1148C16.5969 32.9539 16.3379 32.7111 16.3379 32.2255C16.3379 31.74 16.5969 31.4972 17.1148 31.4972H25.8547ZM25.8547 34.1192C26.3079 34.1192 26.5345 34.3619 26.5345 34.8475C26.5345 35.333 26.3079 35.5758 25.8547 35.5758H17.1148C16.5969 35.5758 16.3379 35.333 16.3379 34.8475C16.3379 34.3619 16.5969 34.1192 17.1148 34.1192H25.8547ZM25.8547 36.7411C26.3079 36.7411 26.5345 36.9839 26.5345 37.4695C26.5345 37.955 26.3079 38.1978 25.8547 38.1978H17.1148C16.5969 38.1978 16.3379 37.955 16.3379 37.4695C16.3379 36.9839 16.5969 36.7411 17.1148 36.7411H25.8547ZM25.8547 39.4602C26.3079 39.4602 26.5345 39.703 26.5345 40.1885C26.5345 40.6741 26.3079 40.9169 25.8547 40.9169H17.1148C16.5969 40.9169 16.3379 40.6741 16.3379 40.1885C16.3379 39.703 16.5969 39.4602 17.1148 39.4602H25.8547ZM23.8154 19.7469C24.0096 20.2001 23.8801 20.54 23.427 20.7666C22.9738 20.9932 22.6501 20.8799 22.4559 20.4267L22.3588 20.1354H20.5137L20.3194 20.4267C20.19 20.6856 19.9634 20.8151 19.6397 20.8151C19.5749 20.8151 19.4778 20.7828 19.3484 20.718C18.8952 20.5238 18.7657 20.2001 18.9599 19.7469L20.7079 16.1539C20.8374 15.8949 21.064 15.7654 21.3877 15.7654C21.7114 15.7654 21.9379 15.8949 22.0674 16.1539L23.8154 19.7469ZM21.1934 18.6787H21.679L21.3877 18.1932L21.1934 18.6787Z" fill="#43BAFF"/>
</svg>
