<svg width="50" height="44" viewBox="0 0 50 44" fill="none" xmlns="http://www.w3.org/2000/svg">
<path d="M47.2289 0.21204C47.941 0.21204 48.556 0.471001 49.074 0.988918C49.5919 1.50684 49.8508 2.12187 49.8508 2.83401V41.4837C49.8508 41.9369 49.689 42.3253 49.3653 42.649C49.0416 42.9727 48.6532 43.1346 48.2 43.1346H1.78148C1.3283 43.1346 0.939864 42.9727 0.616164 42.649C0.292465 42.3253 0.130615 41.9369 0.130615 41.4837V2.83401C0.130615 2.12187 0.389575 1.50684 0.907494 0.988918C1.42541 0.471001 2.04044 0.21204 2.75258 0.21204H11.3954C11.9133 0.21204 12.1722 0.454815 12.1722 0.940365C12.1722 1.42591 11.9133 1.66869 11.3954 1.66869H2.75258C2.42888 1.66869 2.15374 1.78198 1.92715 2.00857C1.70056 2.23516 1.58726 2.51031 1.58726 2.83401V7.49528C14.9237 7.43054 28.2277 7.43054 41.4994 7.49528C42.0173 7.49528 42.2763 7.73805 42.2763 8.2236C42.2763 8.70915 42.0173 8.95192 41.4994 8.95192C28.2277 8.88718 14.9237 8.88718 1.58726 8.95192V41.4837C1.58726 41.6132 1.652 41.6779 1.78148 41.6779H48.2C48.3295 41.6779 48.3942 41.6132 48.3942 41.4837V8.95192C47.1641 8.88718 45.9665 8.88718 44.8011 8.95192C44.2832 8.95192 44.0243 8.70915 44.0243 8.2236C44.0243 7.73805 44.2508 7.49528 44.704 7.49528C45.9341 7.43054 47.1641 7.43054 48.3942 7.49528V2.83401C48.3942 2.51031 48.2809 2.23516 48.0543 2.00857C47.8277 1.78198 47.5526 1.66869 47.2289 1.66869H14.4058C13.8878 1.66869 13.6289 1.42591 13.6289 0.940365C13.6289 0.454815 13.8878 0.21204 14.4058 0.21204H47.2289ZM33.3422 3.99932C33.7954 3.99932 34.0219 4.2421 34.0219 4.72765C34.0219 5.2132 33.7954 5.45597 33.3422 5.45597H7.31674C6.86356 5.45597 6.63697 5.2132 6.63697 4.72765C6.63697 4.2421 6.86356 3.99932 7.31674 3.99932H33.3422ZM36.0612 4.48487C36.0612 4.03169 36.304 3.8051 36.7896 3.8051C37.2751 3.8051 37.5179 4.03169 37.5179 4.48487V4.67909C37.5179 5.13227 37.2751 5.35886 36.7896 5.35886C36.304 5.35886 36.0612 5.13227 36.0612 4.67909V4.48487ZM38.9745 4.48487C38.9745 4.03169 39.2173 3.8051 39.7029 3.8051C40.1884 3.8051 40.4312 4.03169 40.4312 4.48487V4.67909C40.4312 5.13227 40.1884 5.35886 39.7029 5.35886C39.2173 5.35886 38.9745 5.13227 38.9745 4.67909V4.48487ZM41.8878 4.48487C41.8878 4.03169 42.1306 3.8051 42.6162 3.8051C43.1017 3.8051 43.3445 4.03169 43.3445 4.48487V4.67909C43.3445 5.13227 43.1017 5.35886 42.6162 5.35886C42.1306 5.35886 41.8878 5.13227 41.8878 4.67909V4.48487ZM11.0069 32.1612C11.0069 31.708 11.2497 31.4814 11.7352 31.4814C12.2208 31.4814 12.4636 31.708 12.4636 32.1612V32.2583C12.4636 32.7762 12.2208 33.0352 11.7352 33.0352C11.2497 33.0352 11.0069 32.7762 11.0069 32.2583V32.1612ZM13.9202 32.1612C13.9202 31.708 14.163 31.4814 14.6485 31.4814C15.1341 31.4814 15.3769 31.708 15.3769 32.1612V32.2583C15.3769 32.7762 15.1341 33.0352 14.6485 33.0352C14.163 33.0352 13.9202 32.7762 13.9202 32.2583V32.1612ZM31.8855 16.7207C32.3387 16.7207 32.5653 16.9635 32.5653 17.449C32.5653 17.9346 32.3387 18.1774 31.8855 18.1774H18.9699C18.5167 18.1774 18.2902 17.9346 18.2902 17.449C18.2902 16.9635 18.5167 16.7207 18.9699 16.7207H31.8855ZM28.2925 19.9253C28.7456 19.9253 28.9722 20.1681 28.9722 20.6537C28.9722 21.1392 28.7456 21.382 28.2925 21.382H22.563C22.0451 21.382 21.7861 21.1392 21.7861 20.6537C21.7861 20.1681 22.0451 19.9253 22.563 19.9253H28.2925ZM38.1006 31.4814C38.6185 31.4814 38.8774 31.7242 38.8774 32.2097C38.8774 32.6953 38.6185 32.9381 38.1006 32.9381H36.0612C35.6081 32.9381 35.3815 32.6953 35.3815 32.2097C35.3815 31.7242 35.6081 31.4814 36.0612 31.4814H38.1006ZM38.8774 24.1982C39.6543 24.1982 40.3179 24.4733 40.8682 25.0236C41.4185 25.5739 41.6936 26.2375 41.6936 27.0144C41.6936 27.7912 41.4185 28.4386 40.8682 28.9565C40.3179 29.4745 39.6543 29.7334 38.8774 29.7334H22.9514C22.4335 29.7334 22.1745 29.4907 22.1745 29.0051C22.1745 28.5196 22.4335 28.2768 22.9514 28.2768H38.8774C39.2659 28.2768 39.5896 28.1473 39.8485 27.8883C40.1075 27.6294 40.237 27.3219 40.237 26.9658C40.237 26.6097 40.1075 26.3022 39.8485 26.0433C39.5896 25.7843 39.2659 25.6548 38.8774 25.6548H11.978C11.5896 25.6548 11.2659 25.7843 11.0069 26.0433C10.748 26.3022 10.6185 26.6097 10.6185 26.9658C10.6185 27.3219 10.748 27.6294 11.0069 27.8883C11.2659 28.1473 11.5896 28.2768 11.978 28.2768H19.941C20.4589 28.2768 20.7179 28.5196 20.7179 29.0051C20.7179 29.4907 20.4589 29.7334 19.941 29.7334H11.978C11.2011 29.7334 10.5376 29.4745 9.98726 28.9565C9.43697 28.4386 9.16183 27.7912 9.16183 27.0144C9.16183 26.2375 9.43697 25.5739 9.98726 25.0236C10.5376 24.4733 11.2011 24.1982 11.978 24.1982H38.8774Z" fill="#43BAFF"/>
</svg>
