<svg width="50" height="45" viewBox="0 0 50 45" fill="none" xmlns="http://www.w3.org/2000/svg">
<path d="M45.548 0.141151C46.7133 0.141151 47.7168 0.561958 48.5584 1.40358C49.4 2.2452 49.8208 3.24866 49.8208 4.41398V23.9331C49.8208 24.3862 49.578 24.6128 49.0925 24.6128C48.6069 24.6128 48.3642 24.3862 48.3642 23.9331V4.41398C48.3642 3.6371 48.089 2.97352 47.5387 2.42323C46.9884 1.87294 46.3249 1.5978 45.548 1.5978H40.4983C39.9804 1.5978 39.7214 1.35502 39.7214 0.869476C39.7214 0.383926 39.9804 0.141151 40.4983 0.141151H45.548ZM48.3642 26.8464C48.3642 26.3932 48.6069 26.1666 49.0925 26.1666C49.578 26.1666 49.8208 26.3932 49.8208 26.8464V35.0036C49.8208 35.651 49.5942 36.2013 49.141 36.6544C48.6879 37.1076 48.1376 37.3342 47.4902 37.3342H31.5642C32.2116 39.4706 33.3121 41.1539 34.8659 42.3839C35.4486 42.7724 35.6266 43.3065 35.4 43.9862C35.1734 44.666 34.7041 45.0059 33.9919 45.0059H15.9295C15.2173 45.0059 14.748 44.666 14.5214 43.9862C14.2948 43.3065 14.4728 42.7724 15.0555 42.3839C16.6093 41.1539 17.7098 39.4706 18.3572 37.3342H10.6856C10.1676 37.3342 9.90868 37.0914 9.90868 36.6059C9.90868 36.1203 10.1676 35.8776 10.6856 35.8776H47.4902C48.0728 35.8776 48.3642 35.5862 48.3642 35.0036V30.6336H1.55723V35.0036C1.55723 35.5862 1.84856 35.8776 2.43122 35.8776H7.67515C8.19307 35.8776 8.45203 36.1203 8.45203 36.6059C8.45203 37.0914 8.19307 37.3342 7.67515 37.3342H2.43122C1.78382 37.3342 1.23353 37.1076 0.780355 36.6544C0.327176 36.2013 0.100586 35.651 0.100586 35.0036V4.41398C0.100586 3.24866 0.521395 2.2452 1.36301 1.40358C2.20463 0.561958 3.2081 0.141151 4.37342 0.141151H37.4879C38.0058 0.141151 38.2647 0.383926 38.2647 0.869476C38.2647 1.35502 38.0058 1.5978 37.4879 1.5978H4.37342C3.59654 1.5978 2.93296 1.87294 2.38267 2.42323C1.83238 2.97352 1.55723 3.6371 1.55723 4.41398V29.177H21.4647V22.8648C21.4647 22.088 21.8532 21.6024 22.6301 21.4082V20.4371C22.6301 19.6602 22.3064 19.207 21.659 19.0776C21.2705 18.9481 21.0116 18.7053 20.8821 18.3492C20.7526 17.9932 20.8173 17.6533 21.0763 17.3296L24.1838 12.9596C22.3711 13.1539 20.8335 13.9146 19.5711 15.2417C18.3087 16.5689 17.6451 18.1712 17.5804 20.0487C18.5515 20.3724 19.037 21.0845 19.037 22.1851C19.037 22.7677 18.8104 23.2695 18.3572 23.6903C17.9041 24.1111 17.3861 24.3215 16.8035 24.3215C16.2208 24.3215 15.7029 24.1111 15.2497 23.6903C14.7965 23.2695 14.57 22.7677 14.57 22.1851C14.57 21.0845 15.0879 20.3724 16.1237 20.0487C16.1884 17.0059 17.5156 14.6429 20.1052 12.9596H14.3757C14.052 13.9307 13.3723 14.4163 12.3364 14.4163C11.689 14.4163 11.1549 14.1897 10.7341 13.7365C10.3133 13.2833 10.1029 12.7654 10.1029 12.1828C10.1029 11.6001 10.3133 11.0822 10.7341 10.629C11.1549 10.1758 11.689 9.94924 12.3364 9.94924C13.3723 9.94924 14.052 10.4672 14.3757 11.503H35.5457C35.8694 10.4672 36.5491 9.94924 37.585 9.94924C38.0382 9.94924 38.4266 10.0464 38.7503 10.2406C39.074 10.4348 39.333 10.7099 39.5272 11.066C39.7214 11.4221 39.8185 11.7943 39.8185 12.1828C39.8185 12.7654 39.6081 13.2833 39.1873 13.7365C38.7665 14.1897 38.2324 14.4163 37.585 14.4163C36.5491 14.4163 35.8694 13.9307 35.5457 12.9596H29.8162C32.4058 14.6429 33.733 17.0059 33.7977 20.0487C34.8335 20.3724 35.3515 21.0845 35.3515 22.1851C35.3515 22.444 35.2867 22.7192 35.1572 23.0105C35.0278 23.3018 34.8659 23.5446 34.6717 23.7388C34.4775 23.9331 34.2509 24.0787 33.9919 24.1758C33.733 24.2729 33.4416 24.3215 33.1179 24.3215C32.5353 24.3215 32.0173 24.1111 31.5642 23.6903C31.111 23.2695 30.8844 22.7677 30.8844 22.1851C30.8844 21.0845 31.3699 20.3724 32.341 20.0487C32.341 18.8186 32.0173 17.6695 31.3699 16.6013C30.7226 15.5331 29.8809 14.6753 28.8451 14.0279C27.8093 13.3805 26.6763 13.0244 25.4463 12.9596L28.6509 17.3296C28.9098 17.6533 28.9584 17.9932 28.7965 18.3492C28.6347 18.7053 28.3595 18.9481 27.9711 19.0776C27.3884 19.207 27.0647 19.6602 27 20.4371L27.0971 21.4082C27.2266 21.4082 27.3561 21.4406 27.4856 21.5053C27.615 21.5701 27.7445 21.651 27.874 21.7481C28.0035 21.8452 28.1006 21.9423 28.1653 22.0394C28.2301 22.1365 28.2948 22.2498 28.3595 22.3793C28.4243 22.5088 28.4567 22.6706 28.4567 22.8648V29.177H48.3642V26.8464ZM33.8948 22.1365C33.8948 22.1365 33.8948 22.0151 33.8948 21.7724C33.8948 21.5296 33.6358 21.4082 33.1179 21.4082C32.6 21.4082 32.341 21.651 32.341 22.1365C32.341 22.6221 32.6 22.8648 33.1179 22.8648C33.6358 22.8648 33.8948 22.6221 33.8948 22.1365ZM38.3619 12.1828C38.3619 12.1828 38.3619 12.0533 38.3619 11.7943C38.3619 11.5354 38.1029 11.4059 37.585 11.4059C37.0671 11.4059 36.8081 11.6648 36.8081 12.1828C36.8081 12.7007 37.0671 12.9596 37.585 12.9596C38.1029 12.9596 38.3619 12.7007 38.3619 12.1828ZM11.5595 12.1828C11.5595 12.1828 11.5595 12.3122 11.5595 12.5712C11.5595 12.8302 11.8185 12.9596 12.3364 12.9596C12.8543 12.9596 13.1133 12.7007 13.1133 12.1828C13.1133 11.6648 12.8543 11.4059 12.3364 11.4059C11.8185 11.4059 11.5595 11.6648 11.5595 12.1828ZM16.8035 22.8648C16.8035 22.8648 16.933 22.8648 17.1919 22.8648C17.4509 22.8648 17.5804 22.6221 17.5804 22.1365C17.5804 21.651 17.3214 21.4082 16.8035 21.4082C16.2856 21.4082 16.0266 21.651 16.0266 22.1365C16.0266 22.6221 16.2856 22.8648 16.8035 22.8648ZM22.4358 17.8151C23.5364 18.2683 24.0867 19.1423 24.0867 20.4371V21.4082H25.6405L25.5434 20.4371C25.5434 19.1423 26.0936 18.2683 27.1942 17.8151L24.8636 14.5134L22.4358 17.8151ZM27 29.177V22.8648H22.9214V29.177H27ZM33.9919 43.5492C32.0497 42.0602 30.7226 39.9885 30.0104 37.3342H19.911C19.1989 39.9885 17.8717 42.0602 15.9295 43.5492H33.9919ZM20.4936 6.35618C20.4936 5.83826 20.7364 5.5793 21.222 5.5793C21.7075 5.5793 21.9503 5.83826 21.9503 6.35618V6.5504C21.9503 7.00358 21.7075 7.23017 21.222 7.23017C20.7364 7.23017 20.4936 7.00358 20.4936 6.5504V6.35618ZM24.1838 6.35618C24.1838 5.83826 24.4266 5.5793 24.9121 5.5793C25.3977 5.5793 25.6405 5.83826 25.6405 6.35618V6.5504C25.6405 7.00358 25.3977 7.23017 24.9121 7.23017C24.4266 7.23017 24.1838 7.00358 24.1838 6.5504V6.35618ZM27.9711 6.35618C27.9711 5.83826 28.2139 5.5793 28.6994 5.5793C29.185 5.5793 29.4278 5.83826 29.4278 6.35618V6.5504C29.4278 7.00358 29.185 7.23017 28.6994 7.23017C28.2139 7.23017 27.9711 7.00358 27.9711 6.5504V6.35618ZM23.6497 31.9446C23.6497 31.9446 23.7387 31.8556 23.9168 31.6776C24.0948 31.4995 24.4428 31.4105 24.9607 31.4105C25.4786 31.4105 25.9156 31.5885 26.2717 31.9446C26.6278 32.3007 26.8058 32.7377 26.8058 33.2556C26.8058 33.7735 26.6278 34.1943 26.2717 34.518C25.9156 34.8417 25.4786 35.0036 24.9607 35.0036C24.4428 35.0036 24.0058 34.8417 23.6497 34.518C23.2936 34.1943 23.1156 33.7735 23.1156 33.2556C23.1156 32.7377 23.2936 32.3007 23.6497 31.9446ZM24.5723 33.207C24.5723 33.207 24.5723 33.2637 24.5723 33.377C24.5723 33.4903 24.7017 33.5469 24.9607 33.5469C25.2197 33.5469 25.3491 33.4336 25.3491 33.207C25.3491 32.9805 25.2197 32.8672 24.9607 32.8672C24.7017 32.8672 24.5723 32.9805 24.5723 33.207Z" fill="#43BAFF"/>
</svg>
