<svg width="41" height="50" viewBox="0 0 41 50" fill="none" xmlns="http://www.w3.org/2000/svg">
<path d="M23.7283 37.4065C24.1815 37.4065 24.4081 37.6492 24.4081 38.1348C24.4081 38.6203 24.1815 38.8631 23.7283 38.8631H20.9121V43.8157H21.689C22.1422 43.8157 22.5144 43.9776 22.8058 44.3013C23.0971 44.625 23.2428 45.0134 23.2428 45.4666V48.2828C23.2428 48.7359 23.0971 49.1244 22.8058 49.4481C22.5144 49.7718 22.1422 49.9336 21.689 49.9336H18.7757C18.5167 49.9336 18.2578 49.8689 17.9988 49.7394C17.7399 49.6099 17.5456 49.4157 17.4162 49.1567C17.2867 48.8978 17.2219 48.6065 17.2219 48.2828V45.4666C17.2219 45.0134 17.3676 44.625 17.6589 44.3013C17.9503 43.9776 18.3225 43.8157 18.7757 43.8157H19.4555V38.8631H11.3954V43.4273C11.3954 43.8804 11.2497 44.2527 10.9584 44.544C10.667 44.8354 10.2948 44.981 9.8416 44.981H6.24853V45.7579C6.24853 46.1463 6.08668 46.5024 5.76299 46.8261C5.43929 47.1498 5.05085 47.3117 4.59767 47.3117H1.68437C1.23119 47.3117 0.858939 47.1498 0.567609 46.8261C0.27628 46.5024 0.130615 46.1463 0.130615 45.7579V42.8446C0.130615 42.3914 0.27628 42.003 0.567609 41.6793C0.858939 41.3556 1.23119 41.1937 1.68437 41.1937H4.59767C5.05085 41.1937 5.43929 41.3556 5.76299 41.6793C6.08668 42.003 6.24853 42.3914 6.24853 42.8446V43.5244H9.8416C9.90634 43.5244 9.93871 43.492 9.93871 43.4273V38.8631H5.56877C5.24507 38.8631 4.95374 38.7336 4.69478 38.4747C4.43582 38.2157 4.30634 37.9244 4.30634 37.6007V34.0076C4.30634 33.4897 4.54911 33.2307 5.03466 33.2307C5.52021 33.2307 5.76299 33.4897 5.76299 34.0076V37.4065H23.7283ZM4.79189 45.7579V42.8446C4.79189 42.7151 4.72715 42.6504 4.59767 42.6504H1.68437C1.61963 42.6504 1.58726 42.7151 1.58726 42.8446V45.7579C1.58726 45.8226 1.61963 45.855 1.68437 45.855H4.59767C4.72715 45.855 4.79189 45.8226 4.79189 45.7579ZM21.689 45.2724H18.7757C18.711 45.2724 18.6786 45.3371 18.6786 45.4666V48.2828C18.6786 48.4122 18.711 48.477 18.7757 48.477H21.689C21.7537 48.477 21.7861 48.4122 21.7861 48.2828V45.4666C21.7861 45.3371 21.7537 45.2724 21.689 45.2724ZM23.8254 13.7117C24.2786 13.7117 24.5052 13.9544 24.5052 14.44C24.5052 14.9255 24.2786 15.1683 23.8254 15.1683H9.16183C8.64391 15.1683 8.38495 14.9255 8.38495 14.44C8.38495 13.9544 8.64391 13.7117 9.16183 13.7117H23.8254ZM26.156 14.2943C26.156 13.7764 26.3988 13.5174 26.8844 13.5174C27.3699 13.5174 27.6127 13.7764 27.6127 14.2943V14.3914C27.6127 14.8446 27.3699 15.0712 26.8844 15.0712C26.3988 15.0712 26.156 14.8446 26.156 14.3914V14.2943ZM28.3896 14.2943C28.3896 13.7764 28.6323 13.5174 29.1179 13.5174C29.6034 13.5174 29.8462 13.7764 29.8462 14.2943V14.3914C29.8462 14.8446 29.6034 15.0712 29.1179 15.0712C28.6323 15.0712 28.3896 14.8446 28.3896 14.3914V14.2943ZM30.6231 14.2943C30.6231 13.7764 30.8659 13.5174 31.3514 13.5174C31.837 13.5174 32.0797 13.7764 32.0797 14.2943V14.3914C32.0797 14.8446 31.837 15.0712 31.3514 15.0712C30.8659 15.0712 30.6231 14.8446 30.6231 14.3914V14.2943ZM38.7803 2.83536C39.2335 2.83536 39.6058 2.99721 39.8971 3.32091C40.1884 3.64461 40.3341 4.00068 40.3341 4.38912V7.30241C40.3341 7.62611 40.2693 7.90126 40.1399 8.12785C40.0104 8.35443 39.8162 8.54865 39.5572 8.7105C39.2982 8.87235 39.0393 8.95328 38.7803 8.95328H35.867C35.4139 8.95328 35.0254 8.79143 34.7017 8.46773C34.378 8.14403 34.2162 7.75559 34.2162 7.30241V6.62264H30.6231C30.5584 6.62264 30.526 6.65501 30.526 6.71975V11.2839H34.2162C34.5399 11.2839 34.8474 11.381 35.1387 11.5752C35.43 11.7695 35.6728 12.0122 35.867 12.3036C36.0612 12.5949 36.1584 12.9024 36.1584 13.2261V20.218C36.1584 20.7359 35.9156 20.9949 35.43 20.9949C34.9445 20.9949 34.7017 20.7359 34.7017 20.218V17.3047H5.76299V30.9972C5.76299 31.5151 5.52021 31.7741 5.03466 31.7741C4.54911 31.7741 4.30634 31.5151 4.30634 30.9972V13.2261C4.30634 12.9024 4.40345 12.5949 4.59767 12.3036C4.79189 12.0122 5.03466 11.7695 5.32599 11.5752C5.61732 11.381 5.92483 11.2839 6.24853 11.2839H9.93871V6.71975C9.93871 6.65501 9.90634 6.62264 9.8416 6.62264H6.24853V7.30241C6.24853 7.62611 6.16761 7.90126 6.00576 8.12785C5.84391 8.35443 5.63351 8.54865 5.37455 8.7105C5.11559 8.87235 4.85663 8.95328 4.59767 8.95328H1.68437C1.23119 8.95328 0.858939 8.79143 0.567609 8.46773C0.27628 8.14403 0.130615 7.75559 0.130615 7.30241V4.38912C0.130615 4.13016 0.195355 3.8712 0.324835 3.61224C0.454315 3.35328 0.648534 3.15906 0.907494 3.02958C1.16645 2.9001 1.42541 2.83536 1.68437 2.83536H4.59767C5.05085 2.83536 5.43929 2.99721 5.76299 3.32091C6.08668 3.64461 6.24853 4.00068 6.24853 4.38912V5.166H9.8416C10.1006 5.166 10.3595 5.23074 10.6185 5.36021C10.8774 5.4897 11.0717 5.68391 11.2011 5.94287C11.3306 6.20183 11.3954 6.46079 11.3954 6.71975V11.2839H19.4555V6.33131H18.7757C18.5167 6.33131 18.2578 6.26657 17.9988 6.13709C17.7399 6.00761 17.5456 5.81339 17.4162 5.55444C17.2867 5.29548 17.2219 5.00415 17.2219 4.68045V1.86426C17.2219 1.41108 17.3676 1.02264 17.6589 0.698944C17.9503 0.375244 18.3225 0.213394 18.7757 0.213394H21.689C22.1422 0.213394 22.5144 0.375244 22.8058 0.698944C23.0971 1.02264 23.2428 1.41108 23.2428 1.86426V4.68045C23.2428 5.13363 23.0971 5.52206 22.8058 5.84576C22.5144 6.16946 22.1422 6.33131 21.689 6.33131H20.9121V11.2839H29.0693V6.71975C29.0693 6.26657 29.215 5.89432 29.5063 5.60299C29.7977 5.31166 30.1699 5.166 30.6231 5.166H34.2162V4.38912C34.2162 4.00068 34.378 3.64461 34.7017 3.32091C35.0254 2.99721 35.4139 2.83536 35.867 2.83536H38.7803ZM4.79189 7.30241V4.38912C4.79189 4.32438 4.72715 4.29201 4.59767 4.29201H1.68437C1.61963 4.29201 1.58726 4.32438 1.58726 4.38912V7.30241C1.58726 7.43189 1.61963 7.49663 1.68437 7.49663H4.59767C4.72715 7.49663 4.79189 7.43189 4.79189 7.30241ZM18.7757 4.87466H21.689C21.7537 4.87466 21.7861 4.80993 21.7861 4.68045V1.86426C21.7861 1.73478 21.7537 1.67004 21.689 1.67004H18.7757C18.711 1.67004 18.6786 1.73478 18.6786 1.86426V4.68045C18.6786 4.80993 18.711 4.87466 18.7757 4.87466ZM34.2162 12.7406H6.24853C5.92483 12.7406 5.76299 12.9024 5.76299 13.2261V15.8481H34.7017V13.2261C34.7017 12.9024 34.5399 12.7406 34.2162 12.7406ZM38.8774 7.30241V4.38912C38.8774 4.32438 38.8451 4.29201 38.7803 4.29201H35.867C35.7376 4.29201 35.6728 4.32438 35.6728 4.38912V7.30241C35.6728 7.43189 35.7376 7.49663 35.867 7.49663H38.7803C38.8451 7.49663 38.8774 7.43189 38.8774 7.30241ZM38.7803 41.1937C39.0393 41.1937 39.2982 41.2747 39.5572 41.4365C39.8162 41.5984 40.0104 41.7926 40.1399 42.0192C40.2693 42.2458 40.3341 42.5209 40.3341 42.8446V45.7579C40.3341 46.0169 40.2693 46.2758 40.1399 46.5348C40.0104 46.7937 39.8162 46.988 39.5572 47.1174C39.2982 47.2469 39.0393 47.3117 38.7803 47.3117H35.867C35.6728 47.3117 35.4786 47.2793 35.2844 47.2145C35.0902 47.1498 34.9121 47.0365 34.7503 46.8747C34.5884 46.7128 34.4589 46.5348 34.3618 46.3406C34.2647 46.1463 34.2162 45.9521 34.2162 45.7579V44.981H30.6231C30.1699 44.981 29.7977 44.8354 29.5063 44.544C29.215 44.2527 29.0693 43.8804 29.0693 43.4273V38.8631H26.6416C26.1884 38.8631 25.9618 38.6203 25.9618 38.1348C25.9618 37.6492 26.1884 37.4065 26.6416 37.4065H34.7017V23.2284C34.7017 22.7105 34.9445 22.4515 35.43 22.4515C35.9156 22.4515 36.1584 22.7105 36.1584 23.2284V37.6007C36.1584 37.9244 36.0289 38.2157 35.7699 38.4747C35.511 38.7336 35.2196 38.8631 34.8959 38.8631H30.526V43.4273C30.526 43.492 30.5584 43.5244 30.6231 43.5244H34.2162V42.8446C34.2162 42.3914 34.378 42.003 34.7017 41.6793C35.0254 41.3556 35.4139 41.1937 35.867 41.1937H38.7803ZM38.8774 45.7579V42.8446C38.8774 42.7151 38.8451 42.6504 38.7803 42.6504H35.867C35.7376 42.6504 35.6728 42.7151 35.6728 42.8446V45.7579C35.6728 45.8226 35.7376 45.855 35.867 45.855H38.7803C38.8451 45.855 38.8774 45.8226 38.8774 45.7579ZM11.0069 27.1128L13.726 29.8319C14.1144 30.1556 14.1144 30.5117 13.726 30.9001C13.5965 31.0296 13.4347 31.0943 13.2404 31.0943C13.0462 31.0943 12.8844 31.0296 12.7549 30.9001L9.45316 27.5984C9.12946 27.2747 9.12946 26.951 9.45316 26.6273L12.7549 23.3255C13.0786 23.0018 13.4185 23.018 13.7745 23.3741C14.1306 23.7302 14.1144 24.07 13.726 24.3937L11.0069 27.1128ZM31.0115 26.6273C31.3352 26.951 31.3352 27.2747 31.0115 27.5984L27.7098 30.9001C27.5803 31.0296 27.4185 31.0943 27.2243 31.0943C27.03 31.0943 26.8682 31.0296 26.7387 30.9001C26.3503 30.5117 26.3503 30.1556 26.7387 29.8319L29.4578 27.1128L26.7387 24.3937C26.3503 24.07 26.3341 23.7302 26.6902 23.3741C27.0462 23.018 27.3861 23.0018 27.7098 23.3255L31.0115 26.6273ZM18.5815 24.0053C18.7757 23.5521 19.0994 23.4388 19.5526 23.6654C20.0058 23.892 20.1029 24.2319 19.8439 24.6851L16.6393 30.7059C16.5098 30.9648 16.2832 31.0943 15.9595 31.0943C15.83 31.0943 15.7329 31.0619 15.6682 30.9972C15.215 30.7382 15.1179 30.4145 15.3769 30.0261L18.5815 24.0053ZM19.2613 30.2203C19.2613 29.7024 19.504 29.4435 19.9896 29.4435C20.4751 29.4435 20.7179 29.7024 20.7179 30.2203V30.3174C20.7179 30.7706 20.4751 30.9972 19.9896 30.9972C19.504 30.9972 19.2613 30.7706 19.2613 30.3174V30.2203ZM21.689 30.2203C21.689 29.7024 21.9318 29.4435 22.4173 29.4435C22.9029 29.4435 23.1456 29.7024 23.1456 30.2203V30.3174C23.1456 30.7706 22.9029 30.9972 22.4173 30.9972C21.9318 30.9972 21.689 30.7706 21.689 30.3174V30.2203ZM24.0196 30.2203C24.0196 29.7024 24.2624 29.4435 24.748 29.4435C25.2335 29.4435 25.4763 29.7024 25.4763 30.2203V30.3174C25.4763 30.7706 25.2335 30.9972 24.748 30.9972C24.2624 30.9972 24.0196 30.7706 24.0196 30.3174V30.2203Z" fill="#43BAFF"/>
</svg>
