<svg width="106" height="106" viewBox="0 0 106 106" fill="none" xmlns="http://www.w3.org/2000/svg">
<circle cx="53" cy="53.0049" r="52.5" fill="#43BAFF"/>
<path d="M27.2252 62.5049L33.5252 43.8799H38.6752L44.9752 62.5049H40.7502L39.5002 58.7049H32.6752L31.4252 62.5049H27.2252ZM33.7502 55.3299H38.4252L35.5752 46.5299H36.6252L33.7502 55.3299ZM53.8225 62.8049C52.3558 62.8049 51.0475 62.4965 49.8975 61.8799C48.7475 61.2632 47.8391 60.4215 47.1725 59.3549C46.5225 58.2715 46.1975 57.0465 46.1975 55.6799V43.8799H50.0725V55.4299C50.0725 56.1632 50.2308 56.8299 50.5475 57.4299C50.8808 58.0132 51.3308 58.4715 51.8975 58.8049C52.4641 59.1382 53.1058 59.3049 53.8225 59.3049C54.5558 59.3049 55.1975 59.1382 55.7475 58.8049C56.3141 58.4715 56.7558 58.0132 57.0725 57.4299C57.4058 56.8299 57.5725 56.1632 57.5725 55.4299V43.8799H61.4475V55.6799C61.4475 57.0465 61.1141 58.2715 60.4475 59.3549C59.7975 60.4215 58.8975 61.2632 57.7475 61.8799C56.5975 62.4965 55.2891 62.8049 53.8225 62.8049ZM71.2883 62.8049C70.1216 62.8049 69.0216 62.5965 67.9883 62.1799C66.9716 61.7465 66.0883 61.1382 65.3383 60.3549C64.6049 59.5715 64.0549 58.6465 63.6883 57.5799L66.8633 56.1549C67.3299 57.1715 67.9716 57.9715 68.7883 58.5549C69.6216 59.1382 70.5383 59.4299 71.5383 59.4299C72.0716 59.4299 72.5299 59.3465 72.9133 59.1799C73.2966 59.0132 73.5966 58.7882 73.8133 58.5049C74.0299 58.2049 74.1383 57.8549 74.1383 57.4549C74.1383 57.0215 74.0049 56.6549 73.7383 56.3549C73.4716 56.0382 73.0549 55.7882 72.4883 55.6049L68.8383 54.4049C67.3549 53.9215 66.2383 53.2382 65.4883 52.3549C64.7383 51.4549 64.3633 50.3799 64.3633 49.1299C64.3633 48.0299 64.6299 47.0632 65.1633 46.2299C65.7133 45.3965 66.4716 44.7465 67.4383 44.2799C68.4216 43.8132 69.5466 43.5799 70.8133 43.5799C71.9299 43.5799 72.9633 43.7715 73.9133 44.1549C74.8633 44.5382 75.6799 45.0799 76.3633 45.7799C77.0633 46.4799 77.5883 47.3215 77.9383 48.3049L74.7883 49.7299C74.4383 48.8632 73.9133 48.1882 73.2133 47.7049C72.5133 47.2049 71.7133 46.9549 70.8133 46.9549C70.2966 46.9549 69.8383 47.0382 69.4383 47.2049C69.0383 47.3715 68.7299 47.6132 68.5133 47.9299C68.2966 48.2299 68.1883 48.5799 68.1883 48.9799C68.1883 49.4132 68.3299 49.7965 68.6133 50.1299C68.8966 50.4465 69.3216 50.6965 69.8883 50.8799L73.4633 52.0299C74.9633 52.5132 76.0799 53.1882 76.8133 54.0549C77.5633 54.9215 77.9383 55.9799 77.9383 57.2299C77.9383 58.3132 77.6549 59.2799 77.0883 60.1299C76.5216 60.9632 75.7383 61.6215 74.7383 62.1049C73.7549 62.5715 72.6049 62.8049 71.2883 62.8049Z" fill="white"/>
</svg>
