<svg width="106" height="106" viewBox="0 0 106 106" fill="none" xmlns="http://www.w3.org/2000/svg">
<circle cx="52.6904" cy="53.0049" r="52.5" fill="#43BAFF"/>
<path d="M35.6904 62.8049C34.3571 62.8049 33.1154 62.5632 31.9654 62.0799C30.8321 61.5965 29.8404 60.9215 28.9904 60.0549C28.1404 59.1882 27.4738 58.1715 26.9904 57.0049C26.5238 55.8382 26.2904 54.5632 26.2904 53.1799C26.2904 51.7965 26.5238 50.5215 26.9904 49.3549C27.4571 48.1715 28.1154 47.1549 28.9654 46.3049C29.8154 45.4382 30.8071 44.7715 31.9404 44.3049C33.0904 43.8215 34.3404 43.5799 35.6904 43.5799C37.0404 43.5799 38.2488 43.8049 39.3154 44.2549C40.3988 44.7049 41.3154 45.3049 42.0654 46.0549C42.8154 46.8049 43.3488 47.6382 43.6654 48.5549L40.2404 50.2049C39.9238 49.3049 39.3654 48.5632 38.5654 47.9799C37.7821 47.3799 36.8238 47.0799 35.6904 47.0799C34.5904 47.0799 33.6238 47.3382 32.7904 47.8549C31.9571 48.3715 31.3071 49.0882 30.8404 50.0049C30.3904 50.9049 30.1654 51.9632 30.1654 53.1799C30.1654 54.3965 30.3904 55.4632 30.8404 56.3799C31.3071 57.2965 31.9571 58.0132 32.7904 58.5299C33.6238 59.0465 34.5904 59.3049 35.6904 59.3049C36.8238 59.3049 37.7821 59.0132 38.5654 58.4299C39.3654 57.8299 39.9238 57.0799 40.2404 56.1799L43.6654 57.8299C43.3488 58.7465 42.8154 59.5799 42.0654 60.3299C41.3154 61.0799 40.3988 61.6799 39.3154 62.1299C38.2488 62.5799 37.0404 62.8049 35.6904 62.8049ZM44.777 62.5049L51.077 43.8799H56.227L62.527 62.5049H58.302L57.052 58.7049H50.227L48.977 62.5049H44.777ZM51.302 55.3299H55.977L53.127 46.5299H54.177L51.302 55.3299ZM64.4625 62.5049V43.8799H67.4375L77.4375 57.0549L75.8375 57.4299V43.8799H79.7125V62.5049H76.7125L66.8875 49.2299L68.3375 48.8549V62.5049H64.4625Z" fill="white"/>
</svg>
