<svg width="106" height="106" viewBox="0 0 106 106" fill="none" xmlns="http://www.w3.org/2000/svg">
<circle cx="53.0001" cy="53.0052" r="52.5" fill="#43BAFF"/>
<path d="M32.5432 62.5052V43.8802H36.4182V62.5052H32.5432ZM39.7209 62.5052V43.8802H42.6959L52.6959 57.0552L51.0959 57.4302V43.8802H54.9709V62.5052H51.9709L42.1459 49.2302L43.5959 48.8552V62.5052H39.7209ZM58.2756 62.5052V43.8802H64.3506C66.3673 43.8802 68.1173 44.2802 69.6006 45.0802C71.0839 45.8802 72.2339 46.9802 73.0506 48.3802C73.8673 49.7802 74.2756 51.3802 74.2756 53.1802C74.2756 54.9802 73.8673 56.5885 73.0506 58.0052C72.2339 59.4052 71.0839 60.5052 69.6006 61.3052C68.1173 62.1052 66.3673 62.5052 64.3506 62.5052H58.2756ZM62.1506 59.1302H64.4506C65.6673 59.1302 66.7173 58.8885 67.6006 58.4052C68.4839 57.9052 69.1673 57.2135 69.6506 56.3302C70.1506 55.4302 70.4006 54.3802 70.4006 53.1802C70.4006 51.9635 70.1506 50.9135 69.6506 50.0302C69.1673 49.1468 68.4839 48.4635 67.6006 47.9802C66.7173 47.4968 65.6673 47.2552 64.4506 47.2552H62.1506V59.1302Z" fill="white"/>
</svg>
