<svg width="106" height="106" viewBox="0 0 106 106" fill="none" xmlns="http://www.w3.org/2000/svg">
<circle cx="53.3091" cy="53.0049" r="52.5" fill="#43BAFF"/>
<path d="M44.2321 62.8049C42.7655 62.8049 41.4571 62.4965 40.3071 61.8799C39.1571 61.2632 38.2488 60.4215 37.5821 59.3549C36.9321 58.2715 36.6071 57.0465 36.6071 55.6799V43.8799H40.4821V55.4299C40.4821 56.1632 40.6405 56.8299 40.9571 57.4299C41.2905 58.0132 41.7405 58.4715 42.3071 58.8049C42.8738 59.1382 43.5155 59.3049 44.2321 59.3049C44.9655 59.3049 45.6071 59.1382 46.1571 58.8049C46.7238 58.4715 47.1655 58.0132 47.4821 57.4299C47.8155 56.8299 47.9821 56.1632 47.9821 55.4299V43.8799H51.8571V55.6799C51.8571 57.0465 51.5238 58.2715 50.8571 59.3549C50.2071 60.4215 49.3071 61.2632 48.1571 61.8799C47.0071 62.4965 45.6988 62.8049 44.2321 62.8049ZM54.9229 62.5049V43.8799H58.7979V53.2049L57.7229 52.8299L65.1729 43.8799H70.0229L62.6479 52.7799L62.8729 50.0299L70.173 62.5049H65.648L61.0979 54.6299L58.7979 57.4049V62.5049H54.9229Z" fill="white"/>
</svg>
