<svg width="106" height="106" viewBox="0 0 106 106" fill="none" xmlns="http://www.w3.org/2000/svg">
<circle cx="52.6904" cy="53.0049" r="52.5" fill="#43BAFF"/>
<path d="M34.2404 62.8049C32.7738 62.8049 31.4654 62.4965 30.3154 61.8799C29.1654 61.2632 28.2571 60.4215 27.5904 59.3549C26.9404 58.2715 26.6154 57.0465 26.6154 55.6799V43.8799H30.4904V55.4299C30.4904 56.1632 30.6488 56.8299 30.9654 57.4299C31.2988 58.0132 31.7488 58.4715 32.3154 58.8049C32.8821 59.1382 33.5238 59.3049 34.2404 59.3049C34.9738 59.3049 35.6154 59.1382 36.1654 58.8049C36.7321 58.4715 37.1738 58.0132 37.4904 57.4299C37.8238 56.8299 37.9904 56.1632 37.9904 55.4299V43.8799H41.8654V55.6799C41.8654 57.0465 41.5321 58.2715 40.8654 59.3549C40.2154 60.4215 39.3154 61.2632 38.1654 61.8799C37.0154 62.4965 35.7071 62.8049 34.2404 62.8049ZM51.7063 62.8049C50.5396 62.8049 49.4396 62.5965 48.4063 62.1799C47.3896 61.7465 46.5063 61.1382 45.7563 60.3549C45.0229 59.5715 44.4729 58.6465 44.1062 57.5799L47.2813 56.1549C47.7479 57.1715 48.3896 57.9715 49.2063 58.5549C50.0396 59.1382 50.9563 59.4299 51.9563 59.4299C52.4896 59.4299 52.9479 59.3465 53.3313 59.1799C53.7146 59.0132 54.0146 58.7882 54.2313 58.5049C54.4479 58.2049 54.5563 57.8549 54.5563 57.4549C54.5563 57.0215 54.4229 56.6549 54.1563 56.3549C53.8896 56.0382 53.4729 55.7882 52.9063 55.6049L49.2563 54.4049C47.7729 53.9215 46.6563 53.2382 45.9063 52.3549C45.1563 51.4549 44.7813 50.3799 44.7813 49.1299C44.7813 48.0299 45.0479 47.0632 45.5813 46.2299C46.1313 45.3965 46.8896 44.7465 47.8563 44.2799C48.8396 43.8132 49.9646 43.5799 51.2313 43.5799C52.3479 43.5799 53.3813 43.7715 54.3313 44.1549C55.2813 44.5382 56.0979 45.0799 56.7813 45.7799C57.4813 46.4799 58.0063 47.3215 58.3563 48.3049L55.2063 49.7299C54.8563 48.8632 54.3313 48.1882 53.6313 47.7049C52.9313 47.2049 52.1313 46.9549 51.2313 46.9549C50.7146 46.9549 50.2563 47.0382 49.8563 47.2049C49.4563 47.3715 49.1479 47.6132 48.9313 47.9299C48.7146 48.2299 48.6063 48.5799 48.6063 48.9799C48.6063 49.4132 48.7479 49.7965 49.0313 50.1299C49.3146 50.4465 49.7396 50.6965 50.3063 50.8799L53.8813 52.0299C55.3813 52.5132 56.4979 53.1882 57.2313 54.0549C57.9813 54.9215 58.3563 55.9799 58.3563 57.2299C58.3563 58.3132 58.0729 59.2799 57.5063 60.1299C56.9396 60.9632 56.1563 61.6215 55.1563 62.1049C54.1729 62.5715 53.0229 62.8049 51.7063 62.8049ZM59.4986 62.5049L65.7986 43.8799H70.9486L77.2486 62.5049H73.0236L71.7736 58.7049H64.9486L63.6986 62.5049H59.4986ZM66.0236 55.3299H70.6986L67.8486 46.5299H68.8986L66.0236 55.3299Z" fill="white"/>
</svg>
