<svg width="101" height="102" viewBox="0 0 101 102" fill="none" xmlns="http://www.w3.org/2000/svg">
<rect x="0.169678" y="-86.6006" width="188" height="188" rx="94" fill="url(#paint0_linear_508_2626)"/>
<g clip-path="url(#clip0_508_2626)">
<path d="M73.9741 36.9177C74.416 36.9177 74.637 37.1387 74.637 37.5806V56.3382C74.637 56.78 74.416 57.001 73.9741 57.001H42.6894C42.1591 57.001 41.6951 56.8021 41.2975 56.4044C40.8998 56.0068 40.7009 55.5428 40.7009 55.0125V25.0534C40.7009 24.5231 40.8998 24.0592 41.2975 23.6615C41.6951 23.2638 42.1591 23.0649 42.6894 23.0649H60.4528C60.6295 23.0649 60.7842 23.1312 60.9167 23.2638L67.2797 29.6268C67.4123 29.7594 67.4786 29.914 67.4786 30.0908V38.9062C67.4786 39.3481 67.2576 39.569 66.8158 39.569C66.3739 39.569 66.153 39.3481 66.153 38.9062V30.7536H61.7784C61.2481 30.7536 60.7842 30.5547 60.3865 30.157C59.9888 29.7594 59.7899 29.2954 59.7899 28.7651V24.3906H42.6894C42.2475 24.3906 42.0266 24.6115 42.0266 25.0534V55.0125C42.0266 55.4544 42.2475 55.6754 42.6894 55.6754H48.3896V50.3728C48.3896 49.931 48.6105 49.71 49.0524 49.71H53.2944C53.7363 49.71 53.9572 49.931 53.9572 50.3728V55.6754H55.2828V46.5948C55.2828 46.1529 55.5038 45.932 55.9456 45.932H60.1876C60.6295 45.932 60.8504 46.1529 60.8504 46.5948V55.6754H62.1761V41.9551C62.1761 41.5132 62.397 41.2923 62.8389 41.2923H67.0809C67.5228 41.2923 67.7437 41.5132 67.7437 41.9551V55.6754H69.0693V45.8657C69.0693 45.4238 69.2903 45.2029 69.7321 45.2029C70.174 45.2029 70.395 45.4238 70.395 45.8657V55.6754H71.8531H73.3113V38.2434H70.395V40.8946C70.395 41.3365 70.174 41.5574 69.7321 41.5574C69.2903 41.5574 69.0693 41.3365 69.0693 40.8946V37.5806C69.0693 37.1387 69.2903 36.9177 69.7321 36.9177H73.9741ZM61.1156 25.3185V28.7651C61.1156 29.207 61.3365 29.428 61.7784 29.428H65.225L61.1156 25.3185ZM52.6316 55.6754V51.0357H49.7152V55.6754H52.6316ZM59.5248 55.6754V47.2576H56.6084V55.6754H59.5248ZM66.4181 55.6754V42.6179H63.5017V55.6754H66.4181ZM69.7321 42.6179C69.7321 42.6179 69.7763 42.6179 69.8647 42.6179C69.9531 42.6179 70.0635 42.6842 70.1961 42.8168C70.3287 42.9493 70.395 43.104 70.395 43.2807C70.395 43.4575 70.3287 43.6122 70.1961 43.7447C70.0635 43.8773 69.9089 43.9436 69.7321 43.9436C69.5554 43.9436 69.4007 43.8773 69.2682 43.7447C69.1356 43.6122 69.0693 43.4575 69.0693 43.2807C69.0693 43.104 69.1356 42.9493 69.2682 42.8168C69.4007 42.6842 69.5554 42.6179 69.7321 42.6179ZM50.378 26.7104C52.5432 26.7104 54.3991 27.4837 55.9456 29.0303C57.4922 30.5768 58.2655 32.4327 58.2655 34.5979C58.2655 35.0398 58.0445 35.2607 57.6027 35.2607H56.4096C56.2328 36.8073 55.57 38.0998 54.4212 39.1382C53.2723 40.1766 51.9246 40.6958 50.378 40.6958C48.6989 40.6958 47.2628 40.0992 46.0697 38.9062C44.8767 37.7131 44.2801 36.277 44.2801 34.5979C44.2801 33.0513 44.7993 31.6926 45.8377 30.5216C46.8761 29.3506 48.1686 28.6989 49.7152 28.5663V27.3732C49.7152 26.9314 49.9361 26.7104 50.378 26.7104ZM50.378 39.3701C51.5711 39.3701 52.6095 38.9835 53.4932 38.2102C54.377 37.4369 54.9072 36.4538 55.084 35.2607H50.378C49.9361 35.2607 49.7152 35.0398 49.7152 34.5979V29.8919C48.9198 29.9803 48.2128 30.2454 47.5942 30.6873C46.9756 31.1292 46.4895 31.6926 46.136 32.3775C45.7825 33.0624 45.6057 33.8025 45.6057 34.5979C45.6057 35.9235 46.0697 37.0503 46.9977 37.9782C47.9256 38.9062 49.0524 39.3701 50.378 39.3701ZM51.0408 33.9351H56.9398C56.7631 32.3885 56.1224 31.0629 55.0177 29.9582C53.913 28.8535 52.5874 28.2128 51.0408 28.036V33.9351ZM57.6027 42.5517C58.0445 42.5517 58.2655 42.7726 58.2655 43.2145C58.2655 43.6563 58.0445 43.8773 57.6027 43.8773H44.9429C44.5011 43.8773 44.2801 43.6563 44.2801 43.2145C44.2801 42.7726 44.5011 42.5517 44.9429 42.5517H57.6027ZM49.1849 45.7332C49.6268 45.7332 49.8477 45.9541 49.8477 46.396C49.8477 46.8378 49.6268 47.0588 49.1849 47.0588H44.9429C44.5011 47.0588 44.2801 46.8378 44.2801 46.396C44.2801 45.9541 44.5011 45.7332 44.9429 45.7332H49.1849ZM52.499 45.7332C52.499 45.7332 52.5432 45.7332 52.6316 45.7332C52.7199 45.7332 52.8304 45.7994 52.963 45.932C53.0955 46.0646 53.1618 46.2303 53.1618 46.4291C53.1618 46.628 53.0955 46.7826 52.963 46.8931C52.8304 47.0035 52.6758 47.0588 52.499 47.0588C52.3223 47.0588 52.1676 47.0035 52.035 46.8931C51.9025 46.7826 51.8362 46.628 51.8362 46.4291C51.8362 46.2303 51.9025 46.0646 52.035 45.932C52.1676 45.7994 52.3223 45.7332 52.499 45.7332Z" fill="white"/>
</g>
<defs>
<linearGradient id="paint0_linear_508_2626" x1="0.169678" y1="-86.6006" x2="193.201" y2="-81.2841" gradientUnits="userSpaceOnUse">
<stop offset="0.0052" stop-color="#43BAFF"/>
<stop offset="1" stop-color="#7044B3"/>
</linearGradient>
<clipPath id="clip0_508_2626">
<rect width="35" height="34.4" fill="white" transform="matrix(1 0 0 -1 40.1697 57.2002)"/>
</clipPath>
</defs>
</svg>
