<svg width="101" height="101" viewBox="0 0 101 101" fill="none" xmlns="http://www.w3.org/2000/svg">
<rect x="0.159668" y="-87.2002" width="188" height="188" rx="94" fill="url(#paint0_linear_508_2598)"/>
<g clip-path="url(#clip0_508_2598)">
<path d="M65.215 24.7189C66.0546 23.8793 67.0709 23.4595 68.2639 23.4595C69.457 23.4595 70.4733 23.8793 71.3129 24.7189C72.1524 25.5584 72.5722 26.5747 72.5722 27.7678C72.5722 28.9609 72.1524 29.9772 71.3129 30.8167L59.6474 42.4822L58.852 41.6869L65.9441 34.6611L65.0824 33.7994L54.3449 44.6032L53.5495 43.8079L64.3533 33.0703L62.9614 31.6784L57.5264 37.1797L56.731 36.3844L62.2323 30.9493L61.3707 30.0876L59.1171 32.4075L58.3217 31.6121L65.215 24.7189ZM62.0998 29.3585L66.6732 33.932L67.5348 33.0703L66.2755 31.8772L67.0709 31.0819L68.2639 32.3412L69.1256 31.4795L64.5522 26.9061L62.0998 29.3585ZM70.5175 30.0214C71.1803 29.4027 71.5117 28.6515 71.5117 27.7678C71.5117 26.884 71.1914 26.1218 70.5506 25.4811C69.9099 24.8404 69.1477 24.52 68.2639 24.52C67.3802 24.52 66.629 24.8514 66.0104 25.5142L65.2813 26.177L69.8547 30.7505L70.5175 30.0214ZM53.5495 39.5659L54.3449 40.3612L46.1923 48.4476L47.5842 49.8395L49.8377 47.5196L50.6331 48.315L48.3133 50.5686L49.1749 51.4302L51.4285 49.1104L52.2239 49.9058L49.5726 52.557C49.4842 52.6012 49.418 52.6454 49.3738 52.6896L41.42 55.3408C41.3316 55.3408 41.2654 55.3408 41.2212 55.3408C40.8677 55.3408 40.6909 55.1641 40.6909 54.8106C40.6909 54.7664 40.6909 54.7001 40.6909 54.6117L43.3422 46.658C43.3864 46.6138 43.4305 46.5475 43.4747 46.4591L51.9587 37.9751L52.7541 38.7705L44.6015 46.8568L45.4632 47.7185L53.5495 39.5659ZM42.8782 51.4965L42.0828 53.9489L44.5352 53.1535C44.4027 52.8442 44.1707 52.5239 43.8393 52.1925C43.5079 51.8611 43.1875 51.6291 42.8782 51.4965ZM48.1807 51.9605L45.0655 48.8453L44.0713 47.851L43.2096 50.5023C43.6515 50.679 44.1044 50.9994 44.5684 51.4634C45.0323 51.9273 45.3527 52.3803 45.5295 52.8221L48.1807 51.9605ZM64.1545 29.7562L64.9499 28.9609L66.0104 30.0214L65.215 30.8167L64.1545 29.7562ZM41.2212 34.1308C40.8677 34.1308 40.6909 33.9541 40.6909 33.6005V24.056C40.6909 23.7025 40.8677 23.5258 41.2212 23.5258H56.5984C56.9519 23.5258 57.1287 23.7025 57.1287 24.056V33.6005C57.1287 33.9541 56.9519 34.1308 56.5984 34.1308H55.5379V38.3728C55.5379 38.7263 55.3612 38.9031 55.0077 38.9031C54.8751 38.9031 54.7426 38.8589 54.61 38.7705L50.0366 34.1308H41.2212ZM41.7514 24.5863V33.0703H50.2354C50.368 33.0703 50.5006 33.1145 50.6331 33.2029L54.4774 37.1135V33.6005C54.4774 33.247 54.6542 33.0703 55.0077 33.0703H56.0682V24.5863H41.7514ZM45.5957 26.8399L46.3911 27.6352L45.1318 28.8283L46.3911 30.0214L45.5957 30.8167L44.005 29.226C43.9166 29.0934 43.8724 28.9609 43.8724 28.8283C43.8724 28.6957 43.9166 28.5632 44.005 28.4306L45.5957 26.8399ZM47.1202 31.2144L49.7715 25.9119L50.6994 26.4422L48.0481 31.7447L47.1202 31.2144ZM52.2239 30.8167L51.4285 30.0214L52.6878 28.8283L51.4285 27.6352L52.2239 26.8399L53.8146 28.4306C53.903 28.5632 53.9472 28.6957 53.9472 28.8283C53.9472 28.9609 53.903 29.0934 53.8146 29.226L52.2239 30.8167ZM71.9757 43.6753C72.3292 43.6753 72.5059 43.8521 72.5059 44.2056V54.8106C72.5059 55.1641 72.3292 55.3408 71.9757 55.3408H56.5984C56.2449 55.3408 56.0682 55.1641 56.0682 54.8106V51.2977L51.4285 46.7242C51.3401 46.5917 51.2959 46.4591 51.2959 46.3266C51.2959 45.9731 51.4727 45.7963 51.8262 45.7963H56.0682V44.2056C56.0682 43.8521 56.2449 43.6753 56.5984 43.6753H71.9757ZM71.4454 54.2803V44.7358H57.1287V46.3266C57.1287 46.6801 56.9519 46.8568 56.5984 46.8568H53.0855L56.9961 50.7011C57.0845 50.8337 57.1287 50.9663 57.1287 51.0988V54.2803H71.4454ZM60.973 51.4965L59.3822 49.9058C59.2939 49.7732 59.2497 49.6406 59.2497 49.5081C59.2497 49.3755 59.2939 49.2429 59.3822 49.1104L60.973 47.5196L61.7684 48.315L60.509 49.5081L61.7684 50.7011L60.973 51.4965ZM62.4975 51.8942L65.1487 46.5917L66.0767 47.1219L63.4254 52.4244L62.4975 51.8942ZM67.6011 51.4965L66.8058 50.7011L68.0651 49.5081L66.8058 48.315L67.6011 47.5196L69.1919 49.1104C69.2803 49.2429 69.3244 49.3755 69.3244 49.5081C69.3244 49.6406 69.2803 49.7732 69.1919 49.9058L67.6011 51.4965Z" fill="white"/>
</g>
<defs>
<linearGradient id="paint0_linear_508_2598" x1="0.159668" y1="-87.2002" x2="193.191" y2="-81.8837" gradientUnits="userSpaceOnUse">
<stop offset="0.0052" stop-color="#43BAFF"/>
<stop offset="1" stop-color="#7044B3"/>
</linearGradient>
<clipPath id="clip0_508_2598">
<rect width="35" height="34.4" fill="white" transform="matrix(1 0 0 -1 40.1597 56.6006)"/>
</clipPath>
</defs>
</svg>
