<svg width="101" height="102" viewBox="0 0 101 102" fill="none" xmlns="http://www.w3.org/2000/svg">
<rect x="0.189453" y="-86.6006" width="188" height="188" rx="94" fill="url(#paint0_linear_508_2613)"/>
<g clip-path="url(#clip0_508_2613)">
<path d="M72.9334 40.0336C73.4195 40.0336 73.8282 40.1993 74.1596 40.5307C74.491 40.8621 74.6567 41.2708 74.6567 41.7569V53.0247C74.6567 53.5108 74.491 53.9195 74.1596 54.2509C73.8282 54.5823 73.4195 54.748 72.9334 54.748H68.4263C67.9844 54.748 67.5978 54.5823 67.2664 54.2509C66.935 53.9195 66.7693 53.5108 66.7693 53.0247V47.9211H59.9423V51.3677H61.6656C62.4168 51.3677 63.0686 51.6439 63.6209 52.1962C64.1732 52.7486 64.4494 53.4003 64.4494 54.1515C64.4494 54.5492 64.2727 54.748 63.9192 54.748H42.444C41.958 54.748 41.5492 54.5823 41.2178 54.2509C40.8864 53.9195 40.7207 53.5108 40.7207 53.0247V38.3103C40.7207 37.8684 40.8864 37.4818 41.2178 37.1504C41.5492 36.819 41.958 36.6532 42.444 36.6532H42.9743V28.1692C42.9743 27.3739 43.2504 26.7 43.8028 26.1477C44.3551 25.5953 45.029 25.3191 45.8244 25.3191H69.5531C70.3484 25.3191 71.0223 25.5953 71.5747 26.1477C72.127 26.7 72.4032 27.3739 72.4032 28.1692V40.0336H72.9334ZM53.1816 53.0247V52.4945H41.8475V53.0247C41.8475 53.4224 42.0463 53.6213 42.444 53.6213H52.5851C52.9827 53.6213 53.1816 53.4224 53.1816 53.0247ZM53.1816 51.3677V38.3103C53.1816 37.9568 52.9827 37.78 52.5851 37.78H42.444C42.0463 37.78 41.8475 37.9568 41.8475 38.3103V51.3677H53.1816ZM61.6656 52.4945H54.3084V53.0247C54.3084 53.2457 54.2642 53.4445 54.1758 53.6213H63.2563C62.9912 52.8701 62.461 52.4945 61.6656 52.4945ZM54.3084 51.3677H55.4352V47.9211H54.3084V51.3677ZM56.5619 51.3677H58.8155V47.9211H56.5619V51.3677ZM66.7693 46.7943V43.4139H54.3084V46.7943H66.7693ZM66.7693 41.7569C66.7693 41.2708 66.935 40.8621 67.2664 40.5307C67.5978 40.1993 67.9844 40.0336 68.4263 40.0336H71.2764V28.1692C71.2764 27.6832 71.1107 27.2744 70.7793 26.943C70.4479 26.6116 70.0391 26.4459 69.5531 26.4459H45.8244C45.3383 26.4459 44.9296 26.6116 44.5982 26.943C44.2668 27.2744 44.101 27.6832 44.101 28.1692V36.6532H52.5851C52.8502 36.6532 53.0932 36.6974 53.3142 36.7858V36.7195L58.9481 31.1519C59.2132 30.8868 59.4783 30.8868 59.7434 31.1519C60.0086 31.417 60.0086 31.6821 59.7434 31.9473L54.1095 37.5812C54.2421 37.8021 54.3084 38.0452 54.3084 38.3103V42.2872H66.7693V41.7569ZM73.53 53.0247V52.4945H67.896V53.0247C67.896 53.4224 68.0728 53.6213 68.4263 53.6213H72.9334C73.3311 53.6213 73.53 53.4224 73.53 53.0247ZM73.53 51.3677V41.7569C73.53 41.3592 73.3311 41.1604 72.9334 41.1604H68.4263C68.0728 41.1604 67.896 41.3592 67.896 41.7569V51.3677H73.53ZM47.4814 43.5465C47.4372 43.6349 47.4372 43.7674 47.4814 43.9442C47.5256 44.1209 47.5256 44.2535 47.4814 44.3419L45.0953 46.728C44.786 46.9931 44.5098 46.9931 44.2668 46.728C44.0237 46.4629 44.0348 46.1978 44.2999 45.9326L46.686 43.5465C46.9511 43.2814 47.2163 43.2814 47.4814 43.5465ZM50.8617 43.5465C51.1269 43.8116 51.1269 44.0768 50.8617 44.3419L48.4756 46.728C48.2105 46.9931 47.9454 46.9931 47.6802 46.728C47.4151 46.4629 47.4151 46.1978 47.6802 45.9326L50.0664 43.5465C50.3315 43.2814 50.5966 43.2814 50.8617 43.5465ZM63.1901 31.1519C63.4552 31.417 63.4552 31.6821 63.1901 31.9473L57.5562 37.5812C57.291 37.8463 57.0259 37.8353 56.7608 37.548C56.4957 37.2608 56.4957 36.9847 56.7608 36.7195L62.3947 31.1519C62.6598 30.8868 62.9249 30.8868 63.1901 31.1519ZM71.8729 45.071C72.138 45.3361 72.138 45.6012 71.8729 45.8664L70.2822 47.4571C70.017 47.7222 69.7519 47.7222 69.4868 47.4571C69.2217 47.192 69.2217 46.9269 69.4868 46.6617L71.0775 45.071C71.3427 44.8059 71.6078 44.8059 71.8729 45.071ZM57.1585 45.1041C57.1585 45.1041 57.1585 45.0102 57.1585 44.8224C57.1585 44.6346 57.3463 44.5407 57.7219 44.5407C58.0975 44.5407 58.2852 44.7285 58.2852 45.1041C58.2852 45.4797 58.0975 45.6675 57.7219 45.6675C57.3463 45.6675 57.1585 45.4797 57.1585 45.1041ZM58.8155 27.5727C59.2132 27.5727 59.412 27.7605 59.412 28.1361C59.412 28.5117 59.2132 28.6995 58.8155 28.6995H56.5619C56.1642 28.6995 55.9654 28.5117 55.9654 28.1361C55.9654 27.7605 56.1642 27.5727 56.5619 27.5727H58.8155Z" fill="white"/>
</g>
<defs>
<linearGradient id="paint0_linear_508_2613" x1="0.189453" y1="-86.6006" x2="193.221" y2="-81.2841" gradientUnits="userSpaceOnUse">
<stop offset="0.0052" stop-color="#43BAFF"/>
<stop offset="1" stop-color="#7044B3"/>
</linearGradient>
<clipPath id="clip0_508_2613">
<rect width="35" height="34.4" fill="white" transform="matrix(1 0 0 -1 40.1895 57.2002)"/>
</clipPath>
</defs>
</svg>
