<svg width="101" height="101" viewBox="0 0 101 101" fill="none" xmlns="http://www.w3.org/2000/svg">
<rect x="0.169678" y="-87.2002" width="188" height="188" rx="94" fill="url(#paint0_linear_508_2585)"/>
<g clip-path="url(#clip0_508_2585)">
<path d="M73.9741 36.3181C74.416 36.3181 74.637 36.5391 74.637 36.9809V55.7386C74.637 56.1804 74.416 56.4014 73.9741 56.4014H42.6894C42.1591 56.4014 41.6951 56.2025 41.2975 55.8048C40.8998 55.4071 40.7009 54.9432 40.7009 54.4129V24.4538C40.7009 23.9235 40.8998 23.4596 41.2975 23.0619C41.6951 22.6642 42.1591 22.4653 42.6894 22.4653H60.4528C60.6295 22.4653 60.7842 22.5316 60.9167 22.6642L67.2797 29.0272C67.4123 29.1597 67.4786 29.3144 67.4786 29.4912V38.3066C67.4786 38.7484 67.2576 38.9694 66.8158 38.9694C66.3739 38.9694 66.153 38.7484 66.153 38.3066V30.154H61.7784C61.2481 30.154 60.7842 29.9551 60.3865 29.5574C59.9888 29.1597 59.7899 28.6958 59.7899 28.1655V23.791H42.6894C42.2475 23.791 42.0266 24.0119 42.0266 24.4538V54.4129C42.0266 54.8548 42.2475 55.0757 42.6894 55.0757H48.3896V49.7732C48.3896 49.3314 48.6105 49.1104 49.0524 49.1104H53.2944C53.7363 49.1104 53.9572 49.3314 53.9572 49.7732V55.0757H55.2828V45.9952C55.2828 45.5533 55.5038 45.3324 55.9456 45.3324H60.1876C60.6295 45.3324 60.8504 45.5533 60.8504 45.9952V55.0757H62.1761V41.3555C62.1761 40.9136 62.397 40.6927 62.8389 40.6927H67.0809C67.5228 40.6927 67.7437 40.9136 67.7437 41.3555V55.0757H69.0693V45.2661C69.0693 44.8242 69.2903 44.6033 69.7321 44.6033C70.174 44.6033 70.395 44.8242 70.395 45.2661V55.0757H71.8531H73.3113V37.6438H70.395V40.295C70.395 40.7369 70.174 40.9578 69.7321 40.9578C69.2903 40.9578 69.0693 40.7369 69.0693 40.295V36.9809C69.0693 36.5391 69.2903 36.3181 69.7321 36.3181H73.9741ZM61.1156 24.7189V28.1655C61.1156 28.6074 61.3365 28.8283 61.7784 28.8283H65.225L61.1156 24.7189ZM52.6316 55.0757V50.436H49.7152V55.0757H52.6316ZM59.5248 55.0757V46.658H56.6084V55.0757H59.5248ZM66.4181 55.0757V42.0183H63.5017V55.0757H66.4181ZM69.7321 42.0183C69.7321 42.0183 69.7763 42.0183 69.8647 42.0183C69.9531 42.0183 70.0635 42.0846 70.1961 42.2172C70.3287 42.3497 70.395 42.5044 70.395 42.6811C70.395 42.8579 70.3287 43.0125 70.1961 43.1451C70.0635 43.2777 69.9089 43.3439 69.7321 43.3439C69.5554 43.3439 69.4007 43.2777 69.2682 43.1451C69.1356 43.0125 69.0693 42.8579 69.0693 42.6811C69.0693 42.5044 69.1356 42.3497 69.2682 42.2172C69.4007 42.0846 69.5554 42.0183 69.7321 42.0183ZM50.378 26.1108C52.5432 26.1108 54.3991 26.8841 55.9456 28.4307C57.4922 29.9772 58.2655 31.8331 58.2655 33.9983C58.2655 34.4402 58.0445 34.6611 57.6027 34.6611H56.4096C56.2328 36.2077 55.57 37.5001 54.4212 38.5386C53.2723 39.577 51.9246 40.0962 50.378 40.0962C48.6989 40.0962 47.2628 39.4996 46.0697 38.3066C44.8767 37.1135 44.2801 35.6774 44.2801 33.9983C44.2801 32.4517 44.7993 31.093 45.8377 29.922C46.8761 28.751 48.1686 28.0992 49.7152 27.9667V26.7736C49.7152 26.3317 49.9361 26.1108 50.378 26.1108ZM50.378 38.7705C51.5711 38.7705 52.6095 38.3839 53.4932 37.6106C54.377 36.8373 54.9072 35.8542 55.084 34.6611H50.378C49.9361 34.6611 49.7152 34.4402 49.7152 33.9983V29.2923C48.9198 29.3807 48.2128 29.6458 47.5942 30.0877C46.9756 30.5296 46.4895 31.093 46.136 31.7779C45.7825 32.4628 45.6057 33.2029 45.6057 33.9983C45.6057 35.3239 46.0697 36.4507 46.9977 37.3786C47.9256 38.3066 49.0524 38.7705 50.378 38.7705ZM51.0408 33.3355H56.9398C56.7631 31.7889 56.1224 30.4633 55.0177 29.3586C53.913 28.2539 52.5874 27.6132 51.0408 27.4364V33.3355ZM57.6027 41.952C58.0445 41.952 58.2655 42.173 58.2655 42.6149C58.2655 43.0567 58.0445 43.2777 57.6027 43.2777H44.9429C44.5011 43.2777 44.2801 43.0567 44.2801 42.6149C44.2801 42.173 44.5011 41.952 44.9429 41.952H57.6027ZM49.1849 45.1335C49.6268 45.1335 49.8477 45.3545 49.8477 45.7964C49.8477 46.2382 49.6268 46.4592 49.1849 46.4592H44.9429C44.5011 46.4592 44.2801 46.2382 44.2801 45.7964C44.2801 45.3545 44.5011 45.1335 44.9429 45.1335H49.1849ZM52.499 45.1335C52.499 45.1335 52.5432 45.1335 52.6316 45.1335C52.7199 45.1335 52.8304 45.1998 52.963 45.3324C53.0955 45.465 53.1618 45.6307 53.1618 45.8295C53.1618 46.0283 53.0955 46.183 52.963 46.2935C52.8304 46.4039 52.6758 46.4592 52.499 46.4592C52.3223 46.4592 52.1676 46.4039 52.035 46.2935C51.9025 46.183 51.8362 46.0283 51.8362 45.8295C51.8362 45.6307 51.9025 45.465 52.035 45.3324C52.1676 45.1998 52.3223 45.1335 52.499 45.1335Z" fill="white"/>
</g>
<defs>
<linearGradient id="paint0_linear_508_2585" x1="0.169678" y1="-87.2002" x2="193.201" y2="-81.8837" gradientUnits="userSpaceOnUse">
<stop offset="0.0052" stop-color="#43BAFF"/>
<stop offset="1" stop-color="#7044B3"/>
</linearGradient>
<clipPath id="clip0_508_2585">
<rect width="35" height="34.4" fill="white" transform="matrix(1 0 0 -1 40.1697 56.6006)"/>
</clipPath>
</defs>
</svg>
