<svg width="101" height="102" viewBox="0 0 101 102" fill="none" xmlns="http://www.w3.org/2000/svg">
<rect x="0.159668" y="-86.6006" width="188" height="188" rx="94" fill="url(#paint0_linear_508_2639)"/>
<g clip-path="url(#clip0_508_2639)">
<path d="M65.215 25.3185C66.0546 24.4789 67.0709 24.0591 68.2639 24.0591C69.457 24.0591 70.4733 24.4789 71.3129 25.3185C72.1524 26.158 72.5722 27.1743 72.5722 28.3674C72.5722 29.5605 72.1524 30.5768 71.3129 31.4163L59.6474 43.0819L58.852 42.2865L65.9441 35.2607L65.0824 34.399L54.3449 45.2029L53.5495 44.4075L64.3533 33.6699L62.9614 32.278L57.5264 37.7794L56.731 36.984L62.2323 31.5489L61.3707 30.6873L59.1171 33.0071L58.3217 32.2117L65.215 25.3185ZM62.0998 29.9582L66.6732 34.5316L67.5348 33.6699L66.2755 32.4768L67.0709 31.6815L68.2639 32.9408L69.1256 32.0792L64.5522 27.5057L62.0998 29.9582ZM70.5175 30.621C71.1803 30.0023 71.5117 29.2512 71.5117 28.3674C71.5117 27.4837 71.1914 26.7214 70.5506 26.0807C69.9099 25.44 69.1477 25.1196 68.2639 25.1196C67.3802 25.1196 66.629 25.451 66.0104 26.1138L65.2813 26.7767L69.8547 31.3501L70.5175 30.621ZM53.5495 40.1655L54.3449 40.9609L46.1923 49.0472L47.5842 50.4391L49.8377 48.1192L50.6331 48.9146L48.3133 51.1682L49.1749 52.0298L51.4285 49.71L52.2239 50.5054L49.5726 53.1566C49.4842 53.2008 49.418 53.245 49.3738 53.2892L41.42 55.9404C41.3316 55.9404 41.2654 55.9404 41.2212 55.9404C40.8677 55.9404 40.6909 55.7637 40.6909 55.4102C40.6909 55.366 40.6909 55.2997 40.6909 55.2113L43.3422 47.2576C43.3864 47.2134 43.4305 47.1471 43.4747 47.0587L51.9587 38.5747L52.7541 39.3701L44.6015 47.4564L45.4632 48.3181L53.5495 40.1655ZM42.8782 52.0961L42.0828 54.5485L44.5352 53.7531C44.4027 53.4438 44.1707 53.1235 43.8393 52.7921C43.5079 52.4607 43.1875 52.2287 42.8782 52.0961ZM48.1807 52.5601L45.0655 49.4449L44.0713 48.4506L43.2096 51.1019C43.6515 51.2786 44.1044 51.599 44.5684 52.063C45.0323 52.5269 45.3527 52.9799 45.5295 53.4217L48.1807 52.5601ZM64.1545 30.3558L64.9499 29.5605L66.0104 30.621L65.215 31.4163L64.1545 30.3558ZM41.2212 34.7304C40.8677 34.7304 40.6909 34.5537 40.6909 34.2002V24.6557C40.6909 24.3022 40.8677 24.1254 41.2212 24.1254H56.5984C56.9519 24.1254 57.1287 24.3022 57.1287 24.6557V34.2002C57.1287 34.5537 56.9519 34.7304 56.5984 34.7304H55.5379V38.9724C55.5379 39.3259 55.3612 39.5027 55.0077 39.5027C54.8751 39.5027 54.7426 39.4585 54.61 39.3701L50.0366 34.7304H41.2212ZM41.7514 25.1859V33.6699H50.2354C50.368 33.6699 50.5006 33.7141 50.6331 33.8025L54.4774 37.7131V34.2002C54.4774 33.8467 54.6542 33.6699 55.0077 33.6699H56.0682V25.1859H41.7514ZM45.5957 27.4395L46.3911 28.2348L45.1318 29.4279L46.3911 30.621L45.5957 31.4163L44.005 29.8256C43.9166 29.693 43.8724 29.5605 43.8724 29.4279C43.8724 29.2953 43.9166 29.1628 44.005 29.0302L45.5957 27.4395ZM47.1202 31.814L49.7715 26.5115L50.6994 27.0418L48.0481 32.3443L47.1202 31.814ZM52.2239 31.4163L51.4285 30.621L52.6878 29.4279L51.4285 28.2348L52.2239 27.4395L53.8146 29.0302C53.903 29.1628 53.9472 29.2953 53.9472 29.4279C53.9472 29.5605 53.903 29.693 53.8146 29.8256L52.2239 31.4163ZM71.9757 44.2749C72.3292 44.2749 72.5059 44.4517 72.5059 44.8052V55.4102C72.5059 55.7637 72.3292 55.9404 71.9757 55.9404H56.5984C56.2449 55.9404 56.0682 55.7637 56.0682 55.4102V51.8973L51.4285 47.3239C51.3401 47.1913 51.2959 47.0587 51.2959 46.9262C51.2959 46.5727 51.4727 46.3959 51.8262 46.3959H56.0682V44.8052C56.0682 44.4517 56.2449 44.2749 56.5984 44.2749H71.9757ZM71.4454 54.8799V45.3354H57.1287V46.9262C57.1287 47.2797 56.9519 47.4564 56.5984 47.4564H53.0855L56.9961 51.3007C57.0845 51.4333 57.1287 51.5659 57.1287 51.6984V54.8799H71.4454ZM60.973 52.0961L59.3822 50.5054C59.2939 50.3728 59.2497 50.2402 59.2497 50.1077C59.2497 49.9751 59.2939 49.8425 59.3822 49.71L60.973 48.1192L61.7684 48.9146L60.509 50.1077L61.7684 51.3007L60.973 52.0961ZM62.4975 52.4938L65.1487 47.1913L66.0767 47.7215L63.4254 53.0241L62.4975 52.4938ZM67.6011 52.0961L66.8058 51.3007L68.0651 50.1077L66.8058 48.9146L67.6011 48.1192L69.1919 49.71C69.2803 49.8425 69.3244 49.9751 69.3244 50.1077C69.3244 50.2402 69.2803 50.3728 69.1919 50.5054L67.6011 52.0961Z" fill="white"/>
</g>
<defs>
<linearGradient id="paint0_linear_508_2639" x1="0.159668" y1="-86.6006" x2="193.191" y2="-81.2841" gradientUnits="userSpaceOnUse">
<stop offset="0.0052" stop-color="#43BAFF"/>
<stop offset="1" stop-color="#7044B3"/>
</linearGradient>
<clipPath id="clip0_508_2639">
<rect width="35" height="34.4" fill="white" transform="matrix(1 0 0 -1 40.1597 57.2002)"/>
</clipPath>
</defs>
</svg>
