<svg width="28" height="28" viewBox="0 0 28 28" fill="none" xmlns="http://www.w3.org/2000/svg">
<path d="M2.33341 13.9993C2.33341 7.55602 7.55675 2.33268 14.0001 2.33268C20.4434 2.33268 25.6667 7.55602 25.6667 13.9993C25.6667 20.4427 20.4434 25.666 14.0001 25.666C7.55675 25.666 2.33341 20.4427 2.33341 13.9993ZM14.0001 0.666016C6.63608 0.666016 0.666748 6.63535 0.666748 13.9993C0.666748 21.3633 6.63608 27.3327 14.0001 27.3327C21.3641 27.3327 27.3334 21.3633 27.3334 13.9993C27.3334 6.63535 21.3641 0.666016 14.0001 0.666016ZM17.4281 6.24268C17.2708 6.08676 17.0582 5.99928 16.8367 5.99928C16.6153 5.99928 16.4027 6.08676 16.2454 6.24268C16.168 6.31952 16.1066 6.41092 16.0647 6.51161C16.0227 6.61229 16.0012 6.72028 16.0012 6.82935C16.0012 6.93841 16.0227 7.0464 16.0647 7.14709C16.1066 7.24778 16.168 7.33918 16.2454 7.41602C17.1159 8.27699 17.807 9.30207 18.2786 10.4319C18.7503 11.5618 18.9932 12.774 18.9932 13.9983C18.9932 15.2227 18.7503 16.4349 18.2786 17.5648C17.807 18.6946 17.1159 19.7197 16.2454 20.5807C16.1679 20.6575 16.1064 20.749 16.0644 20.8497C16.0224 20.9505 16.0008 21.0585 16.0008 21.1677C16.0008 21.2768 16.0224 21.3849 16.0644 21.4856C16.1064 21.5864 16.1679 21.6778 16.2454 21.7547C16.5721 22.0787 17.1014 22.0787 17.4281 21.7547C18.4537 20.7402 19.268 19.5323 19.8237 18.201C20.3794 16.8696 20.6655 15.4413 20.6655 13.9987C20.6655 12.556 20.3794 11.1277 19.8237 9.7964C19.268 8.46509 18.4537 7.25721 17.4281 6.24268ZM12.2514 8.23601C12.4168 8.08385 12.6333 7.99939 12.8581 7.99939C13.0828 7.99939 13.2994 8.08385 13.4647 8.23601C16.8434 11.4187 16.8434 16.5793 13.4647 19.7627C13.2994 19.915 13.0829 19.9995 12.8581 19.9995C12.6333 19.9995 12.4167 19.915 12.2514 19.7627C12.1721 19.69 12.1088 19.6017 12.0655 19.5033C12.0222 19.4049 11.9999 19.2985 11.9999 19.191C11.9999 19.0835 12.0222 18.9771 12.0655 18.8787C12.1088 18.7803 12.1721 18.692 12.2514 18.6193C14.9601 16.068 14.9601 11.9307 12.2514 9.37935C12.1721 9.30671 12.1088 9.21838 12.0655 9.11997C12.0222 9.02155 11.9999 8.9152 11.9999 8.80768C11.9999 8.70016 12.0222 8.59381 12.0655 8.4954C12.1088 8.39698 12.1721 8.30865 12.2514 8.23601ZM8.57808 10.2427C8.7357 10.0868 8.94842 9.99943 9.17008 9.99943C9.39174 9.99943 9.60446 10.0868 9.76208 10.2427C10.2593 10.7338 10.6542 11.3188 10.9236 11.9636C11.1931 12.6085 11.3318 13.3004 11.3318 13.9993C11.3318 14.6983 11.1931 15.3902 10.9236 16.0351C10.6542 16.6799 10.2593 17.2649 9.76208 17.756C9.60449 17.9117 9.39191 17.9989 9.17041 17.9989C8.94892 17.9989 8.73634 17.9117 8.57875 17.756C8.50125 17.6792 8.43973 17.5877 8.39775 17.487C8.35577 17.3862 8.33415 17.2782 8.33415 17.169C8.33415 17.0599 8.35577 16.9518 8.39775 16.8511C8.43973 16.7503 8.50125 16.6589 8.57875 16.582C8.92054 16.2443 9.19191 15.842 9.37712 15.3987C9.56232 14.9553 9.65769 14.4795 9.65769 13.999C9.65769 13.5185 9.56232 13.0428 9.37712 12.5994C9.19191 12.156 8.92054 11.7538 8.57875 11.416C8.50135 11.3392 8.43991 11.2478 8.39799 11.1471C8.35607 11.0464 8.33449 10.9384 8.33449 10.8293C8.33449 10.7203 8.35607 10.6123 8.39799 10.5116C8.43991 10.4109 8.50135 10.3195 8.57875 10.2427" fill="white"/>
</svg>
