<svg width="101" height="101" viewBox="0 0 101 101" fill="none" xmlns="http://www.w3.org/2000/svg">
<rect x="0.189453" y="-87.2002" width="188" height="188" rx="94" fill="url(#paint0_linear_508_2572)"/>
<g clip-path="url(#clip0_508_2572)">
<path d="M72.9334 39.434C73.4195 39.434 73.8282 39.5997 74.1596 39.9311C74.491 40.2625 74.6567 40.6712 74.6567 41.1573V52.4251C74.6567 52.9112 74.491 53.3199 74.1596 53.6513C73.8282 53.9827 73.4195 54.1484 72.9334 54.1484H68.4263C67.9844 54.1484 67.5978 53.9827 67.2664 53.6513C66.935 53.3199 66.7693 52.9112 66.7693 52.4251V47.3215H59.9423V50.7681H61.6656C62.4168 50.7681 63.0686 51.0443 63.6209 51.5966C64.1732 52.149 64.4494 52.8007 64.4494 53.5519C64.4494 53.9496 64.2727 54.1484 63.9192 54.1484H42.444C41.958 54.1484 41.5492 53.9827 41.2178 53.6513C40.8864 53.3199 40.7207 52.9112 40.7207 52.4251V37.7107C40.7207 37.2688 40.8864 36.8822 41.2178 36.5507C41.5492 36.2193 41.958 36.0536 42.444 36.0536H42.9743V27.5696C42.9743 26.7743 43.2504 26.1004 43.8028 25.5481C44.3551 24.9957 45.029 24.7195 45.8244 24.7195H69.5531C70.3484 24.7195 71.0223 24.9957 71.5747 25.5481C72.127 26.1004 72.4032 26.7743 72.4032 27.5696V39.434H72.9334ZM53.1816 52.4251V51.8949H41.8475V52.4251C41.8475 52.8228 42.0463 53.0217 42.444 53.0217H52.5851C52.9827 53.0217 53.1816 52.8228 53.1816 52.4251ZM53.1816 50.7681V37.7107C53.1816 37.3572 52.9827 37.1804 52.5851 37.1804H42.444C42.0463 37.1804 41.8475 37.3572 41.8475 37.7107V50.7681H53.1816ZM61.6656 51.8949H54.3084V52.4251C54.3084 52.6461 54.2642 52.8449 54.1758 53.0217H63.2563C62.9912 52.2705 62.461 51.8949 61.6656 51.8949ZM54.3084 50.7681H55.4352V47.3215H54.3084V50.7681ZM56.5619 50.7681H58.8155V47.3215H56.5619V50.7681ZM66.7693 46.1947V42.8143H54.3084V46.1947H66.7693ZM66.7693 41.1573C66.7693 40.6712 66.935 40.2625 67.2664 39.9311C67.5978 39.5997 67.9844 39.434 68.4263 39.434H71.2764V27.5696C71.2764 27.0836 71.1107 26.6748 70.7793 26.3434C70.4479 26.012 70.0391 25.8463 69.5531 25.8463H45.8244C45.3383 25.8463 44.9296 26.012 44.5982 26.3434C44.2668 26.6748 44.101 27.0836 44.101 27.5696V36.0536H52.5851C52.8502 36.0536 53.0932 36.0978 53.3142 36.1862V36.1199L58.9481 30.5523C59.2132 30.2872 59.4783 30.2872 59.7434 30.5523C60.0086 30.8174 60.0086 31.0825 59.7434 31.3477L54.1095 36.9816C54.2421 37.2025 54.3084 37.4455 54.3084 37.7107V41.6876H66.7693V41.1573ZM73.53 52.4251V51.8949H67.896V52.4251C67.896 52.8228 68.0728 53.0217 68.4263 53.0217H72.9334C73.3311 53.0217 73.53 52.8228 73.53 52.4251ZM73.53 50.7681V41.1573C73.53 40.7596 73.3311 40.5608 72.9334 40.5608H68.4263C68.0728 40.5608 67.896 40.7596 67.896 41.1573V50.7681H73.53ZM47.4814 42.9469C47.4372 43.0353 47.4372 43.1678 47.4814 43.3446C47.5256 43.5213 47.5256 43.6539 47.4814 43.7423L45.0953 46.1284C44.786 46.3935 44.5098 46.3935 44.2668 46.1284C44.0237 45.8633 44.0348 45.5981 44.2999 45.333L46.686 42.9469C46.9511 42.6818 47.2163 42.6818 47.4814 42.9469ZM50.8617 42.9469C51.1269 43.212 51.1269 43.4771 50.8617 43.7423L48.4756 46.1284C48.2105 46.3935 47.9454 46.3935 47.6802 46.1284C47.4151 45.8633 47.4151 45.5981 47.6802 45.333L50.0664 42.9469C50.3315 42.6818 50.5966 42.6818 50.8617 42.9469ZM63.1901 30.5523C63.4552 30.8174 63.4552 31.0825 63.1901 31.3477L57.5562 36.9816C57.291 37.2467 57.0259 37.2357 56.7608 36.9484C56.4957 36.6612 56.4957 36.385 56.7608 36.1199L62.3947 30.5523C62.6598 30.2872 62.9249 30.2872 63.1901 30.5523ZM71.8729 44.4714C72.138 44.7365 72.138 45.0016 71.8729 45.2667L70.2822 46.8575C70.017 47.1226 69.7519 47.1226 69.4868 46.8575C69.2217 46.5924 69.2217 46.3272 69.4868 46.0621L71.0775 44.4714C71.3427 44.2062 71.6078 44.2062 71.8729 44.4714ZM57.1585 44.5045C57.1585 44.5045 57.1585 44.4106 57.1585 44.2228C57.1585 44.035 57.3463 43.9411 57.7219 43.9411C58.0975 43.9411 58.2852 44.1289 58.2852 44.5045C58.2852 44.8801 58.0975 45.0679 57.7219 45.0679C57.3463 45.0679 57.1585 44.8801 57.1585 44.5045ZM58.8155 26.9731C59.2132 26.9731 59.412 27.1609 59.412 27.5365C59.412 27.9121 59.2132 28.0999 58.8155 28.0999H56.5619C56.1642 28.0999 55.9654 27.9121 55.9654 27.5365C55.9654 27.1609 56.1642 26.9731 56.5619 26.9731H58.8155Z" fill="white"/>
</g>
<defs>
<linearGradient id="paint0_linear_508_2572" x1="0.189453" y1="-87.2002" x2="193.221" y2="-81.8837" gradientUnits="userSpaceOnUse">
<stop offset="0.0052" stop-color="#43BAFF"/>
<stop offset="1" stop-color="#7044B3"/>
</linearGradient>
<clipPath id="clip0_508_2572">
<rect width="35" height="34.4" fill="white" transform="matrix(1 0 0 -1 40.1895 56.6006)"/>
</clipPath>
</defs>
</svg>
