<svg width="16" height="22" viewBox="0 0 16 22" fill="none" xmlns="http://www.w3.org/2000/svg">
<path d="M4.82 13.5141V8.48746H6V13.5141H4.82ZM7.41067 13.5141V9.82079H8.58934V13.5141H7.41067ZM10 13.5141V11.1541H11.18V13.5141H10ZM4.97333 21.9235L3.78934 17.7541C2.672 17.0981 1.76089 16.171 1.056 14.9728C0.351113 13.7746 -0.00088721 12.4506 1.67926e-06 11.0008C0.000890568 9.55101 0.35289 8.22701 1.056 7.02879C1.75911 5.83057 2.67022 4.90346 3.78934 4.24746L4.97467 0.078125H11.0253L12.2107 4.24746C13.328 4.90346 14.2391 5.83057 14.944 7.02879C15.6489 8.22701 16.0009 9.55101 16 11.0008C15.9991 12.4506 15.6471 13.7746 14.944 14.9728C14.2409 16.171 13.3298 17.0981 12.2107 17.7541L11.0253 21.9235H4.97333ZM8 17.6675C9.84445 17.6675 11.4169 17.0172 12.7173 15.7168C14.0178 14.4163 14.6676 12.8443 14.6667 11.0008C14.6658 9.15724 14.0156 7.58524 12.716 6.28479C11.4164 4.98435 9.84445 4.33412 8 4.33412C6.15556 4.33412 4.58356 4.98435 3.284 6.28479C1.98445 7.58524 1.33422 9.15724 1.33334 11.0008C1.33245 12.8443 1.98267 14.4168 3.284 15.7181C4.58534 17.0195 6.15734 17.6692 8 17.6675Z" fill="white"/>
</svg>
