<svg width="100" height="46" viewBox="0 0 100 46" fill="none" xmlns="http://www.w3.org/2000/svg">
<path d="M0.0012207 35.8698L10.2663 19.8971H1.21725C1.14056 19.437 1.1077 18.9331 1.1077 18.3744C1.1077 17.8375 1.14056 17.3446 1.21725 16.8954H15.8644L16.0506 17.3884L5.70889 33.394H15.4043C15.4809 33.8979 15.5138 34.4238 15.5138 34.9496C15.5138 35.4535 15.4809 35.9356 15.4043 36.3957H0.187459L0.0012207 35.8698Z" fill="#E6E6E6"/>
<path d="M29.6242 23.5454C29.6242 22.0446 29.2408 21.0148 28.4849 20.4232C27.7289 19.8426 26.6225 19.5468 25.1764 19.5468C24.289 19.5468 23.4564 19.6125 22.6895 19.7549C21.9117 19.8973 21.1668 20.0726 20.4218 20.3027C19.9398 19.4701 19.6988 18.4622 19.6988 17.301C20.5642 17.0271 21.5064 16.808 22.5471 16.6546C23.5879 16.5012 24.5848 16.4245 25.5489 16.4245C28.0795 16.4245 30.0076 17.0052 31.3332 18.1555C32.6478 19.3058 33.3161 21.1572 33.3161 23.6878V35.892C32.4287 36.0892 31.3551 36.3083 30.0843 36.5164C28.8135 36.7355 27.5208 36.8341 26.2062 36.8341C24.9682 36.8341 23.8398 36.7246 22.8429 36.4945C21.846 36.2644 20.9915 35.9029 20.2904 35.388C19.5892 34.8841 19.0524 34.2377 18.669 33.4489C18.2855 32.6602 18.0993 31.7071 18.0993 30.6006C18.0993 29.516 18.3184 28.552 18.7676 27.7303C19.2058 26.9087 19.8083 26.2185 20.5752 25.6817C21.3311 25.1339 22.2075 24.7286 23.2044 24.4657C24.1904 24.2027 25.2312 24.0603 26.3267 24.0603C27.1374 24.0603 27.8056 24.0822 28.3205 24.1151C28.8354 24.148 29.2736 24.2027 29.6352 24.2466V23.5454H29.6242ZM29.6242 27.2373C29.2408 27.1826 28.7587 27.1387 28.1781 27.084C27.5975 27.0292 27.1045 27.0073 26.6992 27.0073C25.1216 27.0073 23.9275 27.3031 23.1058 27.8837C22.2842 28.4643 21.8679 29.3517 21.8679 30.5458C21.8679 31.3017 22.0103 31.9043 22.2842 32.3315C22.5581 32.7588 22.9086 33.0874 23.3249 33.3175C23.7412 33.5475 24.2014 33.69 24.7163 33.7338C25.2202 33.7886 25.7022 33.8105 26.1623 33.8105C26.743 33.8105 27.3455 33.7776 27.97 33.7119C28.5944 33.6461 29.1422 33.5585 29.6242 33.427V27.2373Z" fill="#E6E6E6"/>
<path d="M37.4242 16.8962C37.6762 16.8414 37.9391 16.8086 38.202 16.7867C38.465 16.7648 38.7389 16.7538 39.0237 16.7538C39.2757 16.7538 39.5386 16.7648 39.8234 16.7867C40.0973 16.8086 40.3712 16.8524 40.6231 16.8962C40.6451 16.951 40.6779 17.1044 40.7217 17.3673C40.7546 17.6302 40.7984 17.9151 40.8313 18.2218C40.8642 18.5286 40.908 18.8134 40.9408 19.0982C40.9737 19.3831 40.9956 19.5583 40.9956 19.635C41.2476 19.2297 41.5543 18.8353 41.9049 18.4519C42.2555 18.0684 42.6827 17.7288 43.1757 17.4221C43.6687 17.1153 44.2274 16.8743 44.8519 16.699C45.4763 16.5237 46.1665 16.4361 46.9224 16.4361C48.0617 16.4361 49.1244 16.6223 50.0994 17.0058C51.0744 17.3892 51.907 17.9698 52.6082 18.7696C53.3093 19.5693 53.8461 20.5881 54.2405 21.8151C54.6349 23.0421 54.8321 24.4991 54.8321 26.1753C54.8321 29.5276 53.9228 32.1459 52.1152 34.0302C50.2966 35.9145 47.7331 36.8676 44.4137 36.8676C43.8549 36.8676 43.2853 36.8347 42.7046 36.758C42.124 36.6814 41.6091 36.5828 41.1819 36.4513V45.3908C40.8751 45.4455 40.5574 45.4784 40.2069 45.5003C39.8672 45.5222 39.5495 45.5332 39.2757 45.5332C39.0018 45.5332 38.6841 45.5222 38.3445 45.5003C38.0049 45.4784 37.6871 45.4346 37.4133 45.3908V16.8962H37.4242ZM41.1928 33.2086C41.6748 33.3838 42.1678 33.5153 42.6718 33.592C43.1757 33.6687 43.833 33.7015 44.6547 33.7015C45.5639 33.7015 46.4075 33.5591 47.1634 33.2633C47.9193 32.9675 48.5766 32.5184 49.1244 31.9158C49.6722 31.3023 50.0994 30.5355 50.4171 29.6152C50.7348 28.695 50.8882 27.5885 50.8882 26.3287C50.8882 24.302 50.5157 22.6915 49.7708 21.4974C49.0258 20.3033 47.7988 19.7117 46.1007 19.7117C45.4653 19.7117 44.8628 19.8213 44.2712 20.0513C43.6906 20.2814 43.1648 20.621 42.7156 21.0811C42.2555 21.5412 41.8939 22.1109 41.6091 22.812C41.3243 23.5132 41.1928 24.3348 41.1928 25.2989V33.2086Z" fill="#E6E6E6"/>
<path d="M59.5209 19.8533H57.045C56.9902 19.6452 56.9574 19.4151 56.9354 19.1522C56.9135 18.8892 56.9026 18.6263 56.9026 18.3744C56.9026 18.1224 56.9135 17.8595 56.9354 17.5965C56.9574 17.3336 57.0012 17.0926 57.045 16.8954H63.2128V36.4066C62.9389 36.4614 62.6212 36.4943 62.2816 36.5162C61.942 36.5381 61.6243 36.5491 61.3504 36.5491C61.0984 36.5491 60.8026 36.5381 60.4521 36.5162C60.1124 36.4943 59.7948 36.4505 59.5209 36.4066V19.8533Z" fill="#E6E6E6"/>
<path d="M71.3087 27.5772C71.3634 29.7025 71.9112 31.2691 72.9629 32.2551C74.0146 33.2411 75.5702 33.7341 77.6189 33.7341C79.4155 33.7341 81.1355 33.4164 82.7569 32.781C82.965 33.1644 83.1293 33.6245 83.2499 34.1723C83.3813 34.72 83.447 35.2568 83.4799 35.7936C82.6473 36.1442 81.7271 36.4181 80.7192 36.5934C79.7223 36.7687 78.6048 36.8563 77.3888 36.8563C75.6141 36.8563 74.0913 36.6043 72.8205 36.1113C71.5497 35.6184 70.5089 34.9172 69.6873 34.0189C68.8657 33.1206 68.2631 32.0579 67.8797 30.82C67.4963 29.593 67.31 28.2455 67.31 26.7665C67.31 25.3204 67.4963 23.973 67.8578 22.7131C68.2193 21.4533 68.789 20.3687 69.5449 19.4375C70.3008 18.5173 71.2648 17.7723 72.4151 17.2355C73.5654 16.6877 74.9348 16.4139 76.5014 16.4139C77.8489 16.4139 79.0211 16.6439 80.04 17.104C81.0588 17.5642 81.9024 18.1886 82.5925 18.9883C83.2718 19.7881 83.7976 20.7412 84.1482 21.8367C84.4987 22.9432 84.685 24.1373 84.685 25.43C84.685 25.7806 84.674 26.164 84.6412 26.5474C84.6192 26.9418 84.5864 27.2814 84.5645 27.5553H71.3087V27.5772ZM80.9712 24.7617C80.9712 24.0496 80.8726 23.3704 80.6863 22.7241C80.5001 22.0777 80.2153 21.519 79.8537 21.037C79.4813 20.5549 79.0211 20.1715 78.4515 19.8757C77.8818 19.5799 77.2026 19.4375 76.4138 19.4375C74.8691 19.4375 73.686 19.9086 72.8533 20.8398C72.0317 21.7819 71.5278 23.0856 71.3525 24.7617H80.9712Z" fill="#E6E6E6"/>
<path d="M88.848 16.8954C89.1219 16.8406 89.3958 16.8078 89.6478 16.7858C89.8997 16.7639 90.1627 16.753 90.4475 16.753C90.7214 16.753 91.0062 16.7639 91.2801 16.7858C91.554 16.8078 91.8169 16.8516 92.036 16.8954C92.1127 17.2788 92.1894 17.7718 92.2661 18.3963C92.3428 19.0207 92.3756 19.5466 92.3756 19.9738C92.9124 19.1084 93.6136 18.3634 94.49 17.728C95.3664 17.0926 96.4838 16.7749 97.8532 16.7749C98.0614 16.7749 98.2695 16.7858 98.4777 16.7968C98.6968 16.8078 98.8721 16.8297 99.0254 16.8516C99.0802 17.0816 99.1131 17.3227 99.135 17.5746C99.1569 17.8266 99.1679 18.0895 99.1679 18.3744C99.1679 18.6811 99.1459 18.9988 99.1131 19.3275C99.0802 19.6561 99.0254 19.9738 98.9816 20.2806C98.7735 20.2258 98.5653 20.2039 98.3572 20.2039C98.1381 20.2039 97.9737 20.2039 97.8423 20.2039C97.163 20.2039 96.5057 20.3025 95.8813 20.4887C95.2568 20.675 94.6981 21.0146 94.2051 21.4966C93.7122 21.9786 93.3178 22.6359 93.022 23.4795C92.7262 24.3121 92.5838 25.3967 92.5838 26.7113V36.4067C92.3099 36.4614 91.9922 36.4943 91.6526 36.5162C91.313 36.5381 90.9953 36.5491 90.7214 36.5491C90.4475 36.5491 90.1298 36.5381 89.7902 36.5162C89.4506 36.4943 89.1219 36.4505 88.8152 36.4067V16.8954H88.848Z" fill="#E6E6E6"/>
<path d="M66.795 5.41476H63.114L65.7214 2.80741C65.5132 2.52258 65.2832 2.2487 65.0422 1.99673C64.7902 1.74476 64.5273 1.5147 64.2315 1.3175L61.6241 3.92485V0.243892C61.2845 0.189116 60.9339 0.15625 60.5724 0.15625H60.5615C60.1999 0.15625 59.8494 0.189116 59.5098 0.243892V3.92485L56.9024 1.3175C56.6176 1.52565 56.3437 1.75571 56.0917 1.99673C55.8398 2.2487 55.6207 2.51162 55.4125 2.80741L58.0308 5.41476H54.3499C54.3499 5.41476 54.2622 6.10493 54.2622 6.46646C54.2622 6.82798 54.2951 7.17855 54.3499 7.51816H58.0308L55.4235 10.1255C55.8288 10.6952 56.3328 11.1991 56.9134 11.6154L59.5207 9.00807V12.689C59.8603 12.7438 60.2109 12.7767 60.5724 12.7767H60.5834C60.9449 12.7767 61.2955 12.7438 61.6351 12.689V9.00807L64.2424 11.6154C64.5273 11.4073 64.8011 11.1772 65.0531 10.9362C65.3051 10.6842 65.5351 10.4213 65.7323 10.1255L63.125 7.51816H66.8059C66.8607 7.17855 66.8936 6.82798 66.8936 6.46646V6.4555C66.8826 6.10493 66.8607 5.75437 66.795 5.41476ZM62.15 6.47741C62.15 6.94849 62.0623 7.39765 61.909 7.81395C61.4927 7.96732 61.0435 8.05496 60.5724 8.05496C60.1013 8.05496 59.6522 7.96732 59.2359 7.81395C59.0825 7.39765 58.9949 6.94849 58.9949 6.47741V6.46646C58.9949 5.99538 59.0825 5.54622 59.2359 5.12992C59.6522 4.97655 60.1013 4.88891 60.5724 4.88891C61.0435 4.88891 61.4927 4.97655 61.909 5.12992C62.0623 5.54622 62.15 5.99538 62.15 6.47741Z" fill="#E6E6E6"/>
</svg>
