<svg width="50" height="50" viewBox="0 0 50 50" fill="none" xmlns="http://www.w3.org/2000/svg">
<path d="M35.4167 25C35.4167 28.5417 32.7084 31.25 29.1667 31.25C25.6251 31.25 22.9167 28.5417 22.9167 25C22.9167 21.4583 25.6251 18.75 29.1667 18.75C32.7084 18.75 35.4167 21.4583 35.4167 25ZM45.8334 14.5833V37.5C45.8334 39.7917 43.9584 41.6667 41.6668 41.6667H8.33342C6.04175 41.6667 4.16675 39.7917 4.16675 37.5V14.5833C4.16675 12.2917 6.04175 10.4167 8.33342 10.4167V8.33333H16.6667V10.4167H20.8334L22.9167 6.25H35.4167L37.5001 10.4167H41.6668C43.9584 10.4167 45.8334 12.2917 45.8334 14.5833ZM15.6251 18.75C15.6251 17.0833 14.1667 15.625 12.5001 15.625C10.8334 15.625 9.37508 17.0833 9.37508 18.75C9.37508 20.4167 10.8334 21.875 12.5001 21.875C14.1667 21.875 15.6251 20.4167 15.6251 18.75ZM39.5834 25C39.5834 19.1667 35.0001 14.5833 29.1667 14.5833C23.3334 14.5833 18.7501 19.1667 18.7501 25C18.7501 30.8333 23.3334 35.4167 29.1667 35.4167C35.0001 35.4167 39.5834 30.8333 39.5834 25Z" fill="url(#paint0_linear_1256_12547)"/>
<defs>
<linearGradient id="paint0_linear_1256_12547" x1="4.16675" y1="6.25" x2="46.9361" y2="7.63584" gradientUnits="userSpaceOnUse">
<stop offset="0.0052" stop-color="#43BAFF"/>
<stop offset="1" stop-color="#7044B3"/>
</linearGradient>
</defs>
</svg>
