<svg width="50" height="50" viewBox="0 0 50 50" fill="none" xmlns="http://www.w3.org/2000/svg">
<g clip-path="url(#clip0_1261_13116)">
<path d="M12.2 5.55312C15.5563 4.02812 20.0844 3.125 25 3.125C29.9156 3.125 34.4437 4.02812 37.8 5.55312C41.0156 7.01562 43.75 9.35313 43.75 12.5C43.75 15.6469 41.0156 17.9844 37.8 19.4469C34.4437 20.9719 29.9156 21.875 25 21.875C20.0844 21.875 15.5563 20.9719 12.2 19.4469C8.98438 17.9844 6.25 15.6469 6.25 12.5C6.25 9.35313 8.98438 7.01562 12.2 5.55312Z" fill="url(#paint0_linear_1261_13116)"/>
<path d="M6.25 19.2539V21.8758C6.25 25.0227 8.98438 27.3602 12.2 28.8227C15.5563 30.3445 20.0844 31.2508 25 31.2508C29.9156 31.2508 34.4437 30.3477 37.8 28.8227C41.0156 27.3602 43.75 25.0227 43.75 21.8758V19.2539C42.3219 20.6039 40.6125 21.6008 39.0938 22.2914C35.2438 24.0414 30.2563 25.0008 25 25.0008C19.7437 25.0008 14.7563 24.0414 10.9062 22.2914C9.3875 21.6039 7.67812 20.6039 6.25 19.2539Z" fill="url(#paint1_linear_1261_13116)"/>
<path d="M6.25 28.6289V31.2508C6.25 34.3977 8.98438 36.7352 12.2 38.1977C15.5563 39.7227 20.0844 40.6258 25 40.6258C29.9156 40.6258 34.4437 39.7227 37.8 38.1977C41.0156 36.7352 43.75 34.3977 43.75 31.2508V28.6289C42.3219 29.9789 40.6125 30.9758 39.0938 31.6664C35.2438 33.4164 30.2563 34.3758 25 34.3758C19.7437 34.3758 14.7563 33.4164 10.9062 31.6664C9.3875 30.9789 7.67812 29.9789 6.25 28.6289Z" fill="url(#paint2_linear_1261_13116)"/>
<path d="M6.25 38.0039V40.6258C6.25 43.7727 8.98438 46.1102 12.2 47.5727C15.5563 49.0977 20.0844 50.0008 25 50.0008C29.9156 50.0008 34.4437 49.0977 37.8 47.5727C41.0156 46.1102 43.75 43.7727 43.75 40.6258V38.0039C42.3219 39.3539 40.6125 40.3508 39.0938 41.0414C35.2438 42.7914 30.2563 43.7508 25 43.7508C19.7437 43.7508 14.7563 42.7914 10.9062 41.0414C9.3875 40.3539 7.67812 39.3539 6.25 38.0039Z" fill="url(#paint3_linear_1261_13116)"/>
</g>
<defs>
<linearGradient id="paint0_linear_1261_13116" x1="6.25" y1="3.125" x2="44.6663" y2="5.24114" gradientUnits="userSpaceOnUse">
<stop offset="0.0052" stop-color="#43BAFF"/>
<stop offset="1" stop-color="#7044B3"/>
</linearGradient>
<linearGradient id="paint1_linear_1261_13116" x1="6.25" y1="19.2539" x2="44.4993" y2="22.5469" gradientUnits="userSpaceOnUse">
<stop offset="0.0052" stop-color="#43BAFF"/>
<stop offset="1" stop-color="#7044B3"/>
</linearGradient>
<linearGradient id="paint2_linear_1261_13116" x1="6.25" y1="28.6289" x2="44.4993" y2="31.9219" gradientUnits="userSpaceOnUse">
<stop offset="0.0052" stop-color="#43BAFF"/>
<stop offset="1" stop-color="#7044B3"/>
</linearGradient>
<linearGradient id="paint3_linear_1261_13116" x1="6.25" y1="38.0039" x2="44.4993" y2="41.2969" gradientUnits="userSpaceOnUse">
<stop offset="0.0052" stop-color="#43BAFF"/>
<stop offset="1" stop-color="#7044B3"/>
</linearGradient>
<clipPath id="clip0_1261_13116">
<rect width="50" height="50" fill="white"/>
</clipPath>
</defs>
</svg>
