<svg width="50" height="50" viewBox="0 0 50 50" fill="none" xmlns="http://www.w3.org/2000/svg">
<path d="M42.1875 7.8125H7.8125C6.9837 7.8125 6.18884 8.14174 5.60279 8.72779C5.01674 9.31384 4.6875 10.1087 4.6875 10.9375V39.0625C4.6875 39.8913 5.01674 40.6862 5.60279 41.2722C6.18884 41.8583 6.9837 42.1875 7.8125 42.1875H42.1875C43.0163 42.1875 43.8112 41.8583 44.3972 41.2722C44.9833 40.6862 45.3125 39.8913 45.3125 39.0625V10.9375C45.3125 10.1087 44.9833 9.31384 44.3972 8.72779C43.8112 8.14174 43.0163 7.8125 42.1875 7.8125ZM30.4688 17.1875C30.9323 17.1875 31.3854 17.325 31.7709 17.5825C32.1563 17.84 32.4567 18.2061 32.6341 18.6343C32.8115 19.0626 32.8579 19.5339 32.7675 19.9885C32.677 20.4431 32.4538 20.8608 32.126 21.1885C31.7983 21.5163 31.3806 21.7395 30.926 21.83C30.4713 21.9204 30.0001 21.874 29.5718 21.6966C29.1436 21.5192 28.7775 21.2188 28.52 20.8334C28.2625 20.4479 28.125 19.9948 28.125 19.5312C28.125 18.9096 28.3719 18.3135 28.8115 17.874C29.251 17.4344 29.8471 17.1875 30.4688 17.1875ZM42.1875 39.0625H7.8125V31.3848L16.8633 22.332C17.0084 22.1868 17.1807 22.0715 17.3704 21.9929C17.5601 21.9142 17.7634 21.8738 17.9688 21.8738C18.1741 21.8738 18.3774 21.9142 18.5671 21.9929C18.7568 22.0715 18.9291 22.1868 19.0742 22.332L32.2266 35.4805C32.5198 35.7737 32.9174 35.9384 33.332 35.9384C33.7467 35.9384 34.1443 35.7737 34.4375 35.4805C34.7307 35.1873 34.8954 34.7896 34.8954 34.375C34.8954 33.9604 34.7307 33.5627 34.4375 33.2695L30.9883 29.8223L33.7891 27.0195C34.0821 26.7267 34.4793 26.5622 34.8936 26.5622C35.3078 26.5622 35.705 26.7267 35.998 27.0195L42.1875 33.2168V39.0625Z" fill="url(#paint0_linear_1256_12552)"/>
<defs>
<linearGradient id="paint0_linear_1256_12552" x1="4.6875" y1="7.8125" x2="46.3872" y2="9.16982" gradientUnits="userSpaceOnUse">
<stop offset="0.0052" stop-color="#43BAFF"/>
<stop offset="1" stop-color="#7044B3"/>
</linearGradient>
</defs>
</svg>
