<svg width="50" height="50" viewBox="0 0 50 50" fill="none" xmlns="http://www.w3.org/2000/svg">
<path d="M27.0835 18.7493H38.5418L27.0835 7.29102V18.7493ZM12.5002 4.16602H29.1668L41.6668 16.666V41.666C41.6668 42.7711 41.2278 43.8309 40.4464 44.6123C39.665 45.3937 38.6052 45.8327 37.5002 45.8327H12.5002C11.3951 45.8327 10.3353 45.3937 9.55388 44.6123C8.77248 43.8309 8.3335 42.7711 8.3335 41.666V8.33268C8.3335 6.02018 10.1877 4.16602 12.5002 4.16602ZM14.5835 41.666H18.7502V29.166H14.5835V41.666ZM22.9168 41.666H27.0835V24.9994H22.9168V41.666ZM31.2502 41.666H35.4168V33.3327H31.2502V41.666Z" fill="url(#paint0_linear_1261_13120)"/>
<defs>
<linearGradient id="paint0_linear_1261_13120" x1="8.3335" y1="4.16602" x2="42.5683" y2="4.92034" gradientUnits="userSpaceOnUse">
<stop offset="0.0052" stop-color="#43BAFF"/>
<stop offset="1" stop-color="#7044B3"/>
</linearGradient>
</defs>
</svg>
