<svg width="1440" height="928" viewBox="0 0 1440 928" fill="none" xmlns="http://www.w3.org/2000/svg">
<path opacity="0.0144928" d="M1587.23 1469.65C1596.29 1474.45 1607.43 1472.69 1614.55 1465.32L1840.88 1231.24C1845.1 1226.88 1847.42 1221.04 1847.35 1214.97L1841.73 748.908C1841.67 744.142 1840.14 739.51 1837.33 735.655L1597.18 405.549C1592.1 398.559 1583.53 395.01 1574.99 396.362L1294.54 440.781C1286 442.134 1278.94 448.158 1276.26 456.377L1149.88 844.537C1148.41 849.07 1148.37 853.949 1149.79 858.501L1288.47 1303.49C1290.28 1309.28 1294.29 1314.12 1299.64 1316.96L1587.23 1469.65Z" stroke="url(#paint0_linear_74_6907)" stroke-width="4"/>
<path opacity="0.0289855" d="M1536.08 1468.16C1544.86 1473.4 1556.04 1472.23 1563.53 1465.27L1800.45 1245.33C1804.9 1241.2 1807.53 1235.47 1807.78 1229.41L1826.61 767.975C1826.8 763.198 1825.5 758.478 1822.89 754.473L1601.81 415.496C1597.09 408.265 1588.73 404.284 1580.14 405.186L1299.43 434.69C1290.84 435.593 1283.49 441.227 1280.38 449.28L1134.6 826.815C1132.88 831.276 1132.59 836.162 1133.78 840.795L1248.13 1288.23C1249.64 1294.11 1253.4 1299.16 1258.61 1302.27L1536.08 1468.16Z" stroke="url(#paint1_linear_74_6907)" stroke-width="4"/>
<path opacity="0.0434783" d="M1485.32 1465.12C1493.8 1470.78 1504.99 1470.2 1512.83 1463.67L1759.47 1258.32C1764.14 1254.43 1767.09 1248.85 1767.65 1242.8L1810.43 787.271C1810.88 782.496 1809.82 777.7 1807.41 773.554L1605.66 426.788C1601.32 419.336 1593.18 414.934 1584.58 415.386L1304.39 430.069C1295.78 430.521 1288.15 435.749 1284.61 443.613L1120.21 809.569C1118.25 813.944 1117.7 818.824 1118.65 823.526L1208.8 1272.09C1210 1278.05 1213.51 1283.29 1218.56 1286.67L1485.32 1465.12Z" stroke="url(#paint2_linear_74_6907)" stroke-width="4"/>
<path opacity="0.057971" d="M1435.04 1460.56C1443.2 1466.64 1454.37 1466.64 1462.52 1460.56L1718.02 1270.22C1722.91 1266.58 1726.15 1261.15 1727.04 1255.13L1793.19 806.736C1793.89 801.977 1793.09 797.117 1790.88 792.841L1608.67 439.37C1604.72 431.717 1596.83 426.908 1588.22 426.908L1309.34 426.908C1300.73 426.908 1292.84 431.717 1288.9 439.37L1106.68 792.841C1104.48 797.117 1103.67 801.977 1104.37 806.736L1170.53 1255.13C1171.42 1261.15 1174.66 1266.58 1179.54 1270.22L1435.04 1460.56Z" stroke="url(#paint3_linear_74_6907)" stroke-width="4"/>
<path opacity="0.0724638" d="M1385.32 1454.53C1393.13 1461 1404.25 1461.58 1412.7 1455.97L1676.16 1280.99C1681.24 1277.62 1684.77 1272.36 1685.98 1266.38L1774.89 826.312C1775.85 821.582 1775.29 816.67 1773.3 812.274L1610.77 453.183C1607.22 445.35 1599.6 440.149 1591.02 439.699L1314.2 425.192C1305.62 424.742 1297.5 429.118 1293.15 436.538L1093.97 776.672C1091.54 780.836 1090.47 785.663 1090.92 790.467L1133.35 1237.42C1133.92 1243.49 1136.89 1249.09 1141.58 1252.97L1385.32 1454.53Z" stroke="url(#paint4_linear_74_6907)" stroke-width="4"/>
<path opacity="0.0869565" d="M1336.22 1447.08C1343.67 1453.91 1354.72 1455.07 1363.43 1449.94L1633.95 1290.63C1639.22 1287.53 1643.03 1282.47 1644.55 1276.55L1755.53 845.942C1756.73 841.253 1756.43 836.303 1754.66 831.796L1611.9 468.169C1608.76 460.177 1601.43 454.598 1592.9 453.7L1318.9 424.902C1310.36 424.004 1302.03 427.938 1297.3 435.103L1082.05 761.102C1079.39 765.143 1078.06 769.922 1078.27 774.759L1097.29 1219.03C1097.55 1225.13 1100.22 1230.88 1104.73 1235.01L1336.22 1447.08Z" stroke="url(#paint5_linear_74_6907)" stroke-width="4"/>
<path opacity="0.101449" d="M1287.83 1438.24C1294.9 1445.42 1305.83 1447.15 1314.78 1442.51L1591.46 1299.13C1596.89 1296.31 1600.98 1291.45 1602.81 1285.62L1735.1 865.564C1736.56 860.931 1736.52 855.955 1734.97 851.349L1612.01 484.259C1609.29 476.13 1602.27 470.189 1593.8 468.848L1323.35 426.013C1314.88 424.671 1306.37 428.152 1301.26 435.042L1070.88 746.167C1067.99 750.071 1066.41 754.789 1066.37 759.646L1062.38 1200.02C1062.32 1206.14 1064.71 1212.03 1069 1216.38L1287.83 1438.24Z" stroke="url(#paint6_linear_74_6907)" stroke-width="4"/>
<path opacity="0.115942" d="M1240.2 1428.08C1246.89 1435.59 1257.68 1437.88 1266.84 1433.74L1548.74 1306.48C1554.33 1303.96 1558.67 1299.32 1560.82 1293.58L1713.63 885.123C1715.34 880.559 1715.55 875.57 1714.24 870.877L1611.04 501.391C1608.74 493.145 1602.05 486.86 1593.67 485.08L1327.48 428.499C1319.11 426.719 1310.44 429.738 1304.98 436.334L1060.42 731.903C1057.31 735.658 1055.48 740.302 1055.18 745.166L1028.65 1180.46C1028.28 1186.58 1030.36 1192.59 1034.43 1197.17L1240.2 1428.08Z" stroke="url(#paint7_linear_74_6907)" stroke-width="4"/>
<path opacity="0.130435" d="M1193.42 1416.65C1199.7 1424.46 1210.32 1427.3 1219.66 1423.68L1505.87 1312.7C1511.59 1310.48 1516.19 1306.06 1518.64 1300.44L1691.12 904.561C1693.07 900.079 1693.55 895.091 1692.47 890.321L1608.96 519.492C1607.08 511.152 1600.73 504.542 1592.47 502.329L1331.23 432.33C1322.97 430.117 1314.17 432.668 1308.37 438.951L1050.63 718.341C1047.32 721.935 1045.23 726.491 1044.68 731.349L996.12 1160.43C995.43 1166.53 997.205 1172.65 1001.05 1177.43L1193.42 1416.65Z" stroke="url(#paint8_linear_74_6907)" stroke-width="4"/>
<path opacity="0.144928" d="M1147.54 1404C1153.4 1412.09 1163.81 1415.47 1173.31 1412.37L1462.89 1317.76C1468.74 1315.85 1473.57 1311.69 1476.32 1306.19L1667.58 923.824C1669.78 919.436 1670.51 914.462 1669.68 909.627L1605.7 538.493C1604.25 530.081 1598.26 523.163 1590.14 520.526L1334.52 437.47C1326.41 434.833 1317.49 436.908 1311.38 442.861L1041.47 705.511C1037.95 708.932 1035.63 713.388 1034.82 718.228L964.805 1139.99C963.799 1146.05 965.261 1152.27 968.866 1157.24L1147.54 1404Z" stroke="url(#paint9_linear_74_6907)" stroke-width="4"/>
<path opacity="0.15942" d="M1102.61 1390.2C1108.04 1398.55 1118.22 1402.46 1127.84 1399.88L1419.89 1321.69C1425.83 1320.1 1430.89 1316.19 1433.93 1310.84L1643.03 942.855C1645.47 938.575 1646.46 933.628 1645.87 928.741L1601.24 558.32C1600.22 549.858 1594.6 542.653 1586.65 539.599L1337.29 443.882C1329.34 440.828 1320.34 442.424 1313.92 448.03L1032.89 693.441C1029.19 696.679 1026.62 701.021 1025.56 705.829L934.721 1119.21C933.399 1125.22 934.544 1131.51 937.898 1136.68L1102.61 1390.2Z" stroke="url(#paint10_linear_74_6907)" stroke-width="4"/>
<path opacity="0.173913" d="M1058.69 1375.31C1063.68 1383.9 1073.61 1388.32 1083.32 1386.27L1376.9 1324.5C1382.94 1323.23 1388.21 1319.59 1391.53 1314.4L1617.5 961.602C1620.16 957.442 1621.42 952.535 1621.08 947.607L1595.54 578.897C1594.95 570.407 1589.72 562.936 1581.95 559.475L1339.48 451.523C1331.71 448.062 1322.66 449.176 1315.95 454.42L1024.86 682.155C1020.97 685.199 1018.16 689.414 1016.85 694.177L905.875 1098.17C904.242 1104.11 905.065 1110.47 908.159 1115.8L1058.69 1375.31Z" stroke="url(#paint11_linear_74_6907)" stroke-width="4"/>
<path opacity="0.188406" d="M1015.84 1359.4C1020.36 1368.2 1030.02 1373.12 1039.8 1371.61L1334 1326.19C1340.11 1325.25 1345.57 1321.89 1349.18 1316.87L1590.99 980.012C1593.88 975.985 1595.4 971.132 1595.3 966.176L1588.56 600.15C1588.4 591.655 1583.57 583.939 1576 580.081L1341.02 460.351C1333.45 456.493 1324.37 457.124 1317.4 461.99L1017.32 671.677C1013.25 674.516 1010.22 678.592 1008.66 683.298L878.27 1076.93C876.328 1082.79 876.825 1089.19 879.651 1094.68L1015.84 1359.4Z" stroke="url(#paint12_linear_74_6907)" stroke-width="4"/>
<path opacity="0.202899" d="M974.089 1342.54C978.154 1351.52 987.499 1356.92 997.317 1355.95L1291.25 1326.78C1297.4 1326.17 1303.05 1323.1 1306.92 1318.27L1563.55 998.035C1566.66 994.152 1568.43 989.366 1568.59 984.394L1580.29 622C1580.56 613.522 1576.14 605.581 1568.8 601.34L1341.86 470.314C1334.51 466.073 1325.43 466.22 1318.22 470.696L1010.23 662.024C1006 664.65 1002.74 668.574 1000.93 673.209L851.912 1055.57C849.665 1061.34 849.836 1067.76 852.385 1073.4L974.089 1342.54Z" stroke="url(#paint13_linear_74_6907)" stroke-width="4"/>
<path opacity="0.217391" d="M933.487 1324.79C937.081 1333.94 946.097 1339.8 955.921 1339.36L1248.69 1326.29C1254.88 1326.01 1260.7 1323.25 1264.82 1318.62L1535.19 1015.62C1538.51 1011.9 1540.53 1007.19 1540.95 1002.21L1570.69 644.37C1571.39 635.93 1567.4 627.787 1560.3 623.175L1341.93 481.366C1334.83 476.754 1325.77 476.417 1318.34 480.491L1003.54 653.216C999.158 655.617 995.681 659.378 993.63 663.931L826.792 1034.16C824.245 1039.81 824.087 1046.25 826.353 1052.02L933.487 1324.79Z" stroke="url(#paint14_linear_74_6907)" stroke-width="4"/>
<path opacity="0.231884" d="M894.071 1306.24C897.189 1315.53 905.853 1321.83 915.653 1321.92L1206.39 1324.73C1212.59 1324.79 1218.56 1322.34 1222.94 1317.94L1505.94 1032.73C1509.47 1029.17 1511.74 1024.55 1512.41 1019.59L1559.77 667.181C1560.89 658.801 1557.33 650.48 1550.49 645.51L1341.2 493.453C1334.36 488.483 1325.35 487.667 1317.72 491.327L997.199 645.266C992.682 647.435 988.996 651.021 986.704 655.477L802.905 1012.77C800.065 1018.29 799.578 1024.72 801.553 1030.61L894.071 1306.24Z" stroke="url(#paint15_linear_74_6907)" stroke-width="4"/>
<path opacity="0.246377" d="M855.871 1286.96C858.508 1296.36 866.798 1303.07 876.545 1303.7L1164.39 1322.15C1170.6 1322.55 1176.7 1320.41 1181.31 1316.24L1475.84 1049.3C1479.57 1045.92 1482.09 1041.42 1483.01 1036.47L1547.49 690.352C1549.03 682.055 1545.91 673.577 1539.35 668.266L1339.61 506.518C1333.05 501.207 1324.11 499.915 1316.31 503.152L991.167 638.185C986.522 640.114 982.637 643.514 980.107 647.862L780.24 991.459C777.113 996.835 776.296 1003.25 777.976 1009.24L855.871 1286.96Z" stroke="url(#paint16_linear_74_6907)" stroke-width="4"/>
<path opacity="0.26087" d="M818.919 1267.01C821.072 1276.5 828.967 1283.61 838.632 1284.76L1122.76 1318.55C1128.94 1319.29 1135.16 1317.48 1140 1313.55L1444.93 1065.3C1448.85 1062.12 1451.6 1057.73 1452.78 1052.82L1533.86 713.807C1535.82 705.613 1533.14 697.003 1526.88 691.365L1337.12 520.506C1330.86 514.869 1322.02 513.106 1314.07 515.911L985.395 631.984C980.634 633.666 976.558 636.867 973.797 641.095L758.784 970.307C755.377 975.523 754.232 981.898 755.61 987.973L818.919 1267.01Z" stroke="url(#paint17_linear_74_6907)" stroke-width="4"/>
<path opacity="0.275362" d="M783.235 1246.48C784.903 1256.04 792.384 1263.52 801.939 1265.18L1081.53 1313.98C1087.68 1315.05 1094 1313.58 1099.04 1309.9L1413.24 1080.7C1417.33 1077.71 1420.33 1073.45 1421.75 1068.59L1518.87 737.465C1521.24 729.395 1519.01 720.676 1513.06 714.729L1333.69 535.357C1327.74 529.41 1319.03 527.183 1310.95 529.55L979.832 626.668C974.968 628.095 970.711 631.088 967.724 635.183L738.516 949.376C734.838 954.418 733.366 960.737 734.439 966.885L783.235 1246.48Z" stroke="url(#paint18_linear_74_6907)" stroke-width="4"/>
<path opacity="0.289855" d="M748.839 1225.45C750.02 1235.04 757.071 1242.87 766.486 1245.04L1040.77 1308.46C1046.86 1309.87 1053.26 1308.74 1058.5 1305.33L1380.8 1095.44C1385.07 1092.66 1388.29 1088.55 1389.97 1083.74L1502.52 761.249C1505.29 753.323 1503.52 744.519 1497.9 738.28L1329.28 551.01C1323.66 544.771 1315.09 542.088 1306.92 544.011L974.429 622.242C969.475 623.407 965.048 626.183 961.84 630.134L719.413 928.731C715.472 933.584 713.678 939.833 714.441 946.038L748.839 1225.45Z" stroke="url(#paint19_linear_74_6907)" stroke-width="4"/>
<path opacity="0.304348" d="M715.746 1203.98C716.441 1213.59 723.044 1221.74 732.293 1224.42L1000.5 1302.03C1006.52 1303.77 1012.99 1302.98 1018.41 1299.85L1347.67 1109.49C1352.09 1106.94 1355.54 1102.98 1357.46 1098.25L1484.83 785.082C1487.98 777.32 1486.67 768.455 1481.4 761.942L1323.86 567.403C1318.59 560.891 1310.19 557.762 1301.94 559.236L969.138 618.707C964.108 619.606 959.521 622.154 956.1 625.949L701.451 908.436C697.257 913.088 695.142 919.249 695.594 925.496L715.746 1203.98Z" stroke="url(#paint20_linear_74_6907)" stroke-width="4"/>
<path opacity="0.318841" d="M683.966 1182.17C684.177 1191.76 690.317 1200.21 699.373 1203.37L960.787 1294.72C966.711 1296.79 973.223 1296.35 978.814 1293.5L1313.88 1122.83C1318.45 1120.5 1322.11 1116.71 1324.28 1112.06L1465.79 808.885C1469.33 801.306 1468.47 792.405 1463.56 785.638L1317.4 584.472C1312.48 577.706 1304.28 574.142 1295.98 575.164L963.912 616.062C958.821 616.689 954.085 619 950.458 622.628L684.6 888.551C680.164 892.988 677.733 899.045 677.871 905.318L683.966 1182.17Z" stroke="url(#paint21_linear_74_6907)" stroke-width="4"/>
<path opacity="0.333333" d="M653.505 1160.07C653.236 1169.63 658.901 1178.35 667.737 1181.99L921.659 1286.57C927.472 1288.97 934.011 1288.88 939.756 1286.33L1279.47 1135.41C1284.18 1133.32 1288.05 1129.71 1290.46 1125.16L1445.43 832.585C1449.34 825.208 1448.94 816.293 1444.39 809.293L1309.88 602.153C1305.33 595.152 1297.35 591.164 1289.02 591.733L958.706 614.301C953.567 614.652 948.694 616.719 944.869 620.168L668.83 869.136C664.162 873.346 661.42 879.283 661.243 885.567L653.505 1160.07Z" stroke="url(#paint22_linear_74_6907)" stroke-width="4"/>
<path opacity="0.347826" d="M624.363 1137.78C623.618 1147.27 628.796 1156.24 637.386 1160.34L883.155 1277.63C888.839 1280.34 895.387 1280.6 901.27 1278.36L1244.5 1147.22C1249.33 1145.37 1253.4 1141.95 1256.05 1137.51L1423.76 856.106C1428.02 848.95 1428.09 840.046 1423.92 832.831L1301.26 620.38C1297.1 613.165 1289.36 608.767 1281.03 608.882L953.469 613.42C948.296 613.492 943.299 615.305 939.285 618.566L654.101 850.247C649.213 854.218 646.167 860.02 645.674 866.299L624.363 1137.78Z" stroke="url(#paint23_linear_74_6907)" stroke-width="4"/>
<path opacity="0.362319" d="M596.537 1115.37C595.322 1124.78 600.002 1133.96 608.323 1138.5L845.313 1267.93C850.85 1270.95 857.387 1271.57 863.393 1269.63L1209.01 1158.22C1213.96 1156.63 1218.21 1153.41 1221.1 1149.08L1400.81 879.379C1405.42 872.46 1405.93 863.591 1402.16 856.183L1291.54 639.089C1287.77 631.681 1280.29 626.887 1271.98 626.55L948.156 613.41C942.965 613.2 937.856 614.752 933.661 617.815L640.378 831.941C635.282 835.662 631.938 841.313 631.13 847.57L596.537 1115.37Z" stroke="url(#paint24_linear_74_6907)" stroke-width="4"/>
<path opacity="0.376812" d="M570.02 1092.91C568.342 1102.2 572.516 1111.58 580.544 1116.55L808.164 1257.51C813.539 1260.84 820.047 1261.81 826.158 1260.2L1173.05 1168.39C1178.09 1167.06 1182.53 1164.05 1185.64 1159.86L1376.6 902.329C1381.54 895.665 1382.51 886.855 1379.13 879.275L1280.71 658.211C1277.33 650.631 1270.14 645.457 1261.88 644.67L942.722 614.258C937.529 613.763 932.321 615.049 927.954 617.904L627.618 814.267C622.327 817.726 618.693 823.211 617.57 829.432L570.02 1092.91Z" stroke="url(#paint25_linear_74_6907)" stroke-width="4"/>
<path opacity="0.391304" d="M544.798 1070.48C542.667 1079.64 546.327 1089.17 554.04 1094.55L771.74 1246.43C776.935 1250.06 783.394 1251.38 789.595 1250.09L1136.66 1177.72C1141.79 1176.65 1146.4 1173.86 1149.73 1169.81L1351.16 924.893C1356.42 918.498 1357.84 909.77 1354.87 902.041L1268.75 677.682C1265.78 669.952 1258.89 664.414 1250.7 663.181L937.123 615.952C931.941 615.172 926.648 616.184 922.121 618.822L615.777 797.276C610.304 800.464 606.388 805.768 604.952 811.937L544.798 1070.48Z" stroke="url(#paint26_linear_74_6907)" stroke-width="4"/>
<path opacity="0.405797" d="M520.858 1048.14C518.282 1057.15 521.423 1066.81 528.799 1072.58L736.068 1234.73C741.066 1238.64 747.458 1240.31 753.731 1239.35L1099.9 1186.18C1105.1 1185.38 1109.87 1182.82 1113.42 1178.93L1324.53 947.002C1330.09 940.892 1331.95 932.269 1329.4 924.412L1255.65 697.435C1253.1 689.577 1246.52 683.693 1238.43 682.019L931.315 618.475C926.161 617.409 920.797 618.143 916.118 620.554L604.808 781.013C599.167 783.92 594.978 789.03 593.233 795.131L520.858 1048.14Z" stroke="url(#paint27_linear_74_6907)" stroke-width="4"/>
<path opacity="0.42029" d="M498.18 1025.98C495.17 1034.8 497.788 1044.57 504.807 1050.71L701.173 1222.46C705.96 1226.64 712.266 1228.66 718.594 1228.03L1062.82 1193.76C1068.08 1193.24 1073 1190.92 1076.75 1187.19L1296.75 968.594C1302.6 962.783 1304.89 954.288 1302.76 946.325L1241.42 717.404C1239.28 709.442 1233.05 703.23 1225.08 701.122L925.258 621.811C920.146 620.459 914.725 620.909 909.906 623.086L594.665 765.522C588.87 768.141 584.418 773.041 582.366 779.06L498.18 1025.98Z" stroke="url(#paint28_linear_74_6907)" stroke-width="4"/>
<path opacity="0.434783" d="M476.738 1004.05C473.307 1012.68 475.399 1022.52 482.043 1029.01L667.077 1209.65C671.636 1214.1 677.838 1216.46 684.202 1216.17L1025.46 1200.45C1030.77 1200.21 1035.83 1198.13 1039.78 1194.58L1267.85 989.608C1273.97 984.11 1276.69 975.764 1274.98 967.719L1226.05 737.525C1224.34 729.48 1218.46 722.96 1210.64 720.426L918.909 625.938C913.856 624.301 908.391 624.464 903.444 626.399L585.294 750.844C579.361 753.165 574.656 757.844 572.301 763.764L476.738 1004.05Z" stroke="url(#paint29_linear_74_6907)" stroke-width="4"/>
<path opacity="0.449275" d="M456.507 982.43C452.667 990.838 454.234 1000.73 460.484 1007.54L633.8 1196.37C638.118 1201.07 644.195 1203.77 650.58 1203.82L987.888 1206.24C993.225 1206.28 998.41 1204.46 1002.55 1201.1L1237.89 1009.99C1244.26 1004.81 1247.39 996.638 1246.11 988.533L1209.55 757.732C1208.27 749.627 1202.77 742.82 1195.11 739.869L912.232 630.833C907.251 628.913 901.759 628.785 896.695 630.471L576.645 737.014C570.588 739.031 565.641 743.474 562.989 749.282L456.507 982.43Z" stroke="url(#paint30_linear_74_6907)" stroke-width="4"/>
<path opacity="0.463768" d="M437.454 961.18C433.219 969.349 434.26 979.256 440.101 986.365L601.356 1182.66C605.417 1187.6 611.353 1190.63 617.739 1191.02L950.142 1211.13C955.495 1211.45 960.794 1209.9 965.12 1206.73L1206.91 1029.67C1213.51 1024.84 1217.05 1016.85 1216.19 1008.71L1191.94 777.963C1191.08 769.821 1185.96 762.748 1178.5 759.39L905.184 636.474C900.293 634.274 894.787 633.853 889.618 635.282L568.661 724.068C562.495 725.773 557.318 729.97 554.374 735.649L437.454 961.18Z" stroke="url(#paint31_linear_74_6907)" stroke-width="4"/>
<path opacity="0.478261" d="M419.544 940.364C414.929 948.275 415.448 958.17 420.865 965.556L569.76 1168.57C573.551 1173.74 579.328 1177.09 585.697 1177.82L912.279 1215.11C917.633 1215.72 923.032 1214.43 927.533 1211.47L1174.95 1048.62C1181.77 1044.13 1185.7 1036.36 1185.27 1028.21L1173.21 798.155C1172.79 790 1168.07 782.683 1160.81 778.93L897.732 642.834C892.946 640.358 887.442 639.641 882.181 640.809L561.286 712.035C555.028 713.424 549.634 717.362 546.403 722.899L419.544 940.364Z" stroke="url(#paint32_linear_74_6907)" stroke-width="4"/>
<path opacity="0.492754" d="M402.742 920.04C397.763 927.676 397.763 937.531 402.742 945.167L539.022 1154.15C542.531 1159.53 548.13 1163.2 554.465 1164.27L874.348 1218.18C879.689 1219.08 885.176 1218.07 889.843 1215.32L1142.07 1066.78C1149.09 1062.64 1153.4 1055.11 1153.4 1046.96L1153.4 818.247C1153.4 810.101 1149.09 802.563 1142.07 798.429L889.843 649.886C885.176 647.138 879.689 646.124 874.348 647.025L554.465 700.942C548.13 702.01 542.531 705.678 539.022 711.059L402.742 920.04Z" stroke="url(#paint33_linear_74_6907)" stroke-width="4"/>
<path opacity="0.507246" d="M387.005 900.267C381.678 907.61 381.165 917.398 385.695 925.258L509.149 1139.45C512.364 1145.03 517.769 1149 524.05 1150.41L836.401 1220.35C841.713 1221.54 847.275 1220.81 852.097 1218.28L1108.33 1084.1C1115.53 1080.33 1120.2 1073.04 1120.63 1064.93L1132.51 838.181C1132.94 830.066 1129.05 822.33 1122.29 817.828L881.481 657.6C876.949 654.585 871.495 653.274 866.088 653.902L548.137 690.813C541.742 691.555 535.952 694.943 532.172 700.154L387.005 900.267Z" stroke="url(#paint34_linear_74_6907)" stroke-width="4"/>
<path opacity="0.521739" d="M372.289 881.097C366.632 888.132 365.613 897.825 369.684 905.883L480.146 1124.52C483.056 1130.28 488.249 1134.55 494.46 1136.29L798.488 1221.62C803.756 1223.1 809.378 1222.65 814.346 1220.36L1073.78 1100.55C1081.14 1097.15 1086.17 1090.13 1087.01 1082.07L1110.58 857.898C1111.42 849.838 1107.97 841.927 1101.48 837.074L872.617 665.946C868.235 662.67 862.828 661.062 857.368 661.413L542.243 681.667C535.805 682.08 529.837 685.179 525.795 690.206L372.289 881.097Z" stroke="url(#paint35_linear_74_6907)" stroke-width="4"/>
<path opacity="0.536232" d="M358.546 862.582C352.577 869.294 351.061 878.866 354.664 887.093L452.014 1109.41C454.607 1115.33 459.573 1119.89 465.695 1121.96L760.657 1222C765.865 1223.76 771.535 1223.61 776.637 1221.55L1038.48 1116.09C1045.98 1113.07 1051.34 1106.33 1052.61 1098.35L1087.61 877.342C1088.88 869.359 1085.86 861.298 1079.66 856.109L863.219 674.89C859.002 671.36 853.659 669.457 848.159 669.527L536.722 673.52C530.257 673.602 524.126 676.402 519.83 681.233L358.546 862.582Z" stroke="url(#paint36_linear_74_6907)" stroke-width="4"/>
<path opacity="0.550725" d="M345.731 844.771C339.469 851.146 337.466 860.57 340.594 868.94L424.755 1094.16C427.022 1100.23 431.745 1105.06 437.761 1107.47L722.959 1221.5C728.093 1223.55 733.796 1223.69 739.021 1221.88L1002.5 1130.68C1010.12 1128.04 1015.8 1121.61 1017.47 1113.72L1063.65 896.462C1065.33 888.577 1062.76 880.391 1056.87 874.884L853.265 684.402C849.227 680.624 843.963 678.427 838.438 678.215L531.516 666.386C525.041 666.137 518.762 668.629 514.222 673.251L345.731 844.771Z" stroke="url(#paint37_linear_74_6907)" stroke-width="4"/>
<path opacity="0.565217" d="M333.791 827.706C327.256 833.731 324.777 842.982 327.424 851.467L398.363 1078.83C400.297 1085.03 404.761 1090.13 410.652 1092.85L685.442 1220.13C690.486 1222.47 696.207 1222.9 701.545 1221.34L965.888 1144.29C973.604 1142.04 979.587 1135.93 981.667 1128.16L1038.73 915.203C1040.81 907.439 1038.69 899.152 1033.13 893.346L842.728 694.443C838.883 690.427 833.714 687.939 828.176 687.44L526.562 660.273C520.095 659.69 513.683 661.868 508.909 666.269L333.791 827.706Z" stroke="url(#paint38_linear_74_6907)" stroke-width="4"/>
<path opacity="0.57971" d="M322.673 811.43C315.885 817.094 312.943 826.147 315.106 834.719L372.834 1063.47C374.426 1069.78 378.617 1075.12 384.367 1078.17L648.152 1217.92C653.092 1220.54 658.817 1221.27 664.255 1219.97L928.714 1156.9C936.51 1155.04 942.776 1149.26 945.253 1141.64L1012.87 933.519C1015.35 925.896 1013.68 917.534 1008.47 911.448L831.585 704.98C827.948 700.735 822.889 697.959 817.353 697.173L521.802 655.187C515.359 654.272 508.83 656.128 503.833 660.297L322.673 811.43Z" stroke="url(#paint39_linear_74_6907)" stroke-width="4"/>
<path opacity="0.594203" d="M312.321 795.98C305.299 801.272 301.909 810.104 303.586 818.734L348.156 1048.12C349.4 1054.52 353.304 1060.09 358.896 1063.45L611.134 1214.88C615.954 1217.77 621.668 1218.8 627.195 1217.77L891.04 1168.49C898.895 1167.02 905.426 1161.59 908.29 1154.12L986.123 951.362C988.987 943.902 987.773 935.49 982.917 929.143L819.814 715.976C816.398 711.511 811.464 708.452 805.945 707.377L517.171 651.13C510.769 649.883 504.139 651.413 498.93 655.338L312.321 795.98Z" stroke="url(#paint40_linear_74_6907)" stroke-width="4"/>
<path opacity="0.608696" d="M302.677 781.39C295.443 786.301 291.62 794.888 292.81 803.55L324.32 1032.82C325.21 1039.3 328.814 1045.09 334.23 1048.75L574.432 1211.03C579.117 1214.19 584.805 1215.52 590.409 1214.76L852.932 1179.04C860.826 1177.97 867.602 1172.88 870.842 1165.6L958.514 968.69C961.755 961.412 960.998 952.975 956.514 946.39L807.398 727.395C804.215 722.72 799.422 719.383 793.934 718.019L512.61 648.101C506.266 646.524 499.551 647.722 494.143 651.393L302.677 781.39Z" stroke="url(#paint41_linear_74_6907)" stroke-width="4"/>
<path opacity="0.623188" d="M293.683 767.689C286.259 772.212 282.019 780.533 282.724 789.197L301.311 1017.63C301.842 1024.16 305.133 1030.15 310.358 1034.1L538.088 1206.39C542.624 1209.83 548.271 1211.46 553.939 1210.97L814.453 1188.53C822.366 1187.85 829.367 1183.13 832.973 1176.06L930.088 985.459C933.693 978.383 933.393 969.947 929.293 963.145L794.319 739.196C791.382 734.324 786.745 730.713 781.302 729.06L508.058 646.094C501.789 644.191 495.006 645.051 489.411 648.46L293.683 767.689Z" stroke="url(#paint42_linear_74_6907)" stroke-width="4"/>
<path opacity="0.637681" d="M285.283 754.906C277.69 759.032 273.051 767.067 273.274 775.706L279.115 1002.57C279.284 1009.14 282.251 1015.32 287.269 1019.55L502.146 1201C506.519 1204.69 512.11 1206.62 517.828 1206.41L775.673 1196.96C783.584 1196.67 790.79 1192.33 794.748 1185.47L900.888 1001.63C904.847 994.777 905.001 986.367 901.296 979.371L780.565 751.342C777.887 746.284 773.421 742.407 768.037 740.467L503.46 645.101C497.282 642.874 490.447 643.394 484.677 646.53L285.283 754.906Z" stroke="url(#paint43_linear_74_6907)" stroke-width="4"/>
<path opacity="0.652174" d="M277.412 743.06C269.673 746.786 264.654 754.514 264.398 763.1L257.713 987.708C257.517 994.287 260.149 1000.63 264.943 1005.14L466.643 1194.88C470.837 1198.83 476.358 1201.05 482.115 1201.13L736.654 1204.31C744.544 1204.41 751.933 1200.46 756.231 1193.84L870.958 1017.17C875.256 1010.56 875.861 1002.2 872.562 995.031L766.122 763.793C763.715 758.563 759.433 754.426 754.124 752.199L498.753 645.11C492.683 642.564 485.813 642.741 479.882 645.596L277.412 743.06Z" stroke="url(#paint44_linear_74_6907)" stroke-width="4"/>
<path opacity="0.666667" d="M270.012 732.174C262.147 735.494 256.768 742.897 256.041 751.403L237.083 973.068C236.52 979.642 238.808 986.141 243.365 990.912L431.617 1188.06C435.618 1192.25 441.053 1194.77 446.835 1195.13L697.462 1210.59C705.311 1211.07 712.863 1207.51 717.485 1201.15L840.343 1032.05C844.966 1025.69 846.017 1017.41 843.131 1010.09L750.981 776.511C748.855 771.121 744.773 766.733 739.552 764.223L493.882 646.105C487.935 643.247 481.048 643.079 474.97 645.645L270.012 732.174Z" stroke="url(#paint45_linear_74_6907)" stroke-width="4"/>
<path opacity="0.681159" d="M263.02 722.259C255.052 725.171 249.334 732.232 248.143 740.631L217.204 958.694C216.275 965.241 218.21 971.872 222.514 976.893L397.104 1180.57C400.898 1184.99 406.233 1187.82 412.027 1188.46L658.162 1215.8C665.951 1216.66 673.644 1213.5 678.576 1207.41L809.092 1046.24C814.023 1040.15 815.515 1031.97 813.05 1024.53L735.135 789.454C733.301 783.92 729.433 779.289 724.314 776.497L488.79 648.069C482.984 644.903 476.096 644.389 469.885 646.659L263.02 722.259Z" stroke="url(#paint46_linear_74_6907)" stroke-width="4"/>
<path opacity="0.695652" d="M256.374 713.33C248.326 715.831 242.29 722.534 240.644 730.8L198.052 944.621C196.757 951.122 198.33 957.866 202.368 963.124L363.137 1172.44C366.711 1177.1 371.929 1180.21 377.723 1181.14L618.819 1219.94C626.528 1221.18 634.34 1218.42 639.565 1212.62L777.251 1059.7C782.476 1053.9 784.4 1045.84 782.36 1038.3L718.578 802.585C717.045 796.92 713.405 792.056 708.403 788.987L483.424 650.979C477.774 647.513 470.902 646.653 464.571 648.62L256.374 713.33Z" stroke="url(#paint47_linear_74_6907)" stroke-width="4"/>
<path opacity="0.710145" d="M250.013 705.392C241.906 707.483 235.576 713.813 233.485 721.921L179.6 930.886C177.941 937.321 179.146 944.159 182.905 949.639L329.747 1163.72C333.089 1168.59 338.177 1171.99 343.956 1173.21L579.496 1223.02C587.108 1224.63 595.017 1222.28 600.518 1216.78L744.871 1072.42C750.372 1066.92 752.72 1059.01 751.11 1051.4L701.307 815.863C700.085 810.084 696.686 804.996 691.814 801.654L477.732 654.812C472.252 651.053 465.414 649.848 458.979 651.507L250.013 705.392Z" stroke="url(#paint48_linear_74_6907)" stroke-width="4"/>
<path opacity="0.724638" d="M243.875 698.45C235.731 700.13 229.128 706.075 226.606 713.999L161.821 917.521C159.8 923.869 160.631 930.781 164.098 936.469L296.964 1154.44C300.06 1159.52 305.002 1163.2 310.754 1164.71L540.255 1225.05C547.75 1227.02 555.734 1225.09 561.494 1219.9L712.001 1084.38C717.761 1079.2 720.521 1071.46 719.345 1063.8L683.321 829.249C682.418 823.371 679.273 818.07 674.546 814.461L471.66 659.539C466.366 655.497 459.578 653.948 453.054 655.294L243.875 698.45Z" stroke="url(#paint49_linear_74_6907)" stroke-width="4"/>
<path opacity="0.73913" d="M237.898 692.504C229.739 693.775 222.887 699.323 219.947 707.04L144.684 904.559C142.307 910.8 142.758 917.765 145.922 923.646L264.814 1144.63C267.651 1149.9 272.434 1153.86 278.145 1155.67L501.156 1226.06C508.518 1228.39 516.554 1226.86 522.554 1222L678.692 1095.56C684.691 1090.71 687.853 1083.16 687.111 1075.48L664.62 842.705C664.044 836.744 661.166 831.242 656.597 827.37L465.161 665.132C460.066 660.814 453.347 658.924 446.749 659.953L237.898 692.504Z" stroke="url(#paint50_linear_74_6907)" stroke-width="4"/>
<path opacity="0.753623" d="M232.022 687.549C223.869 688.415 216.794 693.556 213.451 701.042L128.161 892.028C125.432 898.141 125.501 905.139 128.35 911.197L233.323 1134.34C235.89 1139.8 240.498 1144.03 246.155 1146.12L462.26 1226.06C469.471 1228.73 477.539 1227.62 483.759 1223.1L644.996 1105.95C651.216 1101.43 654.767 1094.1 654.458 1086.42L645.21 856.189C644.967 850.163 642.368 844.473 637.971 840.345L458.189 671.555C453.308 666.973 446.673 664.745 440.016 665.452L232.022 687.549Z" stroke="url(#paint51_linear_74_6907)" stroke-width="4"/>
<path opacity="0.768116" d="M226.186 683.579C218.061 684.044 210.786 688.768 207.057 696.002L112.218 879.955C109.142 885.921 108.826 892.932 111.351 899.15L202.511 1123.6C204.797 1129.23 209.217 1133.73 214.806 1136.11L423.623 1225.07C430.668 1228.08 438.743 1227.37 445.165 1223.2L610.962 1115.53C617.383 1111.36 621.309 1104.27 621.432 1096.62L625.093 869.666C625.191 863.592 622.882 857.726 618.67 853.348L450.697 678.776C446.044 673.939 439.511 671.377 432.81 671.76L226.186 683.579Z" stroke="url(#paint52_linear_74_6907)" stroke-width="4"/>
<path opacity="0.782609" d="M220.333 680.584C212.256 680.652 204.807 684.953 200.708 691.914L96.8217 868.367C93.4081 874.165 92.7045 881.167 94.8962 887.528L172.399 1112.47C174.393 1118.26 178.61 1123.01 184.118 1125.68L385.303 1223.13C392.164 1226.45 400.227 1226.16 406.829 1222.35L576.642 1124.31C583.245 1120.49 587.53 1113.66 588.082 1106.05L604.278 883.098C604.722 876.994 602.714 870.965 598.7 866.346L442.646 686.755C438.233 681.676 431.817 678.784 425.089 678.842L220.333 680.584Z" stroke="url(#paint53_linear_74_6907)" stroke-width="4"/>
<path opacity="0.797101" d="M214.404 678.547C206.395 678.226 198.797 682.098 194.349 688.765L81.9383 857.283C78.1951 862.895 77.104 869.867 78.9537 876.354L143.005 1100.98C144.696 1106.91 148.697 1111.91 154.11 1114.86L347.351 1220.25C354.014 1223.89 362.042 1224 368.805 1220.56L542.088 1132.26C548.851 1128.82 553.479 1122.26 554.455 1114.73L582.775 896.446C583.568 890.331 581.873 884.153 578.069 879.3L433.994 695.452C429.833 690.142 423.551 686.927 416.811 686.657L214.404 678.547Z" stroke="url(#paint54_linear_74_6907)" stroke-width="4"/>
<path opacity="0.811594" d="M208.343 677.453C200.422 676.75 192.701 680.188 187.923 686.545L67.5323 846.728C63.4691 852.134 61.9911 859.055 63.4913 865.649L114.341 1089.17C115.72 1095.23 119.491 1100.47 124.797 1103.71L309.819 1216.48C316.271 1220.42 324.242 1220.93 331.145 1217.86L507.35 1139.4C514.253 1136.33 519.205 1130.06 520.6 1122.64L560.593 909.677C561.74 903.569 560.367 897.258 556.786 892.179L424.704 704.827C420.807 699.299 414.676 695.767 407.939 695.169L208.343 677.453Z" stroke="url(#paint55_linear_74_6907)" stroke-width="4"/>
<path opacity="0.826087" d="M202.097 677.281C194.284 676.205 186.464 679.207 181.379 685.235L53.5697 836.718C49.1975 841.901 47.3345 848.748 48.4785 855.431L86.4234 1077.09C87.4802 1083.26 91.009 1088.74 96.1945 1092.25L272.758 1211.85C278.985 1216.07 286.879 1216.98 293.9 1214.28L472.48 1145.73C479.5 1143.04 484.76 1137.08 486.565 1129.78L537.748 922.754C539.251 916.674 538.21 910.243 534.864 904.948L414.745 714.834C411.123 709.102 405.157 705.261 398.44 704.335L202.097 677.281Z" stroke="url(#paint56_linear_74_6907)" stroke-width="4"/>
<path opacity="0.84058" d="M195.612 678.007C187.926 676.566 180.033 679.131 174.661 684.814L40.0122 827.27C35.3426 832.21 33.0977 838.963 33.88 845.715L59.2585 1064.78C59.9852 1071.05 63.2583 1076.75 68.3105 1080.54L236.213 1206.4C242.201 1210.89 249.999 1212.18 257.116 1209.87L437.524 1151.25C444.641 1148.94 450.188 1143.31 452.395 1136.16L514.253 935.643C516.114 929.61 515.413 923.076 512.314 917.575L404.082 725.429C400.746 719.507 394.961 715.363 388.279 714.111L195.612 678.007Z" stroke="url(#paint57_linear_74_6907)" stroke-width="4"/>
<path opacity="0.855072" d="M188.84 679.604C181.297 677.81 173.358 679.937 167.722 685.262L26.8246 818.396C21.8706 823.077 19.2479 829.714 19.6638 836.517L32.8555 1052.29C33.244 1058.65 36.2491 1064.56 41.1553 1068.61L200.229 1200.16C205.967 1204.91 213.647 1206.58 220.84 1204.65L402.534 1155.97C409.726 1154.04 415.54 1148.75 418.137 1141.77L490.126 948.312C492.346 942.345 491.994 935.725 489.153 930.028L392.69 736.565C389.649 730.466 384.059 726.029 377.428 724.452L188.84 679.604Z" stroke="url(#paint58_linear_74_6907)" stroke-width="4"/>
<path opacity="0.869565" d="M181.728 682.042C174.346 679.907 166.386 681.599 160.511 686.552L13.9671 810.11C8.74271 814.515 5.7476 821.015 5.7935 827.849L7.21642 1039.67C7.25954 1046.09 9.9844 1052.2 14.7321 1056.52L164.845 1193.18C170.322 1198.17 177.865 1200.21 185.11 1198.67L367.554 1159.89C374.799 1158.35 380.859 1153.42 383.835 1146.64L465.382 960.73C467.962 954.85 467.966 948.16 465.394 942.277L380.54 748.194C377.802 741.933 372.422 737.213 365.858 735.314L181.728 682.042Z" stroke="url(#paint59_linear_74_6907)" stroke-width="4"/>
<path opacity="0.884058" d="M174.233 685.29C167.028 682.825 159.071 684.085 152.981 688.656L1.40349 802.419C-4.07649 806.532 -7.43743 812.874 -7.76411 819.718L-17.6559 1026.94C-17.9647 1033.41 -15.5318 1039.71 -10.955 1044.3L130.098 1185.51C135.305 1190.72 142.693 1193.13 149.969 1191.98L332.631 1163.04C339.908 1161.89 346.192 1157.32 349.532 1150.76L440.044 972.864C442.98 967.092 443.348 960.349 441.055 954.292L367.611 760.265C365.185 753.857 360.029 748.864 353.546 746.645L174.233 685.29Z" stroke="url(#paint60_linear_74_6907)" stroke-width="4"/>
<path opacity="0.898551" d="M166.312 689.312C159.301 686.53 151.371 687.364 145.091 691.542L-10.9013 795.331C-16.621 799.136 -20.34 805.299 -21.0408 812.133L-41.7596 1014.17C-42.4262 1020.67 -40.2965 1027.15 -35.9026 1031.99L96.0274 1177.19C100.954 1182.61 108.169 1185.37 115.455 1184.6L297.813 1165.43C305.099 1164.67 311.584 1160.48 315.276 1154.15L414.133 984.687C417.425 979.043 418.162 972.265 416.158 966.045L353.886 772.727C351.779 766.188 346.86 760.933 340.474 758.4L166.312 689.312Z" stroke="url(#paint61_linear_74_6907)" stroke-width="4"/>
<path opacity="0.913043" d="M157.921 694.072C151.117 690.988 143.239 691.401 136.795 695.179L-22.9887 788.85C-28.9311 792.334 -32.9993 798.297 -34.0747 805.101L-65.1018 1001.4C-66.1312 1007.91 -64.3158 1014.55 -60.1165 1019.64L62.6598 1168.27C67.2983 1173.89 74.3226 1176.98 81.5962 1176.6L263.139 1167.08C270.413 1166.7 277.076 1162.9 281.102 1156.83L387.669 996.171C391.314 990.676 392.425 983.881 390.72 977.511L339.344 785.531C337.564 778.877 332.895 773.371 326.621 770.528L157.921 694.072Z" stroke="url(#paint62_linear_74_6907)" stroke-width="4"/>
<path opacity="0.927536" d="M149.024 699.53C142.442 696.159 134.639 696.159 128.057 699.53L-34.8925 782.979C-41.0399 786.128 -45.4471 791.872 -46.8965 798.625L-87.6847 988.664C-89.0814 995.171 -87.5906 1001.96 -83.5976 1007.29L30.0271 1158.81C34.3707 1164.6 41.1881 1168.01 48.4279 1168.01L228.653 1168.01C235.893 1168.01 242.71 1164.6 247.054 1158.81L360.679 1007.29C364.672 1001.96 366.162 995.171 364.766 988.664L323.978 798.625C322.528 791.872 318.121 786.128 311.974 782.979L149.024 699.53Z" stroke="url(#paint63_linear_74_6907)" stroke-width="4"/>
<path opacity="0.942029" d="M139.585 705.646C133.236 702.002 125.533 701.599 118.838 704.558L-46.6511 777.718C-52.9848 780.518 -57.7198 786.023 -59.5414 792.704L-109.518 976.008C-111.286 982.491 -110.13 989.423 -106.354 994.982L-1.84697 1148.84C2.19563 1154.79 8.79044 1158.51 15.9754 1158.89L194.394 1168.24C201.579 1168.61 208.526 1165.61 213.169 1160.11L333.186 1018.02C337.522 1012.88 339.396 1006.11 338.316 999.478L307.774 811.954C306.66 805.119 302.527 799.15 296.52 795.703L139.585 705.646Z" stroke="url(#paint64_linear_74_6907)" stroke-width="4"/>
<path opacity="0.956522" d="M129.57 712.376C123.468 708.477 115.885 707.68 109.104 710.225L-58.3007 773.065C-64.8015 775.505 -69.8519 780.752 -72.0428 787.341L-130.612 963.478C-132.753 969.917 -131.942 976.973 -128.395 982.758L-32.9409 1138.43C-29.2043 1144.52 -22.8467 1148.53 -15.7376 1149.28L160.399 1167.79C167.508 1168.54 174.561 1165.94 179.483 1160.76L305.217 1028.33C309.889 1023.41 312.15 1016.68 311.394 1009.93L290.726 825.469C289.953 818.569 286.103 812.387 280.252 808.648L129.57 712.376Z" stroke="url(#paint65_linear_74_6907)" stroke-width="4"/>
<path opacity="0.971014" d="M118.952 719.676C113.105 715.538 105.664 714.359 98.8251 716.489L-69.8764 769.015C-76.5239 771.085 -81.8761 776.055 -84.4324 782.531L-150.979 951.112C-153.496 957.488 -153.038 964.654 -149.73 970.657L-63.2355 1127.63C-59.8088 1133.85 -53.7021 1138.13 -46.6892 1139.24L126.705 1166.71C133.718 1167.82 140.851 1165.63 146.031 1160.77L276.799 1038.21C281.8 1033.53 284.45 1026.85 284.027 1020.01L272.832 839.116C272.402 832.167 268.847 825.787 263.165 821.764L118.952 719.676Z" stroke="url(#paint66_linear_74_6907)" stroke-width="4"/>
<path opacity="0.985507" d="M107.702 727.501C102.122 723.14 94.8438 721.593 87.9723 723.307L-81.4127 765.563C-88.186 767.253 -93.8253 771.928 -96.7419 778.27L-170.634 938.952C-173.527 945.244 -173.431 952.505 -170.373 958.719L-92.7154 1116.49C-89.6016 1122.81 -83.7584 1127.36 -76.8618 1128.83L93.346 1165C100.243 1166.47 107.431 1164.69 112.848 1160.18L247.961 1047.64C253.283 1043.21 256.324 1036.61 256.24 1029.69L254.091 852.842C254.007 845.862 250.756 839.298 245.256 834.999L107.702 727.501Z" stroke="url(#paint67_linear_74_6907)" stroke-width="4"/>
<path d="M95.798 735.802C90.4926 731.237 83.3969 729.335 76.5194 730.637L-92.9444 762.701C-99.8218 764.002 -105.732 768.364 -109.003 774.553L-189.593 927.037C-192.864 933.225 -193.138 940.566 -190.339 946.981L-121.37 1105.06C-118.571 1111.48 -113.003 1116.27 -106.242 1118.08L60.352 1162.72C67.113 1164.53 74.331 1163.16 79.9627 1159.01L218.732 1056.59C224.364 1052.44 227.797 1045.94 228.058 1038.95L234.507 866.596C234.769 859.602 231.831 852.868 226.526 848.303L95.798 735.802Z" stroke="url(#paint68_linear_74_6907)" stroke-width="4"/>
<defs>
<linearGradient id="paint0_linear_74_6907" x1="1602.91" y1="1480.24" x2="1419.03" y2="319.222" gradientUnits="userSpaceOnUse">
<stop stop-color="#0099FF"/>
<stop offset="1" stop-color="#7044B3"/>
</linearGradient>
<linearGradient id="paint1_linear_74_6907" x1="1551.15" y1="1479.5" x2="1429.36" y2="320.766" gradientUnits="userSpaceOnUse">
<stop stop-color="#0099FF"/>
<stop offset="1" stop-color="#7044B3"/>
</linearGradient>
<linearGradient id="paint2_linear_74_6907" x1="1499.74" y1="1477.17" x2="1439.31" y2="324.015" gradientUnits="userSpaceOnUse">
<stop stop-color="#0099FF"/>
<stop offset="1" stop-color="#7044B3"/>
</linearGradient>
<linearGradient id="paint3_linear_74_6907" x1="1448.78" y1="1473.29" x2="1448.78" y2="328.93" gradientUnits="userSpaceOnUse">
<stop stop-color="#0099FF"/>
<stop offset="1" stop-color="#7044B3"/>
</linearGradient>
<linearGradient id="paint4_linear_74_6907" x1="1398.34" y1="1467.9" x2="1457.69" y2="335.47" gradientUnits="userSpaceOnUse">
<stop stop-color="#0099FF"/>
<stop offset="1" stop-color="#7044B3"/>
</linearGradient>
<linearGradient id="paint5_linear_74_6907" x1="1348.51" y1="1461.05" x2="1465.96" y2="343.59" gradientUnits="userSpaceOnUse">
<stop stop-color="#0099FF"/>
<stop offset="1" stop-color="#7044B3"/>
</linearGradient>
<linearGradient id="paint6_linear_74_6907" x1="1299.34" y1="1452.77" x2="1473.49" y2="353.237" gradientUnits="userSpaceOnUse">
<stop stop-color="#0099FF"/>
<stop offset="1" stop-color="#7044B3"/>
</linearGradient>
<linearGradient id="paint7_linear_74_6907" x1="1250.93" y1="1443.12" x2="1480.22" y2="364.357" gradientUnits="userSpaceOnUse">
<stop stop-color="#0099FF"/>
<stop offset="1" stop-color="#7044B3"/>
</linearGradient>
<linearGradient id="paint8_linear_74_6907" x1="1203.33" y1="1432.15" x2="1486.08" y2="376.893" gradientUnits="userSpaceOnUse">
<stop stop-color="#0099FF"/>
<stop offset="1" stop-color="#7044B3"/>
</linearGradient>
<linearGradient id="paint9_linear_74_6907" x1="1156.61" y1="1419.93" x2="1491" y2="390.781" gradientUnits="userSpaceOnUse">
<stop stop-color="#0099FF"/>
<stop offset="1" stop-color="#7044B3"/>
</linearGradient>
<linearGradient id="paint10_linear_74_6907" x1="1110.82" y1="1406.51" x2="1494.9" y2="405.956" gradientUnits="userSpaceOnUse">
<stop stop-color="#0099FF"/>
<stop offset="1" stop-color="#7044B3"/>
</linearGradient>
<linearGradient id="paint11_linear_74_6907" x1="1066.04" y1="1391.95" x2="1497.73" y2="422.351" gradientUnits="userSpaceOnUse">
<stop stop-color="#0099FF"/>
<stop offset="1" stop-color="#7044B3"/>
</linearGradient>
<linearGradient id="paint12_linear_74_6907" x1="1022.3" y1="1376.33" x2="1499.44" y2="439.894" gradientUnits="userSpaceOnUse">
<stop stop-color="#0099FF"/>
<stop offset="1" stop-color="#7044B3"/>
</linearGradient>
<linearGradient id="paint13_linear_74_6907" x1="979.659" y1="1359.71" x2="1499.97" y2="458.511" gradientUnits="userSpaceOnUse">
<stop stop-color="#0099FF"/>
<stop offset="1" stop-color="#7044B3"/>
</linearGradient>
<linearGradient id="paint14_linear_74_6907" x1="938.158" y1="1342.16" x2="1499.27" y2="478.127" gradientUnits="userSpaceOnUse">
<stop stop-color="#0099FF"/>
<stop offset="1" stop-color="#7044B3"/>
</linearGradient>
<linearGradient id="paint15_linear_74_6907" x1="897.838" y1="1323.75" x2="1497.3" y2="498.663" gradientUnits="userSpaceOnUse">
<stop stop-color="#0099FF"/>
<stop offset="1" stop-color="#7044B3"/>
</linearGradient>
<linearGradient id="paint16_linear_74_6907" x1="858.731" y1="1304.56" x2="1494.02" y2="520.04" gradientUnits="userSpaceOnUse">
<stop stop-color="#0099FF"/>
<stop offset="1" stop-color="#7044B3"/>
</linearGradient>
<linearGradient id="paint17_linear_74_6907" x1="820.873" y1="1284.66" x2="1489.41" y2="542.177" gradientUnits="userSpaceOnUse">
<stop stop-color="#0099FF"/>
<stop offset="1" stop-color="#7044B3"/>
</linearGradient>
<linearGradient id="paint18_linear_74_6907" x1="784.286" y1="1264.13" x2="1483.43" y2="564.991" gradientUnits="userSpaceOnUse">
<stop stop-color="#0099FF"/>
<stop offset="1" stop-color="#7044B3"/>
</linearGradient>
<linearGradient id="paint19_linear_74_6907" x1="748.992" y1="1243.05" x2="1476.06" y2="588.401" gradientUnits="userSpaceOnUse">
<stop stop-color="#0099FF"/>
<stop offset="1" stop-color="#7044B3"/>
</linearGradient>
<linearGradient id="paint20_linear_74_6907" x1="715.008" y1="1221.5" x2="1467.28" y2="612.323" gradientUnits="userSpaceOnUse">
<stop stop-color="#0099FF"/>
<stop offset="1" stop-color="#7044B3"/>
</linearGradient>
<linearGradient id="paint21_linear_74_6907" x1="682.348" y1="1199.54" x2="1457.07" y2="636.672" gradientUnits="userSpaceOnUse">
<stop stop-color="#0099FF"/>
<stop offset="1" stop-color="#7044B3"/>
</linearGradient>
<linearGradient id="paint22_linear_74_6907" x1="651.02" y1="1177.27" x2="1445.44" y2="661.365" gradientUnits="userSpaceOnUse">
<stop stop-color="#0099FF"/>
<stop offset="1" stop-color="#7044B3"/>
</linearGradient>
<linearGradient id="paint23_linear_74_6907" x1="621.025" y1="1154.75" x2="1432.37" y2="686.318" gradientUnits="userSpaceOnUse">
<stop stop-color="#0099FF"/>
<stop offset="1" stop-color="#7044B3"/>
</linearGradient>
<linearGradient id="paint24_linear_74_6907" x1="592.364" y1="1132.07" x2="1417.87" y2="711.451" gradientUnits="userSpaceOnUse">
<stop stop-color="#0099FF"/>
<stop offset="1" stop-color="#7044B3"/>
</linearGradient>
<linearGradient id="paint25_linear_74_6907" x1="565.03" y1="1109.29" x2="1401.94" y2="736.678" gradientUnits="userSpaceOnUse">
<stop stop-color="#0099FF"/>
<stop offset="1" stop-color="#7044B3"/>
</linearGradient>
<linearGradient id="paint26_linear_74_6907" x1="539.015" y1="1086.51" x2="1384.59" y2="761.921" gradientUnits="userSpaceOnUse">
<stop stop-color="#0099FF"/>
<stop offset="1" stop-color="#7044B3"/>
</linearGradient>
<linearGradient id="paint27_linear_74_6907" x1="514.304" y1="1063.78" x2="1365.84" y2="787.1" gradientUnits="userSpaceOnUse">
<stop stop-color="#0099FF"/>
<stop offset="1" stop-color="#7044B3"/>
</linearGradient>
<linearGradient id="paint28_linear_74_6907" x1="490.88" y1="1041.19" x2="1345.71" y2="812.137" gradientUnits="userSpaceOnUse">
<stop stop-color="#0099FF"/>
<stop offset="1" stop-color="#7044B3"/>
</linearGradient>
<linearGradient id="paint29_linear_74_6907" x1="468.721" y1="1018.8" x2="1324.22" y2="836.955" gradientUnits="userSpaceOnUse">
<stop stop-color="#0099FF"/>
<stop offset="1" stop-color="#7044B3"/>
</linearGradient>
<linearGradient id="paint30_linear_74_6907" x1="447.801" y1="996.677" x2="1301.4" y2="861.481" gradientUnits="userSpaceOnUse">
<stop stop-color="#0099FF"/>
<stop offset="1" stop-color="#7044B3"/>
</linearGradient>
<linearGradient id="paint31_linear_74_6907" x1="428.09" y1="974.896" x2="1277.27" y2="885.643" gradientUnits="userSpaceOnUse">
<stop stop-color="#0099FF"/>
<stop offset="1" stop-color="#7044B3"/>
</linearGradient>
<linearGradient id="paint32_linear_74_6907" x1="409.555" y1="953.518" x2="1251.89" y2="909.373" gradientUnits="userSpaceOnUse">
<stop stop-color="#0099FF"/>
<stop offset="1" stop-color="#7044B3"/>
</linearGradient>
<linearGradient id="paint33_linear_74_6907" x1="392.162" y1="932.604" x2="1225.27" y2="932.604" gradientUnits="userSpaceOnUse">
<stop stop-color="#0099FF"/>
<stop offset="1" stop-color="#7044B3"/>
</linearGradient>
<linearGradient id="paint34_linear_74_6907" x1="375.868" y1="912.213" x2="1197.48" y2="955.272" gradientUnits="userSpaceOnUse">
<stop stop-color="#0099FF"/>
<stop offset="1" stop-color="#7044B3"/>
</linearGradient>
<linearGradient id="paint35_linear_74_6907" x1="360.632" y1="892.402" x2="1168.54" y2="977.317" gradientUnits="userSpaceOnUse">
<stop stop-color="#0099FF"/>
<stop offset="1" stop-color="#7044B3"/>
</linearGradient>
<linearGradient id="paint36_linear_74_6907" x1="346.407" y1="873.222" x2="1138.52" y2="998.681" gradientUnits="userSpaceOnUse">
<stop stop-color="#0099FF"/>
<stop offset="1" stop-color="#7044B3"/>
</linearGradient>
<linearGradient id="paint37_linear_74_6907" x1="333.148" y1="854.727" x2="1107.46" y2="1019.31" gradientUnits="userSpaceOnUse">
<stop stop-color="#0099FF"/>
<stop offset="1" stop-color="#7044B3"/>
</linearGradient>
<linearGradient id="paint38_linear_74_6907" x1="320.803" y1="836.96" x2="1075.42" y2="1039.16" gradientUnits="userSpaceOnUse">
<stop stop-color="#0099FF"/>
<stop offset="1" stop-color="#7044B3"/>
</linearGradient>
<linearGradient id="paint39_linear_74_6907" x1="309.321" y1="819.965" x2="1042.45" y2="1058.17" gradientUnits="userSpaceOnUse">
<stop stop-color="#0099FF"/>
<stop offset="1" stop-color="#7044B3"/>
</linearGradient>
<linearGradient id="paint40_linear_74_6907" x1="298.643" y1="803.783" x2="1008.62" y2="1076.32" gradientUnits="userSpaceOnUse">
<stop stop-color="#0099FF"/>
<stop offset="1" stop-color="#7044B3"/>
</linearGradient>
<linearGradient id="paint41_linear_74_6907" x1="288.717" y1="788.451" x2="973.978" y2="1093.55" gradientUnits="userSpaceOnUse">
<stop stop-color="#0099FF"/>
<stop offset="1" stop-color="#7044B3"/>
</linearGradient>
<linearGradient id="paint42_linear_74_6907" x1="279.481" y1="773.999" x2="938.592" y2="1109.83" gradientUnits="userSpaceOnUse">
<stop stop-color="#0099FF"/>
<stop offset="1" stop-color="#7044B3"/>
</linearGradient>
<linearGradient id="paint43_linear_74_6907" x1="270.88" y1="760.457" x2="902.527" y2="1125.14" gradientUnits="userSpaceOnUse">
<stop stop-color="#0099FF"/>
<stop offset="1" stop-color="#7044B3"/>
</linearGradient>
<linearGradient id="paint44_linear_74_6907" x1="262.852" y1="747.85" x2="865.845" y2="1139.44" gradientUnits="userSpaceOnUse">
<stop stop-color="#0099FF"/>
<stop offset="1" stop-color="#7044B3"/>
</linearGradient>
<linearGradient id="paint45_linear_74_6907" x1="255.334" y1="736.199" x2="828.613" y2="1152.71" gradientUnits="userSpaceOnUse">
<stop stop-color="#0099FF"/>
<stop offset="1" stop-color="#7044B3"/>
</linearGradient>
<linearGradient id="paint46_linear_74_6907" x1="248.266" y1="725.522" x2="790.899" y2="1164.94" gradientUnits="userSpaceOnUse">
<stop stop-color="#0099FF"/>
<stop offset="1" stop-color="#7044B3"/>
</linearGradient>
<linearGradient id="paint47_linear_74_6907" x1="241.586" y1="715.831" x2="752.767" y2="1176.1" gradientUnits="userSpaceOnUse">
<stop stop-color="#0099FF"/>
<stop offset="1" stop-color="#7044B3"/>
</linearGradient>
<linearGradient id="paint48_linear_74_6907" x1="235.231" y1="707.138" x2="714.287" y2="1186.19" gradientUnits="userSpaceOnUse">
<stop stop-color="#0099FF"/>
<stop offset="1" stop-color="#7044B3"/>
</linearGradient>
<linearGradient id="paint49_linear_74_6907" x1="229.139" y1="699.448" x2="675.524" y2="1195.21" gradientUnits="userSpaceOnUse">
<stop stop-color="#0099FF"/>
<stop offset="1" stop-color="#7044B3"/>
</linearGradient>
<linearGradient id="paint50_linear_74_6907" x1="223.247" y1="692.763" x2="636.545" y2="1203.14" gradientUnits="userSpaceOnUse">
<stop stop-color="#0099FF"/>
<stop offset="1" stop-color="#7044B3"/>
</linearGradient>
<linearGradient id="paint51_linear_74_6907" x1="217.495" y1="687.081" x2="597.417" y2="1210" gradientUnits="userSpaceOnUse">
<stop stop-color="#0099FF"/>
<stop offset="1" stop-color="#7044B3"/>
</linearGradient>
<linearGradient id="paint52_linear_74_6907" x1="211.82" y1="682.398" x2="558.204" y2="1215.78" gradientUnits="userSpaceOnUse">
<stop stop-color="#0099FF"/>
<stop offset="1" stop-color="#7044B3"/>
</linearGradient>
<linearGradient id="paint53_linear_74_6907" x1="206.165" y1="678.704" x2="518.971" y2="1220.5" gradientUnits="userSpaceOnUse">
<stop stop-color="#0099FF"/>
<stop offset="1" stop-color="#7044B3"/>
</linearGradient>
<linearGradient id="paint54_linear_74_6907" x1="200.469" y1="675.987" x2="479.781" y2="1224.17" gradientUnits="userSpaceOnUse">
<stop stop-color="#0099FF"/>
<stop offset="1" stop-color="#7044B3"/>
</linearGradient>
<linearGradient id="paint55_linear_74_6907" x1="194.675" y1="674.232" x2="440.695" y2="1226.8" gradientUnits="userSpaceOnUse">
<stop stop-color="#0099FF"/>
<stop offset="1" stop-color="#7044B3"/>
</linearGradient>
<linearGradient id="paint56_linear_74_6907" x1="188.729" y1="673.421" x2="401.775" y2="1228.42" gradientUnits="userSpaceOnUse">
<stop stop-color="#0099FF"/>
<stop offset="1" stop-color="#7044B3"/>
</linearGradient>
<linearGradient id="paint57_linear_74_6907" x1="182.576" y1="673.529" x2="363.077" y2="1229.05" gradientUnits="userSpaceOnUse">
<stop stop-color="#0099FF"/>
<stop offset="1" stop-color="#7044B3"/>
</linearGradient>
<linearGradient id="paint58_linear_74_6907" x1="176.164" y1="674.533" x2="324.659" y2="1228.72" gradientUnits="userSpaceOnUse">
<stop stop-color="#0099FF"/>
<stop offset="1" stop-color="#7044B3"/>
</linearGradient>
<linearGradient id="paint59_linear_74_6907" x1="169.442" y1="676.406" x2="286.572" y2="1227.46" gradientUnits="userSpaceOnUse">
<stop stop-color="#0099FF"/>
<stop offset="1" stop-color="#7044B3"/>
</linearGradient>
<linearGradient id="paint60_linear_74_6907" x1="162.362" y1="679.114" x2="248.868" y2="1225.29" gradientUnits="userSpaceOnUse">
<stop stop-color="#0099FF"/>
<stop offset="1" stop-color="#7044B3"/>
</linearGradient>
<linearGradient id="paint61_linear_74_6907" x1="154.881" y1="682.626" x2="211.6" y2="1222.27" gradientUnits="userSpaceOnUse">
<stop stop-color="#0099FF"/>
<stop offset="1" stop-color="#7044B3"/>
</linearGradient>
<linearGradient id="paint62_linear_74_6907" x1="146.953" y1="686.905" x2="174.808" y2="1218.41" gradientUnits="userSpaceOnUse">
<stop stop-color="#0099FF"/>
<stop offset="1" stop-color="#7044B3"/>
</linearGradient>
<linearGradient id="paint63_linear_74_6907" x1="138.541" y1="691.914" x2="138.541" y2="1213.78" gradientUnits="userSpaceOnUse">
<stop stop-color="#0099FF"/>
<stop offset="1" stop-color="#7044B3"/>
</linearGradient>
<linearGradient id="paint64_linear_74_6907" x1="129.604" y1="697.612" x2="102.835" y2="1208.4" gradientUnits="userSpaceOnUse">
<stop stop-color="#0099FF"/>
<stop offset="1" stop-color="#7044B3"/>
</linearGradient>
<linearGradient id="paint65_linear_74_6907" x1="120.109" y1="703.958" x2="67.7286" y2="1202.33" gradientUnits="userSpaceOnUse">
<stop stop-color="#0099FF"/>
<stop offset="1" stop-color="#7044B3"/>
</linearGradient>
<linearGradient id="paint66_linear_74_6907" x1="110.025" y1="710.907" x2="33.2566" y2="1195.6" gradientUnits="userSpaceOnUse">
<stop stop-color="#0099FF"/>
<stop offset="1" stop-color="#7044B3"/>
</linearGradient>
<linearGradient id="paint67_linear_74_6907" x1="99.3229" y1="718.414" x2="-0.550114" y2="1188.28" gradientUnits="userSpaceOnUse">
<stop stop-color="#0099FF"/>
<stop offset="1" stop-color="#7044B3"/>
</linearGradient>
<linearGradient id="paint68_linear_74_6907" x1="87.9771" y1="726.433" x2="-33.6646" y2="1180.41" gradientUnits="userSpaceOnUse">
<stop stop-color="#0099FF"/>
<stop offset="1" stop-color="#7044B3"/>
</linearGradient>
</defs>
</svg>
