<svg width="75" height="75" viewBox="0 0 75 75" fill="none" xmlns="http://www.w3.org/2000/svg">
<g clip-path="url(#clip0_74_7741)">
<mask id="mask0_74_7741" style="mask-type:luminance" maskUnits="userSpaceOnUse" x="0" y="0" width="75" height="75">
<path d="M75 0H0V75H75V0Z" fill="white"/>
</mask>
<g mask="url(#mask0_74_7741)">
<path d="M71.4114 21.4597C68.3499 14.9704 63.5013 9.52121 57.3929 5.69797C48.8968 0.395232 38.8333 -1.28933 29.0775 0.966521C19.3216 3.20774 11.0159 9.1257 5.71324 17.6218C0.395853 26.1179 -1.28871 36.1667 0.967142 45.9372C3.223 55.6931 9.14097 63.9987 17.6224 69.3015C23.5989 73.0368 30.4544 75.0144 37.471 75.0144H37.9251C44.9124 74.9265 51.7093 72.905 57.598 69.1843C59.3118 68.1003 59.8099 65.8444 58.7259 64.1306C57.6419 62.4167 55.3861 61.9187 53.6722 63.0026C48.9407 66.0056 43.4622 67.6315 37.8372 67.7048C32.0657 67.778 26.4261 66.1813 21.5042 63.1198C14.6634 58.8425 9.90269 52.1628 8.10093 44.3112C6.29918 36.4597 7.64683 28.3737 11.9241 21.5329C20.7425 7.42649 39.4046 3.11985 53.5111 11.9382C58.4329 15.0144 62.3294 19.3942 64.7904 24.6091C67.1927 29.6921 68.1302 35.3317 67.5003 40.8981C67.2806 42.905 68.7161 44.7214 70.7376 44.9411C72.7445 45.1608 74.5609 43.7253 74.7806 41.7038C75.557 34.7751 74.3851 27.7731 71.4114 21.4597Z" fill="url(#paint0_linear_74_7741)"/>
<path d="M49.6148 24.7844L31.9487 42.4504L25.4009 35.9025C23.9653 34.467 21.6509 34.467 20.2153 35.9025C18.7798 37.3381 18.7798 39.6525 20.2153 41.0881L29.356 50.2287C30.0737 50.9465 31.0112 51.298 31.9487 51.298C32.8862 51.298 33.8237 50.9465 34.5415 50.2287L54.7857 29.9699C56.2212 28.5344 56.2212 26.2199 54.7857 24.7844C53.3501 23.3635 51.0357 23.3635 49.6148 24.7844Z" fill="url(#paint1_linear_74_7741)"/>
</g>
</g>
<defs>
<linearGradient id="paint0_linear_74_7741" x1="48.3168" y1="11.0856" x2="12.9774" y2="61.4255" gradientUnits="userSpaceOnUse">
<stop stop-color="#0FD2ED"/>
<stop offset="1" stop-color="#008DF3"/>
</linearGradient>
<linearGradient id="paint1_linear_74_7741" x1="42.7941" y1="27.7974" x2="31.3976" y2="49.4143" gradientUnits="userSpaceOnUse">
<stop stop-color="#0FD2ED"/>
<stop offset="1" stop-color="#008DF3"/>
</linearGradient>
<clipPath id="clip0_74_7741">
<rect width="75" height="75" fill="white"/>
</clipPath>
</defs>
</svg>
