<svg width="78" height="78" viewBox="0 0 78 78" fill="none" xmlns="http://www.w3.org/2000/svg">
<path d="M66.5742 40.8514H58.9391C57.8999 40.8514 56.8938 40.9934 55.9364 41.2545C54.0476 37.5415 50.1915 34.9904 45.7481 34.9904H32.2519C27.8085 34.9904 23.9524 37.5415 22.0636 41.2545C21.1062 40.9934 20.1001 40.8514 19.0609 40.8514H11.4258C5.12561 40.8514 0 45.977 0 52.2771V64.4826C0 68.2627 3.07536 71.3381 6.85547 71.3381H71.1445C74.9246 71.3381 78 68.2627 78 64.4826V52.2771C78 45.977 72.8744 40.8514 66.5742 40.8514ZM20.8262 46.4165V66.7679H6.85547C5.59543 66.7679 4.57031 65.7428 4.57031 64.4828V52.2773C4.57031 48.4972 7.64568 45.4218 11.4258 45.4218H19.0609C19.6813 45.4218 20.282 45.5061 20.8539 45.6613C20.8374 45.9113 20.8262 46.1627 20.8262 46.4165ZM52.6035 66.7679H25.3965V46.4163C25.3965 42.6362 28.4718 39.5609 32.2519 39.5609H45.7481C49.5282 39.5609 52.6035 42.6362 52.6035 46.4163V66.7679ZM73.4297 64.4828C73.4297 65.7428 72.4046 66.7679 71.1445 66.7679H57.1739V46.4163C57.1739 46.1624 57.1626 45.911 57.1461 45.6612C57.718 45.5061 58.3187 45.4217 58.9391 45.4217H66.5742C70.3543 45.4217 73.4297 48.497 73.4297 52.2771V64.4828Z" fill="url(#paint0_linear_74_7753)"/>
<path d="M15.2439 19.2715C9.64544 19.2715 5.09082 23.8261 5.09082 29.4246C5.09067 35.0231 9.64544 39.5777 15.2439 39.5777C20.8422 39.5777 25.397 35.0231 25.397 29.4246C25.397 23.8261 20.8424 19.2715 15.2439 19.2715ZM15.2437 35.0074C12.1653 35.0074 9.66098 32.503 9.66098 29.4246C9.66098 26.3462 12.1653 23.8418 15.2437 23.8418C18.3222 23.8418 20.8265 26.3462 20.8265 29.4246C20.8265 32.503 18.3222 35.0074 15.2437 35.0074Z" fill="url(#paint1_linear_74_7753)"/>
<path d="M38.9999 6.66187C31.5204 6.66187 25.4355 12.7468 25.4355 20.2262C25.4355 27.7057 31.5204 33.7906 38.9999 33.7906C46.4794 33.7906 52.5643 27.7057 52.5643 20.2262C52.5643 12.7469 46.4794 6.66187 38.9999 6.66187ZM38.9999 29.2203C34.0405 29.2203 30.0058 25.1856 30.0058 20.2262C30.0058 15.267 34.0405 11.2322 38.9999 11.2322C43.9593 11.2322 47.994 15.2668 47.994 20.2262C47.994 25.1856 43.9593 29.2203 38.9999 29.2203Z" fill="url(#paint2_linear_74_7753)"/>
<path d="M39 30C44.5228 30 49 25.5228 49 20C49 14.4772 44.5228 10 39 10C33.4772 10 29 14.4772 29 20C29 25.5228 33.4772 30 39 30Z" fill="url(#paint3_linear_74_7753)"/>
<path d="M63 36C66.866 36 70 32.866 70 29C70 25.134 66.866 22 63 22C59.134 22 56 25.134 56 29C56 32.866 59.134 36 63 36Z" fill="url(#paint4_linear_74_7753)"/>
<path d="M15 37C18.866 37 22 33.866 22 30C22 26.134 18.866 23 15 23C11.134 23 8 26.134 8 30C8 33.866 11.134 37 15 37Z" fill="url(#paint5_linear_74_7753)"/>
<path d="M62.7566 19.2715C57.1583 19.2715 52.6035 23.8261 52.6035 29.4246C52.6036 35.0231 57.1583 39.5777 62.7566 39.5777C68.3551 39.5777 72.9097 35.0231 72.9097 29.4246C72.9097 23.8261 68.3551 19.2715 62.7566 19.2715ZM62.7566 35.0074C59.6783 35.0074 57.1738 32.503 57.1738 29.4246C57.174 26.3462 59.6783 23.8418 62.7566 23.8418C65.835 23.8418 68.3394 26.3462 68.3394 29.4246C68.3394 32.503 65.835 35.0074 62.7566 35.0074Z" fill="url(#paint6_linear_74_7753)"/>
<defs>
<linearGradient id="paint0_linear_74_7753" x1="50.2435" y1="40.3659" x2="39.4847" y2="73.2544" gradientUnits="userSpaceOnUse">
<stop stop-color="#0FD2ED"/>
<stop offset="1" stop-color="#008DF3"/>
</linearGradient>
<linearGradient id="paint1_linear_74_7753" x1="18.171" y1="22.2746" x2="8.60603" y2="35.8999" gradientUnits="userSpaceOnUse">
<stop stop-color="#0FD2ED"/>
<stop offset="1" stop-color="#008DF3"/>
</linearGradient>
<linearGradient id="paint2_linear_74_7753" x1="42.9104" y1="10.674" x2="30.1318" y2="28.8772" gradientUnits="userSpaceOnUse">
<stop stop-color="#0FD2ED"/>
<stop offset="1" stop-color="#008DF3"/>
</linearGradient>
<linearGradient id="paint3_linear_74_7753" x1="41.883" y1="12.9578" x2="32.4622" y2="26.3777" gradientUnits="userSpaceOnUse">
<stop stop-color="#0FD2ED"/>
<stop offset="1" stop-color="#008DF3"/>
</linearGradient>
<linearGradient id="paint4_linear_74_7753" x1="65.0181" y1="24.0705" x2="58.4235" y2="33.4644" gradientUnits="userSpaceOnUse">
<stop stop-color="#0FD2ED"/>
<stop offset="1" stop-color="#008DF3"/>
</linearGradient>
<linearGradient id="paint5_linear_74_7753" x1="17.0181" y1="25.0705" x2="10.4236" y2="34.4644" gradientUnits="userSpaceOnUse">
<stop stop-color="#0FD2ED"/>
<stop offset="1" stop-color="#008DF3"/>
</linearGradient>
<linearGradient id="paint6_linear_74_7753" x1="65.6837" y1="22.2746" x2="56.1187" y2="35.8999" gradientUnits="userSpaceOnUse">
<stop stop-color="#0FD2ED"/>
<stop offset="1" stop-color="#008DF3"/>
</linearGradient>
</defs>
</svg>
