<svg width="78" height="78" viewBox="0 0 78 78" fill="none" xmlns="http://www.w3.org/2000/svg">
<g clip-path="url(#clip0_74_7730)">
<mask id="mask0_74_7730" style="mask-type:luminance" maskUnits="userSpaceOnUse" x="0" y="0" width="78" height="78">
<path d="M78 0H0V78H78V0Z" fill="white"/>
</mask>
<g mask="url(#mask0_74_7730)">
<path d="M12.6258 47.3975C13.1464 47.7459 13.735 47.9124 14.3174 47.9124C15.3 47.9124 16.2648 47.4377 16.8524 46.5598C21.7757 39.2028 30.0058 34.8105 38.8678 34.8105C47.7036 34.8105 55.9201 39.1827 60.8469 46.506C61.7864 47.9022 63.6795 48.2726 65.0756 47.3332C66.4718 46.3939 66.8422 44.5005 65.9028 43.1044C61.9664 37.2535 56.3227 32.9363 49.8734 30.6267C53.7411 27.4673 56.2148 22.6628 56.2148 17.291C56.2148 7.79863 48.4924 0.0761719 39 0.0761719C29.5076 0.0761719 21.7852 7.79863 21.7852 17.291C21.7852 22.6243 24.223 27.3986 28.0428 30.5588C21.4927 32.8598 15.7641 37.2293 11.7881 43.1707C10.8522 44.5692 11.2273 46.4616 12.6258 47.3975ZM39 6.16992C45.1321 6.16992 50.1211 11.1589 50.1211 17.291C50.1211 23.4232 45.1321 28.4121 39 28.4121C32.8679 28.4121 27.8789 23.4232 27.8789 17.291C27.8789 11.1589 32.8679 6.16992 39 6.16992ZM51.1506 54.0257L46.6084 57.3024C45.9326 57.7899 45.6497 58.6542 45.9079 59.443L47.7371 64.7449C47.8143 64.981 47.844 65.2117 47.8341 65.4316C47.7694 66.8556 45.9847 67.8297 44.6757 66.8855L40.1336 63.6078C39.7957 63.364 39.3979 63.2422 39.0002 63.2422C38.6024 63.2422 38.2046 63.364 37.8667 63.6078L33.3246 66.8855C32.0157 67.8297 30.2224 66.8556 30.1657 65.4316C30.1571 65.2117 30.1875 64.9809 30.2648 64.7449L32.0923 59.443C32.3505 58.6542 32.0676 57.7899 31.3918 57.3024L26.8495 54.0257C25.3383 52.9355 26.1149 50.3496 27.983 50.3496H33.5974C34.4329 50.3496 35.1733 50.028 35.4314 49.2392L37.1662 43.903C37.4549 43.0211 38.2275 42.5801 39.0002 42.5801C39.7728 42.5801 40.5454 43.0211 40.8341 43.903L42.569 49.2392C42.8272 50.028 43.5674 50.3496 44.4029 50.3496H50.0174C51.8852 50.3496 52.6619 52.9355 51.1506 54.0257ZM77.2014 64.6897L72.6591 67.9665C71.9833 68.454 71.7004 69.3182 71.9587 70.1071L73.7879 75.4089C73.8651 75.6451 73.8948 75.8757 73.8849 76.0957C73.8202 77.5197 72.0354 78.4937 70.7265 77.5495L66.1844 74.2718C65.8465 74.0281 65.4487 73.9062 65.0509 73.9062C64.6532 73.9062 64.2554 74.0281 63.9175 74.2718L59.3754 77.5495C58.0664 78.4937 56.2732 77.5197 56.2165 76.0957C56.2078 75.8757 56.2383 75.6449 56.3156 75.4089L58.1431 70.1071C58.4013 69.3182 58.1184 68.454 57.4426 67.9665L52.9003 64.6897C51.3891 63.5996 52.1657 61.0137 54.0337 61.0137H59.6482C60.4837 61.0137 61.2241 60.6921 61.4821 59.9032L63.217 54.5671C63.5057 53.6852 64.2783 53.2441 65.0509 53.2441C65.8236 53.2441 66.5962 53.6852 66.8849 54.5671L68.6197 59.9032C68.878 60.6921 69.6182 61.0137 70.4537 61.0137H76.0681C77.936 61.0137 78.7127 63.5996 77.2014 64.6897ZM25.0999 64.6897L20.5576 67.9665C19.8818 68.454 19.5989 69.3182 19.8571 70.1071L21.6863 75.4089C21.7635 75.6451 21.7932 75.8757 21.7833 76.0957C21.7186 77.5197 19.9339 78.4937 18.6249 77.5495L14.0827 74.2718C13.7448 74.0281 13.347 73.9062 12.9492 73.9062C12.5515 73.9062 12.1537 74.0281 11.8158 74.2718L7.27365 77.5495C5.96472 78.4937 4.17148 77.5197 4.1148 76.0957C4.10612 75.8757 4.13659 75.6449 4.21383 75.4089L6.04134 70.1071C6.29957 69.3182 6.01666 68.454 5.34087 67.9665L0.798586 64.6897C-0.712664 63.5996 0.0639842 61.0137 1.93202 61.0137H7.5465C8.38195 61.0137 9.12234 60.6921 9.38041 59.9032L11.1153 54.5671C11.404 53.6852 12.1765 53.2441 12.9492 53.2441C13.7219 53.2441 14.4944 53.6852 14.7831 54.5671L16.518 59.9032C16.7762 60.6921 17.5165 61.0137 18.3519 61.0137H23.9664C25.8345 61.0137 26.6111 63.5996 25.0999 64.6897Z" fill="url(#paint0_linear_74_7730)"/>
</g>
</g>
<defs>
<linearGradient id="paint0_linear_74_7730" x1="50.2435" y1="11.5891" x2="13.5988" y2="63.8917" gradientUnits="userSpaceOnUse">
<stop stop-color="#0FD2ED"/>
<stop offset="1" stop-color="#008DF3"/>
</linearGradient>
<clipPath id="clip0_74_7730">
<rect width="78" height="78" fill="white"/>
</clipPath>
</defs>
</svg>
