<svg width="65" height="65" viewBox="0 0 65 65" fill="none" xmlns="http://www.w3.org/2000/svg">
<path d="M63.0107 49.2514H60.9228V16.0916C60.9228 13.5507 58.8546 11.4825 56.3137 11.4825H46.5341C46.1402 11.4825 45.8152 11.8075 45.8152 12.2014C45.8152 12.5954 46.1402 12.9204 46.5341 12.9204H56.3137C58.0667 12.9204 59.4948 14.3484 59.4948 16.1014V49.2514H5.50536V16.0916C5.50536 14.3386 6.92354 12.9105 8.67657 12.9105H9.97657C10.3705 12.9105 10.6955 12.5855 10.6955 12.1916C10.6955 11.7977 10.3705 11.4727 9.97657 11.4727H8.67657C6.13566 11.4727 4.07733 13.5408 4.07733 16.0817V49.2318H1.98945C1.59551 49.2318 1.27051 49.5567 1.27051 49.9507V57.5143C1.27051 59.7007 3.04324 61.4734 5.2296 61.4734H59.7705C61.9569 61.4734 63.7296 59.7007 63.7296 57.5143V49.9507C63.7296 49.5666 63.4046 49.2514 63.0107 49.2514ZM27.4478 50.6795H37.5523V52.6098C37.5523 53.0727 37.1781 53.4469 36.7152 53.4469H28.2849C27.822 53.4469 27.4478 53.0727 27.4478 52.6098V50.6795ZM62.3016 57.5242C62.3016 58.9128 61.169 60.0552 59.7705 60.0552H5.2296C3.84096 60.0552 2.69854 58.9227 2.69854 57.5242V50.6795H4.78642H26.0099V52.6098C26.0099 53.8605 27.0243 54.8848 28.2849 54.8848H36.7152C37.966 54.8848 38.9902 53.8704 38.9902 52.6098V50.6795H60.2137H62.3016V57.5242Z" fill="white"/>
<path d="M63.0107 49.2514H60.9228V16.0916C60.9228 13.5507 58.8546 11.4825 56.3137 11.4825H46.5341C46.1402 11.4825 45.8152 11.8075 45.8152 12.2014C45.8152 12.5954 46.1402 12.9204 46.5341 12.9204H56.3137C58.0667 12.9204 59.4948 14.3484 59.4948 16.1014V49.2514H5.50536V16.0916C5.50536 14.3386 6.92354 12.9105 8.67657 12.9105H9.97657C10.3705 12.9105 10.6955 12.5855 10.6955 12.1916C10.6955 11.7977 10.3705 11.4727 9.97657 11.4727H8.67657C6.13566 11.4727 4.07733 13.5408 4.07733 16.0817V49.2318H1.98945C1.59551 49.2318 1.27051 49.5567 1.27051 49.9507V57.5143C1.27051 59.7007 3.04324 61.4734 5.2296 61.4734H59.7705C61.9569 61.4734 63.7296 59.7007 63.7296 57.5143V49.9507C63.7296 49.5666 63.4046 49.2514 63.0107 49.2514ZM27.4478 50.6795H37.5523V52.6098C37.5523 53.0727 37.1781 53.4469 36.7152 53.4469H28.2849C27.822 53.4469 27.4478 53.0727 27.4478 52.6098V50.6795ZM62.3016 57.5242C62.3016 58.9128 61.169 60.0552 59.7705 60.0552H5.2296C3.84096 60.0552 2.69854 58.9227 2.69854 57.5242V50.6795H4.78642H26.0099V52.6098C26.0099 53.8605 27.0243 54.8848 28.2849 54.8848H36.7152C37.966 54.8848 38.9902 53.8704 38.9902 52.6098V50.6795H60.2137H62.3016V57.5242Z" fill="url(#paint0_linear_6_48)"/>
<path d="M13.9357 26.049H23.9417V33.8785H20.4455C20.0516 33.8785 19.7266 34.2035 19.7266 34.5974C19.7266 34.9914 20.0516 35.3164 20.4455 35.3164H35.1395C35.5334 35.3164 35.8584 34.9914 35.8584 34.5974C35.8584 34.2035 35.5334 33.8785 35.1395 33.8785H31.6334V26.049H41.6395C42.8508 26.049 43.8455 25.0641 43.8455 23.8429V5.72169C43.8455 4.51032 42.8607 3.51562 41.6395 3.51562H13.9357C12.7243 3.51562 11.7296 4.50047 11.7296 5.72169V23.8429C11.7296 25.0543 12.7243 26.049 13.9357 26.049ZM30.2054 33.8687H25.3796V26.0391H30.2054V33.8687ZM13.1675 5.72169C13.1675 5.2982 13.5122 4.9535 13.9357 4.9535H41.6395C42.0629 4.9535 42.4076 5.2982 42.4076 5.72169V23.8429C42.4076 24.2664 42.0629 24.6111 41.6395 24.6111H13.9357C13.5122 24.6111 13.1675 24.2664 13.1675 23.8429V5.72169Z" fill="white"/>
<path d="M13.9357 26.049H23.9417V33.8785H20.4455C20.0516 33.8785 19.7266 34.2035 19.7266 34.5974C19.7266 34.9914 20.0516 35.3164 20.4455 35.3164H35.1395C35.5334 35.3164 35.8584 34.9914 35.8584 34.5974C35.8584 34.2035 35.5334 33.8785 35.1395 33.8785H31.6334V26.049H41.6395C42.8508 26.049 43.8455 25.0641 43.8455 23.8429V5.72169C43.8455 4.51032 42.8607 3.51562 41.6395 3.51562H13.9357C12.7243 3.51562 11.7296 4.50047 11.7296 5.72169V23.8429C11.7296 25.0543 12.7243 26.049 13.9357 26.049ZM30.2054 33.8687H25.3796V26.0391H30.2054V33.8687ZM13.1675 5.72169C13.1675 5.2982 13.5122 4.9535 13.9357 4.9535H41.6395C42.0629 4.9535 42.4076 5.2982 42.4076 5.72169V23.8429C42.4076 24.2664 42.0629 24.6111 41.6395 24.6111H13.9357C13.5122 24.6111 13.1675 24.2664 13.1675 23.8429V5.72169Z" fill="url(#paint1_linear_6_48)"/>
<path d="M18.889 20.4052C19.2829 20.4052 19.6079 20.0802 19.6079 19.6862V16.5347H25.1723V19.6862C25.1723 20.0802 25.4973 20.4052 25.8913 20.4052C26.2852 20.4052 26.6102 20.0802 26.6102 19.6862V13.3734C26.6102 11.0491 24.7193 9.1582 22.3951 9.1582C20.0708 9.1582 18.1799 11.0491 18.1799 13.3734V19.6862C18.1701 20.0802 18.4951 20.4052 18.889 20.4052ZM22.3852 10.5862C23.9216 10.5862 25.1723 11.837 25.1723 13.3734V15.1067H19.5981V13.3734C19.5981 11.837 20.8488 10.5862 22.3852 10.5862Z" fill="white"/>
<path d="M18.889 20.4052C19.2829 20.4052 19.6079 20.0802 19.6079 19.6862V16.5347H25.1723V19.6862C25.1723 20.0802 25.4973 20.4052 25.8913 20.4052C26.2852 20.4052 26.6102 20.0802 26.6102 19.6862V13.3734C26.6102 11.0491 24.7193 9.1582 22.3951 9.1582C20.0708 9.1582 18.1799 11.0491 18.1799 13.3734V19.6862C18.1701 20.0802 18.4951 20.4052 18.889 20.4052ZM22.3852 10.5862C23.9216 10.5862 25.1723 11.837 25.1723 13.3734V15.1067H19.5981V13.3734C19.5981 11.837 20.8488 10.5862 22.3852 10.5862Z" fill="url(#paint2_linear_6_48)"/>
<path d="M30.3724 20.4052H31.5837C34.7057 20.4052 37.3254 17.9627 37.414 14.9491C37.4633 13.4127 36.8921 11.965 35.8284 10.862C34.7648 9.75896 33.3269 9.1582 31.7905 9.1582H30.3724C29.5845 9.1582 28.9443 9.79835 28.9443 10.5764V18.9771C28.9443 19.765 29.5845 20.4052 30.3724 20.4052ZM31.7807 10.5862C32.9231 10.5862 33.9966 11.0393 34.7943 11.8567C35.5921 12.6741 36.0057 13.7574 35.9762 14.8999C35.9072 17.1453 33.9375 18.9673 31.5837 18.9673L30.3822 18.9771L30.3724 10.5862H31.7807Z" fill="white"/>
<path d="M30.3724 20.4052H31.5837C34.7057 20.4052 37.3254 17.9627 37.414 14.9491C37.4633 13.4127 36.8921 11.965 35.8284 10.862C34.7648 9.75896 33.3269 9.1582 31.7905 9.1582H30.3724C29.5845 9.1582 28.9443 9.79835 28.9443 10.5764V18.9771C28.9443 19.765 29.5845 20.4052 30.3724 20.4052ZM31.7807 10.5862C32.9231 10.5862 33.9966 11.0393 34.7943 11.8567C35.5921 12.6741 36.0057 13.7574 35.9762 14.8999C35.9072 17.1453 33.9375 18.9673 31.5837 18.9673L30.3822 18.9771L30.3724 10.5862H31.7807Z" fill="url(#paint3_linear_6_48)"/>
<path d="M38.4482 36.3895C38.4482 41.4418 42.5649 45.5584 47.6172 45.5584C52.6695 45.5584 56.7861 41.4418 56.7861 36.3895C56.7861 31.3471 52.6695 27.2402 47.6172 27.2402C42.5649 27.2402 38.4482 31.3471 38.4482 36.3895ZM47.6172 28.6683C51.8816 28.6683 55.3581 32.1349 55.3581 36.3895C55.3581 40.6539 51.8914 44.1304 47.6172 44.1304C43.3429 44.1304 39.8763 40.6637 39.8763 36.3895C39.8861 32.1349 43.3528 28.6683 47.6172 28.6683Z" fill="white"/>
<path d="M38.4482 36.3895C38.4482 41.4418 42.5649 45.5584 47.6172 45.5584C52.6695 45.5584 56.7861 41.4418 56.7861 36.3895C56.7861 31.3471 52.6695 27.2402 47.6172 27.2402C42.5649 27.2402 38.4482 31.3471 38.4482 36.3895ZM47.6172 28.6683C51.8816 28.6683 55.3581 32.1349 55.3581 36.3895C55.3581 40.6539 51.8914 44.1304 47.6172 44.1304C43.3429 44.1304 39.8763 40.6637 39.8763 36.3895C39.8861 32.1349 43.3528 28.6683 47.6172 28.6683Z" fill="url(#paint4_linear_6_48)"/>
<path d="M47.6565 39.5615C47.6466 39.5615 47.6368 39.5516 47.6171 39.5516C47.6072 39.5516 47.5974 39.5615 47.5876 39.5615C46.9277 39.5418 46.3959 39.01 46.3959 38.3403C46.3959 37.9463 46.0709 37.6213 45.6769 37.6213C45.283 37.6213 44.958 37.9463 44.958 38.3403C44.958 39.5516 45.7853 40.5759 46.8982 40.891V41.4425C46.8982 41.8365 47.2232 42.1615 47.6171 42.1615C48.011 42.1615 48.336 41.8365 48.336 41.4425V40.891C49.4489 40.5759 50.2762 39.5615 50.2762 38.3403C50.2762 36.8728 49.0845 35.6812 47.6171 35.6812C46.9376 35.6812 46.386 35.1297 46.386 34.4501C46.386 33.7804 46.9179 33.2486 47.5876 33.2289C47.5974 33.2289 47.6072 33.2388 47.6171 33.2388C47.6269 33.2388 47.6368 33.2289 47.6466 33.2289C48.3065 33.2486 48.8383 33.7903 48.8383 34.4501C48.8383 34.8441 49.1633 35.1691 49.5572 35.1691C49.9512 35.1691 50.2762 34.8441 50.2762 34.4501C50.2762 33.2289 49.4489 32.2145 48.336 31.8994V31.3478C48.336 30.9539 48.011 30.6289 47.6171 30.6289C47.2232 30.6289 46.8982 30.9539 46.8982 31.3478V31.8994C45.7754 32.2145 44.958 33.2289 44.958 34.4501C44.958 35.9175 46.1497 37.1092 47.6171 37.1092C48.2966 37.1092 48.8383 37.6607 48.8383 38.3403C48.8482 39.01 48.3163 39.5516 47.6565 39.5615Z" fill="white"/>
<path d="M47.6565 39.5615C47.6466 39.5615 47.6368 39.5516 47.6171 39.5516C47.6072 39.5516 47.5974 39.5615 47.5876 39.5615C46.9277 39.5418 46.3959 39.01 46.3959 38.3403C46.3959 37.9463 46.0709 37.6213 45.6769 37.6213C45.283 37.6213 44.958 37.9463 44.958 38.3403C44.958 39.5516 45.7853 40.5759 46.8982 40.891V41.4425C46.8982 41.8365 47.2232 42.1615 47.6171 42.1615C48.011 42.1615 48.336 41.8365 48.336 41.4425V40.891C49.4489 40.5759 50.2762 39.5615 50.2762 38.3403C50.2762 36.8728 49.0845 35.6812 47.6171 35.6812C46.9376 35.6812 46.386 35.1297 46.386 34.4501C46.386 33.7804 46.9179 33.2486 47.5876 33.2289C47.5974 33.2289 47.6072 33.2388 47.6171 33.2388C47.6269 33.2388 47.6368 33.2289 47.6466 33.2289C48.3065 33.2486 48.8383 33.7903 48.8383 34.4501C48.8383 34.8441 49.1633 35.1691 49.5572 35.1691C49.9512 35.1691 50.2762 34.8441 50.2762 34.4501C50.2762 33.2289 49.4489 32.2145 48.336 31.8994V31.3478C48.336 30.9539 48.011 30.6289 47.6171 30.6289C47.2232 30.6289 46.8982 30.9539 46.8982 31.3478V31.8994C45.7754 32.2145 44.958 33.2289 44.958 34.4501C44.958 35.9175 46.1497 37.1092 47.6171 37.1092C48.2966 37.1092 48.8383 37.6607 48.8383 38.3403C48.8482 39.01 48.3163 39.5516 47.6565 39.5615Z" fill="url(#paint5_linear_6_48)"/>
<path d="M12.4484 39.9457H34.4992C34.8931 39.9457 35.2181 39.6207 35.2181 39.2268C35.2181 38.8328 34.8931 38.5078 34.4992 38.5078H12.4484C12.0545 38.5078 11.7295 38.8328 11.7295 39.2268C11.7295 39.6207 12.0545 39.9457 12.4484 39.9457Z" fill="white"/>
<path d="M12.4484 39.9457H34.4992C34.8931 39.9457 35.2181 39.6207 35.2181 39.2268C35.2181 38.8328 34.8931 38.5078 34.4992 38.5078H12.4484C12.0545 38.5078 11.7295 38.8328 11.7295 39.2268C11.7295 39.6207 12.0545 39.9457 12.4484 39.9457Z" fill="url(#paint6_linear_6_48)"/>
<path d="M12.4484 45.0765H34.4992C34.8931 45.0765 35.2181 44.7516 35.2181 44.3576C35.2181 43.9637 34.8931 43.6387 34.4992 43.6387H12.4484C12.0545 43.6387 11.7295 43.9637 11.7295 44.3576C11.7295 44.7516 12.0545 45.0765 12.4484 45.0765Z" fill="white"/>
<path d="M12.4484 45.0765H34.4992C34.8931 45.0765 35.2181 44.7516 35.2181 44.3576C35.2181 43.9637 34.8931 43.6387 34.4992 43.6387H12.4484C12.0545 43.6387 11.7295 43.9637 11.7295 44.3576C11.7295 44.7516 12.0545 45.0765 12.4484 45.0765Z" fill="url(#paint7_linear_6_48)"/>
<defs>
<linearGradient id="paint0_linear_6_48" x1="1.27051" y1="11.4727" x2="65.374" y2="13.6781" gradientUnits="userSpaceOnUse">
<stop offset="0.0052" stop-color="#43BAFF"/>
<stop offset="1" stop-color="#7044B3"/>
</linearGradient>
<linearGradient id="paint1_linear_6_48" x1="11.7296" y1="3.51562" x2="44.7046" y2="4.43283" gradientUnits="userSpaceOnUse">
<stop offset="0.0052" stop-color="#43BAFF"/>
<stop offset="1" stop-color="#7044B3"/>
</linearGradient>
<linearGradient id="paint2_linear_6_48" x1="18.1797" y1="9.1582" x2="26.8387" y2="9.33697" gradientUnits="userSpaceOnUse">
<stop offset="0.0052" stop-color="#43BAFF"/>
<stop offset="1" stop-color="#7044B3"/>
</linearGradient>
<linearGradient id="paint3_linear_6_48" x1="28.9443" y1="9.1582" x2="37.6466" y2="9.33876" gradientUnits="userSpaceOnUse">
<stop offset="0.0052" stop-color="#43BAFF"/>
<stop offset="1" stop-color="#7044B3"/>
</linearGradient>
<linearGradient id="paint4_linear_6_48" x1="38.4482" y1="27.2402" x2="57.2769" y2="27.7594" gradientUnits="userSpaceOnUse">
<stop offset="0.0052" stop-color="#43BAFF"/>
<stop offset="1" stop-color="#7044B3"/>
</linearGradient>
<linearGradient id="paint5_linear_6_48" x1="44.958" y1="30.6289" x2="50.4218" y2="30.6983" gradientUnits="userSpaceOnUse">
<stop offset="0.0052" stop-color="#43BAFF"/>
<stop offset="1" stop-color="#7044B3"/>
</linearGradient>
<linearGradient id="paint6_linear_6_48" x1="11.7295" y1="38.5078" x2="31.8019" y2="47.5388" gradientUnits="userSpaceOnUse">
<stop offset="0.0052" stop-color="#43BAFF"/>
<stop offset="1" stop-color="#7044B3"/>
</linearGradient>
<linearGradient id="paint7_linear_6_48" x1="11.7295" y1="43.6387" x2="31.8019" y2="52.6696" gradientUnits="userSpaceOnUse">
<stop offset="0.0052" stop-color="#43BAFF"/>
<stop offset="1" stop-color="#7044B3"/>
</linearGradient>
</defs>
</svg>
