<svg id="Capa_1" enable-background="new 0 0 511.989 511.989" height="512" viewBox="0 0 511.989 511.989" width="512" xmlns="http://www.w3.org/2000/svg"><g><g id="Layer_2_00000115495192743211063900000001652634652381987007_"><g id="Layer_1-2_00000160148437319012426680000006798585073135808648_"><g id="heart_care" fill="rgb(0,0,0)"><path d="m75.045 241.731c-2.158-3.699-6.907-4.948-10.606-2.79s-4.948 6.907-2.79 10.606c.178.306.378.599.596.878 19.727 28.459 42.382 54.771 67.595 78.507 3.168 2.891 8.079 2.667 10.97-.501 2.785-3.051 2.693-7.748-.208-10.688-24.451-22.975-46.424-48.451-65.557-76.012z"/><path d="m444.229 241.731c-30.43 42.852-66.81 81.149-108.043 113.739-3.308 2.722-3.783 7.609-1.061 10.917s7.61 3.783 10.917 1.061c42.384-33.542 79.779-72.945 111.061-117.024 2.401-3.555 1.465-8.383-2.091-10.784-3.554-2.4-8.382-1.464-10.783 2.091z"/><path d="m36.229 189.742c4.3-.02 7.77-3.523 7.75-7.823-.004-.791-.128-1.578-.369-2.332-50.442-135.936 131.947-230.048 209.622-106.197.72.91 1.547 1.73 2.464 2.443 2.149 1.146 4.699 1.263 6.944.32.325-.081.642-.188.949-.32.92-.712 1.751-1.532 2.475-2.443.075-.107.192-.16.256-.288 60.8-101.589 216.533-59.104 217.291 59.211-.152 16.077-2.83 32.03-7.936 47.275-1.325 4.074.902 8.451 4.976 9.776s8.451-.902 9.776-4.976c5.616-16.794 8.553-34.367 8.704-52.075-.416-127.819-164.737-180.641-239.489-77.185-94.496-125.589-284.874-16.938-230.784 129.27 1.04 3.19 4.016 5.347 7.371 5.344z"/><path d="m478.469 211.928c0-4.286-3.468-7.764-7.755-7.776h-143.189c-3.231.001-6.123 2.001-7.264 5.024l-26.667 70.4-60.64-160.021c-1.605-4.009-6.156-5.958-10.164-4.353-1.985.795-3.558 2.368-4.353 4.353l-32 84.597h-137.856c-4.289-.004-7.769 3.469-7.773 7.758s3.469 7.769 7.758 7.773h.014 143.168c3.228.001 6.12-1.995 7.264-5.013l26.667-70.4 60.619 160.064c1.589 4.009 6.127 5.971 10.136 4.382 2.002-.794 3.588-2.379 4.382-4.382l32.043-84.597h137.856c4.289-.006 7.761-3.487 7.755-7.776-.001-.011-.001-.022-.001-.033z"/><path d="m482.618 387.587c-5.676-4.274-13.122-5.4-19.808-2.997 1.945-8.8-1.818-17.877-9.419-22.72-10.005-7.669-25.035-1.227-49.941 9.461-18.691 8.364-37.911 15.49-57.536 21.333-1.169-1.926-2.55-3.715-4.117-5.333-6.7-6.39-15.672-9.845-24.928-9.6-66.955 1.141-79.744-5.579-94.688-13.333-16.459-8.533-35.125-18.229-116.395-20.117-4.283.023-7.736 3.514-7.713 7.797.022 4.109 3.246 7.488 7.35 7.702 77.685 1.835 94.635 10.667 109.6 18.389 16.128 8.363 31.317 16.267 102.4 15.061 4.915-.038 9.67 1.749 13.344 5.013 4.328 5.284 6.188 12.167 5.109 18.912-3.979 22.304-57.227 22.741-121.909 14.773-4.253-.551-8.148 2.451-8.699 6.704s2.451 8.148 6.704 8.699c40.661 4.789 83.2 8.981 115.477-2.037 39.139-7.794 77.293-19.907 113.76-36.117 14.037-5.973 28.533-12.117 31.435-9.707 9.685 7.648-2.464 16.875-7.957 21.493-131.733 104.427-306.762 73.973-357.247 62.176-4.171-.975-8.342 1.616-9.317 5.787s1.616 8.342 5.787 9.317c106.667 24.533 259.979 23.563 370.016-64.821 9.162-5.547 29.77-28.608 8.692-45.835zm-42.666 5.333c-28.927 12.978-58.9 23.484-89.6 31.403 1.407-5.537 1.639-11.307.683-16.939 20.002-5.979 39.598-13.24 58.667-21.739 13.653-5.856 30.603-13.131 34.379-11.413 7.637 6.155 2.347 11.637-4.16 18.635z"/><path d="m70.149 343.992h-38.176c-10.537.047-19.068 8.577-19.115 19.115v107.531c.006 10.556 8.559 19.114 19.115 19.125h38.176c10.556-.012 19.109-8.569 19.115-19.125v-107.531c-.047-10.537-8.578-19.068-19.115-19.115zm3.595 126.646c0 1.987-1.608 3.599-3.595 3.605h-38.176c-1.987-.006-3.595-1.618-3.595-3.605v-107.531c0-1.985 1.609-3.595 3.595-3.595h38.176c1.985 0 3.595 1.609 3.595 3.595z"/><path d="m51.056 375.043c-4.286.159-7.631 3.762-7.473 8.047.151 4.063 3.41 7.322 7.473 7.473 4.286-.159 7.631-3.762 7.473-8.047-.151-4.063-3.41-7.322-7.473-7.473z"/></g></g></g></g></svg>