<svg id="Capa_1" enable-background="new 0 0 512 512" height="512" viewBox="0 0 512 512" width="512" xmlns="http://www.w3.org/2000/svg"><g><path d="m470.772 260.582c0-4.143-3.357-7.5-7.5-7.5h-124.02c-4.143 0-7.5 3.357-7.5 7.5v28.272c0 4.143 3.357 7.5 7.5 7.5h124.021c4.143 0 7.5-3.357 7.5-7.5v-28.272zm-15 20.772h-109.02v-13.272h109.021v13.272z"/><path d="m393.733 318.653c0-4.143-3.357-7.5-7.5-7.5h-46.981c-4.143 0-7.5 3.357-7.5 7.5v28.271c0 4.143 3.357 7.5 7.5 7.5h46.981c4.143 0 7.5-3.357 7.5-7.5zm-15 20.772h-31.981v-13.271h31.981z"/><path d="m470.772 318.653c0-4.143-3.357-7.5-7.5-7.5h-46.981c-4.143 0-7.5 3.357-7.5 7.5v28.271c0 4.143 3.357 7.5 7.5 7.5h46.981c4.143 0 7.5-3.357 7.5-7.5zm-15 20.772h-31.981v-13.271h31.981z"/><path d="m386.233 369.224h-46.981c-4.143 0-7.5 3.357-7.5 7.5v28.272c0 4.143 3.357 7.5 7.5 7.5h46.981c4.143 0 7.5-3.357 7.5-7.5v-28.272c0-4.143-3.357-7.5-7.5-7.5zm-7.5 28.272h-31.981v-13.272h31.981z"/><path d="m463.272 369.224h-46.981c-4.143 0-7.5 3.357-7.5 7.5v28.272c0 4.143 3.357 7.5 7.5 7.5h46.981c4.143 0 7.5-3.357 7.5-7.5v-28.272c0-4.143-3.357-7.5-7.5-7.5zm-7.5 28.272h-31.981v-13.272h31.981z"/><path d="m504.5 157.042h-57.576c-3.271 0-6.166 2.121-7.151 5.24l-15.468 48.952h-126.28c-4.143 0-7.5 3.357-7.5 7.5v85.245l-104.229 19.995 5.076-75.575h56.012l2.245 33.426c.278 4.133 3.856 7.244 7.986 6.98 4.133-.278 7.258-3.854 6.98-7.986l-9.23-137.43c-.264-3.938-3.536-6.997-7.483-6.997h-57.008c-3.947 0-7.218 3.059-7.483 6.997l-12.325 183.506-41.241 7.911-10.755-160c-.265-3.938-3.536-6.998-7.483-6.998h-11.964c-4.142 0-7.5 3.357-7.5 7.5s3.358 7.5 7.5 7.5h4.951l2.808 41.771h-48.596l2.805-41.771h1.741c4.142 0 7.5-3.357 7.5-7.5s-3.358-7.5-7.5-7.5h-8.754c-3.947 0-7.219 3.06-7.483 6.998l-13.848 206.199-27.092 4.937c-3.564.65-6.155 3.755-6.155 7.378v111.019c0 4.143 3.358 7.5 7.5 7.5l497 .001c4.143 0 7.5-3.357 7.5-7.5v-27.673c0-4.143-3.357-7.5-7.5-7.5s-7.5 3.357-7.5 7.5v20.173h-59.7v-60.507c0-4.143-3.357-7.5-7.5-7.5h-57.075c-4.143 0-7.5 3.357-7.5 7.5v60.507h-59.7v-270.606h191.475v216.099c0 4.143 3.357 7.5 7.5 7.5s7.5-3.357 7.5-7.5v-277.791c0-4.143-3.357-7.5-7.5-7.5zm-258.125 76.357h-53.996l1.969-29.33h50.057zm-5.507-82.006 2.53 37.677h-48.043l2.53-37.677zm139.357 292.44h42.075v53.006h-42.075zm-269.705-172.571h-54.865l2.126-31.683h50.604zm-55.876 15h56.884l3.455 51.393-33.308 6.39c-3.533.678-6.087 3.768-6.087 7.365v21.88l-27.122 4.942zm-39.644 113.315 69.433-12.652c3.564-.65 6.155-3.756 6.155-7.379v-21.938l199.936-38.355v177.587h-275.524zm425.035-188.343 12.385-39.192h44.58v39.192z"/><path d="m197.522 81.396c.124 0 .224.096.224.213v14.046c0 27.926 43.272 27.824 43.272 0v-14.047c.18-.281.447-.352.801-.213 12.935 0 24.792-8.667 28.703-21h16.34c38.95 0 38.681-60.235 0-60.235h-44.862c-12.936 0-24.791 8.667-28.704 21h-16.351c-39.173 0-38.545 60.236.577 60.236zm-11.264-40.805c2.857-2.857 6.652-4.431 10.688-4.431h22.504c3.942 0 7.212-3.053 7.482-6.985.531-7.73 7.314-14.015 15.067-14.015h44.862c19.255 0 19.829 30.235 0 30.235h-22.493c-3.942 0-7.212 3.053-7.482 6.985-.531 7.73-7.314 14.015-15.067 14.015-8.451-.011-15.801 6.545-15.801 15.213v14.046c0 8.556-13.272 8.567-13.272 0v-14.046c0-8.389-6.83-15.213-15.224-15.213-13.14.001-20.863-16.205-11.264-25.804z"/><path d="m31.18 91.571c2.956 13.888 15.967 23.927 30.06 23.927.121 0 .212.092.212.213v14.045c0 27.927 43.272 27.825 43.272 0v-14.045c.18-.281.447-.352.8-.213 38.948 0 38.679-60.235 0-60.235h-34.058c-2.736-14.78-15.723-26.011-31.284-26.011-17.542 0-31.814 14.271-31.814 31.814.001 14.21 9.619 26.579 22.812 30.505zm9.003-47.319c9.271 0 16.814 7.543 16.814 16.814 0 4.543 2.096 9.196 7.432 9.196h41.096c19.253 0 19.829 30.235 0 30.235-8.451-.011-15.8 6.545-15.8 15.213v14.045c0 8.557-13.272 8.568-13.272 0v-14.045c0-8.389-6.824-15.213-15.212-15.213-8.29 0-15.764-6.773-15.706-15.22 0-3.892-2.977-7.137-6.854-7.472-8.586-.743-15.312-8.097-15.312-16.74 0-9.27 7.542-16.813 16.814-16.813z"/><path d="m128.143 407.851h26.028c4.142 0 7.5-3.357 7.5-7.5v-26.027c0-4.143-3.358-7.5-7.5-7.5h-26.028c-4.142 0-7.5 3.357-7.5 7.5v26.027c0 4.142 3.357 7.5 7.5 7.5zm7.5-26.028h11.028v11.027h-11.028z"/><path d="m181.674 407.851h26.027c4.142 0 7.5-3.357 7.5-7.5v-26.027c0-4.143-3.358-7.5-7.5-7.5h-26.027c-4.142 0-7.5 3.357-7.5 7.5v26.027c0 4.142 3.358 7.5 7.5 7.5zm7.5-26.028h11.027v11.027h-11.027z"/><path d="m261.232 366.823h-26.028c-4.142 0-7.5 3.357-7.5 7.5v26.027c0 4.143 3.358 7.5 7.5 7.5h26.028c4.143 0 7.5-3.357 7.5-7.5v-26.027c0-4.142-3.357-7.5-7.5-7.5zm-7.5 26.028h-11.028v-11.027h11.028z"/><path d="m261.232 425.5h-208.732c-4.142 0-7.5 3.357-7.5 7.5s3.358 7.5 7.5 7.5h208.732c4.143 0 7.5-3.357 7.5-7.5s-3.357-7.5-7.5-7.5z"/></g></svg>