<svg id="layer" height="60" viewBox="0 0 60 60" width="60" xmlns="http://www.w3.org/2000/svg"><path d="m59.47 20.74a2.5907 2.5907 0 0 0 -2.09-1.03 1 1 0 0 0 0 2 .584.584 0 0 1 .49.24005.60477.60477 0 0 1 .11.54l-6.48 23.15995a.621.621 0 0 1 -.6.45h-30.72a1.01714 1.01714 0 0 1 -.98-.75l-6.39-23.64h13.52a1 1 0 0 0 0-2h-14.06l-2.88-10.63a2.60211 2.60211 0 0 0 -2.52-1.93h-5.87a1 1 0 0 0 0 2h5.87a.60073.60073 0 0 1 .59.45l9.81 36.27a3.02546 3.02546 0 0 0 2.41 2.19 5.94806 5.94806 0 1 0 8.84.04h14.32a5.87865 5.87865 0 0 0 -1.5 3.94 5.94 5.94 0 1 0 11.87994 0 5.8642 5.8642 0 0 0 -1.6-4.05 2.59133 2.59133 0 0 0 1.8-1.8l6.48006-23.16a2.60482 2.60482 0 0 0 -.43-2.29zm-35.39 35.25a3.945 3.945 0 1 1 3.95-3.95 3.94983 3.94983 0 0 1 -3.95 3.95zm23.2 0a3.945 3.945 0 1 1 3.94-3.95 3.94983 3.94983 0 0 1 -3.94 3.95zm-5.35275-34.59107a5.88528 5.88528 0 0 1 -5.37207-8.10108 1.00025 1.00025 0 0 1 1.83789.79c-1.54912 3.59561 2.96833 6.89269 5.95884 4.44468a3.86 3.86 0 0 0 -2.86607-6.77573 1 1 0 0 1 -.2334-1.98633 5.83378 5.83378 0 1 1 .67481 11.62842zm0 13.72851a.99976.99976 0 0 1 -.89454-.55322l-2.99316-5.99609a13.58925 13.58925 0 1 1 7.83252-.03711l-3.05029 6.0332a.99976.99976 0 0 1 -.89453.55322zm-.01563-31.11719a11.425 11.425 0 0 0 -7.69189 2.94629 11.56047 11.56047 0 0 0 4.3457 19.67188 2.08966 2.08966 0 0 1 1.26318 1.05615l2.09864 4.20361 2.09765-4.20218a2.0973 2.0973 0 0 1 1.26563-1.0586 11.57352 11.57352 0 0 0 8.09961-12.55029 11.594 11.594 0 0 0 -10.14453-9.99264 12.05436 12.05436 0 0 0 -1.33399-.07422z"/></svg>