<svg id="Layer_5" enable-background="new 0 0 64 64" height="512" viewBox="0 0 64 64" width="512" xmlns="http://www.w3.org/2000/svg"><g><path d="m57.118 25.259c.585 2.187.882 4.455.882 6.741 0 5.171-1.514 10.166-4.378 14.443l1.662 1.113c3.085-4.608 4.716-9.988 4.716-15.556 0-2.461-.32-4.902-.951-7.259z"/><path d="m32 6c1.289 0 2.585.096 3.854.283l.293-1.979c-1.365-.201-2.76-.304-4.147-.304-5.568 0-10.948 1.631-15.557 4.716l1.112 1.662c4.279-2.864 9.274-4.378 14.445-4.378z"/><path d="m6.882 38.741c-.585-2.187-.882-4.455-.882-6.741 0-5.171 1.514-10.166 4.378-14.443l-1.662-1.113c-3.085 4.608-4.716 9.988-4.716 15.556 0 2.461.32 4.902.951 7.259z"/><path d="m32 58c-1.621 0-3.241-.149-4.816-.444l-.368 1.965c1.695.318 3.439.479 5.184.479 5.569 0 10.948-1.631 15.556-4.716l-1.112-1.662c-4.278 2.864-9.273 4.378-14.444 4.378z"/><path d="m51 48c-1.654 0-3 1.346-3 3s1.346 3 3 3 3-1.346 3-3-1.346-3-3-3zm0 4c-.551 0-1-.448-1-1s.449-1 1-1 1 .448 1 1-.449 1-1 1z"/><path d="m13 16c1.654 0 3-1.346 3-3s-1.346-3-3-3-3 1.346-3 3 1.346 3 3 3zm0-4c.551 0 1 .448 1 1s-.449 1-1 1-1-.448-1-1 .449-1 1-1z"/><path d="m58.306 5h-3.407c-.465-2.279-2.485-4-4.899-4s-4.434 1.721-4.899 4h-3.407c-2.588 0-4.694 2.105-4.694 4.694 0 .259.021.517.064.771l.022.132c-1.664-.394-3.368-.597-5.086-.597-12.131 0-22 9.869-22 22 0 2.063.311 4.115.891 6.115-.895.718-1.553 1.72-1.79 2.885h-3.407c-2.588 0-4.694 2.105-4.694 4.694 0 .259.021.517.064.771l1.435 8.611c.379 2.275 2.326 3.924 4.63 3.924h2.568l5.361 3.574c.419.279.905.426 1.407.426 1.398 0 2.535-1.138 2.535-2.535v-1.465h1.871c2.304 0 4.251-1.649 4.63-3.923l.333-1.995c2.026.597 4.093.918 6.166.918 12.131 0 22-9.869 22-22 0-2.702-.508-5.324-1.462-7.823l1.765-1.177h2.568c2.304 0 4.251-1.649 4.63-3.923l1.435-8.61c.043-.256.064-.514.064-.773 0-2.589-2.106-4.694-4.694-4.694zm-8.306-2c1.654 0 3 1.346 3 3s-1.346 3-3 3-3-1.346-3-3 1.346-3 3-3zm-12.552 9.769 1.051 6.308c.12.718.409 1.362.803 1.923h-12.222c1.17-5.502 3.112-9 4.92-9 1.848 0 3.676.268 5.448.769zm14.501 20.231c-.143 2.867-.884 5.573-2.113 8h-10.51c.397-2.555.622-5.287.666-8zm-14.656 8h-10.593c-.403-2.49-.634-5.214-.679-8h11.962c-.048 2.903-.296 5.6-.69 8zm-25.242-10c.143-2.867.884-5.573 2.113-8h10.51c-.397 2.555-.622 5.287-.666 8zm13.966 0c.048-2.903.296-5.6.69-8h10.593c.403 2.49.634 5.214.679 8zm2.217-18.633c-1.419 1.986-2.494 5.065-3.206 8.633h-9.714c2.92-4.414 7.539-7.602 12.92-8.633zm-16.194 20.633h11.981c.044 2.774.268 5.492.656 8h-2.372-3.407c-.465-2.279-2.484-4-4.899-4-.45 0-.878.079-1.294.191-.371-1.378-.593-2.779-.665-4.191zm1.96 12c-1.654 0-3-1.346-3-3s1.346-3 3-3 3 1.346 3 3-1.346 3-3 3zm9.528 9.749c-.217 1.304-1.335 2.251-2.657 2.251h-3.871v3.465c0 .4-.499.666-.832.445l-5.865-3.91h-3.174c-1.323 0-2.44-.947-2.658-2.251l-1.435-8.612c-.024-.147-.036-.295-.036-.443 0-1.485 1.208-2.694 2.694-2.694h3.407c.213 1.047.765 1.965 1.522 2.663-3.293 1.339-5.623 4.569-5.623 8.337v1h18v-1c0-3.768-2.33-6.998-5.623-8.337.757-.699 1.309-1.616 1.522-2.663h3.407c1.486 0 2.694 1.209 2.694 2.694 0 .147-.012.296-.037.443zm-9.528-7.749c3.521 0 6.442 2.612 6.929 6h-13.858c.487-3.388 3.408-6 6.929-6zm12.165 4.093.771-4.627c.043-.255.064-.513.064-.772 0-1.004-.323-1.93-.862-2.694h10.782c-1.17 5.502-3.112 9-4.92 9-1.96 0-3.917-.317-5.835-.907zm9.601.54c1.419-1.986 2.494-5.065 3.206-8.633h9.714c-2.92 4.414-7.539 7.602-12.92 8.633zm16.184-20.633h-11.971c-.044-2.774-.268-5.492-.656-8h3.807 1.87v1.465c0 1.397 1.137 2.535 2.535 2.535.502 0 .988-.147 1.406-.426l1.887-1.258c.652 1.83 1.026 3.732 1.122 5.684zm9.013-20.862-1.435 8.611c-.217 1.304-1.335 2.251-2.657 2.251h-3.173l-5.865 3.91c-.336.222-.833-.045-.833-.445v-3.465h-1-2.871c-1.323 0-2.44-.947-2.658-2.251l-1.435-8.612c-.024-.147-.036-.295-.036-.443 0-1.485 1.208-2.694 2.694-2.694h3.407c.213 1.047.765 1.965 1.522 2.663-3.293 1.339-5.623 4.569-5.623 8.337v1h18v-1c0-3.768-2.33-6.998-5.623-8.337.757-.698 1.308-1.616 1.522-2.663h3.407c1.486 0 2.694 1.209 2.694 2.694 0 .148-.012.296-.037.444zm-10.963.862c3.521 0 6.442 2.612 6.929 6h-13.858c.487-3.388 3.408-6 6.929-6z"/></g></svg>