<svg id="Layer_1" enable-background="new 0 0 512 512" fillColor="red" viewBox="0 0 512 512" xmlns="http://www.w3.org/2000/svg"><path d="m480.235 209.236c-18.979 0-35.289-10.915-42.567-28.484-7.277-17.57-3.462-36.822 9.959-50.242 8.875-8.876 8.875-23.319 0-32.195l-33.941-33.941c-4.299-4.299-10.017-6.667-16.098-6.667-6.082 0-11.799 2.368-16.098 6.667-13.422 13.419-32.674 17.235-50.243 9.958s-28.483-23.588-28.483-42.566c0-12.554-10.212-22.766-22.765-22.766h-47.998c-12.553 0-22.765 10.212-22.765 22.765 0 19.006-10.908 35.331-28.468 42.604-17.559 7.275-36.818 3.444-50.258-9.995-4.3-4.299-10.017-6.667-16.098-6.667s-11.799 2.368-16.099 6.667l-33.939 33.94c-4.3 4.3-6.668 10.017-6.668 16.098s2.368 11.799 6.667 16.098c13.421 13.42 17.236 32.672 9.958 50.242-7.277 17.569-23.588 28.483-42.566 28.483-12.552.001-22.765 10.214-22.765 22.766v23.999c0 3.866 3.134 7 7 7h122.717c3.866 0 7-3.134 7-7 0-60.811 49.473-110.284 110.283-110.284s110.284 49.473 110.284 110.284c0 3.866 3.134 7 7 7h122.716c3.866 0 7-3.134 7-7v-23.999c0-12.552-10.212-22.765-22.765-22.765zm8.765 39.764h-108.91c-3.646-65.285-57.91-117.284-124.09-117.284s-120.443 52-124.089 117.284h-108.911v-16.999c0-4.833 3.933-8.765 8.766-8.765 24.748 0 46.015-14.226 55.501-37.126 9.485-22.901 4.508-47.999-12.992-65.499-1.656-1.655-2.567-3.857-2.567-6.199s.911-4.543 2.567-6.198l33.939-33.94c1.655-1.655 3.857-2.567 6.199-2.567s4.543.911 6.198 2.566c17.52 17.519 42.624 22.512 65.515 13.03s37.11-30.763 37.11-55.539c0-4.833 3.932-8.765 8.765-8.765h47.998c4.833 0 8.765 3.932 8.765 8.765 0 24.749 14.226 46.015 37.126 55.501s47.999 4.508 65.5-12.993c1.654-1.655 3.855-2.566 6.198-2.566 2.342 0 4.544.912 6.198 2.566l33.94 33.941c3.418 3.417 3.418 8.979.001 12.397-17.501 17.5-22.479 42.598-12.993 65.499 9.485 22.9 30.752 37.126 55.501 37.126 4.833 0 8.765 3.932 8.765 8.765zm-165.3 14c3.866 0 7-3.134 7-7 0-41.189-33.511-74.7-74.7-74.7s-74.699 33.51-74.699 74.7c0 3.866 3.134 7 7 7zm-67.7-67.7c31.103 0 56.816 23.516 60.299 53.7h-120.597c3.483-30.184 29.196-53.7 60.298-53.7zm161.749 83.4h-323.498c-18.021 0-36.082 7.575-49.554 20.784-13.912 13.641-21.573 31.52-21.573 50.343 0 17.856 6.646 34.931 18.712 48.077 10.806 11.774 25.107 19.499 40.707 22.084 7.699 30.975 35.746 53.997 69.068 53.997 5.638 0 11.197-.657 16.587-1.943 15.131 19.475 38.408 30.958 63.234 30.958 20.132 0 39.621-7.693 54.343-21.282 13.34 9.216 29.325 14.336 46.046 14.336 42.747 0 77.869-33.274 80.828-75.281 1.698.121 3.402.182 5.101.182 39.22 0 71.127-31.907 71.127-71.127 0-18.92-7.515-36.789-21.16-50.315-13.539-13.422-31.284-20.813-49.968-20.813zm-165.749 54.953c1.233-.712 2.601-1.076 3.987-1.076.694 0 1.395.092 2.083.276 2.064.553 3.789 1.877 4.858 3.728 2.205 3.82.892 8.722-2.929 10.928-3.821 2.207-8.724.892-10.928-2.928-1.069-1.851-1.353-4.007-.8-6.07.555-2.065 1.878-3.789 3.729-4.858zm165.749 73.301c-1.772 0-3.553-.082-5.319-.246-.666-6.536-2.12-12.943-4.348-19.13-1.31-3.638-5.318-5.524-8.957-4.215-3.637 1.309-5.524 5.319-4.215 8.957 2.614 7.265 3.94 14.903 3.94 22.703 0 27.352-16.476 50.915-40.017 61.326l.052-41.129c.002-1.859-.735-3.644-2.05-4.959l-15.987-15.987c.644-1.301 1.165-2.673 1.549-4.107 1.521-5.676.741-11.604-2.197-16.693-6.066-10.505-19.547-14.118-30.053-8.053-10.506 6.066-14.118 19.548-8.053 30.053 4.07 7.05 11.479 10.995 19.09 10.995 3.3 0 6.639-.746 9.759-2.3l13.938 13.938-.054 42.67c-4.21.832-8.558 1.278-13.008 1.278-22.463 0-43.327-11.174-55.811-29.89-2.144-3.217-6.491-4.085-9.707-1.939-3.217 2.145-4.085 6.491-1.939 9.707 3.101 4.65 6.63 8.914 10.517 12.755-11.971 10.435-27.463 16.312-43.447 16.312-18.897 0-36.711-8.068-49.163-21.939 3.141-1.502 6.182-3.24 9.101-5.21 3.204-2.163 4.049-6.514 1.887-9.719-2.162-3.204-6.513-4.048-9.718-1.887-5.061 3.415-10.582 5.958-16.376 7.591l-.041-19.731 13.943-13.944c3.048 1.51 6.416 2.308 9.827 2.308 3.729 0 7.507-.948 10.962-2.942 5.09-2.938 8.729-7.683 10.251-13.359 1.521-5.676.74-11.604-2.198-16.693s-7.683-8.729-13.358-10.25-11.606-.741-16.694 2.198c-5.09 2.938-8.729 7.682-10.251 13.357-1.401 5.232-.825 10.669 1.571 15.474l-16.008 16.009c-1.315 1.315-2.054 3.103-2.05 4.964l.051 24.731c-.518.014-1.036.029-1.555.029-31.519 0-57.16-25.642-57.16-57.159 0-3.865.388-7.728 1.152-11.479.771-3.788-1.674-7.484-5.462-8.257-3.796-.769-7.485 1.675-8.257 5.462-.951 4.67-1.434 9.472-1.434 14.274 0 .829.015 1.651.042 2.474-25.24-6.146-43.369-28.664-43.369-55.473 0-30.433 26.695-57.127 57.127-57.127h56.207l.038 13.95-13.929 13.928c-1.301-.644-2.674-1.165-4.108-1.55-5.676-1.521-11.604-.739-16.693 2.198-5.089 2.938-8.729 7.683-10.25 13.358-1.521 5.676-.741 11.605 2.197 16.694 4.07 7.05 11.479 10.995 19.09 10.995 3.729 0 7.508-.948 10.964-2.943 10.103-5.834 13.804-18.521 8.677-28.829l16.01-16.01c1.317-1.317 2.055-3.106 2.05-4.969l-.045-16.823h84.54v27.019c-1.375.465-2.715 1.068-4 1.811-5.089 2.938-8.729 7.682-10.25 13.357-1.521 5.677-.741 11.605 2.197 16.694 4.07 7.05 11.479 10.996 19.09 10.995 3.729 0 7.508-.948 10.963-2.943 10.506-6.066 14.118-19.548 8.053-30.052-2.707-4.69-6.96-8.127-12.053-9.832v-27.05h84.543l-.046 16.822c-.005 1.863.732 3.651 2.05 4.97l15.987 15.987c-.644 1.301-1.165 2.674-1.549 4.107-1.521 5.676-.74 11.605 2.198 16.694s7.683 8.729 13.358 10.25c1.896.508 3.819.76 5.73.76 3.812 0 7.574-1 10.964-2.957 0 0 0-.001.001-.001 10.504-6.065 14.115-19.546 8.052-30.052-2.938-5.089-7.683-8.729-13.359-10.251-5.231-1.401-10.668-.825-15.473 1.571l-13.951-13.95.039-13.95h56.206c30.966 0 57.127 26.161 57.127 57.127-.001 31.5-25.628 57.127-57.128 57.127zm-92.602 4.448c-3.821 2.203-8.723.892-10.928-2.929-2.206-3.82-.893-8.723 2.928-10.929 1.256-.726 2.63-1.07 3.985-1.07 2.768 0 5.463 1.436 6.943 3.999 1.068 1.851 1.352 4.006.799 6.07s-1.876 3.79-3.727 4.859zm-142.022-9c.553-2.063 1.877-3.788 3.728-4.856 0 0 0 0 0-.001 1.232-.711 2.601-1.074 3.986-1.074.695 0 1.395.091 2.084.275 2.064.554 3.789 1.877 4.858 3.728 1.068 1.851 1.352 4.006.799 6.07-.553 2.063-1.877 3.789-3.728 4.857-3.818 2.204-8.724.891-10.928-2.928-1.069-1.85-1.352-4.006-.799-6.071zm-52.359-55.194c-3.824 2.206-8.724.892-10.929-2.928-1.069-1.851-1.353-4.007-.8-6.07.554-2.064 1.877-3.789 3.728-4.857 0 0 0-.001.001-.001 1.232-.711 2.6-1.075 3.986-1.075.694 0 1.395.092 2.083.276 2.064.553 3.789 1.877 4.857 3.728 2.206 3.82.892 8.722-2.926 10.927zm250.47-13.856c1.232-.711 2.6-1.075 3.986-1.075.694 0 1.395.092 2.083.276 2.064.553 3.789 1.877 4.857 3.728 2.205 3.82.892 8.723-2.929 10.929-1.85 1.067-4.006 1.353-6.069.799-2.064-.554-3.789-1.877-4.857-3.728-1.069-1.851-1.353-4.007-.8-6.071.554-2.064 1.878-3.789 3.729-4.858z"/></svg>