<svg id="Layer_1" viewBox="0 0 64 64" xmlns="http://www.w3.org/2000/svg" data-name="Layer 1"><path d="m33 11v-4.18c1.16-.41 2-1.51 2-2.82 0-1.65-1.35-3-3-3s-3 1.35-3 3c0 1.3.84 2.4 2 2.82v4.18zm-1-8c.55 0 1 .45 1 1s-.45 1-1 1-1-.45-1-1 .45-1 1-1z"/><path d="m28.46 26h-2c-.45 0-.85.31-.97.75l-2.96 11.25h2.07l1.05-4h3.62l1.05 4h2.07l-2.96-11.25c-.12-.44-.51-.75-.97-.75zm-2.28 6 1.05-4h.46l1.05 4z"/><path d="m34.46 28h2.5v8h-2.5v2h7v-2h-2.5v-8h2.5v-2h-7z"/><path d="m60 29c-1.3 0-2.4.84-2.82 2h-4.18v2h4.18c.41 1.16 1.51 2 2.82 2 1.65 0 3-1.35 3-3s-1.35-3-3-3zm0 4c-.55 0-1-.45-1-1s.45-1 1-1 1 .45 1 1-.45 1-1 1z"/><path d="m44.67 17.84c-4.08-3.65-9.35-5.33-14.84-4.72-8.94.99-15.99 8.23-16.76 17.2-.72 8.4 4.16 16.24 11.93 19.32v6.35c0 3.86 3.14 7 7 7s7-3.14 7-7v-6.35c7.21-2.86 12-9.86 12-17.65 0-5.4-2.31-10.56-6.33-14.16zm-12.67 43.16c-2.05 0-3.8-1.24-4.58-3h9.15c-.77 1.76-2.53 3-4.58 3zm5-5h-10v-3h10zm.67-7.99c-.4.14-.67.52-.67.94v2.05h-10v-2.05c0-.42-.27-.8-.67-.94-7.3-2.58-11.93-9.79-11.27-17.52.69-8.03 6.99-14.5 14.99-15.39.66-.07 1.32-.11 1.97-.11 4.19 0 8.15 1.5 11.31 4.33 3.6 3.22 5.67 7.84 5.67 12.67 0 7.18-4.55 13.61-11.33 16.01z"/><path d="m11 31h-4.18c-.41-1.16-1.51-2-2.82-2-1.65 0-3 1.35-3 3s1.35 3 3 3c1.3 0 2.4-.84 2.82-2h4.18zm-7 2c-.55 0-1-.45-1-1s.45-1 1-1 1 .45 1 1-.45 1-1 1z"/><path d="m50.52 49.11-2.97-2.97-1.41 1.41 2.96 2.96c-.19.4-.3.83-.3 1.29 0 .8.31 1.55.88 2.12.57.57 1.32.88 2.12.88s1.56-.31 2.12-.88.88-1.32.88-2.12-.31-1.55-.88-2.12c-.89-.89-2.29-1.07-3.4-.57zm1.98 3.4c-.38.38-1.03.38-1.41 0-.19-.19-.29-.44-.29-.71s.1-.52.29-.71.44-.29.71-.29.52.1.71.29.29.44.29.71-.1.52-.29.71z"/><path d="m10.08 10.08c-.57.57-.88 1.32-.88 2.12s.31 1.55.88 2.12 1.32.88 2.12.88c.45 0 .89-.11 1.29-.3l2.96 2.96 1.41-1.41-2.96-2.96c.19-.4.3-.83.3-1.29 0-.8-.31-1.55-.88-2.12-1.14-1.13-3.11-1.13-4.24 0zm2.83 2.83c-.38.38-1.04.38-1.41 0-.19-.19-.29-.44-.29-.71s.1-.52.29-.71.44-.29.71-.29.52.1.71.29c.19.19.29.44.29.71s-.1.52-.29.71z"/><path d="m47.56 17.86 2.96-2.96c.4.19.83.3 1.29.3.8 0 1.55-.31 2.12-.88.57-.57.88-1.32.88-2.12s-.31-1.56-.88-2.12c-1.13-1.13-3.11-1.13-4.24 0-.57.57-.88 1.32-.88 2.12 0 .45.11.89.3 1.29l-2.96 2.96zm3.54-6.36c.19-.19.44-.29.71-.29s.52.1.71.29.29.44.29.71-.1.52-.29.71c-.38.38-1.03.38-1.41 0-.19-.19-.29-.44-.29-.71s.1-.52.29-.71z"/><path d="m16.44 46.14-2.97 2.97c-1.11-.5-2.51-.32-3.4.57-.57.57-.88 1.32-.88 2.12s.31 1.56.88 2.12 1.32.88 2.12.88 1.55-.31 2.12-.88.88-1.32.88-2.12c0-.45-.11-.89-.3-1.29l2.96-2.96zm-3.54 6.36c-.38.38-1.04.38-1.41 0-.19-.19-.29-.44-.29-.71s.1-.52.29-.71c.19-.19.44-.29.71-.29s.52.1.71.29.29.44.29.71-.1.52-.29.71z"/></svg>