<?xml version="1.0"?>
<svg xmlns="http://www.w3.org/2000/svg" id="line_copy_2" data-name="line copy 2" viewBox="0 0 64 64"><path d="M24.59766,32.6142a7.28423,7.28423,0,0,0,7.27606,7.27606c9.653-.3996,9.64978-14.15454,0-14.55255A7.28433,7.28433,0,0,0,24.59766,32.6142Zm13.12359,0a5.85427,5.85427,0,0,1-5.84753,5.84747c-7.74695-.29407-7.74451-11.40234.00012-11.69537A5.85456,5.85456,0,0,1,37.72125,32.6142Z"/><path d="M40.93274,40.9505l-3.593-1.19275a.71447.71447,0,0,0-.45062,1.356l3.59235,1.19244A4.78824,4.78824,0,0,1,43.75708,46.857v2.85712a.85818.85818,0,0,1-.85724.8573H20.84973a.86192.86192,0,0,1-.86426-.8573V46.857a4.79182,4.79182,0,0,1,3.28266-4.55078l3.58606-1.19281a.71415.71415,0,1,0-.45063-1.35534l-3.58673,1.19281A6.21875,6.21875,0,0,0,18.55688,46.857v2.85712A2.29217,2.29217,0,0,0,20.84973,52H42.89984a2.28839,2.28839,0,0,0,2.28583-2.28589V46.857A6.21613,6.21613,0,0,0,40.93274,40.9505Z"/><path d="M30.2157,15.382l.94513-.945v8.75574a.71444.71444,0,0,0,1.42859-.00006V14.43988l.94238.94214a.71434.71434,0,0,0,1.01-1.01007l-2.163-2.16272a.71411.71411,0,0,0-1.01007,0L29.20563,14.372A.71434.71434,0,0,0,30.2157,15.382Z"/><path d="M19.16724,23.3288a.71393.71393,0,0,0,0-1.01l-.96173-.96161h5.74066a1.44811,1.44811,0,0,1,1.44317,1.44989v2.3786a.71438.71438,0,0,0,1.42859-.00006V22.80707a2.87836,2.87836,0,0,0-2.87176-2.87842H18.24164l.9256-.92566a.71434.71434,0,0,0-1.01007-1.01l-2.163,2.163a.71834.71834,0,0,0,0,1.01007l2.16309,2.16272A.71393.71393,0,0,0,19.16724,23.3288Z"/><path d="M45.84277,17.99292A.71423.71423,0,0,0,44.8327,19.003l.92566.92566h-5.955a2.8816,2.8816,0,0,0-2.87873,2.87842v2.37164a.7144.7144,0,0,0,1.42853-.00006V22.80707a1.45188,1.45188,0,0,1,1.4502-1.44989h5.99108l-.96179.96161a.71434.71434,0,0,0,1.01013,1.00995l2.163-2.16266a.71834.71834,0,0,0,0-1.01007Z"/><path d="M32,2A30,30,0,1,0,62,32,30.034,30.034,0,0,0,32,2Zm0,58.38965A28.38965,28.38965,0,1,1,60.38965,32,28.42226,28.42226,0,0,1,32,60.38965Z"/></svg>
