<svg width="1440" height="49" viewBox="0 0 1440 49" fill="none" xmlns="http://www.w3.org/2000/svg">
<g clip-path="url(#clip0_509_3030)">
<g style="mix-blend-mode:color-dodge">
<path d="M-62.3116 187.986C-10.3696 147.514 47.4967 120.643 113.102 143.967C168.465 163.64 214.316 208.493 255.244 248.819C297.799 290.773 354.914 373.178 424.588 359.117C463.575 351.252 497.87 319.729 526.615 294.153C592.346 235.635 651.046 168.918 710.436 104.183C764.818 44.9142 828.692 -9.11838 882.637 76.3741C917.933 132.305 944.738 221.574 1024.44 222.679C1095.91 223.66 1155.51 171.776 1222.24 154.002C1326.11 126.318 1427.61 217.067 1502.21 275.043" stroke="#666666" stroke-miterlimit="10"/>
<path d="M-62.3116 165.622C-5.0085 120.539 56.1329 96.2973 126.182 127.59C184.111 153.48 234.843 202.464 279.671 245.836C319.89 284.765 369.725 350.459 433.14 329.993C471.836 317.497 505.484 284.118 534.354 257.289C592.221 203.528 645.998 145.302 700.59 88.2654C752.615 33.8781 815.738 -19.0279 871.664 56.8055C911.445 110.755 936.769 197.04 1016.18 200.983C1086.92 204.488 1155.32 157.819 1223.51 145.302C1326.65 126.359 1422.56 197.457 1502.23 252.241" stroke="#666666" stroke-miterlimit="10"/>
<path d="M-62.3116 140.775C-0.690428 93.7522 62.0989 73.0779 134.088 110.212C189.242 138.647 240.141 184.439 285.512 226.226C327.796 265.175 379.717 332.288 443.612 302.581C476.968 287.08 504.42 257.561 530.62 232.589C585.733 180.017 637.863 124.273 691.682 70.4076C747.358 14.6852 810.44 -28.52 868.202 45.561C907.961 96.5686 936.602 176.866 1011.99 180.204C1081.35 183.292 1150.25 150.059 1217.94 139.002C1322.43 121.937 1415.2 175.218 1502.23 226.56" stroke="#666666" stroke-miterlimit="10"/>
<path d="M-62.3116 113.905C8.75926 62.6261 76.5551 51.0268 152.236 98.7382C206.619 133.015 256.892 179.453 305.559 221.323C346.195 256.288 391.899 311.176 448.765 279.382C479.22 262.359 504.566 232.005 528.826 207.45C580.476 155.149 630.77 101.575 683.922 50.7765C738.993 -1.85833 802.033 -39.848 860.65 26.66C904.415 76.3116 934.725 155.504 1009.93 162.68C1076.2 169.002 1148.42 143.091 1213.61 132.994C1317.78 116.867 1409.44 153.689 1502.19 198.646" stroke="#666666" stroke-miterlimit="10"/>
<path d="M-62.3116 85.5117C14.6836 33.7113 85.4833 28.1621 162.645 82.3616C220.866 123.251 273.184 174.926 328.547 219.738C366.617 250.53 408.734 292.755 456.316 257.373C487.773 233.987 513.452 198.751 539.569 170.045C583.73 121.54 628.997 73.6829 677.581 29.5807C737.116 -24.4728 801.678 -50.0079 861.631 15.1442C905.521 62.8347 939.147 137.27 1011.26 145.344C1079.52 152.979 1153.32 135.059 1220.93 125.775C1320.35 112.132 1408.84 134.35 1502.21 168.918" stroke="#666666" stroke-miterlimit="10"/>
<path d="M-62.3116 56.0336C25.4683 1.1457 100.085 6.98709 180.669 71.3255C241.81 120.143 293.919 176.95 357.647 223.013C401.37 254.598 432.89 272.435 472.796 228.416C540.612 153.605 595.537 68.3422 674.994 3.83692C733.319 -43.499 797.485 -61.1482 855.602 -6.05168C904.707 40.4914 937.75 111.944 1008.63 128.717C1074.07 144.176 1156.2 128.925 1221.99 119.955C1319.1 106.707 1406.73 114.489 1502.23 138.021" stroke="#666666" stroke-miterlimit="10"/>
<path d="M-62.3116 25.9717C35.9819 -31.3779 116.023 -12.7482 198.9 60.6652C258.269 113.258 307.645 174.155 375.024 217.36C424.483 249.091 450.517 254.703 484.352 204.175C537.963 124.127 591.928 42.3067 670.029 -16.7328C733.173 -64.4859 797.152 -75.209 858.856 -20.1541C910.235 25.7005 946.803 99.4686 1019.46 115.699C1083.9 130.094 1159.1 123.251 1224.06 114.406C1318.37 101.555 1406.96 95.7551 1502.23 106.374" stroke="#666666" stroke-miterlimit="10"/>
<path d="M-62.3116 -4.195C44.8266 -63.3388 128.643 -34.1946 213.565 46.7292C273.664 103.995 323.207 173.946 397.198 214.543C452.123 244.689 471.398 229.021 497.598 177.346C539.277 95.1708 591.991 12.1191 669.195 -41.4128C734.55 -86.7459 800.656 -88.1437 862.048 -36.0513C915.596 9.40705 954.605 81.2558 1026.34 101.408C1180.21 144.635 1347.65 80.0249 1502.23 74.6634" stroke="#666666" stroke-miterlimit="10"/>
<path d="M-62.3116 -34.0067C-9.01367 -62.3999 41.0926 -79.2563 100.732 -58.5821C150.067 -41.4753 190.473 -5.57175 226.665 30.9993C286.368 91.374 337.413 172.611 416.953 208.493C476.613 235.405 490.735 199.147 510.866 148.557C543.679 66.0266 593.222 -18.5271 670.634 -66.8435C839.352 -172.176 900.243 40.9505 1034.48 87.1599C1191.24 141.13 1348.93 73.0363 1502.23 43.3497" stroke="#666666" stroke-miterlimit="10"/>
<path d="M-62.3116 -62.9841C-6.71904 -92.3995 44.5137 -108.797 105.238 -86.4539C156.179 -67.7198 197.357 -29.438 234.259 9.34445C292.292 70.3241 352.307 175.886 438.877 200.169C499.476 217.172 509.03 160.469 524.383 114.823C551.251 34.9213 597.561 -53.179 675.036 -95.4454C835.868 -183.191 916.869 14.101 1038.3 69.8651C1197.61 143.028 1351.87 68.0084 1502.21 12.9745" stroke="#666666" stroke-miterlimit="10"/>
<path d="M-62.3116 -90.6262C-6.17668 -121.168 44.3886 -137.753 106.177 -116.12C157.409 -98.1783 199.276 -58.1441 235.698 -19.1321C294.795 44.1841 358.148 164.453 450.037 182.395C512.493 194.599 521.254 132.201 534.897 85.3448C558.323 4.96349 600.502 -84.013 681.461 -121.398C842.523 -195.771 929.385 -6.36459 1048.18 54.8863C1110.03 86.7634 1190.12 103.098 1259.02 91.9998C1346.36 77.9388 1426.23 26.1801 1502.23 -15.8151" stroke="#666666" stroke-miterlimit="10"/>
<path d="M-62.3116 -116.495C-2.52614 -151.063 55.2567 -170.987 121.446 -141.112C171.115 -118.685 210.52 -77.4622 246.128 -37.4488C299.489 22.5085 366.742 148.828 456.504 158.299C524.07 165.434 532.602 91.6452 547.079 41.8267C569.462 -35.1749 609.764 -117.726 690.889 -147.433C850.742 -205.993 943.173 -30.3975 1058.51 38.2176C1116.79 72.8903 1192.97 96.6312 1261.15 88.1404C1352.47 76.7497 1431.51 10.6589 1502.19 -42.6435" stroke="#666666" stroke-miterlimit="10"/>
<path d="M-62.3116 -140.09C-5.86377 -176.056 49.7079 -201.09 116.398 -174.158C169.842 -152.565 212.397 -106.732 249.111 -63.9019C301.595 -2.67193 367.597 123.043 460.843 125.254C527.324 126.819 539.632 51.9657 555.319 1.9803C579.579 -75.2508 617.941 -150.166 703.03 -172.009C865.97 -213.858 956.441 -53.304 1073.03 23.7185C1130.1 61.437 1206.22 92.5422 1275.75 82.5076C1366.68 69.3645 1439.73 -6.21848 1502.21 -66.8435" stroke="#666666" stroke-miterlimit="10"/>
<path d="M-62.3116 -160.931C-10.4947 -198.504 43.3247 -229.984 109.222 -207.912C160.58 -190.722 201.028 -148.623 235.594 -108.693C292.208 -43.3111 349.157 72.9945 446.616 80.4214C520.712 86.0541 539.966 14.0385 561.285 -42.9356C590.364 -120.667 630.895 -186.487 719.948 -198.524C877.818 -219.866 968.79 -84.1172 1078.47 1.33354C1133.46 44.1632 1207.91 85.1779 1279.86 78.1683C1375.29 68.8638 1445.53 -19.8831 1502.21 -87.9141" stroke="#666666" stroke-miterlimit="10"/>
<path d="M-62.3116 -177.371C-10.7451 -213.357 42.4277 -242.981 107.011 -221.953C157.305 -205.576 197.336 -165.333 231.484 -126.613C286.493 -64.2776 344.714 55.3869 439.377 58.6622C512.576 61.1865 537.629 -3.65263 563.871 -60.6476C597.519 -133.685 643.057 -200.548 729.418 -212.21C881.761 -232.78 976.925 -105.96 1085.04 -24.8484C1138.09 14.9354 1212.92 55.4077 1281.05 54.0725C1376.29 52.1949 1446.84 -38.4087 1502.21 -104.541" stroke="#666666" stroke-miterlimit="10"/>
<path d="M-62.3116 -188.615C-11.5586 -223.35 40.8423 -252.161 104.153 -233.009C153.07 -218.218 192.517 -180.542 226.123 -143.658C280.255 -84.2217 338.226 34.191 429.823 34.7543C501.645 35.1924 532.226 -21.9695 563.579 -77.6502C601.879 -145.66 652.152 -210.917 735.447 -222.349C882.282 -242.481 981.473 -128.741 1089.65 -53.033C1142.18 -16.2741 1216.19 24.7406 1281.19 30.5402C1375.96 38.9893 1447.66 -52.5114 1502.19 -116.266" stroke="#666666" stroke-miterlimit="10"/>
<path d="M-62.3116 -195.583C-13.6238 -228.858 38.4225 -257.627 99.2302 -242.189C151.068 -229.046 192.246 -189.846 227.542 -151.898C281.194 -94.2145 334.993 12.9327 424.629 8.94807C492.446 5.94394 527.011 -45.5435 562.432 -96.2173C605.926 -158.469 658.431 -216.841 738.075 -228.149C882.7 -248.698 984.018 -150.375 1096.54 -80.237C1148.52 -47.8174 1214.48 -9.36875 1274.37 6.13172C1371.46 31.2496 1445.38 -59.7297 1502.21 -123.985" stroke="#666666" stroke-miterlimit="10"/>
<path d="M-62.3116 -199.171C-14.9588 -231.945 35.9819 -261.34 95.7882 -249.177C145.582 -239.038 186.051 -204.157 220.741 -169.13C275.145 -114.221 325.793 -15.6064 412.635 -19.4659C478.511 -22.3865 518.125 -65.7378 558.427 -112.448C606.718 -168.4 662.457 -221.556 739.035 -232.696C877.547 -252.849 983.684 -174.241 1097.52 -111.697C1154.01 -80.6541 1213.42 -42.7061 1272.72 -17.5883C1368.2 22.8631 1443.26 -64.6738 1502.19 -128.532" stroke="#666666" stroke-miterlimit="10"/>
</g>
</g>
<defs>
<clipPath id="clip0_509_3030">
<rect width="1566" height="1046" fill="white" transform="translate(-63 -499)"/>
</clipPath>
</defs>
</svg>
