<svg width="14" height="14" viewBox="0 0 14 14" fill="none" xmlns="http://www.w3.org/2000/svg">
<g clip-path="url(#clip0_1264_11)">
<path d="M5.25 0.243276C5.33519 0.34717 5.38738 0.474164 5.39985 0.607942C5.41233 0.74172 5.38452 0.876172 5.32 0.994026C4.81384 1.92271 4.54964 2.96387 4.55175 4.02153C4.55175 7.5399 7.42 10.3889 10.955 10.3889C11.417 10.3883 11.8641 10.3417 12.2964 10.2489C12.4286 10.2206 12.5662 10.2317 12.6922 10.2809C12.8182 10.33 12.927 10.415 13.0051 10.5254C13.0878 10.6402 13.13 10.7793 13.1251 10.9207C13.1202 11.0621 13.0684 11.1979 12.978 11.3068C12.2917 12.1497 11.4259 12.8289 10.4438 13.2949C9.46171 13.7608 8.38802 14.0017 7.301 14C3.26725 14 0 10.7503 0 6.74628C0 3.73278 1.84975 1.14803 4.4835 0.0525256C4.61465 -0.00321184 4.76038 -0.0147455 4.89866 0.0196678C5.03695 0.054081 5.16027 0.132571 5.25 0.243276ZM4.25075 1.14715C3.23809 1.69045 2.39152 2.49793 1.80099 3.48379C1.21046 4.46966 0.89802 5.59708 0.896875 6.74628C0.896875 10.2638 3.766 13.1128 7.301 13.1128C8.14748 13.114 8.98583 12.9475 9.76756 12.6228C10.5493 12.2981 11.2589 11.8217 11.8554 11.221C11.5602 11.2578 11.2601 11.2762 10.955 11.2762C6.92125 11.2762 3.65488 8.0264 3.65488 4.0224C3.65488 3.00128 3.86662 2.02915 4.25075 1.14715Z" fill="white"/>
</g>
<defs>
<clipPath id="clip0_1264_11">
<rect width="14" height="14" fill="white"/>
</clipPath>
</defs>
</svg>
