<svg width="69" height="68" viewBox="0 0 69 68" fill="none" xmlns="http://www.w3.org/2000/svg">
<circle cx="34.5" cy="34" r="34" fill="white" fill-opacity="0.26"/>
<path d="M28.4 26.8478C29.0067 26.2878 29.6133 26.0078 30.22 26.0078C30.8267 25.9611 31.3167 26.1244 31.69 26.4978C32.0633 26.8244 32.25 27.2911 32.25 27.8978C32.25 28.4578 31.9467 29.0178 31.34 29.5778C30.3133 30.6511 29.5433 31.6311 29.03 32.5178C28.5633 33.4044 28.2133 34.4078 27.98 35.5278L27.49 33.7078C28.89 33.7078 30.01 34.1044 30.85 34.8978C31.7367 35.6911 32.18 36.7644 32.18 38.1178C32.18 39.4244 31.7833 40.4978 30.99 41.3378C30.2433 42.1311 29.17 42.5278 27.77 42.5278C26.4167 42.5278 25.3667 42.0844 24.62 41.1978C23.8733 40.3111 23.5 39.1211 23.5 37.6278C23.5 36.2744 23.6867 34.9678 24.06 33.7078C24.4333 32.4478 24.97 31.2578 25.67 30.1378C26.4167 28.9711 27.3267 27.8744 28.4 26.8478ZM40.93 26.8478C41.5367 26.2878 42.1433 26.0078 42.75 26.0078C43.3567 25.9611 43.8467 26.1244 44.22 26.4978C44.5933 26.8244 44.78 27.2911 44.78 27.8978C44.78 28.4578 44.4767 29.0178 43.87 29.5778C42.8433 30.6511 42.0733 31.6311 41.56 32.5178C41.0933 33.4044 40.7433 34.4078 40.51 35.5278L40.02 33.7078C41.42 33.7078 42.54 34.1044 43.38 34.8978C44.2667 35.6911 44.71 36.7644 44.71 38.1178C44.71 39.4244 44.3133 40.4978 43.52 41.3378C42.7733 42.1311 41.7 42.5278 40.3 42.5278C38.9467 42.5278 37.8967 42.0844 37.15 41.1978C36.4033 40.3111 36.03 39.1211 36.03 37.6278C36.03 36.2744 36.2167 34.9678 36.59 33.7078C36.9633 32.4478 37.5 31.2578 38.2 30.1378C38.9467 28.9711 39.8567 27.8744 40.93 26.8478Z" fill="white"/>
</svg>
