<svg width="112" height="41" viewBox="0 0 112 41" fill="none" xmlns="http://www.w3.org/2000/svg">
<g clip-path="url(#clip0_74_4696)">
<path d="M12.7791 5.825H0.583252V34.9917L12.7791 5.825Z" fill="#E6E6E6"/>
<path d="M21.3606 5.825H33.5405V34.9917L21.3606 5.825Z" fill="#E6E6E6"/>
<path d="M17.0688 16.575L24.8312 34.9919H19.7383L17.4183 29.1283H11.7375L17.0688 16.575Z" fill="#E6E6E6"/>
<path d="M53.4364 24.3724L54.8745 28.496C54.9221 28.5993 54.9936 28.6469 55.1208 28.6469H57.8857C58.0366 28.6469 58.0605 28.5754 58.0366 28.4245L52.3241 12.558C52.3002 12.4309 52.2764 12.407 52.1493 12.407H48.717C48.6216 12.407 48.566 12.4785 48.566 12.5818C48.5183 13.4161 48.4468 13.6703 48.3435 13.9166L43.2507 28.4006C43.2269 28.5754 43.2825 28.6469 43.4255 28.6469H45.8964C46.0474 28.6469 46.1189 28.5993 46.1745 28.4483L47.5331 24.3724H53.4364ZM48.3197 21.679C49.0666 19.4226 50.0518 16.5306 50.449 14.878H50.4729C50.9655 16.61 52.1254 20.0423 52.6498 21.679H48.3197Z" fill="#E6E6E6"/>
<path d="M65.3803 28.8925C66.866 28.8925 68.4471 28.6223 70.052 27.9311C70.1791 27.8834 70.203 27.8278 70.203 27.7086C70.1553 27.2637 70.0997 26.6202 70.0997 26.1276V11.1907C70.0997 11.0953 70.0997 11.0477 69.9805 11.0477H67.2871C67.1838 11.0477 67.1361 11.0953 67.1361 11.2224V16.2835C66.715 16.2358 66.4211 16.212 66.0715 16.212C61.7255 16.212 59.0559 19.0802 59.0559 22.6635C59.0559 26.8188 61.797 28.8925 65.3803 28.8925ZM67.1361 26.1276C66.6912 26.2706 66.1986 26.3262 65.6981 26.3262C63.7277 26.3262 62.1148 25.2139 62.1148 22.5125C62.1148 20.121 63.7753 18.7068 65.9761 18.7068C66.4211 18.7068 66.8104 18.7545 67.1361 18.8816V26.1276Z" fill="#E6E6E6"/>
<path d="M78.7949 16.2117C75.0845 16.2117 72.7883 19.0561 72.7883 22.5678C72.7883 25.7062 74.6157 28.8922 78.7392 28.8922C82.2272 28.8922 84.6743 26.3259 84.6743 22.4884C84.6743 19.1038 82.6006 16.2117 78.7949 16.2117ZM78.6439 18.7065C80.7414 18.7065 81.6313 20.51 81.6313 22.5678C81.6313 25.1103 80.3203 26.3736 78.7949 26.3736C76.9119 26.3736 75.7995 24.7925 75.7995 22.5122C75.7995 20.1684 76.9834 18.7065 78.6439 18.7065Z" fill="#E6E6E6"/>
<path d="M87.4592 11.0477C87.3559 11.0477 87.2844 11.0953 87.2844 11.2224V28.1297C87.2844 28.2013 87.3559 28.3284 87.4592 28.3522C88.643 28.7177 89.8825 28.8925 91.1617 28.8925C94.8244 28.8925 98.3838 26.6202 98.3838 22.0437C98.3838 18.7306 96.1115 16.212 92.5521 16.212C91.7337 16.212 90.971 16.3391 90.3036 16.5616L90.2718 11.2463C90.2718 11.0715 90.2241 11.0477 90.0493 11.0477H87.4592ZM95.3408 22.3457C95.3408 25.0867 93.4657 26.3739 91.4397 26.3739C91.0186 26.3739 90.6452 26.35 90.3036 26.2467V19.0325C90.6929 18.8816 91.1617 18.7545 92.0277 18.7545C93.9822 18.7545 95.3408 19.9939 95.3408 22.3457Z" fill="#E6E6E6"/>
<path d="M108.436 23.2352C109.644 23.2352 110.637 23.2114 110.979 23.1319C111.106 23.1081 111.153 23.0604 111.177 22.9572C111.249 22.687 111.28 22.1229 111.28 21.4317C111.28 19.0799 109.866 16.2117 106.211 16.2117C102.477 16.2117 100.404 19.2547 100.404 22.687C100.404 25.73 102.008 28.8922 106.505 28.8922C108.19 28.8922 109.278 28.6221 110.216 28.1771C110.311 28.1294 110.359 28.05 110.359 27.907V25.8492C110.359 25.73 110.287 25.7062 110.216 25.7538C109.278 26.1511 108.261 26.3497 107.149 26.3497C104.63 26.3497 103.486 24.9593 103.415 23.2352H108.436ZM103.415 21.1059C103.613 19.8983 104.376 18.5873 106.084 18.5873C107.967 18.5873 108.46 20.1684 108.46 20.8835C108.46 20.9073 108.46 21.0106 108.46 21.0821C108.357 21.1059 108.039 21.1059 107.101 21.1059H103.415Z" fill="#E6E6E6"/>
</g>
<defs>
<clipPath id="clip0_74_4696">
<rect width="110.833" height="40" fill="white" transform="translate(0.583252 0.824997)"/>
</clipPath>
</defs>
</svg>
