<svg width="80" height="38" viewBox="0 0 80 38" fill="none" xmlns="http://www.w3.org/2000/svg">
<path d="M0.000976562 29.3209L8.21301 16.5427H0.9738C0.91245 16.1746 0.886158 15.7715 0.886158 15.3245C0.886158 14.895 0.91245 14.5006 0.9738 14.1413H12.6915L12.8405 14.5357L4.56711 27.3402H12.3234C12.3848 27.7433 12.411 28.164 12.411 28.5847C12.411 28.9878 12.3848 29.3735 12.3234 29.7416H0.149967L0.000976562 29.3209Z" fill="#E6E6E6"/>
<path d="M23.6994 19.4613C23.6994 18.2607 23.3926 17.4368 22.7879 16.9636C22.1832 16.4991 21.298 16.2624 20.1411 16.2624C19.4312 16.2624 18.7651 16.315 18.1516 16.4289C17.5294 16.5429 16.9334 16.6831 16.3375 16.8671C15.9518 16.2011 15.759 15.3948 15.759 14.4658C16.4514 14.2467 17.2051 14.0714 18.0377 13.9487C18.8703 13.826 19.6678 13.7646 20.4391 13.7646C22.4636 13.7646 24.0061 14.2291 25.0666 15.1494C26.1183 16.0696 26.6529 17.5508 26.6529 19.5753V29.3386C25.943 29.4963 25.0841 29.6716 24.0675 29.8381C23.0508 30.0134 22.0166 30.0923 20.9649 30.0923C19.9746 30.0923 19.0719 30.0046 18.2743 29.8206C17.4768 29.6366 16.7932 29.3473 16.2323 28.9354C15.6714 28.5323 15.2419 28.0152 14.9352 27.3842C14.6284 26.7531 14.4794 25.9907 14.4794 25.1055C14.4794 24.2378 14.6547 23.4666 15.0141 22.8093C15.3646 22.1519 15.8467 21.5998 16.4602 21.1704C17.0649 20.7321 17.766 20.4079 18.5636 20.1975C19.3523 19.9872 20.1849 19.8733 21.0613 19.8733C21.7099 19.8733 22.2445 19.8908 22.6564 19.9171C23.0683 19.9434 23.4189 19.9872 23.7081 20.0222V19.4613H23.6994ZM23.6994 22.4149C23.3926 22.371 23.007 22.336 22.5425 22.2922C22.078 22.2484 21.6836 22.2308 21.3593 22.2308C20.0973 22.2308 19.142 22.4675 18.4847 22.932C17.8274 23.3965 17.4943 24.1064 17.4943 25.0617C17.4943 25.6664 17.6083 26.1484 17.8274 26.4902C18.0465 26.832 18.3269 27.0949 18.66 27.279C18.993 27.463 19.3611 27.577 19.773 27.612C20.1762 27.6558 20.5618 27.6734 20.9299 27.6734C21.3944 27.6734 21.8764 27.6471 22.376 27.5945C22.8755 27.5419 23.3137 27.4718 23.6994 27.3666V22.4149Z" fill="#E6E6E6"/>
<path d="M29.9394 14.142C30.141 14.0982 30.3513 14.0719 30.5616 14.0543C30.772 14.0368 30.9911 14.028 31.219 14.028C31.4205 14.028 31.6309 14.0368 31.8587 14.0543C32.0778 14.0719 32.2969 14.1069 32.4985 14.142C32.516 14.1858 32.5423 14.3085 32.5774 14.5188C32.6037 14.7292 32.6387 14.957 32.665 15.2024C32.6913 15.4478 32.7264 15.6757 32.7527 15.9036C32.779 16.1314 32.7965 16.2717 32.7965 16.333C32.9981 16.0087 33.2435 15.6932 33.5239 15.3865C33.8044 15.0797 34.1462 14.8081 34.5406 14.5627C34.935 14.3173 35.3819 14.1245 35.8815 13.9842C36.381 13.844 36.9332 13.7739 37.5379 13.7739C38.4494 13.7739 39.2995 13.9229 40.0795 14.2296C40.8595 14.5364 41.5256 15.0009 42.0865 15.6407C42.6474 16.2804 43.0769 17.0955 43.3924 18.0771C43.7079 19.0587 43.8656 20.2243 43.8656 21.5652C43.8656 24.2471 43.1382 26.3417 41.6921 27.8492C40.2373 29.3566 38.1865 30.1191 35.5309 30.1191C35.0839 30.1191 34.6282 30.0928 34.1637 30.0314C33.6992 29.9701 33.2873 29.8912 32.9455 29.786V36.9376C32.7001 36.9814 32.4459 37.0077 32.1655 37.0252C31.8938 37.0428 31.6396 37.0515 31.4205 37.0515C31.2014 37.0515 30.9473 37.0428 30.6756 37.0252C30.4039 37.0077 30.1497 36.9727 29.9306 36.9376V14.142H29.9394ZM32.9543 27.1918C33.3399 27.3321 33.7343 27.4372 34.1374 27.4986C34.5406 27.5599 35.0664 27.5862 35.7237 27.5862C36.4512 27.5862 37.126 27.4723 37.7307 27.2357C38.3355 26.999 38.8613 26.6397 39.2995 26.1577C39.7377 25.6669 40.0795 25.0534 40.3337 24.3172C40.5878 23.581 40.7105 22.6958 40.7105 21.6879C40.7105 20.0666 40.4126 18.7782 39.8166 17.8229C39.2206 16.8676 38.239 16.3944 36.8806 16.3944C36.3723 16.3944 35.8903 16.482 35.417 16.6661C34.9525 16.8501 34.5318 17.1218 34.1725 17.4899C33.8044 17.858 33.5152 18.3137 33.2873 18.8746C33.0594 19.4355 32.9543 20.0929 32.9543 20.8641V27.1918Z" fill="#E6E6E6"/>
<path d="M47.6167 16.5076H45.636C45.5922 16.3411 45.5659 16.1571 45.5484 15.9467C45.5308 15.7364 45.5221 15.5261 45.5221 15.3245C45.5221 15.1229 45.5308 14.9126 45.5484 14.7022C45.5659 14.4919 45.6009 14.2991 45.636 14.1413H50.5702V29.7503C50.3511 29.7941 50.097 29.8204 49.8253 29.838C49.5536 29.8555 49.2994 29.8643 49.0803 29.8643C48.8787 29.8643 48.6421 29.8555 48.3616 29.838C48.09 29.8204 47.8358 29.7854 47.6167 29.7503V16.5076Z" fill="#E6E6E6"/>
<path d="M57.0469 22.6868C57.0908 24.387 57.529 25.6403 58.3703 26.4291C59.2117 27.2179 60.4562 27.6122 62.0951 27.6122C63.5324 27.6122 64.9084 27.3581 66.2055 26.8498C66.372 27.1565 66.5035 27.5246 66.5999 27.9628C66.7051 28.401 66.7576 28.8305 66.7839 29.2599C66.1179 29.5404 65.3817 29.7595 64.5754 29.8997C63.7778 30.0399 62.8839 30.11 61.9111 30.11C60.4913 30.11 59.273 29.9085 58.2564 29.5141C57.2397 29.1197 56.4072 28.5588 55.7498 27.8401C55.0925 27.1215 54.6105 26.2713 54.3037 25.281C53.997 24.2994 53.848 23.2214 53.848 22.0382C53.848 20.8814 53.997 19.8034 54.2862 18.7955C54.5754 17.7876 55.0312 16.92 55.6359 16.175C56.2406 15.4388 57.0119 14.8428 57.9321 14.4134C58.8524 13.9752 59.9479 13.7561 61.2012 13.7561C62.2791 13.7561 63.2169 13.9401 64.032 14.3082C64.847 14.6763 65.5219 15.1759 66.074 15.8157C66.6174 16.4554 67.0381 17.2179 67.3185 18.0944C67.599 18.9795 67.748 19.9348 67.748 20.969C67.748 21.2495 67.7392 21.5562 67.7129 21.8629C67.6954 22.1785 67.6691 22.4501 67.6516 22.6693H57.0469V22.6868ZM64.7769 20.4344C64.7769 19.8647 64.6981 19.3213 64.5491 18.8043C64.4001 18.2872 64.1722 17.8402 63.883 17.4546C63.585 17.0689 63.2169 16.7622 62.7612 16.5256C62.3054 16.2889 61.7621 16.175 61.131 16.175C59.8953 16.175 58.9488 16.5519 58.2827 17.2968C57.6254 18.0505 57.2222 19.0935 57.082 20.4344H64.7769Z" fill="#E6E6E6"/>
<path d="M71.0784 14.1413C71.2975 14.0975 71.5166 14.0712 71.7182 14.0537C71.9198 14.0361 72.1301 14.0274 72.358 14.0274C72.5771 14.0274 72.805 14.0361 73.0241 14.0537C73.2432 14.0712 73.4535 14.1063 73.6288 14.1413C73.6901 14.4481 73.7515 14.8425 73.8129 15.342C73.8742 15.8416 73.9005 16.2622 73.9005 16.6041C74.3299 15.9117 74.8908 15.3157 75.592 14.8074C76.2931 14.2991 77.1871 14.0449 78.2826 14.0449C78.4491 14.0449 78.6156 14.0537 78.7821 14.0624C78.9574 14.0712 79.0977 14.0887 79.2204 14.1063C79.2642 14.2903 79.2905 14.4831 79.308 14.6847C79.3255 14.8863 79.3343 15.0966 79.3343 15.3245C79.3343 15.5699 79.3167 15.824 79.2905 16.087C79.2642 16.3499 79.2203 16.6041 79.1853 16.8495C79.0188 16.8056 78.8522 16.7881 78.6857 16.7881C78.5104 16.7881 78.379 16.7881 78.2738 16.7881C77.7304 16.7881 77.2046 16.867 76.705 17.016C76.2055 17.165 75.7585 17.4367 75.3641 17.8223C74.9697 18.2079 74.6542 18.7337 74.4176 19.4086C74.1809 20.0747 74.067 20.9423 74.067 21.994V29.7503C73.8479 29.7941 73.5937 29.8204 73.3221 29.838C73.0504 29.8555 72.7962 29.8643 72.5771 29.8643C72.358 29.8643 72.1038 29.8555 71.8322 29.838C71.5605 29.8204 71.2975 29.7854 71.0521 29.7503V14.1413H71.0784Z" fill="#E6E6E6"/>
<path d="M53.436 4.9568H50.4912L52.5771 2.87093C52.4106 2.64306 52.2265 2.42396 52.0337 2.22238C51.8321 2.02081 51.6218 1.83676 51.3852 1.679L49.2993 3.76488V0.820113C49.0276 0.776293 48.7472 0.75 48.4579 0.75H48.4492C48.16 0.75 47.8795 0.776293 47.6078 0.820113V3.76488L45.5219 1.679C45.2941 1.84552 45.075 2.02957 44.8734 2.22238C44.6718 2.42396 44.4965 2.6343 44.33 2.87093L46.4247 4.9568H43.4799C43.4799 4.9568 43.4098 5.50895 43.4098 5.79817C43.4098 6.08738 43.4361 6.36784 43.4799 6.63953H46.4247L44.3388 8.7254C44.6631 9.18114 45.0662 9.58429 45.5307 9.91733L47.6166 7.83145V10.7762C47.8883 10.82 48.1687 10.8463 48.4579 10.8463H48.4667C48.7559 10.8463 49.0364 10.82 49.3081 10.7762V7.83145L51.3939 9.91733C51.6218 9.75081 51.8409 9.56676 52.0425 9.37395C52.2441 9.17237 52.4281 8.96203 52.5859 8.7254L50.5 6.63953H53.4448C53.4886 6.36784 53.5149 6.08738 53.5149 5.79817V5.7894C53.5061 5.50895 53.4886 5.22849 53.436 4.9568ZM49.72 5.80693C49.72 6.18379 49.6499 6.54312 49.5272 6.87616C49.1941 6.99886 48.8348 7.06897 48.4579 7.06897C48.0811 7.06897 47.7217 6.99886 47.3887 6.87616C47.266 6.54312 47.1959 6.18379 47.1959 5.80693V5.79817C47.1959 5.42131 47.266 5.06198 47.3887 4.72894C47.7217 4.60624 48.0811 4.53612 48.4579 4.53612C48.8348 4.53612 49.1941 4.60624 49.5272 4.72894C49.6499 5.06198 49.72 5.42131 49.72 5.80693Z" fill="#E6E6E6"/>
</svg>
