<svg width="14" height="14" viewBox="0 0 14 14" fill="none" xmlns="http://www.w3.org/2000/svg">
<g clip-path="url(#clip0_2978_15459)">
<path fill-rule="evenodd" clip-rule="evenodd" d="M7.52719 9.33126C8.10682 8.99532 8.61342 8.54686 9.01719 8.01226C8.88651 7.8105 8.79397 7.58645 8.74419 7.35126L8.72519 7.26326C8.67023 7.01225 8.54177 6.78329 8.3562 6.60556C8.17063 6.42782 7.93634 6.30936 7.68319 6.26526C5.61119 5.90526 5.61119 2.93126 7.68319 2.57026C7.92776 2.52779 8.15494 2.41581 8.33758 2.24771C8.52023 2.0796 8.65062 1.86248 8.71319 1.62226C8.22596 1.09133 7.62972 0.671987 6.96532 0.392962C6.30092 0.113936 5.58406 -0.0181783 4.86384 0.0056684C4.14362 0.0295151 3.43706 0.20876 2.79257 0.531123C2.14808 0.853486 1.58089 1.31135 1.12984 1.87335C0.678799 2.43535 0.354564 3.08821 0.179349 3.7872C0.0041343 4.48618 -0.0179202 5.21479 0.114697 5.92309C0.247313 6.6314 0.531467 7.30267 0.947694 7.89092C1.36392 8.47918 1.90238 8.97051 2.52619 9.33126V10.5003C2.52619 10.7655 2.63155 11.0198 2.81909 11.2074C3.00662 11.3949 3.26098 11.5003 3.52619 11.5003H6.52619C6.79141 11.5003 7.04576 11.3949 7.2333 11.2074C7.42084 11.0198 7.52619 10.7655 7.52619 10.5003L7.52719 9.33126ZM2.52719 13.2503C2.52719 13.0514 2.60621 12.8606 2.74686 12.7199C2.88752 12.5793 3.07828 12.5003 3.27719 12.5003H6.77719C6.97611 12.5003 7.16687 12.5793 7.30752 12.7199C7.44818 12.8606 7.52719 13.0514 7.52719 13.2503C7.52719 13.4492 7.44818 13.6399 7.30752 13.7806C7.16687 13.9212 6.97611 14.0003 6.77719 14.0003H3.27719C3.07828 14.0003 2.88752 13.9212 2.74686 13.7806C2.60621 13.6399 2.52719 13.4492 2.52719 13.2503ZM9.80719 1.71726C9.99019 0.881264 11.1802 0.876264 11.3702 1.71026L11.3792 1.75026L11.3972 1.82826C11.5045 2.28534 11.7439 2.70078 12.0854 3.02295C12.4269 3.34511 12.8556 3.55978 13.3182 3.64026C14.1902 3.79226 14.1902 5.04426 13.3182 5.19626C12.853 5.27723 12.4221 5.49384 12.0796 5.81889C11.7371 6.14394 11.4983 6.56294 11.3932 7.02326L11.3702 7.12526C11.1802 7.96026 9.98919 7.95526 9.80519 7.11826L9.78619 7.03126C9.68538 6.5694 9.4493 6.14802 9.10807 5.82086C8.76683 5.49369 8.33589 5.27555 7.87019 5.19426C6.99919 5.04326 6.99919 3.79326 7.87019 3.64126C8.33426 3.56056 8.76394 3.34397 9.10484 3.01892C9.44574 2.69387 9.68251 2.27497 9.78519 1.81526L9.80019 1.75026L9.80719 1.71726Z" fill="black"/>
</g>
<defs>
<clipPath id="clip0_2978_15459">
<rect width="14" height="14" fill="white"/>
</clipPath>
</defs>
</svg>
