<svg width="33" height="33" viewBox="0 0 33 33" fill="none" xmlns="http://www.w3.org/2000/svg">
<rect x="0.330078" y="0.830078" width="32" height="32" rx="8" fill="url(#paint0_linear_651_11430)"/>
<g clip-path="url(#clip0_651_11430)">
<path d="M19.0801 19.5801L24.9238 25.4238M20.7988 14.7676C20.7988 15.6253 20.6299 16.4746 20.3017 17.267C19.9734 18.0594 19.4924 18.7794 18.8859 19.3859C18.2794 19.9924 17.5594 20.4734 16.767 20.8017C15.9746 21.1299 15.1253 21.2988 14.2676 21.2988C13.4099 21.2988 12.5606 21.1299 11.7682 20.8017C10.9758 20.4734 10.2558 19.9924 9.64929 19.3859C9.0428 18.7794 8.56172 18.0594 8.23349 17.267C7.90526 16.4746 7.73633 15.6253 7.73633 14.7676C7.73633 13.0354 8.42444 11.3741 9.64929 10.1493C10.8741 8.92444 12.5354 8.23633 14.2676 8.23633C15.9998 8.23633 17.661 8.92444 18.8859 10.1493C20.1107 11.3741 20.7988 13.0354 20.7988 14.7676Z" stroke="white" stroke-width="2.0625" stroke-linecap="round" stroke-linejoin="round"/>
</g>
<defs>
<linearGradient id="paint0_linear_651_11430" x1="0.330078" y1="0.830078" x2="32.3301" y2="32.8301" gradientUnits="userSpaceOnUse">
<stop stop-color="#FF6363"/>
<stop offset="1" stop-color="#D72A2A"/>
</linearGradient>
<clipPath id="clip0_651_11430">
<rect width="22" height="22" fill="white" transform="translate(5.33008 5.83008)"/>
</clipPath>
</defs>
</svg>
