<svg width="33" height="33" viewBox="0 0 33 33" fill="none" xmlns="http://www.w3.org/2000/svg">
<rect x="0.984863" y="0.5" width="32" height="32" rx="8" fill="url(#paint0_linear_651_11491)"/>
<g clip-path="url(#clip0_651_11491)">
<path d="M15.2495 14.015L8.80078 20.9299C8.53653 21.2211 8.39014 21.6002 8.39014 21.9935C8.39014 22.3867 8.53653 22.7658 8.80078 23.057L10.2899 24.652C10.4152 24.7908 10.5683 24.9018 10.7392 24.9778C10.91 25.0537 11.095 25.093 11.282 25.093C11.469 25.093 11.6539 25.0537 11.8248 24.9778C11.9957 24.9018 12.1487 24.7908 12.274 24.652L18.72 17.7385M15.2495 14.015L15.7445 13.4829C16.0088 13.1917 16.1552 12.8126 16.1552 12.4193C16.1552 12.0261 16.0088 11.647 15.7445 11.3558L14.2568 9.76078L14.7518 9.22728C16.3963 7.46591 19.061 7.46591 20.7055 9.22728L25.1674 14.015C25.716 14.6022 25.716 15.555 25.1674 16.1422L23.681 17.7372C23.5557 17.8757 23.4028 17.9865 23.232 18.0623C23.0612 18.1382 22.8765 18.1773 22.6897 18.1773C22.5028 18.1773 22.3181 18.1382 22.1473 18.0623C21.9765 17.9865 21.8236 17.8757 21.6983 17.7372L21.2019 17.2064C21.0766 17.0676 20.9236 16.9566 20.7527 16.8807C20.5818 16.8047 20.3969 16.7655 20.2098 16.7655C20.0228 16.7655 19.8379 16.8047 19.667 16.8807C19.4961 16.9566 19.3431 17.0676 19.2178 17.2064L18.7228 17.7385M15.2495 14.015L18.72 17.7372" stroke="white" stroke-width="2.0625" stroke-linecap="round" stroke-linejoin="round"/>
</g>
<defs>
<linearGradient id="paint0_linear_651_11491" x1="0.984863" y1="0.5" x2="32.9849" y2="32.5" gradientUnits="userSpaceOnUse">
<stop stop-color="#86DCC2"/>
<stop offset="1" stop-color="#0F3D34"/>
</linearGradient>
<clipPath id="clip0_651_11491">
<rect width="22" height="22" fill="white" transform="translate(5.98486 5.5)"/>
</clipPath>
</defs>
</svg>
