<svg width="33" height="32" viewBox="0 0 33 32" fill="none" xmlns="http://www.w3.org/2000/svg">
<rect x="0.330078" width="32" height="32" rx="8" fill="url(#paint0_linear_651_11476)"/>
<g clip-path="url(#clip0_651_11476)">
<path d="M11.1738 15.6569L8.82116 18.2749C8.4742 18.6179 8.19847 19.0261 8.00982 19.476C7.82118 19.926 7.72334 20.4088 7.72194 20.8966C7.72054 21.3845 7.8156 21.8679 8.00165 22.3189C8.18771 22.7699 8.46109 23.1797 8.80607 23.5246C9.15105 23.8696 9.56083 24.143 10.0118 24.3291C10.4628 24.5151 10.9462 24.6102 11.4341 24.6088C11.9219 24.6074 12.4047 24.5095 12.8547 24.3209C13.3046 24.1322 13.7128 23.8565 14.0558 23.5095L16.6738 21.1569M21.4863 16.3444L23.8389 13.7264C24.1923 13.3849 24.4741 12.9764 24.668 12.5248C24.8618 12.0732 24.9638 11.5875 24.968 11.0961C24.9721 10.6047 24.8784 10.1174 24.6922 9.66254C24.506 9.20773 24.2312 8.79454 23.8836 8.44708C23.5361 8.09962 23.1228 7.82485 22.6679 7.6388C22.2131 7.45274 21.7257 7.35913 21.2343 7.36342C20.7429 7.36771 20.2572 7.46982 19.8057 7.66379C19.3541 7.85775 18.9457 8.1397 18.6043 8.49317L15.9863 10.8444M14.6113 17.7194L18.0488 14.2819" stroke="white" stroke-width="2.0625" stroke-linecap="round" stroke-linejoin="round"/>
</g>
<defs>
<linearGradient id="paint0_linear_651_11476" x1="0.330078" y1="0" x2="32.3301" y2="32" gradientUnits="userSpaceOnUse">
<stop stop-color="#FF6363"/>
<stop offset="1" stop-color="#D72A2A"/>
</linearGradient>
<clipPath id="clip0_651_11476">
<rect width="22" height="22" fill="white" transform="translate(5.33008 5)"/>
</clipPath>
</defs>
</svg>
